<?xml version="1.0" encoding="UTF-8"?> <svg xmlns="http://www.w3.org/2000/svg" viewBox="0 0 686.66 106.23"> <defs> <style>.cls-1{fill:#e89cc2;}</style> </defs> <title>LOGO_UPD</title> <g id="Layer_2" data-name="Layer 2"> <g id="fbPage"> <path class="cls-1" d="M0,2.78H31.58A29.42,29.42,0,0,1,44.94,5.86a25,25,0,0,1,9.86,8.75,23.81,23.81,0,0,1,3.71,13.33,24.25,24.25,0,0,1-3.46,12.91,24.74,24.74,0,0,1-9.49,9A27.81,27.81,0,0,1,32,53.1H17.13V79.67H0ZM28.69,39.39a13.63,13.63,0,0,0,6.4-1.46,10.93,10.93,0,0,0,6-10A11.3,11.3,0,0,0,39.52,22,10.79,10.79,0,0,0,35.19,18a13.85,13.85,0,0,0-6.5-1.46H17.13v22.9Z"></path> <path class="cls-1" d="M72,104.29a29.38,29.38,0,0,1-9.34-5.4,22.07,22.07,0,0,1-5.93-8.1l11.56-7.56a15.1,15.1,0,0,0,5.52,7.45,14.65,14.65,0,0,0,8.92,2.92,12.4,12.4,0,0,0,6.92-1.95,13.49,13.49,0,0,0,4.69-5.23A15.85,15.85,0,0,0,96.08,79L96,70.38A16.92,16.92,0,0,1,92.2,76.1a16.5,16.5,0,0,1-5.26,3.51,15.32,15.32,0,0,1-6,1.24,16.26,16.26,0,0,1-15.43-9.77,25.38,25.38,0,0,1-2.22-11V24.38H78.84V57.53a13.48,13.48,0,0,0,.93,5.24,8,8,0,0,0,2.79,3.51,7.24,7.24,0,0,0,4.23,1.29,8.37,8.37,0,0,0,4.59-1.35,8.79,8.79,0,0,0,3.25-3.78,12.94,12.94,0,0,0,1.14-5.56V24.38h15.48l.1,54.64a27.59,27.59,0,0,1-3.61,14.09,25.37,25.37,0,0,1-10,9.67,29.44,29.44,0,0,1-14.29,3.45A33.55,33.55,0,0,1,72,104.29Z"></path> <path class="cls-1" d="M136.36,76.75a35,35,0,0,1-13.05-14.42,46.28,46.28,0,0,1-4.65-21.11,48.7,48.7,0,0,1,4.39-21.11A34.47,34.47,0,0,1,135.33,5.7,33.46,33.46,0,0,1,168.15,4,31.66,31.66,0,0,1,179.4,13.8a34.81,34.81,0,0,1,5.93,14.47l-16,3.45A24.19,24.19,0,0,0,166,23.41a16.76,16.76,0,0,0-5.57-5.4,13.58,13.58,0,0,0-7-2,14.08,14.08,0,0,0-9,3.19,20.63,20.63,0,0,0-6.19,9,36,36,0,0,0-2.22,13,32.07,32.07,0,0,0,2.53,13,21.36,21.36,0,0,0,6.91,9,17.39,17.39,0,0,0,18.79.81,19.25,19.25,0,0,0,6.6-6.75A28.2,28.2,0,0,0,174.39,47l16.2,2.59a40.15,40.15,0,0,1-6,17,32.85,32.85,0,0,1-12.34,11.39,37.52,37.52,0,0,1-35.86-1.19Z"></path> <path class="cls-1" d="M207.59,77.78a24.32,24.32,0,0,1-9.5-10.26A34,34,0,0,1,194.74,52a34,34,0,0,1,3.35-15.49,24.32,24.32,0,0,1,9.5-10.26,29.52,29.52,0,0,1,28.33,0,24.44,24.44,0,0,1,9.44,10.26A34,34,0,0,1,248.71,52a34,34,0,0,1-3.35,15.5,24.44,24.44,0,0,1-9.44,10.26,29.6,29.6,0,0,1-28.33,0Zm20.23-12.15a12.17,12.17,0,0,0,4-5.46A21.91,21.91,0,0,0,233.23,52a22,22,0,0,0-1.39-8.15,12.14,12.14,0,0,0-4-5.45,9.89,9.89,0,0,0-6-2,10,10,0,0,0-6.14,2,11.7,11.7,0,0,0-4,5.45A22.64,22.64,0,0,0,210.32,52a22.56,22.56,0,0,0,1.35,8.15,11.73,11.73,0,0,0,4,5.46,10,10,0,0,0,6.14,1.94A9.89,9.89,0,0,0,227.82,65.63Z"></path> <path class="cls-1" d="M254.79,24.38h13.1l2.28,9.18a18.18,18.18,0,0,1,6.24-7.83,15.19,15.19,0,0,1,8.93-2.86,17.5,17.5,0,0,1,9.13,2.37,15.79,15.79,0,0,1,6.14,6.86,24.28,24.28,0,0,1,2.17,10.64V79.67H287.3V46.51a12.88,12.88,0,0,0-1-5.23,8.44,8.44,0,0,0-2.79-3.51,7.19,7.19,0,0,0-4.28-1.3,8.1,8.1,0,0,0-4.6,1.35,9,9,0,0,0-3.14,3.78,13,13,0,0,0-1.14,5.56V79.67H254.79Z"></path> <path class="cls-1" d="M312.49,2.78h33.95a28,28,0,0,1,12.38,2.65,21,21,0,0,1,8.62,7.45,19.22,19.22,0,0,1,3.14,10.74,18.73,18.73,0,0,1-3.14,10.64,14.34,14.34,0,0,1-8,6.1A16.28,16.28,0,0,1,368.62,47,19.91,19.91,0,0,1,369,69.3a22.06,22.06,0,0,1-8.93,7.61,29.17,29.17,0,0,1-12.9,2.76H312.49Zm30.95,31.75a10.53,10.53,0,0,0,5.16-1.24,9.64,9.64,0,0,0,3.56-3.24,8.47,8.47,0,0,0,1.29-4.7,8.55,8.55,0,0,0-4.85-7.94,11.45,11.45,0,0,0-5.16-1.13H329.82V34.53Zm.11,31.64a13.48,13.48,0,0,0,5.83-1.24,9.63,9.63,0,0,0,4.07-3.46,8.73,8.73,0,0,0,1.45-4.91,9.41,9.41,0,0,0-1.45-5.19,9.53,9.53,0,0,0-4.07-3.51,13.63,13.63,0,0,0-5.83-1.24H329.82V66.17Z"></path> <path class="cls-1" d="M395.06,52.89,371.54,2.78H389.7l14.13,33.8,13.32-33.8h18.47L412.5,52.89V79.67H395.06Z"></path> <path class="cls-1" d="M480.47,12a3.32,3.32,0,1,1-3.27,3.33A3.3,3.3,0,0,1,480.47,12m9.42-5.34a48.6,48.6,0,0,0-8.32.71c-7.38,1.3-8.72,4-8.72,9.06V23h17.43v2.21h-24c-5.06,0-9.49,3-10.88,8.83a32.58,32.58,0,0,0,0,17.71c1.24,5.16,4.2,8.84,9.26,8.84h6v-8a11.08,11.08,0,0,1,10.89-10.83H499A8.78,8.78,0,0,0,507.69,33V16.4c0-4.73-4-8.27-8.72-9.06a53.51,53.51,0,0,0-9.08-.71"></path> <path class="cls-1" d="M500.07,67.27a3.32,3.32,0,1,1-3.27,3.31,3.29,3.29,0,0,1,3.27-3.31m9.79-42V33A11.18,11.18,0,0,1,499,44h-17.4a8.89,8.89,0,0,0-8.72,8.85V69.48c0,4.73,4.11,7.5,8.72,8.86a29.19,29.19,0,0,0,17.4,0c4.39-1.27,8.71-3.83,8.71-8.86V62.84h-17.4V60.63H516.4c5.06,0,7-3.53,8.71-8.84s1.74-10.7,0-17.71c-1.25-5-3.64-8.83-8.71-8.83Z"></path> <path class="cls-1" d="M549.69,33.5a10.76,10.76,0,0,1-3.46-4.91A21.91,21.91,0,0,1,545,20.82a27.53,27.53,0,0,1,2.53-12.26,15.07,15.07,0,0,1,7.12-7.29A14.86,14.86,0,0,1,565,.62l-1.13,4.11a10.27,10.27,0,0,0-7.07.32,11.05,11.05,0,0,0-5.21,4.8A18.58,18.58,0,0,0,549.33,18a10.53,10.53,0,0,1,7-1.35,8.66,8.66,0,0,1,5.42,3.13,9.33,9.33,0,0,1,2.07,6.1,9.13,9.13,0,0,1-2.58,6.64,8.57,8.57,0,0,1-6.4,2.65A8.23,8.23,0,0,1,549.69,33.5Z"></path> <path class="cls-1" d="M610.62,3.65a20.9,20.9,0,0,1,8.56,8.74A26.86,26.86,0,0,1,622.12,25a23.61,23.61,0,0,1-2.47,11.23,22.94,22.94,0,0,1-6.5,7.66,49.46,49.46,0,0,1-10,5.62,59.34,59.34,0,0,0-8.61,4.1,24.18,24.18,0,0,0-5.88,4.54,8,8,0,0,0-2,5.5v2.6h35.19V79.67H569.18V67.36q0-8.2,3.31-13.34t6.34-6.91q3-1.78,13.06-7.18a48.3,48.3,0,0,0,7-3.94,15,15,0,0,0,4.29-4.54,12.23,12.23,0,0,0,1.6-6.42,13.05,13.05,0,0,0-1-5.19A8.4,8.4,0,0,0,601,16.28a7,7,0,0,0-4.18-1.3q-4.12,0-6.6,4.11t-2.58,11.66l-17.14-3.13a32.36,32.36,0,0,1,3.82-14.15,24.38,24.38,0,0,1,9.34-9.55A27.21,27.21,0,0,1,597.46.51,26.61,26.61,0,0,1,610.62,3.65Z"></path> <path class="cls-1" d="M639.91,76.91A31.9,31.9,0,0,1,629.23,62.6a56.54,56.54,0,0,1-3.76-21.38,56.61,56.61,0,0,1,3.76-21.38,31.92,31.92,0,0,1,10.68-14.3,28.09,28.09,0,0,1,32.15,0A32.52,32.52,0,0,1,682.84,19.9a55.33,55.33,0,0,1,3.82,21.32,55.35,55.35,0,0,1-3.82,21.33,32.52,32.52,0,0,1-10.78,14.31,28.13,28.13,0,0,1-32.15,0Zm23.58-13.17a19.67,19.67,0,0,0,4.8-8.91,50.22,50.22,0,0,0,1.65-13.61,50.19,50.19,0,0,0-1.65-13.6,19.67,19.67,0,0,0-4.8-8.91,10.62,10.62,0,0,0-15,0,19.35,19.35,0,0,0-4.75,8.91,52,52,0,0,0-1.6,13.6,52,52,0,0,0,1.6,13.61,19.35,19.35,0,0,0,4.75,8.91,10.62,10.62,0,0,0,15,0Z"></path> </g> </g> </svg> 