<?xml version="1.0" encoding="UTF-8" standalone="no"?>
<!-- Created with Inkscape (http://www.inkscape.org/) -->

<svg
   xmlns:dc="http://purl.org/dc/elements/1.1/"
   xmlns:cc="http://creativecommons.org/ns#"
   xmlns:rdf="http://www.w3.org/1999/02/22-rdf-syntax-ns#"
   xmlns:svg="http://www.w3.org/2000/svg"
   xmlns="http://www.w3.org/2000/svg"
   xmlns:xlink="http://www.w3.org/1999/xlink"
   xmlns:sodipodi="http://sodipodi.sourceforge.net/DTD/sodipodi-0.dtd"
   xmlns:inkscape="http://www.inkscape.org/namespaces/inkscape"
   width="419.78955mm"
   height="63.914616mm"
   viewBox="0 0 419.78955 63.914616"
   version="1.1"
   id="svg8"
   inkscape:version="0.92.3 (2405546, 2018-03-11)"
   sodipodi:docname="itechmeetup.svg">
  <defs
     id="defs2">
    <linearGradient
       inkscape:collect="always"
       id="linearGradient909">
      <stop
         style="stop-color:#fb533b;stop-opacity:1"
         offset="0"
         id="stop905" />
      <stop
         style="stop-color:#d30303;stop-opacity:1"
         offset="1"
         id="stop907" />
    </linearGradient>
    <linearGradient
       inkscape:collect="always"
       xlink:href="#linearGradient909"
       id="linearGradient911"
       x1="-332.36707"
       y1="-89.045403"
       x2="87.422478"
       y2="-89.045403"
       gradientUnits="userSpaceOnUse"
       spreadMethod="pad" />
  </defs>
  <sodipodi:namedview
     id="base"
     pagecolor="#ffffff"
     bordercolor="#666666"
     borderopacity="1.0"
     inkscape:pageopacity="0.0"
     inkscape:pageshadow="2"
     inkscape:zoom="0.49497475"
     inkscape:cx="735.90913"
     inkscape:cy="114.22024"
     inkscape:document-units="mm"
     inkscape:current-layer="layer1"
     showgrid="false"
     fit-margin-top="0"
     fit-margin-left="0"
     fit-margin-right="0"
     fit-margin-bottom="0"
     inkscape:window-width="1262"
     inkscape:window-height="682"
     inkscape:window-x="2234"
     inkscape:window-y="157"
     inkscape:window-maximized="0" />
  <metadata
     id="metadata5">
    <rdf:RDF>
      <cc:Work
         rdf:about="">
        <dc:format>image/svg+xml</dc:format>
        <dc:type
           rdf:resource="http://purl.org/dc/dcmitype/StillImage" />
        <dc:title></dc:title>
      </cc:Work>
    </rdf:RDF>
  </metadata>
  <g
     inkscape:label="Layer 1"
     inkscape:groupmode="layer"
     id="layer1"
     transform="translate(332.36708,121.00271)">
    <path
       inkscape:connector-curvature="0"
       id="path834"
       d="m 51.807918,-82.840875 v -25.752785 h 4.40972 4.40972 v 1.91946 c 0,1.0557 0.13057,2.00016 0.29016,2.09879 0.15959,0.0986 0.9514,-0.52335 1.75962,-1.38218 0.80817,-0.85883 2.3048,-2.00172 3.32581,-2.53976 1.70286,-0.89736 2.17724,-0.97825 5.7369,-0.97825 3.61012,0 4.04037,0.0761 6.17362,1.09269 4.04396,1.92705 6.73103,5.20897 8.34813,10.196205 1.20629,3.72023 1.53691,10.9506 0.68555,14.99305 -1.93424,9.18461 -8.83983,14.65936 -16.86119,13.36756 -2.7438,-0.44188 -4.64181,-1.40398 -6.69082,-3.39154 -0.90307,-0.876 -1.81588,-1.48522 -2.02847,-1.35383 -0.26314,0.16263 -0.38654,2.99151 -0.38654,8.86113 v 8.62224 h -4.58611 -4.5861 z m 20.91341,5.16735 c 1.82869,-0.76853 4.01337,-3.42653 4.73233,-5.75758 0.97073,-3.14727 0.84523,-9.8172 -0.23732,-12.6103 -2.16891,-5.596255 -7.34963,-7.734885 -11.91274,-4.917665 -3.4018,2.100245 -5.22951,8.151805 -4.3332,14.347205 0.65593,4.53376 2.20275,7.28084 4.90311,8.70776 1.54221,0.81492 5.167,0.93698 6.84782,0.23058 z m -330.881308,7.56711 c -5.57696,-1.59606 -9.39194,-5.82639 -11.11699,-12.32732 -0.94097,-3.54606 -1.02101,-10.74181 -0.15929,-14.31907 2.07121,-8.598185 7.9279,-13.251965 16.67734,-13.251965 3.64289,0 6.03537,0.49186 8.85321,1.8201 5.5889,2.63441 8.63426,8.284975 9.14343,16.965325 0.12235,2.0858 0.15851,3.82695 0.0804,3.86922 -0.0782,0.0423 -5.77772,0.16134 -12.6657,0.26459 l -12.52361,0.18771 0.076,1.84219 c 0.29037,7.04104 8.10045,9.89151 13.69302,4.99759 l 1.97067,-1.7245 h 4.21281 c 4.90952,0 4.83508,-0.0818 3.15517,3.46919 -1.94763,4.11694 -6.39574,7.48241 -11.21876,8.48819 -2.75586,0.5747 -7.66036,0.43917 -10.17763,-0.28125 z m 12.91557,-23.83075 c 0.33533,-0.40404 0.30048,-0.94376 -0.1641,-2.54186 -1.08468,-3.731175 -4.15725,-5.746655 -8.05858,-5.286095 -3.07513,0.36303 -5.454,2.469985 -6.26907,5.552485 -0.75512,2.85577 -0.92522,2.78843 7.0426,2.78843 5.71405,0 7.1028,-0.0956 7.44915,-0.51296 z m 26.75856,23.98335 c -2.84841,-0.78451 -4.98067,-2.01921 -6.99102,-4.04817 -3.82531,-3.86073 -5.34841,-8.31525 -5.37435,-15.71806 -0.0109,-3.1232 0.17192,-5.36656 0.57329,-7.03276 1.66535,-6.913295 6.23598,-11.620355 12.55967,-12.934555 2.47387,-0.51412 8.4182,-0.21755 10.8472,0.54119 2.71705,0.84871 5.98951,3.23709 7.53346,5.49822 1.41714,2.07542 2.88641,5.423595 2.53447,5.775535 -0.11818,0.11818 -2.25165,0.21487 -4.74106,0.21487 h -4.52619 l -1.67682,-1.72866 c -4.0196,-4.143875 -10.10692,-3.086805 -12.47938,2.16707 -0.76554,1.69529 -0.83757,2.32447 -0.8383,7.3227 -7.1e-4,4.99785 0.0711,5.62707 0.83512,7.31719 2.50016,5.53057 8.53761,6.67627 13.28584,2.5212 l 1.97068,-1.7245 h 4.2128 c 4.93854,0 4.93649,-0.002 3.12077,3.59455 -2.09433,4.14885 -6.39407,7.36388 -11.18435,8.36283 -2.45701,0.51238 -7.58216,0.44413 -9.66183,-0.12865 z m 136.980669,-0.39256 c -5.632979,-1.5148 -9.541121,-5.42357 -11.55513,-11.55703 -0.820772,-2.49955 -0.947984,-3.48046 -0.968128,-7.46386 -0.01764,-3.47723 0.131692,-5.09344 0.617291,-6.68433 2.085587,-6.832745 6.603894,-11.455285 12.765687,-13.060225 11.171096,-2.9097 20.87513,5.6032 21.099779,18.509835 l 0.05221,2.99861 -12.699999,0.18757 c -6.985,0.10316 -12.739687,0.22223 -12.788194,0.26458 -0.259116,0.22628 -0.0187,2.21823 0.483623,4.00895 1.13612,4.04906 4.096984,6.14769 8.600404,6.09583 2.827267,-0.0326 4.643473,-0.89285 6.6161,-3.13385 l 1.410335,-1.60225 h 3.747911 c 2.932395,0 3.747876,0.10483 3.747876,0.48177 0,0.26497 -0.570019,1.6212 -1.266755,3.01383 -2.107,4.21166 -5.277061,6.8044 -9.78803,8.00547 -2.347348,0.62498 -7.636228,0.59091 -10.07498,-0.0649 z m 12.556384,-23.6614 c 0.338138,-0.8811 -0.49911,-3.64817 -1.584607,-5.23727 -2.686403,-3.932635 -9.264332,-4.055865 -12.432347,-0.2329 -1.124479,1.35696 -2.302898,4.67409 -1.969311,5.54341 0.162665,0.42391 1.513839,0.51033 7.979092,0.51033 6.915467,0 7.808206,-0.0651 8.007173,-0.58357 z m 26.954726,23.6614 c -5.882922,-1.58201 -10.121441,-6.16165 -11.913905,-12.87276 -0.748629,-2.80296 -0.836789,-9.23023 -0.164112,-11.96896 0.776076,-3.15997 2.731452,-6.866905 4.801799,-9.103135 6.512913,-7.03469 18.302111,-7.17102 24.363644,-0.28175 3.078692,3.49909 5.100673,9.199655 5.100673,14.380205 v 2.76579 h -12.480431 c -10.067572,0 -12.557054,0.0924 -12.876988,0.47784 -0.285115,0.34354 -0.295769,1.00936 -0.03792,2.36892 0.982769,5.18218 3.608141,7.45629 8.638399,7.4826 3.377424,0.0177 5.19624,-0.93817 7.8226,-4.11104 0.734765,-0.88763 0.915882,-0.92666 4.300714,-0.92666 1.943523,0 3.629166,0.15453 3.7459,0.3434 0.38996,0.631 -2.204015,5.59504 -3.83473,7.3384 -2.998646,3.20582 -6.932718,4.68182 -12.373186,4.64221 -1.753976,-0.0128 -4.045585,-0.25355 -5.092453,-0.53506 z m 12.609336,-23.54224 c 0.44711,-0.53869 0.0078,-2.48595 -1.009756,-4.47448 -3.226788,-6.306925 -13.543209,-4.503785 -14.69076,2.56771 -0.396063,2.4406 -0.623323,2.37118 7.762522,2.37118 5.814907,0 7.641272,-0.10685 7.937994,-0.46441 z m 47.502368,23.49399 c -2.70323,-0.92058 -5.19627,-3.59196 -6.21523,-6.65981 -0.78081,-2.35077 -0.81323,-2.93876 -0.93716,-16.98714 l -0.12837,-14.552085 h 4.61052 4.61052 l 0.004,11.377085 c 0,6.2574 0.15399,12.30499 0.33973,13.43908 0.73338,4.4781 2.48916,6.22829 6.24811,6.22829 3.67768,0 5.80281,-1.38364 7.05161,-4.59111 0.53477,-1.37358 0.63292,-3.22426 0.74344,-14.01792 l 0.12735,-12.435425 h 4.564985 4.56497 l -0.0913,18.961815 -0.0913,18.9618 -4.02866,0.10031 c -2.9857,0.0743 -4.103055,-0.017 -4.316095,-0.35278 -0.15815,-0.2492 -0.28995,-1.3659 -0.29291,-2.48156 -0.004,-1.11565 -0.12446,-2.02839 -0.26998,-2.02829 -0.14552,9e-5 -0.93712,0.78111 -1.75909,1.73559 -0.91486,1.06234 -2.28311,2.12147 -3.52778,2.73079 -1.78104,0.87191 -2.49276,1.00634 -5.73744,1.08372 -2.75064,0.0656 -4.15823,-0.0663 -5.46805,-0.51236 z m -305.869663,-0.18722 c -0.0911,-0.24254 -0.20513,-9.64848 -0.25351,-20.90209 l -0.0879,-20.461115 -7.23194,-0.17639 -7.23194,-0.17639 -0.0993,-3.91637 c -0.0777,-3.06565 0.0108,-4.00774 0.4076,-4.33703 0.38128,-0.31644 4.87871,-0.39496 18.15366,-0.31696 17.18964,0.10101 17.67205,0.12254 18.62061,0.83105 1.96013,1.46409 2.42849,2.4683 2.42849,5.20695 v 2.53236 l -7.23194,0.17639 -7.23194,0.17639 -0.18345,20.813895 c -0.10091,11.44764 -0.21997,20.85358 -0.26459,20.90208 -0.0446,0.0485 -2.22924,0.0882 -4.85471,0.0882 -3.49536,0 -4.81791,-0.11808 -4.93915,-0.44097 z m 96.0257,0.20578 c -0.12936,-0.12935 -0.23519,-11.46299 -0.23519,-25.18586 0,-27.988445 -0.2834,-25.386105 2.76288,-25.370535 2.59105,0.0132 4.317,0.55871 5.49635,1.73708 l 1.08938,1.08848 0.10992,6.25592 c 0.0605,3.44077 0.25372,6.40156 0.42946,6.57956 0.19269,0.19515 1.02894,-0.33993 2.1065,-1.34787 2.83365,-2.65054 4.39938,-3.20909 8.99579,-3.20909 3.53446,0 4.05964,0.0879 5.88864,0.98611 3.9652,1.9472 7.0316,5.50058 8.28198,9.597225 0.57774,1.89288 0.64604,3.53402 0.64604,15.52222 v 13.40556 h -4.58611 -4.58611 l -0.17639,-12.17083 c -0.17055,-11.76856 -0.20325,-12.22914 -0.98905,-13.93473 -1.54575,-3.35505 -4.03697,-5.093265 -7.32015,-5.107535 -2.33625,-0.0102 -5.05855,1.33035 -6.27673,3.090745 -2.0453,2.95568 -2.11866,3.48605 -2.26734,16.39249 l -0.13716,11.90625 h -4.49877 c -2.47432,0 -4.60459,-0.10583 -4.73394,-0.23519 z m 187.8603426,-0.1259 c -3.06473,-0.44625 -4.99925,-1.65609 -6.1401396,-3.83999 l -0.9804,-1.87671 v -12.45813 c 0,-10.8552 -0.0713,-12.529465 -0.55436,-13.012495 -0.39729,-0.39729 -1.24696,-0.55437 -2.998607,-0.55437 h -2.444256 v -3.175 -3.175 h 2.575278 c 1.532605,0 2.746655,-0.17139 2.998615,-0.42333 0.29245,-0.29244 0.42333,-2.09549 0.42333,-5.83138 v -5.40803 l 4.4979196,0.0987 4.49791,0.0987 0.0978,5.45316 c 0.0685,3.8207 0.22691,5.53521 0.52917,5.72724 0.23724,0.15074 1.82044002,0.27651 3.51818,0.27948 l 3.08681,0.005 v 3.175 3.175 h -2.96976 c -1.63335998,0 -3.22085998,0.0964 -3.52778,0.21413 -0.49166,0.18867 -0.55802,1.47051 -0.55802,10.777255 0,11.8519 0.073,12.26482 2.29757002,12.999 0.68833998,0.22717 2.00077998,0.35945 2.91655998,0.29397 l 1.66504,-0.11907 0.0996,3.74284 0.0996,3.74285 -1.64818,0.2259 c -2.03553,0.279 -5.00609,0.22533 -7.48192,-0.13518 z M -149.98097,-95.188095 v -24.694455 h 6.86676 c 6.18159,0 6.89897,0.0616 7.18959,0.61736 0.28849,0.55165 9.53177,29.236655 10.35155,32.124315 0.77326,2.72381 1.29799,1.49301 5.98764,-14.044455 2.48892,-8.24618 4.76881,-15.82649 5.06641,-16.84513 l 0.54109,-1.85209 h 7.04569 7.045715 v 24.704995 24.70498 l -4.497915,-0.09873 -4.49792,-0.09874 -0.0916,-17.22619 c -0.0718,-13.512215 -0.18591,-17.197615 -0.52916,-17.093645 -0.24068,0.0729 -2.36698,5.999075 -4.72511,13.169255 -2.35812,7.17018 -4.89812,14.86232 -5.64444,17.09364 l -1.35694,4.05694 -3.74455,0.0996 -3.74456,0.0996 -4.12183,-12.62325 c -6.65347,-20.376535 -7.03213,-21.442705 -7.61545,-21.442705 -0.46179,0 -0.54082,2.16717 -0.62075,17.021525 l -0.0916,17.02153 h -4.40633 -4.40633 z m -182.14088,24.1165 c -0.13488,-0.13486 -0.24523,-2.20312 -0.24523,-4.59613 v -4.35093 h 4.77306 4.77303 l -0.0987,4.49792 -0.0987,4.49791 -4.4291,0.0982 c -2.43599,0.054 -4.53944,-0.0121 -4.67429,-0.147 z m 15.62977,-17.59011 v -17.815285 h 4.58612 4.58612 v 17.815285 17.81527 h -4.58612 -4.58612 z m -14.0229,-8.54395 -1.8521,-0.13598 v -3.103925 c 0,-3.4114 0.43766,-5.15767 1.42503,-5.6861 0.3549,-0.18993 2.32718,-0.34533 4.38286,-0.34533 h 3.73759 l -0.0984,4.6743 -0.0984,4.674315 -2.82222,0.0294 c -1.55223,0.0162 -3.65567,-0.0318 -4.67431,-0.10663 z m 14.07491,-17.904725 c 0.17687,-4.24984 0.52986,-4.55671 5.42505,-4.71608 l 3.69518,-0.12031 v 3.91267 3.91266 h -4.62232 -4.62232 z"
       style="fill:url(#linearGradient911);stroke-width:0.35277778;fill-opacity:1;opacity:1" />
    <path
       inkscape:connector-curvature="0"
       id="path828"
       d="m -258.15999,-70.106415 c -5.57695,-1.59606 -9.39193,-5.82639 -11.11698,-12.32732 -0.94097,-3.54606 -1.02101,-10.74181 -0.15929,-14.31907 2.07121,-8.598185 7.9279,-13.251965 16.67734,-13.251965 3.64289,0 6.03537,0.49186 8.85321,1.8201 5.5889,2.63441 8.63426,8.284975 9.14343,16.965325 0.12235,2.0858 0.15851,3.82695 0.0804,3.86922 -0.0782,0.0423 -5.77772,0.16134 -12.6657,0.26459 l -12.52361,0.18771 0.076,1.84219 c 0.29037,7.04104 8.10045,9.89151 13.69302,4.99759 l 1.97067,-1.7245 h 4.21281 c 4.90952,0 4.83508,-0.0818 3.15517,3.46919 -1.94763,4.11694 -6.39574,7.48241 -11.21876,8.48819 -2.75586,0.5747 -7.66036,0.43917 -10.17763,-0.28125 z m 12.91557,-23.83075 c 0.33533,-0.40404 0.30048,-0.94376 -0.16409,-2.54186 -1.08468,-3.731175 -4.15726,-5.746655 -8.05858,-5.286095 -3.07513,0.36303 -5.454,2.469985 -6.26907,5.552485 -0.75513,2.85577 -0.92522,2.78843 7.0426,2.78843 5.71405,0 7.1028,-0.0956 7.44914,-0.51296 z m 26.75857,23.98335 c -2.84841,-0.78451 -4.98067,-2.01921 -6.99103,-4.04817 -3.82531,-3.86073 -5.34841,-8.31525 -5.37435,-15.71806 -0.0109,-3.1232 0.17192,-5.36656 0.5733,-7.03276 1.66535,-6.913295 6.23598,-11.620355 12.55967,-12.934555 2.47386,-0.51412 8.4182,-0.21755 10.8472,0.54119 2.71705,0.84871 5.98951,3.23709 7.53346,5.49822 1.41714,2.07542 2.88641,5.423595 2.53447,5.775535 -0.11818,0.11818 -2.25165,0.21487 -4.74106,0.21487 h -4.52619 l -1.67682,-1.72866 c -4.0196,-4.143875 -10.10693,-3.086805 -12.47939,2.16707 -0.76553,1.69529 -0.83757,2.32447 -0.8383,7.3227 -7.1e-4,4.99785 0.0711,5.62707 0.83513,7.31719 2.50016,5.53057 8.53761,6.67627 13.28584,2.5212 l 1.97068,-1.7245 h 4.2128 c 4.93854,0 4.93649,-0.002 3.12077,3.59455 -2.09433,4.14885 -6.39407,7.36388 -11.18435,8.36283 -2.45701,0.51238 -7.58216,0.44413 -9.66183,-0.12865 z m -69.26618,-0.62803 c -0.0911,-0.24254 -0.20513,-9.64848 -0.25351,-20.90209 l -0.0879,-20.461115 -7.23194,-0.17639 -7.23194,-0.17639 -0.0993,-3.91637 c -0.0777,-3.06565 0.0108,-4.00774 0.4076,-4.33703 0.38128,-0.31644 4.87871,-0.39496 18.15366,-0.31696 17.18964,0.10101 17.67205,0.12254 18.62061,0.83105 1.96013,1.46409 2.42849,2.4683 2.42849,5.20695 v 2.53236 l -7.23194,0.17639 -7.23194,0.17639 -0.18345,20.813895 c -0.10091,11.44764 -0.21997,20.85358 -0.26459,20.90208 -0.0446,0.0485 -2.22924,0.0882 -4.85471,0.0882 -3.49536,0 -4.81791,-0.11808 -4.93915,-0.44097 z m 96.0257,0.20578 c -0.12936,-0.12935 -0.23519,-11.46299 -0.23519,-25.18586 0,-27.988445 -0.2834,-25.386105 2.76288,-25.370535 2.59105,0.0132 4.317,0.55871 5.49635,1.73708 l 1.08938,1.08848 0.10992,6.25592 c 0.0605,3.44077 0.25372,6.40156 0.42946,6.57956 0.19269,0.19515 1.02894,-0.33993 2.1065,-1.34787 2.83365,-2.65054 4.39938,-3.20909 8.99579,-3.20909 3.53446,0 4.05964,0.0879 5.88864,0.98611 3.9652,1.9472 7.0316,5.50058 8.28198,9.597225 0.57774,1.89288 0.64604,3.53402 0.64604,15.52222 v 13.40556 h -4.58611 -4.58611 l -0.17639,-12.17083 c -0.17055,-11.76856 -0.20325,-12.22914 -0.98905,-13.93473 -1.54575,-3.35505 -4.03697,-5.093265 -7.32015,-5.107535 -2.33625,-0.0102 -5.05855,1.33035 -6.27673,3.090745 -2.0453,2.95568 -2.11866,3.48605 -2.26734,16.39249 l -0.13716,11.90625 h -4.49877 c -2.47432,0 -4.60459,-0.10583 -4.73394,-0.23519 z"
       style="fill:#0b0b0b;stroke-width:0.35277778" />
  </g>
</svg>
