<?xml version="1.0" encoding="UTF-8" standalone="no"?>
<svg
   xmlns:dc="http://purl.org/dc/elements/1.1/"
   xmlns:cc="http://creativecommons.org/ns#"
   xmlns:rdf="http://www.w3.org/1999/02/22-rdf-syntax-ns#"
   xmlns:svg="http://www.w3.org/2000/svg"
   xmlns="http://www.w3.org/2000/svg"
   viewBox="0 0 1488.1875 676.03748"
   height="676.03748"
   width="1488.1875"
   xml:space="preserve"
   version="1.1"
   id="svg2"><metadata
     id="metadata8"><rdf:RDF><cc:Work
         rdf:about=""><dc:format>image/svg+xml</dc:format><dc:type
           rdf:resource="http://purl.org/dc/dcmitype/StillImage" /><dc:title></dc:title></cc:Work></rdf:RDF></metadata><defs
     id="defs6"><clipPath
       id="clipPath94"
       clipPathUnits="userSpaceOnUse"><path
         id="path96"
         d="m 3396.15,917.93 c 133.76,0 242.12,-109.59 242.12,-245.121 0,-136 -108.36,-246.618 -242.12,-246.618 -133.27,0 -242.1,110.618 -242.1,246.618 0,135.531 108.83,245.121 242.1,245.121 m 1854.17,2457.19 c -92.67,373.3 -269.66,654.15 -645.12,654.15 l -484.22,0 0,-572.94 c 0,-444.2 -376.59,-818.06 -806.03,-818.06 l -1288.74,0 c -353.02,0 -645.13,-302.13 -645.13,-655.65 l 0,-1228.589 c 0,-349.672 304.06,-555.34 645.13,-655.6599 408.41,-120.0899 800.07,-141.8008 1288.74,0 324.83,94.0389 645.13,283.3199 645.13,655.6599 l 0,491.729 -1288.75,0 0,163.91 1288.75,0 645.12,0 c 374.99,0 514.72,261.56 645.12,654.15 134.71,404.17 128.98,792.84 0,1311.3" /></clipPath><clipPath
       id="clipPath172"
       clipPathUnits="userSpaceOnUse"><path
         id="path174"
         d="m 0,0 11906,0 0,5408 L 0,5408 0,0 Z" /></clipPath><clipPath
       id="clipPath178"
       clipPathUnits="userSpaceOnUse"><path
         id="path180"
         d="m 1945,4520.99 c -133.75,0 -242.11,109.6 -242.11,245.12 0,136.01 108.36,246.62 242.11,246.62 133.27,0 242.12,-110.61 242.12,-246.62 0,-135.52 -108.85,-245.12 -242.12,-245.12 m 81.21,-1720.33 1288.74,0 c 358.74,0 645.13,295.38 645.13,655.65 l 0,1228.6 c 0,349.66 -294.99,612.33 -645.13,670.69 -221.64,36.89 -451.62,53.65 -672.19,52.63 -220.57,-1.03 -431.21,-19.84 -616.55,-52.63 -546,-96.46 -645.13,-298.36 -645.13,-670.69 l 0,-491.74 1290.25,0 0,-163.92 -1290.25,0 -484.221,0 c -374.98,0 -703.324,-225.38 -806.027,-654.14 -118.4687,-491.46 -123.7226,-798.14 0,-1311.31 91.715,-381.97 310.742,-654.14 685.727,-654.14 l 443.611,0 0,589.48 c 0,425.87 368.48,801.52 806.04,801.52" /></clipPath></defs><g
     transform="matrix(1.25,0,0,-1.25,0,676.0375)"
     id="g10"><g
       transform="scale(0.1,0.1)"
       id="g12"><path
         id="path14"
         style="fill:#ffffff;fill-opacity:1;fill-rule:nonzero;stroke:none"
         d="m 6270.77,3509.49 94.73,0 c 46.86,0 81.18,11.3 102.95,33.9 21.76,22.6 32.65,53.51 32.65,92.73 0,17.95 -2.73,34.32 -8.22,49.11 -5.49,14.79 -13.8,27.42 -24.93,37.89 -11.13,10.47 -25.18,18.52 -42.13,24.18 -16.94,5.65 -37.06,8.47 -60.32,8.47 l -94.73,0 0,-246.28 z m 0,-114.66 0,-248.78 -149.56,0 0,723.39 244.29,0 c 49.52,0 92.31,-5.82 128.38,-17.45 36.05,-11.63 65.72,-27.84 88.99,-48.61 23.25,-20.77 40.46,-45.45 51.6,-74.03 11.14,-28.59 16.7,-59.66 16.7,-93.23 0,-35.57 -5.82,-68.14 -17.45,-97.72 -11.64,-29.58 -29.25,-55.01 -52.85,-76.28 -23.59,-21.26 -53.34,-37.8 -89.24,-49.6 -35.89,-11.8 -77.94,-17.69 -126.13,-17.69 l -94.73,0" /><path
         id="path16"
         style="fill:#ffffff;fill-opacity:1;fill-rule:nonzero;stroke:none"
         d="m 6869.03,3660.05 0,-514 -137.59,0 0,514 137.59,0 z m 16.46,146.08 c 0,-11.64 -2.33,-22.44 -6.98,-32.41 -4.66,-9.97 -10.89,-18.78 -18.7,-26.42 -7.81,-7.65 -16.95,-13.63 -27.42,-17.95 -10.47,-4.32 -21.69,-6.48 -33.65,-6.48 -11.3,0 -22.02,2.16 -32.16,6.48 -10.13,4.32 -19.02,10.3 -26.67,17.95 -7.64,7.64 -13.71,16.45 -18.19,26.42 -4.49,9.97 -6.74,20.77 -6.74,32.41 0,11.63 2.25,22.51 6.74,32.65 4.48,10.14 10.55,19.02 18.19,26.67 7.65,7.65 16.54,13.63 26.67,17.95 10.14,4.32 20.86,6.48 32.16,6.48 11.96,0 23.18,-2.16 33.65,-6.48 10.47,-4.32 19.61,-10.3 27.42,-17.95 7.81,-7.65 14.04,-16.53 18.7,-26.67 4.65,-10.14 6.98,-21.02 6.98,-32.65" /><path
         id="path18"
         style="fill:#ffffff;fill-opacity:1;fill-rule:nonzero;stroke:none"
         d="m 7164.17,3138.07 c -23.26,0 -43.87,3.42 -61.82,10.22 -17.95,6.81 -33.07,16.53 -45.37,29.16 -12.3,12.63 -21.6,27.92 -27.92,45.87 -6.32,17.95 -9.47,38.22 -9.47,60.83 l 0,277.19 -48.36,0 c -7.31,0 -13.54,2.32 -18.69,6.98 -5.16,4.65 -7.73,11.63 -7.73,20.94 l 0,53.84 82.26,14.96 27.92,133.11 c 3.65,14.96 13.79,22.43 30.41,22.43 l 71.8,0 0,-156.54 132.6,0 0,-95.72 -132.6,0 0,-268.22 c 0,-14.3 3.4,-25.6 10.21,-33.91 6.81,-8.31 16.54,-12.46 29.17,-12.46 6.64,0 12.29,0.75 16.95,2.24 4.65,1.5 8.64,3.16 11.97,4.99 3.31,1.82 6.39,3.49 9.22,4.99 2.82,1.49 5.73,2.24 8.72,2.24 3.99,0 7.31,-0.92 9.98,-2.74 2.64,-1.83 5.31,-4.91 7.97,-9.23 l 41.38,-65.8 c -18.94,-14.96 -40.38,-26.26 -64.31,-33.91 -23.94,-7.63 -48.69,-11.46 -74.29,-11.46" /><path
         id="path20"
         style="fill:#ffffff;fill-opacity:1;fill-rule:nonzero;stroke:none"
         d="m 7588.43,3571.31 c -32.9,0 -58.66,-9.4 -77.28,-28.17 -18.62,-18.78 -30.74,-45.29 -36.39,-79.52 l 214.37,0 c 0,14.29 -1.91,27.92 -5.73,40.88 -3.82,12.97 -9.89,24.43 -18.19,34.4 -8.32,9.97 -18.78,17.87 -31.41,23.68 -12.64,5.81 -27.76,8.73 -45.37,8.73 z m -2.49,96.72 c 32.9,0 63.23,-5.24 90.98,-15.7 27.75,-10.47 51.68,-25.68 71.79,-45.63 20.11,-19.94 35.72,-44.45 46.87,-73.53 11.13,-29.09 16.7,-62.24 16.7,-99.46 0,-10.31 -0.5,-18.78 -1.5,-25.43 -0.99,-6.65 -2.66,-11.96 -4.98,-15.95 -2.33,-3.99 -5.49,-6.73 -9.47,-8.23 -4,-1.49 -9.15,-2.24 -15.46,-2.24 l -308.6,0 c 4.31,-48.2 18.02,-83.43 41.13,-105.69 23.09,-22.27 53.42,-33.41 90.98,-33.41 18.95,0 35.32,2.25 49.11,6.73 13.79,4.49 25.92,9.48 36.39,14.96 10.47,5.49 19.94,10.47 28.42,14.96 8.48,4.49 16.87,6.73 25.18,6.73 10.63,0 18.94,-3.99 24.93,-11.96 l 39.88,-49.86 c -14.63,-16.95 -30.75,-31 -48.36,-42.13 -17.62,-11.14 -35.9,-19.94 -54.84,-26.42 -18.95,-6.49 -38.06,-10.97 -57.34,-13.46 -19.27,-2.49 -37.89,-3.74 -55.84,-3.74 -35.88,0 -69.38,5.9 -100.45,17.7 -31.08,11.79 -58.17,29.24 -81.26,52.34 -23.11,23.1 -41.3,51.77 -54.59,86.01 -13.31,34.22 -19.95,73.94 -19.95,119.15 0,34.9 5.74,67.8 17.2,98.71 11.47,30.91 28,57.83 49.61,80.77 21.6,22.93 47.86,41.13 78.77,54.59 30.91,13.46 65.81,20.19 104.7,20.19" /><path
         id="path22"
         style="fill:#ffffff;fill-opacity:1;fill-rule:nonzero;stroke:none"
         d="m 7897.52,3146.05 0,514 81.27,0 c 13.95,0 23.59,-2.49 28.92,-7.48 5.31,-4.98 9.14,-13.63 11.46,-25.92 l 6.98,-51.35 c 16.28,29.24 35.15,52.35 56.58,69.3 21.44,16.95 46.45,25.43 75.03,25.43 23.27,0 42.21,-5.49 56.84,-16.46 l -8.97,-101.7 c -1.67,-6.65 -4.24,-11.22 -7.73,-13.71 -3.49,-2.5 -8.22,-3.75 -14.21,-3.75 -5.32,0 -12.96,0.75 -22.93,2.25 -9.98,1.5 -19.29,2.24 -27.92,2.24 -25.26,0 -45.29,-6.9 -60.08,-20.69 -14.79,-13.79 -27.34,-32.98 -37.63,-57.58 l 0,-314.58 -137.61,0" /><path
         id="path24"
         style="fill:#ffffff;fill-opacity:1;fill-rule:nonzero;stroke:none"
         d="m 8433.47,3509.49 94.72,0 c 46.87,0 81.18,11.3 102.95,33.9 21.77,22.6 32.66,53.51 32.66,92.73 0,17.95 -2.75,34.32 -8.23,49.11 -5.48,14.79 -13.79,27.42 -24.93,37.89 -11.14,10.47 -25.17,18.52 -42.12,24.18 -16.96,5.65 -37.07,8.47 -60.33,8.47 l -94.72,0 0,-246.28 z m 0,-114.66 0,-248.78 -149.56,0 0,723.39 244.28,0 c 49.52,0 92.31,-5.82 128.37,-17.45 36.07,-11.63 65.73,-27.84 89,-48.61 23.26,-20.77 40.46,-45.45 51.6,-74.03 11.13,-28.59 16.7,-59.66 16.7,-93.23 0,-35.57 -5.82,-68.14 -17.45,-97.72 -11.63,-29.58 -29.25,-55.01 -52.85,-76.28 -23.6,-21.26 -53.35,-37.8 -89.23,-49.6 -35.9,-11.8 -77.95,-17.69 -126.14,-17.69 l -94.72,0" /><path
         id="path26"
         style="fill:#ffffff;fill-opacity:1;fill-rule:nonzero;stroke:none"
         d="m 9089.56,3007.95 c -4.33,-9.3 -9.56,-16.28 -15.7,-20.94 -6.15,-4.66 -15.88,-6.98 -29.17,-6.98 l -102.21,0 97.23,206.9 -206.41,473.12 120.66,0 c 10.96,0 19.44,-2.49 25.42,-7.48 5.98,-4.98 10.3,-10.8 12.96,-17.45 l 97.72,-245.78 c 6.98,-19.62 12.96,-39.06 17.95,-58.33 2.99,9.97 6.23,19.86 9.71,29.66 3.5,9.8 7.07,19.52 10.73,29.16 l 90.73,245.29 c 2.66,7.31 7.48,13.29 14.46,17.95 6.98,4.66 14.62,6.98 22.93,6.98 l 110.19,0 -277.2,-652.1" /><path
         id="path28"
         style="fill:#ffffff;fill-opacity:1;fill-rule:nonzero;stroke:none"
         d="m 6399.29,2716.23 0,-27.27 -155.77,0 0,-416.22 -32.29,0 0,416.22 -156.71,0 0,27.27 344.77,0" /><path
         id="path30"
         style="fill:#ffffff;fill-opacity:1;fill-rule:nonzero;stroke:none"
         d="m 6739.67,2716.23 0,-26.64 -233.51,0 0,-179.28 194.33,0 0,-26.01 -194.33,0 0,-184.92 234.13,0 -0.62,-26.64 -265.78,0 0,443.49 265.78,0" /><path
         id="path32"
         style="fill:#ffffff;fill-opacity:1;fill-rule:nonzero;stroke:none"
         d="m 7147.43,2347.33 c 2.09,0 3.87,-0.74 5.33,-2.19 l 12.54,-13.49 c -9.21,-9.81 -19.18,-18.64 -29.94,-26.48 -10.76,-7.84 -22.57,-14.52 -35.41,-20.06 -12.85,-5.54 -26.96,-9.83 -42.31,-12.85 -15.36,-3.03 -32.24,-4.54 -50.62,-4.54 -30.72,0 -58.88,5.38 -84.47,16.14 -25.6,10.76 -47.6,26.01 -65.98,45.76 -18.39,19.75 -32.64,43.61 -42.78,71.62 -10.14,27.99 -15.21,59.12 -15.21,93.4 0,33.64 5.23,64.35 15.68,92.14 10.45,27.79 25.08,51.67 43.87,71.62 18.81,19.96 41.38,35.42 67.71,46.39 26.33,10.97 55.37,16.46 87.13,16.46 30.3,0 57.15,-4.71 80.56,-14.11 23.39,-9.4 44.7,-22.67 63.93,-39.8 l -9.72,-14.11 c -1.67,-2.51 -4.28,-3.76 -7.83,-3.76 -2.51,0 -6.58,2.3 -12.22,6.89 -5.65,4.6 -13.48,9.67 -23.51,15.21 -10.03,5.53 -22.52,10.6 -37.45,15.2 -14.94,4.59 -32.86,6.89 -53.76,6.89 -26.75,0 -51.24,-4.6 -73.5,-13.79 -22.25,-9.2 -41.36,-22.36 -57.35,-39.49 -15.99,-17.13 -28.48,-38.03 -37.46,-62.68 -8.99,-24.66 -13.48,-52.35 -13.48,-83.06 0,-31.35 4.55,-59.35 13.64,-84 9.09,-24.66 21.58,-45.5 37.46,-62.52 15.86,-17.04 34.62,-30.1 56.26,-39.18 21.62,-9.1 44.97,-13.64 70.04,-13.64 15.88,0 30.03,1.04 42.47,3.13 12.43,2.09 23.87,5.22 34.32,9.4 10.45,4.18 20.17,9.3 29.15,15.36 8.99,6.06 17.86,13.17 26.64,21.31 1.05,0.84 2.09,1.52 3.14,2.04 1.04,0.52 2.09,0.79 3.13,0.79" /><path
         id="path34"
         style="fill:#ffffff;fill-opacity:1;fill-rule:nonzero;stroke:none"
         d="m 7593.44,2272.74 -32.29,0 0,212.5 -277.69,0 0,-212.5 -32.29,0 0,443.49 32.29,0 0,-206.86 277.69,0 0,206.86 32.29,0 0,-443.49" /><path
         id="path36"
         style="fill:#ffffff;fill-opacity:1;fill-rule:nonzero;stroke:none"
         d="m 8214.64,2347.33 c 2.09,0 3.87,-0.74 5.33,-2.19 l 12.54,-13.49 c -9.2,-9.81 -19.18,-18.64 -29.93,-26.48 -10.77,-7.84 -22.57,-14.52 -35.42,-20.06 -12.85,-5.54 -26.95,-9.83 -42.32,-12.85 -15.36,-3.03 -32.23,-4.54 -50.61,-4.54 -30.71,0 -58.88,5.38 -84.47,16.14 -25.6,10.76 -47.59,26.01 -65.98,45.76 -18.39,19.75 -32.65,43.61 -42.78,71.62 -10.14,27.99 -15.2,59.12 -15.2,93.4 0,33.64 5.22,64.35 15.66,92.14 10.45,27.79 25.08,51.67 43.89,71.62 18.8,19.96 41.37,35.42 67.7,46.39 26.33,10.97 55.37,16.46 87.14,16.46 30.29,0 57.13,-4.71 80.54,-14.11 23.4,-9.4 44.72,-22.67 63.94,-39.8 l -9.72,-14.11 c -1.67,-2.51 -4.28,-3.76 -7.83,-3.76 -2.51,0 -6.58,2.3 -12.23,6.89 -5.63,4.6 -13.47,9.67 -23.5,15.21 -10.03,5.53 -22.52,10.6 -37.45,15.2 -14.95,4.59 -32.87,6.89 -53.75,6.89 -26.75,0 -51.25,-4.6 -73.51,-13.79 -22.25,-9.2 -41.37,-22.36 -57.35,-39.49 -15.99,-17.13 -28.48,-38.03 -37.45,-62.68 -8.99,-24.66 -13.49,-52.35 -13.49,-83.06 0,-31.35 4.55,-59.35 13.64,-84 9.08,-24.66 21.57,-45.5 37.45,-62.52 15.88,-17.04 34.64,-30.1 56.26,-39.18 21.63,-9.1 44.98,-13.64 70.05,-13.64 15.88,0 30.04,1.04 42.47,3.13 12.43,2.09 23.87,5.22 34.32,9.4 10.45,4.18 20.16,9.3 29.15,15.36 8.98,6.06 17.87,13.17 26.64,21.31 1.04,0.84 2.09,1.52 3.13,2.04 1.05,0.52 2.09,0.79 3.14,0.79" /><path
         id="path38"
         style="fill:#ffffff;fill-opacity:1;fill-rule:nonzero;stroke:none"
         d="m 8671.93,2494.64 c 0,30.92 -4.28,58.71 -12.85,83.37 -8.56,24.65 -20.68,45.55 -36.36,62.68 -15.66,17.13 -34.47,30.25 -56.41,39.34 -21.94,9.09 -46.18,13.63 -72.72,13.63 -26.32,0 -50.46,-4.54 -72.4,-13.63 -21.94,-9.09 -40.8,-22.21 -56.57,-39.34 -15.78,-17.13 -28.01,-38.03 -36.67,-62.68 -8.67,-24.66 -13.01,-52.45 -13.01,-83.37 0,-31.13 4.34,-58.98 13.01,-83.53 8.66,-24.56 20.89,-45.4 36.67,-62.53 15.77,-17.13 34.63,-30.2 56.57,-39.17 21.94,-9 46.08,-13.48 72.4,-13.48 26.54,0 50.78,4.48 72.72,13.48 21.94,8.97 40.75,22.04 56.41,39.17 15.68,17.13 27.8,37.97 36.36,62.53 8.57,24.55 12.85,52.4 12.85,83.53 z m 33.23,0 c 0,-34.28 -5.12,-65.35 -15.37,-93.24 -10.23,-27.9 -24.64,-51.72 -43.25,-71.47 -18.59,-19.74 -40.9,-35 -66.91,-45.76 -26.02,-10.76 -54.69,-16.14 -86.04,-16.14 -31.33,0 -59.97,5.38 -85.88,16.14 -25.9,10.76 -48.16,26.02 -66.75,45.76 -18.61,19.75 -33.02,43.57 -43.25,71.47 -10.25,27.89 -15.37,58.96 -15.37,93.24 0,34.05 5.12,65.03 15.37,92.92 10.23,27.9 24.64,51.72 43.25,71.47 18.59,19.75 40.85,35.05 66.75,45.92 25.91,10.86 54.55,16.3 85.88,16.3 31.35,0 60.02,-5.38 86.04,-16.15 26.01,-10.76 48.32,-26.07 66.91,-45.91 18.61,-19.86 33.02,-43.73 43.25,-71.63 10.25,-27.89 15.37,-58.87 15.37,-92.92" /><path
         id="path40"
         style="fill:#ffffff;fill-opacity:1;fill-rule:nonzero;stroke:none"
         d="m 8830.05,2715.14 c 1.57,-0.74 3.29,-2.36 5.17,-4.87 l 287.42,-384.25 c -0.63,6.27 -0.95,12.32 -0.95,18.17 l 0,372.04 27.9,0 0,-443.49 -15.05,0 c -2.71,0 -4.96,0.46 -6.74,1.4 -1.77,0.94 -3.49,2.56 -5.16,4.86 l -288.05,384.57 c 0.63,-6.26 0.95,-12.11 0.95,-17.55 l 0,-373.28 -28.22,0 0,443.49 15.99,0 c 2.93,0 5.18,-0.36 6.74,-1.09" /><path
         id="path42"
         style="fill:#ffffff;fill-opacity:1;fill-rule:nonzero;stroke:none"
         d="m 9546.38,2716.23 0,-26.64 -233.5,0 0,-186.49 202.16,0 0,-26.64 -202.16,0 0,-203.72 -32.28,0 0,443.49 265.78,0" /><path
         id="path44"
         style="fill:#ffffff;fill-opacity:1;fill-rule:nonzero;stroke:none"
         d="m 9900.23,2716.23 0,-26.64 -233.49,0 0,-179.28 194.32,0 0,-26.01 -194.32,0 0,-184.92 234.13,0 -0.64,-26.64 -265.78,0 0,443.49 265.78,0" /><path
         id="path46"
         style="fill:#ffffff;fill-opacity:1;fill-rule:nonzero;stroke:none"
         d="m 10030.3,2497.15 76.8,0 c 19.6,0 37.2,2.34 52.8,7.05 15.6,4.7 28.7,11.44 39.5,20.21 10.8,8.78 19,19.33 24.6,31.66 5.6,12.32 8.5,26.22 8.5,41.68 0,31.55 -10.3,54.96 -30.9,70.21 -20.6,15.25 -50.6,22.88 -90.1,22.88 l -81.2,0 0,-193.69 z m 0,-23.83 0,-200.58 -32.28,0 0,443.49 113.48,0 c 51,0 89.1,-9.87 114.5,-29.62 25.4,-19.74 38.1,-48.74 38.1,-86.97 0,-16.93 -3,-32.4 -8.9,-46.39 -6,-14 -14.4,-26.28 -25.4,-36.83 -11,-10.55 -24.2,-19.23 -39.8,-26.02 -15.6,-6.79 -33,-11.23 -52.2,-13.31 5,-3.13 9.5,-7.32 13.5,-12.54 l 152.6,-191.81 -27.6,0 c -3.5,0 -6.5,0.56 -8.9,1.71 -2.4,1.15 -4.6,3.29 -6.7,6.43 l -142.3,179.9 c -1.7,2.31 -3.4,4.29 -5.2,5.96 -1.8,1.67 -3.8,2.98 -6,3.92 -2.2,0.94 -4.8,1.62 -7.8,2.04 -3,0.42 -6.7,0.62 -11.1,0.62 l -58,0" /><path
         id="path48"
         style="fill:#ffffff;fill-opacity:1;fill-rule:nonzero;stroke:none"
         d="m 10644.3,2716.23 0,-26.64 -233.5,0 0,-179.28 194.3,0 0,-26.01 -194.3,0 0,-184.92 234.1,0 -0.6,-26.64 -265.8,0 0,443.49 265.8,0" /><path
         id="path50"
         style="fill:#ffffff;fill-opacity:1;fill-rule:nonzero;stroke:none"
         d="m 10764.8,2715.14 c 1.6,-0.74 3.3,-2.36 5.2,-4.87 l 287.4,-384.25 c -0.6,6.27 -1,12.32 -1,18.17 l 0,372.04 27.9,0 0,-443.49 -15,0 c -2.7,0 -5,0.46 -6.7,1.4 -1.8,0.94 -3.5,2.56 -5.2,4.86 l -288.1,384.57 c 0.7,-6.26 1,-12.11 1,-17.55 l 0,-373.28 -28.2,0 0,443.49 16,0 c 2.9,0 5.1,-0.36 6.7,-1.09" /><path
         id="path52"
         style="fill:#ffffff;fill-opacity:1;fill-rule:nonzero;stroke:none"
         d="m 11535.4,2347.33 c 2,0 3.8,-0.74 5.3,-2.19 l 12.5,-13.49 c -9.2,-9.81 -19.1,-18.64 -29.9,-26.48 -10.8,-7.84 -22.6,-14.52 -35.4,-20.06 -12.9,-5.54 -27,-9.83 -42.3,-12.85 -15.4,-3.03 -32.3,-4.54 -50.7,-4.54 -30.7,0 -58.8,5.38 -84.4,16.14 -25.6,10.76 -47.6,26.01 -66,45.76 -18.4,19.75 -32.7,43.61 -42.8,71.62 -10.1,27.99 -15.2,59.12 -15.2,93.4 0,33.64 5.2,64.35 15.7,92.14 10.4,27.79 25.1,51.67 43.9,71.62 18.8,19.96 41.3,35.42 67.7,46.39 26.3,10.97 55.3,16.46 87.1,16.46 30.3,0 57.1,-4.71 80.5,-14.11 23.4,-9.4 44.8,-22.67 64,-39.8 l -9.7,-14.11 c -1.7,-2.51 -4.3,-3.76 -7.9,-3.76 -2.5,0 -6.5,2.3 -12.2,6.89 -5.6,4.6 -13.5,9.67 -23.5,15.21 -10,5.53 -22.5,10.6 -37.5,15.2 -14.9,4.59 -32.8,6.89 -53.7,6.89 -26.7,0 -51.3,-4.6 -73.5,-13.79 -22.3,-9.2 -41.4,-22.36 -57.4,-39.49 -15.9,-17.13 -28.4,-38.03 -37.4,-62.68 -9,-24.66 -13.5,-52.35 -13.5,-83.06 0,-31.35 4.6,-59.35 13.6,-84 9.1,-24.66 21.6,-45.5 37.5,-62.52 15.9,-17.04 34.6,-30.1 56.3,-39.18 21.6,-9.1 44.9,-13.64 70,-13.64 15.9,0 30,1.04 42.5,3.13 12.4,2.09 23.8,5.22 34.3,9.4 10.4,4.18 20.2,9.3 29.2,15.36 8.9,6.06 17.8,13.17 26.6,21.31 1,0.84 2.1,1.52 3.1,2.04 1.1,0.52 2.1,0.79 3.2,0.79" /><path
         id="path54"
         style="fill:#ffffff;fill-opacity:1;fill-rule:nonzero;stroke:none"
         d="m 11904.9,2716.23 0,-26.64 -233.5,0 0,-179.28 194.3,0 0,-26.01 -194.3,0 0,-184.92 234.1,0 -0.6,-26.64 -265.8,0 0,443.49 265.8,0" /><path
         id="path56"
         style="fill:#ffffff;fill-opacity:1;fill-rule:nonzero;stroke:none"
         d="m 6326.26,1910.1 c -1.88,-3.56 -4.6,-5.33 -8.14,-5.33 -2.73,0 -6.23,1.93 -10.5,5.8 -4.29,3.86 -10.09,8.14 -17.41,12.85 -7.31,4.7 -16.45,9.03 -27.42,13.01 -10.96,3.96 -24.5,5.95 -40.58,5.95 -16.1,0 -30.26,-2.3 -42.47,-6.89 -12.23,-4.6 -22.47,-10.87 -30.73,-18.81 -8.25,-7.95 -14.52,-17.14 -18.8,-27.59 -4.28,-10.44 -6.42,-21.41 -6.42,-32.9 0,-15.05 3.18,-27.48 9.56,-37.3 6.37,-9.83 14.78,-18.18 25.22,-25.07 10.45,-6.91 22.31,-12.7 35.58,-17.4 13.27,-4.7 26.9,-9.35 40.91,-13.95 13.99,-4.6 27.63,-9.67 40.9,-15.19 13.26,-5.55 25.12,-12.49 35.57,-20.85 10.44,-8.36 18.85,-18.65 25.23,-30.87 6.37,-12.23 9.56,-27.43 9.56,-45.61 0,-18.6 -3.19,-36.09 -9.56,-52.5 -6.38,-16.4 -15.62,-30.66 -27.74,-42.78 -12.12,-12.12 -26.95,-21.68 -44.51,-28.67 -17.55,-7.01 -37.61,-10.51 -60.17,-10.51 -29.26,0 -54.44,5.17 -75.54,15.52 -21.1,10.34 -39.6,24.49 -55.48,42.47 l 8.78,13.79 c 2.51,3.13 5.43,4.7 8.78,4.7 1.87,0 4.28,-1.26 7.21,-3.77 2.92,-2.5 6.47,-5.58 10.65,-9.23 4.18,-3.67 9.2,-7.64 15.05,-11.92 5.85,-4.29 12.64,-8.25 20.37,-11.91 7.72,-3.65 16.61,-6.74 26.64,-9.24 10.03,-2.51 21.42,-3.76 34.16,-3.76 17.56,0 33.22,2.66 47.02,7.99 13.79,5.33 25.43,12.59 34.94,21.78 9.52,9.19 16.77,20.11 21.79,32.75 5.01,12.65 7.52,26.17 7.52,40.58 0,15.68 -3.18,28.58 -9.56,38.72 -6.38,10.13 -14.79,18.59 -25.23,25.39 -10.45,6.78 -22.31,12.48 -35.57,17.08 -13.27,4.6 -26.91,9.09 -40.91,13.47 -13.99,4.4 -27.63,9.3 -40.9,14.74 -13.27,5.43 -25.12,12.37 -35.57,20.84 -10.45,8.47 -18.86,19.01 -25.24,31.66 -6.37,12.64 -9.55,28.47 -9.55,47.48 0,14.83 2.82,29.15 8.46,42.94 5.64,13.79 13.89,25.97 24.76,36.51 10.86,10.55 24.29,19.02 40.28,25.39 15.98,6.37 34.21,9.56 54.68,9.56 22.99,0 43.63,-3.66 61.91,-10.96 18.28,-7.33 34.95,-18.5 50,-33.55 l -7.53,-14.41" /><path
         id="path58"
         style="fill:#ffffff;fill-opacity:1;fill-rule:nonzero;stroke:none"
         d="m 6480.15,1681.61 198.71,0 -90.27,224.09 c -3.13,7.32 -6.16,16.1 -9.09,26.34 -1.46,-5.02 -2.93,-9.82 -4.38,-14.42 -1.47,-4.6 -2.93,-8.67 -4.4,-12.23 l -90.57,-223.78 z m 296.81,-161.1 -24.75,0 c -2.94,0 -5.33,0.78 -7.22,2.35 -1.87,1.56 -3.34,3.61 -4.38,6.11 l -52.04,128.81 -217.83,0 -52.03,-128.81 c -0.83,-2.3 -2.29,-4.28 -4.38,-5.95 -2.09,-1.68 -4.6,-2.51 -7.52,-2.51 l -24.46,0 181.48,443.49 31.66,0 181.47,-443.49" /><path
         id="path60"
         style="fill:#ffffff;fill-opacity:1;fill-rule:nonzero;stroke:none"
         d="m 6882.89,1520.51 -32.28,0 0,443.49 32.28,0 0,-443.49" /><path
         id="path62"
         style="fill:#ffffff;fill-opacity:1;fill-rule:nonzero;stroke:none"
         d="m 7036.63,1962.91 c 1.56,-0.74 3.28,-2.35 5.17,-4.85 l 287.41,-384.27 c -0.63,6.27 -0.94,12.32 -0.94,18.18 l 0,372.03 27.89,0 0,-443.49 -15.04,0 c -2.72,0 -4.97,0.47 -6.74,1.4 -1.77,0.95 -3.5,2.56 -5.17,4.87 l -288.04,384.57 c 0.63,-6.27 0.94,-12.12 0.94,-17.55 l 0,-373.29 -28.2,0 0,443.49 15.98,0 c 2.92,0 5.17,-0.36 6.74,-1.09" /><path
         id="path64"
         style="fill:#ffffff;fill-opacity:1;fill-rule:nonzero;stroke:none"
         d="m 7775.52,1964 0,-27.26 -155.77,0 0,-416.23 -32.28,0 0,416.23 -156.72,0 0,27.26 344.77,0" /><path
         id="path66"
         style="fill:#ffffff;fill-opacity:1;fill-rule:nonzero;stroke:none"
         d="m 8034.1,1724.86 82.43,0 c 19.44,0 36.88,2.72 52.34,8.15 15.47,5.43 28.57,12.96 39.33,22.57 10.76,9.61 19.02,20.94 24.77,34 5.74,13.07 8.62,27.33 8.62,42.78 0,34.07 -10.46,60.29 -31.35,78.68 -20.89,18.38 -52.13,27.57 -93.71,27.57 l -82.43,0 0,-213.75 z m 0,-25.7 0,-178.65 -32.28,0 0,443.49 114.71,0 c 52.02,0 91.25,-11.38 117.69,-34.16 26.43,-22.78 39.65,-55.27 39.65,-97.48 0,-19.43 -3.66,-37.29 -10.97,-53.59 -7.31,-16.3 -17.76,-30.35 -31.34,-42.16 -13.59,-11.8 -30.1,-20.99 -49.52,-27.58 -19.43,-6.58 -41.27,-9.87 -65.51,-9.87 l -82.43,0" /><path
         id="path68"
         style="fill:#ffffff;fill-opacity:1;fill-rule:nonzero;stroke:none"
         d="m 8629.91,1964 0,-26.64 -233.49,0 0,-179.27 194.32,0 0,-26.02 -194.32,0 0,-184.92 234.13,0 -0.64,-26.64 -265.78,0 0,443.49 265.78,0" /><path
         id="path70"
         style="fill:#ffffff;fill-opacity:1;fill-rule:nonzero;stroke:none"
         d="m 9016.04,1964 0,-27.26 -155.77,0 0,-416.23 -32.27,0 0,416.23 -156.72,0 0,27.26 344.76,0" /><path
         id="path72"
         style="fill:#ffffff;fill-opacity:1;fill-rule:nonzero;stroke:none"
         d="m 9356.43,1964 0,-26.64 -233.51,0 0,-179.27 194.33,0 0,-26.02 -194.33,0 0,-184.92 234.13,0 -0.62,-26.64 -265.79,0 0,443.49 265.79,0" /><path
         id="path74"
         style="fill:#ffffff;fill-opacity:1;fill-rule:nonzero;stroke:none"
         d="m 9486.49,1744.92 76.79,0 c 19.64,0 37.25,2.36 52.81,7.05 15.57,4.7 28.73,11.44 39.5,20.22 10.76,8.78 18.96,19.32 24.6,31.66 5.64,12.32 8.46,26.21 8.46,41.68 0,31.55 -10.29,54.96 -30.87,70.2 -20.58,15.26 -50.62,22.88 -90.11,22.88 l -81.18,0 0,-193.69 z m 0,-23.82 0,-200.59 -32.28,0 0,443.49 113.46,0 c 50.98,0 89.17,-9.87 114.56,-29.61 25.39,-19.75 38.08,-48.74 38.08,-86.98 0,-16.92 -2.98,-32.39 -8.93,-46.38 -5.96,-14.01 -14.43,-26.28 -25.39,-36.83 -10.97,-10.56 -24.24,-19.23 -39.81,-26.02 -15.56,-6.79 -32.96,-11.24 -52.19,-13.32 5.02,-3.13 9.52,-7.32 13.48,-12.53 l 152.65,-191.82 -27.59,0 c -3.56,0 -6.53,0.57 -8.93,1.73 -2.41,1.14 -4.65,3.28 -6.74,6.41 l -142.3,179.92 c -1.67,2.29 -3.39,4.27 -5.17,5.95 -1.77,1.67 -3.76,2.98 -5.95,3.92 -2.19,0.94 -4.81,1.61 -7.83,2.03 -3.04,0.42 -6.74,0.63 -11.14,0.63 l -57.98,0" /><path
         id="path76"
         style="fill:#ffffff;fill-opacity:1;fill-rule:nonzero;stroke:none"
         d="m 10050,1910.1 c -1.8,-3.56 -4.6,-5.33 -8.1,-5.33 -2.7,0 -6.2,1.93 -10.5,5.8 -4.3,3.86 -10.1,8.14 -17.4,12.85 -7.3,4.7 -16.47,9.03 -27.44,13.01 -10.96,3.96 -24.5,5.95 -40.58,5.95 -16.1,0 -30.25,-2.3 -42.47,-6.89 -12.23,-4.6 -22.47,-10.87 -30.73,-18.81 -8.25,-7.95 -14.52,-17.14 -18.8,-27.59 -4.28,-10.44 -6.42,-21.41 -6.42,-32.9 0,-15.05 3.18,-27.48 9.56,-37.3 6.37,-9.83 14.77,-18.18 25.22,-25.07 10.45,-6.91 22.31,-12.7 35.58,-17.4 13.27,-4.7 26.9,-9.35 40.91,-13.95 13.99,-4.6 27.63,-9.67 40.9,-15.19 13.27,-5.55 25.17,-12.49 35.57,-20.85 10.5,-8.36 18.9,-18.65 25.2,-30.87 6.4,-12.23 9.6,-27.43 9.6,-45.61 0,-18.6 -3.2,-36.09 -9.6,-52.5 -6.3,-16.4 -15.6,-30.66 -27.7,-42.78 -12.1,-12.12 -27,-21.68 -44.52,-28.67 -17.55,-7.01 -37.61,-10.51 -60.17,-10.51 -29.26,0 -54.44,5.17 -75.54,15.52 -21.11,10.34 -39.6,24.49 -55.47,42.47 l 8.77,13.79 c 2.51,3.13 5.43,4.7 8.78,4.7 1.87,0 4.28,-1.26 7.21,-3.77 2.92,-2.5 6.47,-5.58 10.65,-9.23 4.18,-3.67 9.2,-7.64 15.05,-11.92 5.85,-4.29 12.64,-8.25 20.37,-11.91 7.72,-3.65 16.61,-6.74 26.64,-9.24 10.03,-2.51 21.42,-3.76 34.16,-3.76 17.56,0 33.23,2.66 47.02,7.99 13.79,5.33 25.45,12.59 34.95,21.78 9.5,9.19 16.8,20.11 21.8,32.75 5,12.65 7.5,26.17 7.5,40.58 0,15.68 -3.2,28.58 -9.6,38.72 -6.3,10.13 -14.7,18.59 -25.2,25.39 -10.44,6.78 -22.3,12.48 -35.56,17.08 -13.27,4.6 -26.91,9.09 -40.91,13.47 -13.99,4.4 -27.63,9.3 -40.9,14.74 -13.27,5.43 -25.12,12.37 -35.57,20.84 -10.45,8.47 -18.86,19.01 -25.23,31.66 -6.38,12.64 -9.56,28.47 -9.56,47.48 0,14.83 2.82,29.15 8.46,42.94 5.64,13.79 13.89,25.97 24.76,36.51 10.86,10.55 24.29,19.02 40.28,25.39 15.98,6.37 34.21,9.56 54.68,9.56 22.99,0 43.63,-3.66 61.95,-10.96 18.2,-7.33 34.9,-18.5 50,-33.55 l -7.6,-14.41" /><path
         id="path78"
         style="fill:#ffffff;fill-opacity:1;fill-rule:nonzero;stroke:none"
         d="m 10202.3,1733.01 0,-186.8 111.3,0 c 38.9,0 68.3,8.41 88.2,25.23 20,16.82 30,40.48 30,70.99 0,14 -2.7,26.58 -8,37.77 -5.3,11.18 -13,20.69 -23,28.52 -10.1,7.83 -22.4,13.84 -37,18.02 -14.7,4.18 -31.3,6.27 -49.9,6.27 l -111.6,0 z m 0,23.5 96,0 c 20.4,0 37.9,2.62 52.5,7.85 14.5,5.21 26.4,12.12 35.7,20.68 9.3,8.56 16.1,18.28 20.5,29.15 4.4,10.86 6.6,22.04 6.6,33.54 0,29.88 -9.5,52.5 -28.4,67.86 -18.9,15.35 -48.1,23.02 -87.6,23.02 l -95.3,0 0,-182.1 z m -32.2,-236 0,443.49 127.5,0 c 25.3,0 47.3,-2.51 65.8,-7.51 18.6,-5.02 34,-12.39 46.1,-22.1 12.1,-9.72 21.1,-21.58 27,-35.58 5.8,-13.99 8.8,-29.88 8.8,-47.64 0,-11.71 -2.1,-22.99 -6.2,-33.84 -4,-10.87 -9.9,-20.9 -17.7,-30.09 -7.7,-9.2 -17.2,-17.2 -28.3,-23.99 -11.2,-6.78 -23.9,-11.96 -38.1,-15.51 34.9,-5.22 61.7,-16.87 80.4,-34.95 18.7,-18.07 28,-41.73 28,-70.98 0,-18.81 -3.3,-35.73 -10,-50.78 -6.7,-15.04 -16.4,-27.8 -29.1,-38.24 -12.8,-10.45 -28.5,-18.44 -47.1,-23.98 -18.6,-5.54 -39.7,-8.3 -63.3,-8.3 l -143.8,0" /><path
         id="path80"
         style="fill:#ffffff;fill-opacity:1;fill-rule:nonzero;stroke:none"
         d="m 10728.6,1543.39 c 21.3,0 40.4,3.71 57.2,11.12 16.8,7.41 31.1,17.71 42.8,30.88 11.7,13.17 20.6,28.67 26.8,46.54 6.1,17.87 9.2,37.14 9.2,57.83 l 0,274.24 32,0 0,-274.24 c 0,-24.45 -3.9,-47.28 -11.6,-68.49 -7.7,-21.21 -18.9,-39.7 -33.4,-55.47 -14.5,-15.78 -32.2,-28.16 -53,-37.15 -20.8,-8.97 -44.1,-13.47 -70,-13.47 -25.9,0 -49.3,4.5 -70.1,13.47 -20.8,8.99 -38.4,21.37 -52.9,37.15 -14.6,15.77 -25.7,34.26 -33.4,55.47 -7.7,21.21 -11.6,44.04 -11.6,68.49 l 0,274.24 32.3,0 0,-273.93 c 0,-20.68 3,-39.96 9.2,-57.82 6.2,-17.87 15.1,-33.38 26.7,-46.55 11.6,-13.16 25.8,-23.51 42.6,-31.03 16.8,-7.52 35.9,-11.28 57.2,-11.28" /><path
         id="path82"
         style="fill:#ffffff;fill-opacity:1;fill-rule:nonzero;stroke:none"
         d="m 11054.2,1744.92 76.8,0 c 19.7,0 37.3,2.36 52.8,7.05 15.6,4.7 28.8,11.44 39.5,20.22 10.8,8.78 19,19.32 24.6,31.66 5.7,12.32 8.5,26.21 8.5,41.68 0,31.55 -10.3,54.96 -30.9,70.2 -20.6,15.26 -50.6,22.88 -90.1,22.88 l -81.2,0 0,-193.69 z m 0,-23.82 0,-200.59 -32.3,0 0,443.49 113.5,0 c 51,0 89.2,-9.87 114.6,-29.61 25.4,-19.75 38,-48.74 38,-86.98 0,-16.92 -2.9,-32.39 -8.9,-46.38 -5.9,-14.01 -14.4,-26.28 -25.4,-36.83 -10.9,-10.56 -24.2,-19.23 -39.8,-26.02 -15.6,-6.79 -32.9,-11.24 -52.2,-13.32 5,-3.13 9.5,-7.32 13.5,-12.53 l 152.7,-191.82 -27.6,0 c -3.6,0 -6.6,0.57 -9,1.73 -2.4,1.14 -4.6,3.28 -6.7,6.41 l -142.3,179.92 c -1.7,2.29 -3.4,4.27 -5.2,5.95 -1.7,1.67 -3.7,2.98 -5.9,3.92 -2.2,0.94 -4.8,1.61 -7.9,2.03 -3,0.42 -6.7,0.63 -11.1,0.63 l -58,0" /><path
         id="path84"
         style="fill:#ffffff;fill-opacity:1;fill-rule:nonzero;stroke:none"
         d="m 11682,1528.03 c -25.1,-8.35 -53.3,-12.54 -84.6,-12.54 -35.1,0 -66.7,5.38 -94.7,16.14 -28,10.76 -51.8,26.02 -71.6,45.76 -19.7,19.75 -34.9,43.62 -45.4,71.62 -10.6,28 -15.9,59.14 -15.9,93.4 0,34.27 5.2,65.35 15.6,93.25 10.3,27.9 25.1,51.71 44.5,71.46 19.3,19.75 42.6,35 70,45.76 27.4,10.76 58.2,16.14 92.5,16.14 16.9,0 32.5,-1.15 46.8,-3.44 14.3,-2.31 27.7,-5.71 40,-10.19 12.3,-4.5 23.8,-10.03 34.5,-16.61 10.6,-6.58 20.9,-14.16 30.7,-22.72 l -8.8,-13.79 c -2.9,-5.02 -7.3,-6.18 -13.1,-3.46 -3.2,1.26 -7.7,4.18 -13.5,8.78 -5.9,4.6 -13.9,9.4 -24.2,14.41 -10.2,5.02 -22.9,9.51 -38,13.49 -15.2,3.96 -33.6,5.96 -55.4,5.96 -28.8,0 -54.9,-4.6 -78.2,-13.8 -23.3,-9.2 -43.1,-22.37 -59.5,-39.49 -16.4,-17.14 -29.1,-38.03 -37.9,-62.69 -8.9,-24.66 -13.4,-52.34 -13.4,-83.06 0,-31.13 4.5,-59.13 13.4,-83.99 8.8,-24.87 21.7,-45.98 38.5,-63.32 16.8,-17.35 37.3,-30.61 61.3,-39.81 24,-9.19 51.1,-13.79 81.2,-13.79 13.1,0 25.3,0.79 36.5,2.36 11.2,1.56 21.8,3.91 32,7.05 10.1,3.13 19.9,6.94 29.4,11.44 9.5,4.49 19.2,9.56 29,15.2 l 0,119.41 -84.9,0 c -2.3,0 -4.3,0.74 -5.8,2.2 -1.6,1.46 -2.4,3.14 -2.4,5.02 l 0,17.55 122.3,0 0,-157.66 c -22.2,-15.67 -45.8,-27.68 -70.9,-36.04" /><path
         id="path86"
         style="fill:#ffffff;fill-opacity:1;fill-rule:nonzero;stroke:none"
         d="m 1945,4521.01 c -133.75,0 -242.11,109.59 -242.11,245.12 0,136 108.36,246.62 242.11,246.62 133.27,0 242.12,-110.62 242.12,-246.62 0,-135.53 -108.85,-245.12 -242.12,-245.12 m 81.21,-1720.33 1288.74,0 c 358.74,0 645.13,295.38 645.13,655.65 l 0,1228.59 c 0,349.67 -294.99,612.34 -645.13,670.69 -221.64,36.9 -451.62,53.66 -672.19,52.64 -220.57,-1.03 -431.21,-19.84 -616.55,-52.64 -546,-96.45 -645.13,-298.35 -645.13,-670.69 l 0,-491.74 1290.25,0 0,-163.91 -1290.25,0 -484.221,0 c -374.98,0 -703.324,-225.38 -806.027,-654.15 -118.4687,-491.46 -123.7226,-798.14 0,-1311.3 91.715,-381.97 310.742,-654.15 685.727,-654.15 l 443.611,0 0,589.49 c 0,425.87 368.48,801.52 806.04,801.52" /><path
         id="path88"
         style="fill:#ffffff;fill-opacity:1;fill-rule:nonzero;stroke:none"
         d="m 3396.15,917.93 c 133.76,0 242.12,-109.59 242.12,-245.121 0,-136 -108.36,-246.618 -242.12,-246.618 -133.27,0 -242.1,110.618 -242.1,246.618 0,135.531 108.83,245.121 242.1,245.121 m 1854.17,2457.19 c -92.67,373.3 -269.66,654.15 -645.12,654.15 l -484.22,0 0,-572.94 c 0,-444.2 -376.59,-818.06 -806.03,-818.06 l -1288.74,0 c -353.02,0 -645.13,-302.13 -645.13,-655.65 l 0,-1228.589 c 0,-349.672 304.06,-555.34 645.13,-655.6599 408.41,-120.0899 800.07,-141.8008 1288.74,0 324.83,94.0389 645.13,283.3199 645.13,655.6599 l 0,491.729 -1288.75,0 0,163.91 1288.75,0 645.12,0 c 374.99,0 514.72,261.56 645.12,654.15 134.71,404.17 128.98,792.84 0,1311.3" /><g
         id="g90"><g
           clip-path="url(#clipPath94)"
           id="g92"><path
             id="path98"
             style="fill:#96d0f1;fill-opacity:1;fill-rule:nonzero;stroke:none"
             d="m 3786.83,347.219 -438.74,0 0,40.363 85.3,0 0,35.289 22.23,0 0,10.828 c 13.34,3.43 26.25,8 38.61,13.59 l 0,-23.258 22.23,0 0,-35.289 85.53,0 0,35.289 21.77,0 0,164.578 c 9.39,26.293 14.51,54.641 14.51,84.2 l 0,0 0,0 c 0,29.461 -5.12,57.691 -14.51,83.832 l 0,63.461 -21.77,0 0,35.289 -44.22,0 c -11.52,10.461 -24.05,19.82 -37.4,27.91 l 439.71,0 0,-129.27 c 0,-40.179 -3.73,-78.242 -10.8,-114.269 l 0,180.34 -21.77,0 0,35.289 -85.53,0 0,-35.289 -22,0 0,-396.071 22,0 0,-15.812 c -16.93,-21.43 -35.4,-41.77 -55.15,-61 m -130.29,472.883 0,-396.071 22,0 0,-35.289 85.54,0 0,35.289 21.77,0 0,396.071 -21.77,0 0,35.289 -85.54,0 0,-35.289 -22,0" /><path
             id="path100"
             style="fill:#96d0f1;fill-opacity:1;fill-rule:nonzero;stroke:none"
             d="m 3393.21,927.129 -588.18,0 0,24.91 3.15,0 0,88.811 329.78,0 255.25,74.51 0,1.38 255.25,-74.74 311.62,0 0,-113.48 -566.87,0 0,-1.391 m 0,147.631 0,-1.38 -441.58,-122.72 441.58,0 0,1.149 441.58,0 -441.58,122.951" /><path
             id="path102"
             style="fill:#96d0f1;fill-opacity:1;fill-rule:nonzero;stroke:none"
             d="m 3610.75,218.359 0,15.602 c 0,29.059 -23.35,53.051 -51.64,53.051 l 0,22.609 185.89,0 c -40.95,-34.039 -86.18,-64.332 -134.25,-91.262" /><path
             id="path104"
             style="fill:#96d0f1;fill-opacity:1;fill-rule:nonzero;stroke:none"
             d="m 3746.79,545.602 -51.19,0 0,112.328 c 0,14.531 11.45,26.531 25.6,26.531 14.14,0 25.59,-12 25.59,-26.531 l 0,-112.328" /><path
             id="path106"
             style="fill:#96d0f1;fill-opacity:1;fill-rule:nonzero;stroke:none"
             d="m 2829.35,6.51953 -324.87,0 C 2397.93,15.082 2293.18,31.9102 2188.37,55.8711 l 22.65,0 0,157.5589 -72.73,0 0,-145.5784 c -23.16,5.789 -46.37,11.9179 -69.6,18.3672 l 0,127.2112 -72.73,0 0,-105.848 c -21.68,6.82 -43.19,14.09 -64.44,21.797 l 0,84.051 -72.73,0 0,-55.43 c -36.83,15.691 -72.59,32.859 -106.86,51.539 l 0,3.891 -7.06,0 c -29.63,16.429 -58.11,34.031 -85.19,52.82 l 169.7,0 0,41.98 24.24,0 0,-62.05 914.15,0 0,62.05 8.3,0 679.55,0 0,1.391 103.49,0 0,-22.609 c -14.14,0 -27.16,-5.992 -36.59,-15.692 -9.43,-9.449 -15.26,-22.828 -15.26,-37.359 l 0,-66.82 c -21.27,-9.309 -42.86,-18.078 -64.66,-26.36 l 0,91.789 c 0,14.532 -5.84,27.91 -15.27,37.602 -9.42,9.457 -22.22,15.457 -36.36,15.457 -28.51,0 -51.86,-23.758 -51.86,-53.059 l 0,-127.019 c -8.04,-2.449 -16.11,-4.852 -24.16,-7.1799 -11.99,-3.4805 -23.91,-6.8594 -35.79,-10.1406 l 0,144.3395 c 0,14.532 -5.83,27.91 -15.26,37.602 -9.43,9.457 -22.45,15.457 -36.59,15.457 -28.29,0 -51.64,-23.758 -51.64,-53.059 l 0,-170.8395 c -25.55,-6.0117 -50.81,-11.5508 -75.88,-16.6407 l 0,185.8712 c 0,14.758 -5.83,27.91 -15.04,37.598 -9.42,9.683 -22.45,15.679 -36.59,15.679 -28.51,0 -51.63,-23.976 -51.63,-53.277 l 0,-204.5313 c -20.21,-3.1875 -40.23,-6.0703 -60.17,-8.668 l 0,213.1993 c 0,14.758 -5.83,27.91 -15.26,37.598 -9.21,9.683 -22.23,15.679 -36.37,15.679 -28.51,0 -51.86,-23.976 -51.86,-53.277 l 0,-224.16022 c -1.17,-0.10156 -2.35,-0.1914 -3.52,-0.28125 M 2695.03,213.43 l 0,-157.5589 72.74,0 0,157.5589 -72.74,0 m -142.33,0 0,-157.5589 72.74,0 0,157.5589 -72.74,0 m -137.16,0 0,-157.5589 72.73,0 0,157.5589 -72.73,0 m -142.11,0 0,-157.5589 72.51,0 0,157.5589 -72.51,0" /><path
             id="path108"
             style="fill:#96d0f1;fill-opacity:1;fill-rule:nonzero;stroke:none"
             d="m 2776.07,308.23 -946.69,0 0,7.852 15.71,29.988 61.96,0 0,29.981 15.94,0 0,336.551 -15.94,0 0,29.988 -61.96,0 -15.71,14.07 0,47.75 -448.3,0 0,111.879 455.48,0 0,-52.828 939.74,0 0,88.578 28.73,0 0,-24.91 0,-44.981 465.24,0 c -13.14,-8.117 -25.46,-17.476 -36.8,-27.906 l -49.04,0 0,-35.293 -21.77,0 0,-81.168 c -5.62,-20.691 -8.61,-42.472 -8.61,-64.972 l 0,0 0,0 c 0,-22.567 2.99,-44.45 8.61,-65.239 l 0,-184.699 21.77,0 0,-35.289 85.53,0 0,35.289 22,0 0,27.391 c 10.96,-5.352 22.35,-9.871 34.13,-13.52 l 0,-13.871 22,0 0,-35.289 0,-40.363 -17.29,0 0,-1.149 -554.73,0 0,-37.84 m -93.61,404.372 0,-336.551 15.71,0 0,-29.981 61.97,0 0,29.981 15.93,0 0,336.551 -15.93,0 0,29.988 -61.97,0 0,-29.988 -15.71,0 m -144.57,0 0,-336.551 15.71,0 0,-29.981 61.96,0 0,29.981 15.94,0 0,336.551 -15.94,0 0,29.988 -61.96,0 0,-29.988 -15.71,0 m -134.48,0 0,-336.551 15.94,0 0,-29.981 61.96,0 0,29.981 15.94,0 0,336.551 -15.94,0 0,29.988 -61.96,0 0,-29.988 -15.94,0 m -144.57,0 0,-336.551 15.94,0 0,-29.981 61.73,0 0,29.981 15.94,0 0,336.551 -15.94,0 0,29.988 -61.73,0 0,-29.988 -15.94,0 m -150.41,0 0,-336.551 15.71,0 0,-29.981 61.96,0 0,29.981 15.94,0 0,336.551 -15.94,0 0,29.988 -61.96,0 0,-29.988 -15.71,0 m -144.58,0 0,-336.551 15.71,0 0,-29.981 61.97,0 0,29.981 15.94,0 0,336.551 -15.94,0 0,29.988 -61.97,0 0,-29.988 -15.71,0 m 1036.72,106.347 0,-396.078 21.77,0 0,-35.289 85.54,0 0,35.289 22,0 0,396.078 -22,0 0,35.293 -85.54,0 0,-35.293 -21.77,0 m -163.43,0 0,-396.078 21.77,0 0,-35.289 85.53,0 0,35.289 22,0 0,396.078 -22,0 0,35.293 -85.53,0 0,-35.293 -21.77,0" /><path
             id="path110"
             style="fill:#96d0f1;fill-opacity:1;fill-rule:nonzero;stroke:none"
             d="m 3090.81,544.211 -51.18,0 0,112.57 c 0,14.528 11.45,26.301 25.59,26.301 14.15,0 25.59,-11.773 25.59,-26.301 l 0,-112.57" /><path
             id="path112"
             style="fill:#96d0f1;fill-opacity:1;fill-rule:nonzero;stroke:none"
             d="m 2751.16,399.352 -43.56,0 0,95.269 c 0,12.219 9.65,22.371 21.78,22.371 11.9,0 21.78,-10.152 21.78,-22.371 l 0,-95.269" /><path
             id="path114"
             style="fill:#96d0f1;fill-opacity:1;fill-rule:nonzero;stroke:none"
             d="m 2606.36,399.352 -43.33,0 0,95.269 c 0,12.219 9.65,22.371 21.77,22.371 11.91,0 21.56,-10.152 21.56,-22.371 l 0,-95.269" /><path
             id="path116"
             style="fill:#96d0f1;fill-opacity:1;fill-rule:nonzero;stroke:none"
             d="m 2470.99,399.352 -43.56,0 0,95.269 c 0,12.219 9.88,22.371 21.78,22.371 11.9,0 21.78,-10.152 21.78,-22.371 l 0,-95.269" /><path
             id="path118"
             style="fill:#96d0f1;fill-opacity:1;fill-rule:nonzero;stroke:none"
             d="m 2326.41,399.352 -43.55,0 0,95.269 c 0,12.219 9.88,22.371 21.77,22.371 11.9,0 21.78,-10.152 21.78,-22.371 l 0,-95.269" /><path
             id="path120"
             style="fill:#96d0f1;fill-opacity:1;fill-rule:nonzero;stroke:none"
             d="m 2177.12,396.809 -43.55,0 0,95.5 c 0,12.222 9.88,22.382 21.78,22.382 11.89,0 21.77,-10.16 21.77,-22.382 l 0,-95.5" /><path
             id="path122"
             style="fill:#96d0f1;fill-opacity:1;fill-rule:nonzero;stroke:none"
             d="m 2041.75,396.809 -43.55,0 0,95.5 c 0,12.222 9.88,22.382 21.78,22.382 11.89,0 21.77,-10.16 21.77,-22.382 l 0,-95.5" /><path
             id="path124"
             style="fill:#96d0f1;fill-opacity:1;fill-rule:nonzero;stroke:none"
             d="m 1896.95,396.809 -43.33,0 0,95.5 c 0,12.222 9.65,22.382 21.78,22.382 11.9,0 21.55,-10.16 21.55,-22.382 l 0,-95.5" /><path
             id="path126"
             style="fill:#96d0f1;fill-opacity:1;fill-rule:nonzero;stroke:none"
             d="m 1829.38,316.082 0,0 -234.7,0 c -28.23,23.957 -54.29,49.527 -77.81,76.809 l 123.93,0 0,145.089 -162.53,0 0,-95.429 c -18.08,25.949 -33.96,53.258 -47.37,81.969 l 0,13.46 -6.06,0 c -28.14,64.918 -43.76,136.782 -43.76,216.051 l 0,2.629 448.3,0 15.71,-14.07 0,-29.988 -15.71,0 0,-336.551 15.71,0 0,-29.981 -15.71,-29.988 m -149.07,221.898 0,-145.089 71.62,0 0,145.089 -71.62,0 m -123.92,118.11 c -57.02,0 -78.12,-73.59 -78.12,-73.59 l 156.47,0 c 0,0 -21.33,73.59 -78.35,73.59" /><path
             id="path128"
             style="fill:#96d0f1;fill-opacity:1;fill-rule:nonzero;stroke:none"
             d="m 4551.47,3569.65 -13.34,0 0,98.57 -33.79,0 0,15.99 33.79,0 0,26.34 13.34,0 0,-26.34 34.17,0 0,-15.99 -34.17,0 0,-98.57" /><path
             id="path130"
             style="fill:#96d0f1;fill-opacity:1;fill-rule:nonzero;stroke:none"
             d="m 4576.46,3492.93 c -15.68,2.17 -31.6,3.97 -45.8,9.97 7.35,8.32 11.63,15.86 14.2,22 -11.75,0.25 -21.06,10.1 -21.06,22.37 0,12.4 9.56,22.38 21.43,22.38 11.88,0 21.43,-9.98 21.43,-22.38 0,-9.84 -6.12,-18.28 -14.57,-21.1 3.43,-8.69 10.4,-20.07 24.37,-33.24" /><path
             id="path132"
             style="fill:#96d0f1;fill-opacity:1;fill-rule:nonzero;stroke:none"
             d="m 4624.45,3429.26 c -39.42,18.54 -88.65,20.84 -124.65,46.03 2.09,2.05 4.41,3.83 6.74,5.63 1.71,1.27 3.3,2.42 4.77,3.7 9.55,-5.75 19.97,-10.1 30.49,-12.91 17.63,-4.48 36.12,-3.46 53.76,-8.06 6.36,-1.66 12.37,-4.09 17.87,-7.16 5.51,-8.56 9.19,-17.9 11.02,-27.23" /><path
             id="path134"
             style="fill:#96d0f1;fill-opacity:1;fill-rule:nonzero;stroke:none"
             d="m 4615.15,3376.07 c -43.96,25.95 -98.82,30.43 -139.84,62.14 2.09,6.14 4.9,12.28 8.45,18.03 12.24,-9.21 25.96,-16.37 40.65,-22.51 30.25,-12.53 71.27,-14.7 100.66,-32.98 l 0,-0.13 c -1.59,-8.95 -4.9,-17.27 -9.92,-24.55" /><path
             id="path136"
             style="fill:#96d0f1;fill-opacity:1;fill-rule:nonzero;stroke:none"
             d="m 3945.36,2511.88 -4.16,0 c 0,2.3 0,4.72 -0.13,7.29 l -4.77,0 0,98.44 -33.67,0 0,15.98 33.67,0 0,26.35 13.34,0 0,-26.35 34.29,0 0,-15.46 0,-0.52 -34.29,0 0,-98.44 -4.16,0 c -0.12,-2.57 -0.12,-4.99 -0.12,-7.29" /><path
             id="path138"
             style="fill:#96d0f1;fill-opacity:1;fill-rule:nonzero;stroke:none"
             d="m 4089.73,2528.24 -41.63,0 c 0,0 -15.07,14.19 -16.78,40.02 7.71,-7.54 15.92,-14.45 25.22,-20.46 10.78,-7.03 21.92,-13.42 33.19,-19.56" /><path
             id="path140"
             style="fill:#96d0f1;fill-opacity:1;fill-rule:nonzero;stroke:none"
             d="m 4257.97,2528.24 -114.73,0 c -19.84,11.13 -39.92,21.74 -59.76,32.99 -18.98,10.74 -34.04,23.78 -47.63,39.38 2.57,8.05 6.61,16.62 12.37,25.83 22.4,-19.69 46.4,-35.55 75.18,-46.67 40.16,-15.6 97.96,-22.38 140.69,-43.73 -3.3,-5.11 -6.12,-7.8 -6.12,-7.8" /><path
             id="path142"
             style="fill:#96d0f1;fill-opacity:1;fill-rule:nonzero;stroke:none"
             d="m 4273.27,2558.16 c -23.63,10.23 -49.83,16.11 -73.1,23.4 -52.16,16.37 -96,32.35 -136.65,65.59 6.98,7.93 14.08,14.19 21.19,19.56 18,-12.27 37.22,-21.22 59.01,-28.89 42.74,-15.09 94.04,-18.29 129.43,-47.95 2.57,-12.28 1.96,-22.89 0.12,-31.71" /><path
             id="path144"
             style="fill:#96d0f1;fill-opacity:1;fill-rule:nonzero;stroke:none"
             d="m 4254.17,2632.06 c -45.79,21.74 -100.89,25.83 -146.57,50.89 5.64,3.96 10.9,7.92 15.68,12.4 30.61,-17.01 67.83,-22.63 102.49,-32.22 9.55,-7.8 19.22,-17.51 28.4,-31.07" /><path
             id="path146"
             style="fill:#96d0f1;fill-opacity:1;fill-rule:nonzero;stroke:none"
             d="m 4177.76,2700.34 c -13.71,4.09 -26.94,8.82 -38.93,15.21 7.59,14.58 11.63,34.91 10.53,66.36 l -3.31,0 0,98.58 -33.67,0 0,15.99 33.67,0 0,26.33 13.35,0 0,-26.33 34.28,0 0,-15.99 -34.28,0 0,-98.58 -2.82,0 c -1.59,-44.11 7.23,-66.23 21.18,-81.57" /><path
             id="path148"
             style="fill:#96d0f1;fill-opacity:1;fill-rule:nonzero;stroke:none"
             d="m 4743.84,2856.71 -13.23,0 0,98.58 -33.79,0 0,15.98 33.79,0 0,26.21 13.23,0 0,-26.21 34.29,0 0,-15.98 -34.29,0 0,-98.58" /><path
             id="path150"
             style="fill:#96d0f1;fill-opacity:1;fill-rule:nonzero;stroke:none"
             d="m 4682.86,2905.17 -17.26,0 0,91.92 c 0,14.71 -8.45,26.73 -18.86,26.73 -5.14,0 -9.92,-2.94 -13.35,-7.8 -3.55,-4.86 -5.63,-11.51 -5.63,-18.93 l -31.22,0 0,39.13 c 0,14.7 -8.46,26.72 -18.86,26.72 -5.14,0 -9.92,-2.93 -13.35,-7.79 -3.55,-4.86 -5.63,-11.51 -5.63,-18.93 l -33.55,0 c 0,14.7 -8.57,26.72 -18.98,26.72 -5.14,0 -9.92,-2.93 -13.35,-7.79 -3.43,-4.86 -5.51,-11.51 -5.51,-18.93 l 0.25,-38.99 -17.63,-0.14 c 0,14.71 -8.58,26.73 -18.98,26.73 -5.27,0 -9.92,-2.94 -13.35,-7.8 -3.43,-4.86 -5.51,-11.51 -5.51,-18.93 l -17.51,0 0,28.14 c 1.8,30.13 30.9,32.87 41.42,32.87 2.34,0 3.76,-0.14 3.76,-0.14 6.37,22.12 26.94,30.81 26.94,30.81 l 0,99.09 10.77,34.52 19.84,0 0,96.54 -14.94,0 0,38.74 c -18.98,10.48 -29.38,29.53 -30.85,50.5 9.79,-6.77 20.57,-12.53 32.57,-17.52 29.75,-12.27 63.92,-17.26 92.57,-32.09 l -1.59,-0.89 0,-38.74 -14.94,0 0,-96.54 19.83,0 10.78,-34.52 0,-99.09 c 0,0 20.57,-8.69 26.94,-30.81 0,0 1.42,0.14 3.76,0.14 10.52,0 39.62,-2.75 41.42,-32.87 l 0,-120.06" /><path
             id="path152"
             style="fill:#96d0f1;fill-opacity:1;fill-rule:nonzero;stroke:none"
             d="m 5211.71,2716.45 -17.38,0 0,70.45 c 0,11.38 -5.39,20.59 -12.12,20.59 -6.62,0 -12.13,-9.21 -12.13,-20.59 l -20.2,0 c 0,11.38 -5.39,20.59 -12,20.59 -6.74,0 -12.12,-9.21 -12.12,-20.59 l -21.56,0 c 0,11.38 -5.38,20.59 -12.11,20.59 -6.62,0 -12.01,-9.21 -12.01,-20.59 l -14.69,0 c 0,11.38 -5.51,20.59 -12.12,20.59 -6.62,0 -12.13,-9.21 -12.13,-20.59 l -20.2,0 c 0,11.38 -5.39,20.59 -12.12,20.59 -6.61,0 -12.13,-9.21 -12.13,-20.59 l -13.83,0 0,32.09 -16.53,0 0,25.19 -11.02,0 0,29.92 16.53,0 c 0,0 -48.37,46.03 4.41,124.15 52.9,78.12 122.2,50.5 116.69,181.56 l -2.32,0 0,98.57 -33.68,0 0,15.98 33.68,0 0,26.22 13.34,0 0,-26.22 34.29,0 0,-15.98 -34.29,0 0,-98.57 -2.33,0 c -5.51,-131.06 63.8,-103.44 116.69,-181.56 52.78,-78.12 4.41,-124.15 4.41,-124.15 l 16.41,0 0,-29.92 -10.89,0 0,-25.19 -16.54,0 0,-102.54" /><path
             id="path154"
             style="fill:#96d0f1;fill-opacity:1;fill-rule:nonzero;stroke:none"
             d="m 4605.2,1409.67 -845.27,0 0,21.56 -96.82,0 0,143.06 111.07,79.28 0,403.38 54,0 29.88,45.14 0,68.27 -10.05,0 0,61.25 26.57,14.45 0,20.33 11.15,0 0,71.09 -8.33,0 0,12.78 -5.51,0 0,14.97 8.33,0 c 0,0 -24.37,23.13 2.2,62.52 25.59,37.71 58.78,26.46 58.78,84.13 l 4.16,0 c 0,-57.67 33.18,-46.42 58.78,-84.13 26.69,-39.39 2.2,-62.52 2.2,-62.52 l 8.32,0 0,-14.97 -5.5,0 0,-12.78 -8.33,0 0,-28.01 38.08,20.72 0,33.63 18.37,0 0,118.26 -13.84,0 0,21.11 -9.18,0 0,25.05 13.84,0 41.63,0 0,0 c 18.48,-10.1 37.22,-19.56 55.34,-30.05 2.06,-1.2 4.08,-1.73 6,-1.73 6.9,0 12.32,6.89 12.34,13.67 0.01,3.87 -1.74,7.7 -5.97,10.18 -4.65,2.69 -9.43,5.38 -14.2,7.93 l 114.73,0 13.71,0 0,-25.05 -9.18,0 0,-21.11 -13.84,0 0,-49.22 56.57,65.46 0,11.38 0,0 c 6.51,0.27 12.36,6.48 12.36,13.2 0,2.9 -1.09,5.88 -3.67,8.54 -2.81,2.81 -5.63,5.5 -8.69,7.8 l 0,49.22 0,85.67 c 21.55,58.68 75.8,98.83 75.8,98.83 l 0,54.6 33.55,31.58 0,137.95 17.51,0 0.49,-91.92 37.35,0 0,91.92 17.63,0.14 0.24,-52.94 37.35,0 0,91.93 33.55,0 0.49,-91.93 37.35,0 0,52.8 31.22,0 0.49,-91.92 37.35,0 17.26,0 0,-46.03 33.55,-31.58 0,-54.47 c 12,15.47 19.23,37.98 17.52,79.28 l 7.22,0 c -4.66,-109.58 53.39,-86.57 97.59,-151.9 42.36,-62.78 6.86,-100.76 3.92,-103.82 31.46,11.63 37.47,68.4 37.47,68.4 l 0,77.61 -26.58,0 0,12.53 26.58,0 0,20.71 10.52,0 0,-20.71 26.94,0 0,-12.53 -26.94,0 0,-77.61 c 2.21,-37.59 17.39,-56.39 17.39,-56.39 l 52.78,28.77 0,40.15 22.04,0 0,109.32 13.83,0 0.37,-70.45 23.88,0 0,70.45 20.2,0 0.37,-70.45 23.88,0 0,70.45 14.69,0 0.25,-70.45 23.87,0 0,70.45 21.56,0 0.24,-70.45 23.88,0 0,70.45 20.2,0 0.37,-70.45 23.88,0 17.38,0 0,-38.87 22.04,0 0,-40.15 52.78,-28.77 0,-121.84 -19.84,0 0,-135.67 13.84,0 0,-52.28 25.84,-26.99 0,-5.17 c -14.78,-67.65 -33.44,-135.05 -56.05,-202.89 -75.87,-228.4 -154.88,-412.45 -281.55,-526.44 -8.66,-0.66 -16.48,-4.6 -22.27,-10.65 -3.99,-4.17 -7.02,-9.34 -8.73,-15.1 -0.87,-0.67 -1.74,-1.32 -2.61,-1.98 -3.85,15.94 -17.8,27.82 -34.22,27.82 -9.67,0 -18.49,-4.09 -24.86,-10.74 -6.49,-6.65 -10.4,-15.86 -10.4,-25.96 l 0.23,-34.46 c -72.24,-36.85 -157.58,-56.64 -260.71,-56.64 m -519.02,376.23 c -9.68,0 -18.49,-4.09 -24.86,-10.74 -6.49,-6.78 -10.41,-15.99 -10.41,-26.09 l 0.86,-126.32 69.55,0 0,126.32 c 0,20.34 -15.8,36.83 -35.14,36.83 m 598.27,10.1 c -8.93,0 -17.14,-3.84 -23.01,-9.97 -5.88,-6.27 -9.56,-14.84 -9.56,-24.17 l 0.74,-116.98 64.53,0 0,116.98 c 0,18.79 -14.69,34.14 -32.7,34.14 m -216.6,-38.74 c -6.62,0 -12.61,-2.69 -17.03,-7.04 -4.28,-4.34 -6.98,-10.23 -6.98,-16.87 l 0.62,-81.96 47.26,0 0,81.96 c 0,13.16 -10.77,23.91 -23.87,23.91 m -87.8,0 c -6.61,0 -12.49,-2.69 -16.9,-7.04 -4.28,-4.34 -6.98,-10.23 -6.98,-16.87 l 0.61,-81.96 47.14,0 0,81.96 c 0,13.16 -10.77,23.91 -23.87,23.91 m -90.25,0 c -6.48,0 -12.49,-2.69 -16.89,-7.04 -4.29,-4.34 -6.98,-10.23 -6.98,-16.87 l 0.61,-81.96 47.14,0 0,81.96 c 0,13.16 -10.77,23.91 -23.88,23.91 m -203.62,301.1 c -9.68,0 -18.49,-4.09 -24.86,-10.87 -6.49,-6.64 -10.41,-15.85 -10.41,-25.95 l 0.86,-126.45 69.55,0 0,126.45 c 0,20.2 -15.8,36.82 -35.14,36.82 m 610.76,1.66 c -8.93,0 -17.14,-3.83 -23.01,-9.97 -5.88,-6.26 -9.56,-14.7 -9.56,-24.03 l 0.74,-117.12 64.53,0 0,117.12 c 0,18.66 -14.69,34 -32.7,34 m -230.44,-27.48 c -6.62,0 -12.49,-2.69 -16.9,-7.04 -4.29,-4.35 -6.98,-10.35 -6.98,-16.88 l 0.61,-81.95 47.14,0 0,81.95 c 0,13.18 -10.65,23.92 -23.87,23.92 m -87.68,0 c -6.61,0 -12.61,-2.69 -16.89,-7.04 -4.29,-4.35 -6.98,-10.35 -6.98,-16.88 l 0.49,-81.95 47.26,0 0,81.95 c 0,13.18 -10.77,23.92 -23.88,23.92 m -90.24,0 c -6.61,0 -12.61,-2.69 -16.9,-7.04 -4.28,-4.35 -6.98,-10.35 -6.98,-16.88 l 0.5,-81.95 47.26,0 0,81.95 c 0,13.18 -10.78,23.92 -23.88,23.92 m 91.1,295.99 c 60.25,-37.34 126.86,-83.24 133.47,-95.26 8.82,-15.85 -4.04,-38.36 -4.17,-38.61 l 20.83,-13.43 c 0.85,1.41 20.81,35.55 4.65,64.83 -13.35,24.04 -116.82,88.86 -148.17,108.17 l -2.94,1.66 -6.61,0 -3.55,-1.66 c -31.34,-19.31 -134.81,-84.13 -148.16,-108.17 -16.16,-29.28 3.8,-63.42 4.65,-64.83 l 20.82,13.43 c -0.12,0.25 -13.1,22.76 -4.28,38.61 6.61,12.02 73.22,57.92 133.46,95.26 m 805.95,240.75 c -6.36,0 -12.12,-4.21 -16.28,-10.99 -4.29,-6.65 -6.86,-15.98 -6.86,-26.22 l 0.61,-127.98 45.68,0 0,127.98 c 0,20.47 -10.41,37.21 -23.15,37.21 m -110.93,17.65 c -6.99,0 -13.47,-4.61 -18.13,-12.15 -4.53,-7.42 -7.47,-17.77 -7.47,-29.02 l 0.62,-141.67 50.57,0 0,141.67 c 0,22.63 -11.51,41.17 -25.59,41.17 m -102.37,-17.65 c -6.37,0 -12.12,-4.21 -16.29,-10.99 -4.28,-6.65 -6.86,-15.98 -6.86,-26.22 l 0.5,-127.98 45.67,0 0,127.98 c 0,20.47 -10.41,37.21 -23.02,37.21 m -617.38,138.35 c -5.75,0 -11.02,-6.14 -14.82,-15.98 -3.8,-9.85 -6.12,-23.4 -6.12,-38.36 l 0.49,-186.93 41.26,0 0,186.93 c 0,29.91 -9.3,54.34 -20.81,54.34 m 283.46,36.56 c -11.51,0 -22.04,-6.26 -29.63,-16.36 -7.59,-10.1 -12.24,-24.04 -12.24,-39.38 l 0.97,-191.66 59.4,0 0,66.36 c 0,0 -28.05,17.9 -29.15,73.13 -1.1,55.11 42.86,87.58 42.86,87.58 -7.71,12.41 -19.35,20.33 -32.21,20.33 m -166.04,0 c -11.5,0 -22.04,-6.26 -29.63,-16.36 -7.59,-10.1 -12.24,-24.04 -12.24,-39.38 l 0.98,-191.66 82.65,0 0,191.66 c 0,30.68 -18.86,55.74 -41.76,55.74" /><path
             id="path156"
             style="fill:#96d0f1;fill-opacity:1;fill-rule:nonzero;stroke:none"
             d="m 4151.07,2496.46 c -1.92,0 -3.94,0.53 -6,1.73 -18.12,10.49 -36.86,19.95 -55.34,30.05 l 0,0 53.51,0 c 4.77,-2.55 9.55,-5.24 14.2,-7.93 4.23,-2.48 5.98,-6.31 5.97,-10.18 -0.02,-6.78 -5.44,-13.67 -12.34,-13.67" /><path
             id="path158"
             style="fill:#96d0f1;fill-opacity:1;fill-rule:nonzero;stroke:none"
             d="m 4305.23,2509.7 0,0 0,29.54 c 3.06,-2.3 5.88,-4.99 8.69,-7.8 2.58,-2.66 3.67,-5.64 3.67,-8.54 0,-6.72 -5.85,-12.93 -12.36,-13.2" /><path
             id="path160"
             style="fill:#96d0f1;fill-opacity:1;fill-rule:nonzero;stroke:none"
             d="m 3663.11,1409.67 -831.39,0 0,78 c -201.36,0 -208.9,145.32 -222.19,171.68 -13.07,26.58 29.24,119.85 -30.79,120.06 -2.44,0.23 -4.65,0.23 -6.87,0.45 -52.29,6.65 -41.65,84.62 1.77,109 5.78,3.24 10.99,4.62 15.75,4.62 13.62,0 23.49,-11.3 32.08,-22.61 8.59,-11.3 15.9,-22.6 24.41,-22.6 3.37,0 6.93,1.78 10.83,6.03 19.49,21.39 44.37,41.75 59.74,41.75 5.95,0 10.48,-3.06 12.71,-10.3 7.75,-25.69 -32.12,-58.03 -48.52,-66.68 -16.39,-8.41 -50.07,-82.85 28.35,-97.47 16.46,-3.03 31.42,-4.22 44.79,-4.22 50.18,0 77.94,16.85 77.94,16.85 l 0,84.84 120.74,0 0,154.86 84.84,0 6.87,321.87 c -19.94,13.08 -63.13,59.15 -75.54,59.15 -14.18,0 -0.89,45.2 9.52,92.38 10.42,47.18 42.31,69.78 49.4,96.14 6.3,23.62 -27.96,76.08 -26.06,94.8 l 24.98,0 c 11.63,-8.18 22.86,-20.74 24.79,-22.8 l 0.48,22.8 263.21,0 c 77.22,0 152.73,12.09 224.64,34.5 l 14.76,-672.49 0,-26.35 84.84,0 0,-154.86 75.01,0 0,-108.59 -111.05,-79.28 0,-199.97 59.96,0 0,-21.56" /><path
             id="path162"
             style="fill:#76bbe9;fill-opacity:1;fill-rule:nonzero;stroke:none"
             d="m 3663.11,1409.67 96.8203,0 0,21.5586 -96.8203,0 0,-21.5586 z" /><path
             id="path164"
             style="fill:#96d0f1;fill-opacity:1;fill-rule:nonzero;stroke:none"
             d="m 2000.78,1952.48 c -0.11,0 -0.14,0.02 -0.1,0.07 0.48,0.51 3.76,3.06 3.24,3.06 -0.03,0 -0.08,-0.01 -0.14,-0.03 -1.08,-0.35 -3.32,-2.55 -7.76,-2.94 -0.8,-0.07 -1.5,-0.1 -2.1,-0.1 -2.79,0 -3.66,0.65 -2.99,1.14 0.81,0.61 33.94,22.99 38.14,25.85 4.19,2.86 -0.86,1.91 7.19,8.19 8.04,6.28 30.85,15.32 35.3,20.77 4.44,5.45 8.88,10.9 21.54,20.97 12.66,10.08 22.68,18.82 22.68,18.82 -0.9,-0.14 -2.04,-0.21 -3.33,-0.21 -5.28,0 -12.93,1.24 -15.02,4.15 -1.24,1.72 0.77,3.97 1.49,4.98 0.71,1 -3,3.42 -3.41,5.64 -0.41,2.23 0.57,3.51 0.97,4.97 0.4,1.47 3.02,13.46 3.02,13.46 0,0 -4.22,0.93 -6.58,6.18 -2.37,5.27 0.62,6.48 -0.88,8.88 -1.5,2.39 -6.15,1.95 -8.15,6.56 -2.01,4.6 -0.72,7.22 -1.39,8.32 -0.68,1.11 -5.85,1.61 -7.56,6.28 -1.71,4.68 -0.2,5.44 -1.17,6.91 -0.96,1.46 -6.43,2.32 -7.42,5.68 -0.98,3.36 0.16,2.99 -0.36,4.34 -0.53,1.36 -5.33,2.99 -7.39,7.37 -2.06,4.38 -2.09,5.43 -2.09,5.43 0,0 -0.07,-0.01 -0.2,-0.01 -0.81,0 -3.97,0.35 -5.73,5.6 -2.02,6.08 0.12,5.94 -1.55,7.67 -1.66,1.73 -4.19,-0.13 -6.45,4.21 -2.26,4.33 0.16,5.73 -1.3,7.5 -0.24,0.29 -0.43,0.39 -0.6,0.39 -0.23,0 -0.42,-0.18 -0.63,-0.36 -0.2,-0.19 -0.41,-0.37 -0.69,-0.37 -0.52,0 -1.26,0.67 -2.56,3.32 -3.17,6.44 -1.8,7.82 -2.43,8.73 -0.05,0.08 -0.11,0.12 -0.17,0.12 -0.18,0 -0.36,-0.32 -0.62,-0.63 -0.25,-0.31 -0.57,-0.63 -1.01,-0.63 -0.58,0 -1.38,0.57 -2.51,2.47 -3.09,5.19 -0.58,6.19 -2.95,10.07 -2.37,3.89 -3.35,4.51 -7.22,8.47 -3.86,3.97 -2.6,4.88 -4.36,8.91 -1.77,4.02 -2.35,4.73 -3.91,6.9 -0.41,0.58 -0.74,0.72 -1.06,0.72 -0.14,0 -0.29,-0.03 -0.43,-0.05 -0.15,-0.03 -0.31,-0.06 -0.48,-0.06 -0.71,0 -1.66,0.48 -3.39,3.44 -3.47,5.94 -3.89,7.75 -3.89,7.75 0,0 -0.25,-0.06 -0.68,-0.06 -1.34,0 -4.37,0.53 -6.33,4.88 -2.58,5.73 -0.59,5.34 -2.77,6.54 -2.17,1.19 -4.32,-0.47 -7.37,3.16 -3.05,3.62 -1.6,4.69 -4.36,7.53 -2.77,2.85 -8.78,5.58 -15.47,7.21 -6.71,1.62 -7.57,2.15 -7.24,3.92 0.31,1.62 1.56,4.53 0.82,4.53 -0.07,0 -0.15,-0.03 -0.25,-0.08 -1.14,-0.54 -4.78,-2.91 -6.85,-2.91 -0.18,0 -0.36,0.02 -0.52,0.06 -1.91,0.51 -15.9,8.17 -23.06,12.74 -7.17,4.58 -8.66,5.08 -7.59,6.38 1.08,1.29 2.85,1.81 2.44,2.24 -0.41,0.44 -13.21,4.25 -19.28,6.33 -6.07,2.09 -7.5,3.76 -6.9,4.32 l 3.67,1.48 c 0,0 -21.56,8.02 -24.46,11.47 -2.9,3.44 -3.69,3.68 -2,4.59 1.69,0.92 3.45,1.96 3.45,1.96 0,0 -18.25,6.88 -21.63,9.69 -3.39,2.81 -5.74,1.1 -3.7,3.26 2.03,2.15 4.21,2.76 4.21,2.76 0,0 -15.76,3.87 -19.85,7.88 -4.08,4.02 -5.63,3.88 -4.34,5.13 1.3,1.24 4.14,2.2 4.14,2.2 0,0 -10.1,1.27 -14.79,5.15 -4.69,3.89 -6.82,5.82 -6.19,6.28 l 4.23,1.82 c 0,0 -12.85,7.27 -10.62,9.47 0.89,0.88 13.9,2.21 32.89,2.21 28.79,0 71.32,-3.06 106.18,-15.39 57.85,-20.45 71.96,-23.12 84.24,-32.52 12.29,-9.42 77.18,-42.17 85.55,-52.9 8.38,-10.74 21.83,-52.78 49.59,-92.8 27.75,-40.03 40.72,-45.06 40.72,-45.06 0,0 47.33,39.14 85.18,60.7 29.61,16.87 48.3,25.67 53.22,25.67 1.37,0 1.67,-0.68 0.84,-2.07 -3.81,-6.36 -45.34,-42.26 -57.28,-61.88 -11.94,-19.62 -10.5,-35.1 -10.5,-35.1 0,0 15.19,3 30.78,3 4.89,0 9.83,-0.3 14.34,-1.08 18.89,-3.25 27.03,-7.5 29.4,-11.37 2.37,-3.89 3.1,-7.1 5.57,-8.64 2.46,-1.54 5.51,-1.05 6.28,-2.57 0.77,-1.51 1.8,-2.32 1.8,-2.32 0,0 10.23,-0.66 14.08,-0.94 0.32,-0.02 0.63,-0.03 0.92,-0.03 0.98,0 1.78,0.11 2.52,0.23 0.73,0.11 1.41,0.22 2.13,0.22 0.9,0 1.88,-0.17 3.15,-0.73 3.64,-1.59 5.45,-3.49 6.24,-7.42 0.8,-3.94 -0.73,-6.93 -0.73,-6.93 0,0 1.02,2.46 -3.68,4.12 -2.26,0.79 -8.16,1.14 -14.53,1.14 -6.91,0 -14.38,-0.41 -18.38,-1.11 -7.71,-1.35 -34.11,-21.86 -59.49,-35.29 -25.39,-13.43 -65.92,-41.72 -87.63,-50.08 -21.7,-8.36 -90.67,-16.62 -114.71,-19.39 -24.04,-2.78 -50.01,-18.24 -68.48,-23.22 -16.92,-4.57 -27.28,-7.28 -28.51,-7.28" /><path
             id="path166"
             style="fill:#96d0f1;fill-opacity:1;fill-rule:nonzero;stroke:none"
             d="m 2079.86,1130.82 c -3.06,0 -29.82,41.46 -43.4,55.97 -14.07,15.04 -37.62,30.08 -39.64,30.39 -2.03,0.3 -22.16,8.73 -45.42,23.85 -23.27,15.11 -32.33,25.31 -49.31,49.53 -16.96,24.23 -24.96,36.78 -24.96,36.78 0,0 -1.92,2.15 -8.39,5.87 -6.46,3.73 -33.26,6.24 -33.26,6.24 0,0 0.44,1.08 6.71,3.5 3.08,1.19 8.82,1.28 14.67,1.28 0.53,0 1.06,0 1.59,0 0.56,0 1.13,0 1.69,0 4.94,0 9.62,0.07 12.46,0.83 6.8,1.84 12.4,8.56 27.49,9.36 0.38,0.02 0.77,0.03 1.15,0.03 14.89,0 32.95,-14.3 32.95,-14.3 0,0 13.75,17.3 18.46,34.12 4.7,16.83 -5.21,44.16 -1.34,56.38 3.88,12.22 13.92,21.85 33.35,23.68 0.97,0.09 2.02,0.13 3.15,0.13 21.45,0 69.48,-15.86 72.34,-18.32 3,-2.59 -16.08,-7.97 -22.77,-11.11 -6.69,-3.13 -0.67,-5.16 -2.53,-11.37 -1.85,-6.21 -9.62,-7.15 -9.62,-7.15 0,0 0.38,-1.6 -0.44,-6.01 -0.82,-4.41 -4.21,-5.32 -3.96,-7.2 0.27,-1.87 -0.55,-3.12 -1.86,-5 -1.32,-1.87 -1.69,-3.43 -1.4,-6.33 0.29,-2.9 -3.83,-5.16 -4.42,-5.68 -0.22,-0.19 0.43,-0.24 1.93,-0.24 0.55,0 1.22,0.01 2,0.02 0.78,0 1.68,0.01 2.69,0.01 2.62,0 5.99,-0.04 10.07,-0.22 0.46,-0.02 0.93,-0.03 1.43,-0.03 1.4,0 2.97,0.07 4.74,0.13 1.74,0.06 3.67,0.13 5.81,0.13 14.17,0 37.46,-2.78 76.3,-26.69 52.72,-32.46 165.8,-103.21 168.44,-105.78 2.13,-2.07 3.58,-7.52 -4.97,-7.52 -2.02,0 -4.6,0.31 -7.86,1.03 -17.06,3.79 -27.43,10.71 -29.06,11.37 -0.13,0.05 -0.25,0.07 -0.37,0.07 -0.52,0 -1,-0.44 -1.83,-0.87 -0.83,-0.44 -2.01,-0.88 -3.9,-0.88 -1.39,0 -3.16,0.23 -5.47,0.88 -9.32,2.58 -22.31,12.46 -24.41,13.04 -0.17,0.05 -0.34,0.07 -0.51,0.07 -0.62,0 -1.25,-0.28 -2.01,-0.56 -0.77,-0.29 -1.69,-0.57 -2.89,-0.57 -1.28,0 -2.88,0.32 -4.98,1.3 -6.6,3.08 -25.73,12.75 -27.88,14 -0.27,0.15 -0.51,0.22 -0.76,0.22 -0.65,0 -1.29,-0.48 -2.25,-0.95 -0.95,-0.47 -2.23,-0.95 -4.18,-0.95 -1.23,0 -2.73,0.19 -4.58,0.69 -8.78,2.38 -18.26,5.36 -19.73,5.63 -0.1,0.02 -0.2,0.03 -0.3,0.03 -1.3,0 -2.32,-1.61 -6.42,-2.15 -0.16,-0.02 -0.32,-0.03 -0.49,-0.03 -4.73,0 -15.71,7.39 -15.71,7.39 0,0 -0.71,-1.3 -2.95,-1.3 -0.03,0 -0.07,0 -0.1,0 -2.32,0.04 -8.53,3.47 -11.91,4.51 -1.03,0.31 -1.66,0.46 -2.19,0.46 -1.22,0 -1.92,-0.76 -5.61,-1.96 -1.38,-0.45 -2.53,-0.61 -3.5,-0.61 -1.24,0 -2.19,0.27 -2.96,0.53 -0.76,0.27 -1.34,0.53 -1.84,0.53 -0.1,0 -0.21,-0.01 -0.31,-0.04 -1.42,-0.38 -3.12,-0.84 -5.56,-2.83 -1.37,-1.12 -2.25,-1.36 -3.22,-1.36 -0.35,0 -0.72,0.04 -1.13,0.07 -0.41,0.03 -0.86,0.06 -1.38,0.06 -0.06,0 -0.13,0 -0.19,0 -2.6,-0.03 -2.63,-1.98 -4.82,-6.03 -1.93,-3.59 -8.1,-3.8 -9.5,-3.8 -0.19,0 -0.29,0.01 -0.29,0.01 0,0 -4.22,-2.36 -6.82,-5.36 -2.59,-3 -3.68,-2.57 -6.71,-3.51 -3.02,-0.94 -3.7,-2.94 -6.55,-7.23 -1.6,-2.4 -5.36,-2.93 -8.36,-2.93 -2.36,0 -4.25,0.33 -4.25,0.33 0,0 -4.45,-4.66 -4.93,-6.5 -0.48,-1.83 5.43,-12.02 9.29,-18.93 3.87,-6.93 9.95,-11 19.33,-22.14 9.38,-11.15 23.59,-33.25 25.85,-38.96 0.69,-1.72 0.02,-2.21 -1.17,-2.21 -0.8,0 -1.84,0.22 -2.86,0.43 -1.03,0.22 -2.04,0.44 -2.81,0.44 -1.12,0 -1.7,-0.47 -0.98,-2.1 2.47,-5.53 13.84,-30.17 12.53,-33.44 -0.05,-0.12 -0.13,-0.17 -0.24,-0.17" /></g></g><g
         id="g168"><g
           clip-path="url(#clipPath172)"
           id="g170"><g
             clip-path="url(#clipPath178)"
             id="g176"><path
               id="path182"
               style="fill:#b5ddf5;fill-opacity:1;fill-rule:nonzero;stroke:none"
               d="m 2662.98,3565.87 c -0.72,0 -6.45,1.51 -15.79,4.08 -10.23,2.82 -24.49,12.06 -37.87,13.41 -13.38,1.35 -51.76,5.4 -63.74,10.27 -11.98,4.87 -34.17,21.9 -48.13,29.88 -13.96,7.98 -28.37,20.37 -32.65,21.09 -1.73,0.29 -4.63,0.43 -7.65,0.43 -4.45,0 -9.15,-0.32 -10.73,-0.98 -2.65,-1.11 -2.12,-2.63 -2.12,-2.63 0,0 -0.81,1.84 -0.3,4.31 0.51,2.47 1.55,3.69 3.6,4.74 0.77,0.39 1.35,0.51 1.88,0.51 0.36,0 0.7,-0.05 1.06,-0.11 0.37,-0.05 0.77,-0.1 1.24,-0.1 0.22,0 0.45,0.01 0.7,0.04 2.16,0.23 7.88,0.8 7.88,0.8 0,0 0.59,0.53 1.04,1.49 0.45,0.95 2.15,0.69 3.55,1.7 1.4,1.01 1.86,3.02 3.25,5.48 1.38,2.47 6,5.25 16.6,7.59 3.11,0.68 6.56,0.93 9.88,0.93 8.01,0 15.28,-1.41 15.28,-1.41 0,0 1.06,9.7 -5.3,21.76 -6.35,12.07 -28.96,33.83 -30.99,37.74 -0.45,0.88 -0.25,1.31 0.57,1.31 2.84,0 13.1,-5.2 29.24,-15.18 20.79,-12.87 46.59,-36.55 46.59,-36.55 0,0 7.32,3.35 23.47,28.8 16.14,25.45 24.33,51.93 29.18,58.77 4.85,6.84 41.61,28.35 48.62,34.43 7.02,6.07 14.94,7.97 47.57,21.67 22.05,9.27 49.3,11.4 65.03,11.4 7.55,0 12.45,-0.49 12.84,-0.92 1.22,-1.34 -6.08,-6.09 -6.08,-6.09 l 2.33,-1.07 c 0.35,-0.28 -0.87,-1.52 -3.55,-4.02 -2.68,-2.5 -8.34,-3.45 -8.34,-3.45 l 2.27,-1.32 c 0.7,-0.76 -0.16,-0.7 -2.51,-3.27 -2.35,-2.58 -11.21,-5.25 -11.21,-5.25 0,0 1.21,-0.34 2.31,-1.65 1.11,-1.31 -0.18,-0.29 -2.12,-2.1 -1.93,-1.81 -12.23,-6.4 -12.23,-6.4 0,0 0.97,-0.62 1.89,-1.17 0.93,-0.54 0.48,-0.7 -1.19,-2.9 -1.68,-2.2 -13.84,-7.56 -13.84,-7.56 l 2.02,-0.86 c 0.33,-0.34 -0.5,-1.41 -3.92,-2.81 -3.42,-1.4 -10.63,-3.99 -10.87,-4.26 l 1.33,-1.37 c 0.57,-0.8 -0.26,-1.13 -4.34,-4.11 -4.08,-2.97 -12.01,-7.97 -13.09,-8.32 -0.1,-0.04 -0.21,-0.05 -0.33,-0.05 -1.16,0 -3.12,1.39 -3.73,1.71 -0.06,0.02 -0.1,0.04 -0.14,0.04 -0.42,0 0.23,-1.81 0.38,-2.82 0.16,-1.09 -0.33,-1.44 -4.1,-2.56 -3.77,-1.13 -7.17,-2.93 -8.76,-4.75 -1.58,-1.83 -0.8,-2.47 -2.56,-4.78 -1.76,-2.32 -2.93,-1.31 -4.16,-2.1 -1.24,-0.77 -0.12,-0.5 -1.65,-4.12 -1.21,-2.84 -2.98,-3.15 -3.69,-3.15 -0.2,0 -0.31,0.02 -0.31,0.02 0,0 -0.26,-1.13 -2.29,-4.9 -1.04,-1.92 -1.58,-2.2 -1.98,-2.2 -0.08,0 -0.16,0.01 -0.24,0.02 -0.07,0.02 -0.15,0.03 -0.22,0.03 -0.19,0 -0.37,-0.09 -0.62,-0.47 -0.9,-1.38 -1.24,-1.83 -2.29,-4.37 -1.05,-2.54 -0.37,-3.1 -2.59,-5.64 -2.22,-2.54 -2.78,-2.94 -4.16,-5.41 -1.39,-2.46 0,-3.04 -1.81,-6.34 -0.67,-1.22 -1.13,-1.58 -1.46,-1.58 -0.23,0 -0.41,0.19 -0.54,0.38 -0.14,0.19 -0.23,0.38 -0.33,0.38 -0.03,0 -0.07,-0.02 -0.1,-0.08 -0.37,-0.58 0.38,-1.41 -1.5,-5.49 -0.78,-1.69 -1.2,-2.11 -1.49,-2.11 -0.15,0 -0.26,0.11 -0.37,0.22 -0.11,0.11 -0.21,0.22 -0.34,0.22 -0.09,0 -0.21,-0.07 -0.34,-0.26 -0.85,-1.13 0.48,-1.97 -0.85,-4.71 -1.34,-2.74 -2.72,-1.63 -3.68,-2.74 -0.95,-1.1 0.25,-0.98 -0.98,-4.81 -1.1,-3.4 -2.94,-3.59 -3.33,-3.59 -0.04,0 -0.07,0 -0.07,0 0,0 -0.04,-0.65 -1.26,-3.42 -1.22,-2.77 -3.93,-3.87 -4.24,-4.72 -0.32,-0.86 0.33,-0.61 -0.28,-2.73 -0.6,-2.11 -3.67,-2.73 -4.23,-3.66 -0.57,-0.93 0.26,-1.39 -0.76,-4.34 -1.03,-2.94 -3.93,-3.33 -4.32,-4.04 -0.4,-0.7 0.28,-2.32 -0.91,-5.22 -1.2,-2.91 -3.78,-2.71 -4.66,-4.24 -0.88,-1.52 0.77,-2.23 -0.64,-5.55 -1.4,-3.32 -3.77,-3.97 -3.77,-3.97 0,0 1.27,-7.45 1.47,-8.36 0.2,-0.91 0.73,-1.69 0.46,-3.09 -0.26,-1.4 -2.38,-2.96 -1.99,-3.58 0.38,-0.62 1.47,-1.99 0.75,-3.09 -1.28,-1.94 -5.98,-2.84 -8.92,-2.84 -0.53,0 -1,0.02 -1.39,0.08 0,0 5.45,-5.29 12.36,-11.38 6.91,-6.1 9.3,-9.43 11.7,-12.76 2.39,-3.34 14.98,-8.62 19.37,-12.41 4.39,-3.79 1.59,-3.28 3.88,-5 2.3,-1.72 20.45,-15.17 20.89,-15.54 0.38,-0.31 -0.19,-0.76 -1.96,-0.76 -0.27,0 -0.57,0.01 -0.9,0.03 -2.48,0.17 -3.69,1.51 -4.29,1.72 l 1.68,-1.85 c 0.03,-0.03 0,-0.04 -0.07,-0.04" /><path
               id="path184"
               style="fill:#b5ddf5;fill-opacity:1;fill-rule:nonzero;stroke:none"
               d="m 2501.58,4646.05 c -2.07,0 -3.05,0.61 -2.96,1.88 0.43,5.55 11.31,13.12 11.04,13.9 -0.27,0.78 -3.19,1.49 1.09,5.15 4.28,3.65 9.83,7.45 9.83,7.45 0,0 -3.09,0.29 -1.12,3.6 1.97,3.3 20.38,17.21 20.38,17.21 0,0 -0.79,-0.15 -1.67,-0.15 -1.58,0 -3.43,0.46 -1.51,3.02 2.98,3.98 16.38,14.6 16.38,14.6 0,0 -2.91,2.09 4.66,8.47 7.58,6.39 14.79,12.07 14.79,12.07 0,0 -2.33,2.65 1.9,5.57 4.24,2.91 12.11,8.19 14.71,10.27 2.6,2.08 -1.9,2.7 6.15,8.48 8.04,5.79 13.54,8.85 13.54,8.85 0,0 -0.02,0 -0.04,0 -0.33,0 -2.66,0.17 4.27,5.68 7.4,5.86 11.33,7.13 13.61,10.63 2.28,3.5 -0.81,2.34 6.62,7.89 7.42,5.55 8.99,7.35 8.99,7.35 0,0 4.73,7.51 7.68,10.6 2.94,3.1 -0.04,4.62 3.82,10.98 3.87,6.36 4.93,4.94 4.93,7.85 -0.01,2.92 -2.12,2.68 1.23,8.89 3.34,6.22 6.09,9.13 6.2,10.44 0.11,1.31 -1.1,3.28 0.14,6.65 1.22,3.39 1.86,4.84 1.86,4.84 0,0 -2.55,1.41 0.76,6.73 3.3,5.32 5.77,7.8 5.91,8.78 0.13,0.99 -0.48,6.27 2.71,8.9 3.19,2.64 3.02,2.13 4.48,5.21 1.47,3.09 2.24,4.15 4.93,7.7 2.7,3.55 1.42,3.73 6.05,9.77 4.63,6.04 7.58,9.13 7.58,9.13 0,0 21.89,21.79 29.05,28.13 7.15,6.33 7.7,7.52 7.7,7.52 0,0 -0.3,2.48 1.45,7.38 1.75,4.91 2.74,5.83 2.26,6.58 -0.49,0.76 -41.39,29.53 -54.3,37.45 -12.91,7.91 -13.96,9.17 -28.76,15.5 -14.79,6.32 -19.81,9.55 -25.04,15.51 -5.06,5.78 1.32,8.84 5.88,8.84 0.15,0 0.3,-0.01 0.44,-0.01 3.09,-0.14 4.28,-0.64 5.51,-0.64 0.6,0 1.21,0.12 2.04,0.45 1.82,0.72 4.79,0.97 7.13,0.97 0.97,0 1.83,-0.04 2.46,-0.11 2.14,-0.24 28.96,-7.05 56.64,-16.68 27.67,-9.62 27.23,-12.11 49.96,-15.33 22.73,-3.23 36.14,-3.79 36.14,-3.79 0,0 -2.32,1.27 -0.97,5.8 1.35,4.53 10.21,5.22 10.91,7.25 0.69,2.02 -1.97,3.5 3.7,5.69 5.67,2.19 13.2,3.53 14.99,3.66 0.16,0.02 0.32,0.02 0.49,0.02 0.26,0 0.52,-0.01 0.79,-0.02 0.28,-0.01 0.56,-0.02 0.83,-0.02 1.37,0 2.58,0.24 2.31,1.91 -0.4,2.54 0.81,1.95 5.94,5.54 5.14,3.59 9.21,4.46 9.21,4.46 0,0 2.4,6.19 5.66,8.02 3.25,1.84 5.65,2.35 6.68,4.17 1.03,1.82 2.87,4.06 6.71,5.22 3.83,1.17 0.97,2.47 5.11,5.3 4.14,2.82 5.19,2.94 6.08,3.77 0.89,0.83 -1.31,1.87 4.23,4.3 5.54,2.41 7.38,3.43 7.38,3.43 0,0 2.8,2.27 7.65,4.04 4.85,1.77 4.4,0.67 8.31,2.25 3.91,1.59 1.85,2.24 8.03,3.19 6.19,0.95 7.99,0.92 9.85,1.61 1.85,0.71 8.56,4.56 14.34,5.3 5.78,0.74 5.63,-0.08 9.79,1.04 4.16,1.12 2.56,1.18 6.68,1.41 0.95,0.06 1.66,0.07 2.25,0.07 0.35,0 0.64,0 0.92,-0.01 0.28,0 0.53,-0.01 0.77,-0.01 0.87,0 1.63,0.07 3.24,0.45 3.23,0.78 7.99,2.3 7.99,2.3 l 8.68,1.56 c 0.6,0.55 -0.15,3.31 5.35,4.99 5.5,1.68 9.28,0.74 11.97,3.07 2.68,2.34 0.58,2.1 5.96,5.23 5.39,3.13 6.21,3.54 7.11,4.22 0.9,0.67 4.86,4.36 7.09,5.75 2.23,1.39 10.14,7.56 10.72,8.28 0.58,0.72 1.71,4 5.07,7.3 3.35,3.31 5.53,3.96 5.53,3.96 0,0 9.44,12.59 14.54,15.28 3.53,1.87 4.84,2.15 5.31,2.15 0.21,0 0.25,-0.05 0.25,-0.05 0,0 3.45,7.69 8.25,8.72 4.8,1.05 5.84,1.32 5.84,1.32 0,0 5.3,8.39 11.04,11 2.73,1.23 4.36,1.55 5.31,1.55 1.06,0 1.29,-0.39 1.29,-0.39 0,0 5.39,7.26 9.74,8.57 4.26,1.28 6.28,1.29 6.37,1.29 l 0.01,0 c 0,0 7.72,8.59 13.04,12.52 3.57,2.64 4.75,4.12 5.89,4.12 0.57,0 1.12,-0.36 1.95,-1.11 2.5,-2.31 8.71,-30.93 -3.19,-64.05 -11.9,-33.13 -21.37,-50.91 -29.39,-59.76 -8.03,-8.87 -10.89,-4.66 -22.56,-18.64 -11.66,-13.97 -23.73,-25.4 -29.84,-27.48 -6.1,-2.08 -28.95,-2.92 -60.77,-14.02 -31.82,-11.1 -35.47,-16.22 -47.31,-30.71 -11.83,-14.48 -21.24,-28.93 -18.53,-35.18 2.7,-6.25 38.08,-43.27 36.8,-50.14 -1.28,-6.87 -7.06,-10.37 -6.55,-14.2 0.5,-3.83 13.93,-12.3 16.32,-18.66 2.39,-6.38 1.34,-7.88 -1.83,-10.83 -1.98,-1.85 -3.68,-2.32 -4.57,-2.32 -0.53,0 -0.78,0.17 -0.63,0.31 0.39,0.36 2.29,3.25 1.23,5.44 -1.07,2.19 -15.9,14.51 -23.04,17.65 -7.13,3.16 -24.15,3.8 -50.02,12.01 -25.87,8.22 -38.17,12.24 -38.17,12.24 -25.88,-14.89 -37.33,-18 -52.35,-42.05 -15.02,-24.05 -18.75,-49.15 -23.11,-58.72 -4.36,-9.57 -23.92,-25.75 -58.68,-54.05 -34.76,-28.29 -106.35,-74.42 -148.54,-88.66 -32.55,-10.98 -51.96,-17.81 -58.95,-17.81" /><path
               id="path186"
               style="fill:#a4afcc;fill-opacity:1;fill-rule:nonzero;stroke:none"
               d="m 373.66,1550.56 c -21.172,17.81 -41.273,37.12 -60.316,57.84 0,0 0.008,0 0.008,0.01 19.035,-20.71 39.16,-40.05 60.32,-57.84 0,-0.01 -0.008,-0.01 -0.012,-0.01" /><path
               id="path188"
               style="fill:#b5ddf5;fill-opacity:1;fill-rule:nonzero;stroke:none"
               d="m 788.703,1519.4 c -79.519,0 -120.566,28.85 -156.773,54.31 -31.809,22.36 -56.922,40.02 -111.575,40.02 -54.644,0 -79.765,-17.66 -111.562,-40.02 -10.953,-7.7 -22.348,-15.71 -35.121,-23.14 -21.16,17.79 -41.285,37.13 -60.32,57.84 18.449,7.28 33.402,17.79 50.226,29.62 36.207,25.46 77.258,54.32 156.777,54.32 79.532,0 120.583,-28.85 156.786,-54.32 31.8,-22.36 56.922,-40.02 111.562,-40.02 54.656,0 79.777,17.66 111.586,40.02 36.207,25.46 77.258,54.32 156.781,54.32 79.52,0 120.57,-28.86 156.79,-54.32 2.13,-1.5 4.23,-2.97 6.31,-4.43 l 0,-91.79 c -19.79,9.59 -36.09,21.05 -51.52,31.9 -31.81,22.36 -56.92,40.02 -111.58,40.02 -54.65,0 -79.769,-17.66 -111.566,-40.02 -36.219,-25.46 -77.266,-54.31 -156.801,-54.31" /><path
               id="path190"
               style="fill:#a4afcc;fill-opacity:1;fill-rule:nonzero;stroke:none"
               d="m 1220.2,2005.56 0,0 c 0.26,29.52 2.28,58.76 5.97,87.67 l 0,0 c -3.69,-28.91 -5.71,-58.15 -5.97,-87.67 m -1122.3133,30.05 -0.0039,0.01 c -2.4297,9.32 -4.7773,18.71 -7.0508,28.18 -6.3047,26.15 -12.2695,51.74 -17.9101,76.88 l 0.0078,0 c 5.6289,-25.11 11.6055,-50.74 17.9023,-76.86 2.2735,-9.47 4.625,-18.88 7.0547,-28.21" /><path
               id="path192"
               style="fill:#b5ddf5;fill-opacity:1;fill-rule:nonzero;stroke:none"
               d="m 788.703,1983.16 c -79.519,0 -120.566,28.85 -156.773,54.32 -31.809,22.36 -56.922,40.02 -111.575,40.02 -54.644,0 -79.765,-17.66 -111.562,-40.02 -36.203,-25.46 -77.254,-54.32 -156.777,-54.32 -77.594,0 -118.539,27.46 -154.1293,52.45 -2.4297,9.33 -4.7812,18.74 -7.0547,28.21 -6.2968,26.12 -12.2734,51.75 -17.9023,76.86 27.3403,-10.63 48.1253,-25.25 67.5233,-38.88 31.797,-22.36 56.918,-40.03 111.563,-40.03 54.644,0 79.765,17.67 111.562,40.03 36.207,25.46 77.258,54.31 156.777,54.31 79.532,0 120.583,-28.85 156.786,-54.31 31.8,-22.36 56.922,-40.03 111.562,-40.03 54.656,0 79.777,17.67 111.586,40.03 36.207,25.46 77.258,54.31 156.781,54.31 79.52,0 120.57,-28.85 156.79,-54.31 4.19,-2.95 8.27,-5.81 12.31,-8.57 -3.69,-28.91 -5.71,-58.15 -5.97,-87.67 -19.8,9.59 -36.12,21.06 -51.55,31.92 -31.81,22.36 -56.92,40.02 -111.58,40.02 -54.65,0 -79.769,-17.66 -111.566,-40.02 -36.219,-25.46 -77.266,-54.32 -156.801,-54.32" /><path
               id="path194"
               style="fill:#a4afcc;fill-opacity:1;fill-rule:nonzero;stroke:none"
               d="m 208.262,1754.54 c -0.004,0 -0.008,0 -0.012,0 -18.508,32.73 -35.434,67.38 -50.777,103.64 0.004,0 0.007,0 0.011,0 15.352,-36.28 32.258,-70.89 50.778,-103.64" /><path
               id="path196"
               style="fill:#b5ddf5;fill-opacity:1;fill-rule:nonzero;stroke:none"
               d="m 788.703,1751.27 c -79.519,0 -120.566,28.87 -156.773,54.33 -31.809,22.35 -56.922,40.01 -111.575,40.01 -54.644,0 -79.765,-17.66 -111.562,-40.01 -36.203,-25.46 -77.254,-54.33 -156.777,-54.33 -16.063,0 -30.555,1.18 -43.754,3.27 -18.52,32.75 -35.426,67.36 -50.778,103.64 24.965,-16.51 49.899,-28.29 94.532,-28.29 54.644,0 79.765,17.67 111.562,40.02 36.207,25.46 77.258,54.32 156.777,54.32 79.532,0 120.583,-28.86 156.786,-54.32 31.8,-22.35 56.922,-40.02 111.562,-40.02 54.656,0 79.777,17.67 111.586,40.02 36.207,25.46 77.258,54.32 156.781,54.32 79.52,0 120.57,-28.86 156.79,-54.32 2.13,-1.5 4.23,-2.97 6.31,-4.42 l 0,-91.8 c -19.79,9.59 -36.09,21.06 -51.52,31.91 -31.81,22.35 -56.92,40.01 -111.58,40.01 -54.65,0 -79.769,-17.66 -111.566,-40.01 -36.219,-25.46 -77.266,-54.33 -156.801,-54.33" /><path
               id="path198"
               style="fill:#a4afcc;fill-opacity:1;fill-rule:nonzero;stroke:none"
               d="m 1254.83,2224.2 c -0.01,0.01 -0.01,0 -0.01,0.01 7.86,25.17 16.99,49.92 27.3,74.13 l 0.01,0 c -10.31,-24.21 -19.44,-48.97 -27.3,-74.14 m -1214.4159,76.5 0,0 c -5.1407,28.59 -9.7774,56.61 -13.9258,84.18 0.0039,0 -0.0039,0 0,0 4.1484,-27.57 8.789,-55.59 13.9258,-84.18" /><path
               id="path200"
               style="fill:#b5ddf5;fill-opacity:1;fill-rule:nonzero;stroke:none"
               d="m 788.703,2215.04 c -79.519,0 -120.566,28.86 -156.773,54.33 -31.809,22.35 -56.922,40 -111.575,40 -54.644,0 -79.765,-17.65 -111.562,-40 -36.203,-25.47 -77.254,-54.33 -156.777,-54.33 -79.532,0 -120.567,28.86 -156.7855,54.33 -18.1992,12.79 -34.2071,24.04 -54.8164,31.33 -5.1368,28.59 -9.7774,56.61 -13.9258,84.18 52.7031,-8.13 84.8947,-30.76 113.9647,-51.21 31.797,-22.35 56.918,-40.02 111.563,-40.02 54.644,0 79.765,17.67 111.562,40.02 36.207,25.47 77.258,54.33 156.777,54.33 79.532,0 120.583,-28.86 156.786,-54.33 31.8,-22.35 56.922,-40.02 111.562,-40.02 54.656,0 79.777,17.67 111.586,40.02 36.207,25.47 77.258,54.33 156.781,54.33 79.52,0 120.57,-28.86 156.79,-54.33 21.96,-15.44 40.74,-28.64 68.26,-35.33 -10.31,-24.21 -19.44,-48.96 -27.3,-74.13 -36.97,10.55 -62.6,28.57 -86.17,45.16 -31.81,22.35 -56.92,40 -111.58,40 -54.65,0 -79.769,-17.65 -111.566,-40 -36.219,-25.47 -77.266,-54.33 -156.801,-54.33" /><path
               id="path202"
               style="fill:#a4afcc;fill-opacity:1;fill-rule:nonzero;stroke:none"
               d="m 1311.93,2360.76 c 52.85,99.53 126.23,188.1 214.19,259.24 0.01,0 0.01,0 0.02,0 -87.96,-71.14 -161.35,-159.71 -214.2,-259.24 l -0.01,0 m 248.59,285.6 c -0.01,0.01 -0.01,0.01 -0.01,0.01 16.82,12.24 34.11,23.85 51.83,34.81 0.01,-0.01 0.01,-0.01 0.01,-0.01 -17.72,-10.96 -35.01,-22.57 -51.83,-34.81" /><path
               id="path204"
               style="fill:#b5ddf5;fill-opacity:1;fill-rule:nonzero;stroke:none"
               d="m 1287.59,2360.55 c -19.4,7.3 -34.85,18.12 -52.29,30.39 -36.22,25.47 -77.27,54.32 -156.78,54.32 -3.29,0 -6.48,-0.06 -9.62,-0.16 -1.34,14.95 -3.49,29.8 -8.94,43.91 -12.46,32.25 -42.45,57.09 -76.468,63.33 -24.355,4.47 -52.004,0.69 -71.527,15.92 -22.649,17.67 -22.926,51.91 -39.031,75.68 -34.555,51.03 -119.5,31.58 -165.864,72.17 -20.414,17.88 -30.351,45.12 -49.496,64.36 -50.926,51.16 -141.152,26.75 -203.785,62.64 -19.23,11.02 -34.867,27.25 -52.461,40.73 -25.129,19.27 -54.074,32.8 -82.769,46.19 -38.188,17.81 -76.371,35.62 -114.555,53.44 l 86.012,-0.71 c -7.387,16.38 0.519,36.75 11.5,50.96 10.992,14.21 26.632,23.93 41.925,33.35 12.461,7.67 24.918,15.34 37.379,23.01 l 0.129,-0.06 c 187.192,168.53 431.086,261.91 643.151,399.68 52.04,33.8 102.31,70.4 156,101.51 11.55,6.69 23.73,13.24 36.61,16.08 0.78,5.57 -3.83,12.17 -7.28,17.53 -8.44,13.15 -5.34,37 1.7,50.95 l 174.31,-3.03 0,218.39 c 0,1.84 -4.48,13.81 -4.48,15.65 4.13,6.91 11.85,9.8 20.05,9.8 5.97,0 12.19,-1.54 17.44,-4.18 12.43,-6.27 22.34,-16.91 35.06,-22.57 8.44,-3.75 17.3,-5.04 26.39,-5.04 10.09,0 20.46,1.59 30.87,3.19 10.4,1.59 20.84,3.18 31.04,3.18 7.47,0 14.81,-0.85 21.93,-3.18 4.13,-41.15 3.96,-86.55 1.66,-127.86 -18.37,5.38 -33.31,18.59 -46.73,32.23 -13.43,13.64 -26.27,28.32 -42.77,38.01 -11.33,6.65 -26.21,12.43 -39.85,12.43 -6.24,0 -12.22,-1.21 -17.48,-4.09 l 1.81,-165.69 147.77,-0.81 c 2.41,1.44 5.03,2.09 7.58,2.09 7.73,0 14.75,-6.02 12.82,-14.31 -21.35,-19.47 -43.57,-40.25 -52.33,-67.78 -5.06,-15.89 -5.21,-32.96 -3.56,-49.56 7.16,-72.46 44.49,-139.27 48.12,-211.99 l 38.03,6.54 c -28.1,-34.18 -54.15,-70.05 -77.94,-107.37 -7.47,-11.71 -14.95,-24.34 -15.16,-38.24 -0.2,-12.59 5.61,-24.4 11.29,-35.64 11.73,-23.23 23.46,-46.47 35.18,-69.7 8.59,-17 17.35,-34.26 30.51,-48.02 12.26,-12.81 23.91,-22.19 40.79,-22.19 1.23,0 2.5,0.05 3.79,0.15 -16.02,-24.47 -46.89,-37.22 -59.84,-63.46 -4.72,-9.56 -6.65,-20.2 -8.54,-30.69 -3.54,-19.73 -7.09,-39.47 -10.63,-59.2 -3.39,-18.88 -6.8,-37.94 -6.17,-57.11 1.53,-45.89 22.08,-87.57 50.25,-124.54 -17.72,-10.96 -35.01,-22.57 -51.83,-34.81 -39.13,41.39 -88.44,73.07 -142.14,92.17 l 0,-105.44 c 36.01,-5.59 72.01,-10.44 107.75,-13.1 -87.96,-71.14 -161.34,-159.71 -214.19,-259.24 l -24.34,-0.21 m 13.93,398.6 c -34.49,0 -71.59,-6.76 -94.72,-32.18 -9.03,-9.92 -15.51,-22.99 -14.44,-36.36 1.07,-13.37 11.31,-26.39 24.66,-27.65 46.86,-4.44 94.49,-12.32 142.33,-20.27 l 2.36,110.95 c -19.04,3.43 -38.36,5.32 -57.73,5.5 -0.82,0.01 -1.64,0.01 -2.46,0.01 m -143.41,579.66 c -25.79,0 -52.29,-7.26 -74.52,-20.17 -47.43,-27.54 -79.72,-74.62 -109.305,-120.81 -46.523,-72.62 -91.871,-152.08 -90.297,-238.32 1.5,-82.08 38.457,-142.74 65.516,-215.97 56.126,-17.21 112.546,-33.45 169.226,-48.71 -7.31,20.62 -14.62,41.24 -21.93,61.85 -7.56,21.3 -15.16,42.79 -18.28,65.18 -6.65,47.63 8.45,97.86 40.23,133.94 7.55,8.55 16.64,18.54 14.08,29.66 -1.67,7.29 -8.07,12.57 -10.82,19.53 -6.03,15.27 7.27,31.35 21.23,40.01 13.96,8.65 30.75,15.43 37.99,30.18 17.01,34.67 -33.2,68.72 -31.47,107.31 0.67,15.06 9.31,28.4 14.92,42.4 6.48,16.17 8.98,33.6 11.42,50.84 2.55,17.94 2.28,42.22 4.37,61.17 -7.31,1.29 -14.8,1.91 -22.36,1.91 m -487.876,-397.5 c -16.593,0 -33.171,-0.7 -49.355,-1.63 -23.531,-1.34 -47.684,-3.04 -69.039,-13.02 -13.477,-6.28 -25.688,-16.64 -33.051,-29.36 45.469,-18.63 91.219,-36.6 137.231,-53.87 91.558,-34.36 184.128,-66.01 277.539,-94.97 -18.981,29.58 -38.536,58.81 -58.09,88.01 -14.262,21.3 -28.754,42.86 -48.098,59.67 -42.269,36.76 -99.801,45.17 -157.137,45.17 m -154.625,135.82 c -37.589,0 -74.773,-3.51 -110.125,-12.33 l -2.687,-0.59 c -5.301,-4.82 -11.637,-8.75 -17.699,-12.66 -9.739,-6.29 -20.012,-11.14 -23.938,-22.05 -89.851,-45.41 34.949,-80.09 69.485,-95.05 20.668,-8.96 41.406,-17.75 62.203,-26.42 60.004,52.01 121.32,103.04 183.144,152.74 -51.543,9.13 -106.387,16.36 -160.383,16.36 m 902.761,22.68 0,-66.9 c 10.9,-0.19 21.79,-0.29 32.66,-0.29 26.39,0 52.6,0.59 78.37,1.86 2.27,1.7 0.18,5.24 -1.94,7.12 -31.22,27.59 -69,46.22 -109.09,58.21 m -97.33,16.34 c -15.99,0 -31.72,-2.49 -45.5,-10.26 -21.87,-12.32 -35.38,-42.39 -21.94,-63.59 37.31,-3.49 75.6,-6.19 114.07,-7.84 l 1.63,76.68 c -6.74,1.15 -13.48,2.17 -20.23,3.01 -9.21,1.15 -18.67,2 -28.03,2 m -106.74,442.8 c -164.98,-88.99 -295.585,-224.31 -397.222,-383.84 51.727,43.02 103.445,86.04 155.168,129.07 23.414,19.47 47.304,39.24 75.464,50.86 20.75,8.56 42.61,12.22 64.78,12.22 37.66,0 76.19,-10.56 111.59,-25.57 l 23.31,0 c 0.09,-0.03 0.18,-0.04 0.26,-0.04 1.41,0 1.03,4.51 1.1,7.86 -11.85,26.22 -23.53,52.75 -29.39,80.91 -5.91,28.37 -5.75,57.62 -5.56,86.61 0.1,14.57 0.3,28.26 0.5,41.92 m 123.74,-116.21 c -4.62,0 -9.23,-0.3 -13.81,-0.99 -15.39,-2.32 -30.56,-9.48 -39.87,-21.95 -16.47,-22.07 -10.24,-54.51 5.56,-77.07 0.81,-1.16 1.91,-2.44 3.3,-2.44 0.08,0 0.15,0.01 0.23,0.02 1.46,0.14 1.86,2.88 0.43,2.88 0,0 -0.01,0 -0.02,0 25.45,0.9 52.7,1.41 80.39,1.53 l 1.98,92.95 c -1.88,0.42 -3.76,0.84 -5.64,1.22 -10.71,2.18 -21.65,3.85 -32.55,3.85 m 80.33,-17.87 0,-80.28 c 31.88,-0.33 63.42,-1.15 92.6,-2.48 -3.34,12.96 -11.16,24.37 -20.13,34.32 -19.67,21.86 -44.99,37.55 -72.47,48.44" /><path
               id="path206"
               style="fill:#a4afcc;fill-opacity:1;fill-rule:nonzero;stroke:none"
               d="m 1648.25,2702.13 c 0,0.01 0,0.01 0,0.02 113.41,62.46 242.37,98.53 377.96,98.53 l 181.45,0 c 0,-0.01 0,-0.01 0.01,-0.02 l -181.46,0 c -135.59,0 -264.55,-36.07 -377.96,-98.53" /><path
               id="path208"
               style="fill:#b5ddf5;fill-opacity:1;fill-rule:nonzero;stroke:none"
               d="m 1648.25,2702.15 c -0.97,5.56 -1.93,11.11 -2.9,16.67 -4.09,23.6 -8.2,47.3 -8.77,71.25 -0.57,24.27 2.49,48.47 5.54,72.55 4.49,35.33 3.62,76.54 8.1,111.86 l 51.78,-0.77 c 10.36,15.65 8.14,36.56 1.79,54.23 -6.33,17.67 -16.33,34.01 -20.87,52.22 -10.3,41.29 8.83,83.97 9.31,126.53 0.16,14.68 -12.06,40.4 -14.13,54.93 l 92.73,0 -0.43,2.11 c -2.84,21.62 -5.69,43.24 -8.53,64.86 -11.11,84.37 -17.85,172.02 7.32,253.31 l 154.6,0 -3.68,147.03 c -5.95,10.13 -0.96,24.6 9.41,30.12 3.54,1.88 7.48,2.75 11.45,2.75 7.67,0 15.47,-3.26 20.81,-8.86 8.12,-8.5 8.78,-15.76 6.23,-27.24 l -0.02,-146.56 190.53,0 c 5.5,-1.03 8.22,-4.31 13.72,-5.33 -56.15,-24.4 -96.86,-81.08 -102.03,-142.08 -5.17,-61 25.42,-123.73 76.66,-157.22 15.65,0 34.66,-1.84 50.3,-1.84 -17.7,-31.22 -50.43,-46.35 -76.98,-70.49 -6.17,-5.62 -11.91,-11.89 -15.63,-19.35 -4.21,-8.47 -5.62,-18.08 -5.8,-27.54 -1.11,-59.29 42.33,-109.73 56.52,-167.31 0.56,-2.27 1.62,-5.04 3.95,-5.2 l 1.44,1.16 c 1.22,-2.65 2.75,-6.7 3.37,-6.7 l 77.5,0 c -23.03,-17.16 -40.85,-44.79 -50.9,-71.7 -12.79,-34.24 0.61,-71.27 17.02,-104.86 l -181.45,0 c -135.59,0 -264.55,-36.07 -377.96,-98.53 m 116.88,279.5 c 1.94,0 4.39,-7.41 9.34,-8.46 29.6,-6.28 60.52,-8.36 92.06,-8.36 15.22,0 30.6,0.48 46.02,1.22 l 1.25,103.97 c -6.86,0.76 -13.73,1.34 -20.57,1.74 -5.44,0.32 -10.93,0.53 -16.43,0.53 -18.72,0 -37.45,-2.41 -53.89,-11.01 -30.35,-15.89 -46.71,-49.32 -59.17,-81.24 0.45,1.14 0.91,1.61 1.39,1.61 m 197.35,79.63 1.11,-92.2 c 31.24,2.03 62.33,4.02 92.63,4.02 13.39,0 26.63,-0.39 39.64,-1.33 -1.06,10.15 -8.06,18.6 -15.26,25.81 -32.13,32.16 -73.76,52.47 -118.12,63.7 m -3.81,315.12 1.36,-112.29 c 36.35,-2.65 72.43,-5 106.63,-5.44 5.98,38.41 -16.81,77.64 -49.84,98.12 -17.61,10.93 -37.55,17.09 -58.15,19.61 m -183.94,-114.65 -0.2,-0.04 0.2,0.04 m 142.78,115.14 c -4.48,-0.41 -8.94,-0.95 -13.36,-1.63 -26.02,-4 -52.28,-12.76 -71.32,-30.95 -19.04,-18.19 -29.18,-47.33 -19.53,-71.82 33.03,-0.43 67.8,-2.64 102.89,-5.17 l 1.32,109.57 m -623.69,-33.71 c 0.01,0 0.03,0.01 0.04,0.01 -0.01,0 -0.03,-0.01 -0.04,-0.01" /><path
               id="path210"
               style="fill:#a4afcc;fill-opacity:1;fill-rule:nonzero;stroke:none"
               d="m 3314.95,2800.66 -263.02,0 0,0.02 263.02,0 c 76.57,0 149.84,13.45 217.73,38.12 l 0,-0.01 c -67.89,-24.68 -141.16,-38.13 -217.73,-38.13" /><path
               id="path212"
               style="fill:#b5ddf5;fill-opacity:1;fill-rule:nonzero;stroke:none"
               d="m 3314.95,2800.68 -263.02,0 3.36,157.49 c -55.38,8.42 -63.13,53.17 -69.78,95.04 -6.86,42.76 -15.72,50.96 -35.89,62.91 -20.15,11.97 8.2,41.43 16.4,54.06 8.19,12.63 20.82,63.36 -8.86,69.12 -29.46,5.75 -5.54,59.15 18.83,59.15 24.59,0 38.98,-50.96 38.98,-105.68 0,-54.71 44.09,-62.91 44.09,-62.91 l 11.74,550.72 c 0,0 -93.49,98.36 -84.62,118.3 8.86,20.16 89.94,120.96 89.94,120.96 l 3.32,155.73 -66.02,0 0,75.54 -143.54,0 0,95.7 252.98,0 0,120.74 51.84,0 -34.56,259.41 -0.67,4.65 -39.43,0 0,123.17 385.02,0 0,-123.17 -37.44,0 0,-5.09 -22.15,-258.97 36.77,0 0,-120.74 252.99,0 0,-95.7 -143.55,0 0,-75.54 -66.02,0 20.38,-928.21 c 0,0 66.24,2.66 82.64,65.58 16.39,62.91 -13.74,124.5 33.89,133.36 4.1,0.74 8.08,1.08 11.91,1.08 40.81,0 64.05,-39.25 28.41,-56.47 -38.99,-18.83 15.72,-95.7 -2.44,-125.83 -18.39,-30.12 -31.46,-65.35 -40.32,-101.9 -8.34,-34.68 -76.28,-93.5 -109.41,-93.5 -0.31,0 -0.61,0 -0.91,0.01 l 2.87,-130.89 c -67.89,-24.67 -141.16,-38.12 -217.73,-38.12 m -140.25,1830.93 50.28,-264.06 153.08,0 46.08,264.06 -249.44,0" /></g></g></g></g></g></svg>