<?xml version="1.0" encoding="UTF-8" standalone="no"?>
<svg
   xmlns:dc="http://purl.org/dc/elements/1.1/"
   xmlns:cc="http://creativecommons.org/ns#"
   xmlns:rdf="http://www.w3.org/1999/02/22-rdf-syntax-ns#"
   xmlns:svg="http://www.w3.org/2000/svg"
   xmlns="http://www.w3.org/2000/svg"
   xmlns:sodipodi="http://sodipodi.sourceforge.net/DTD/sodipodi-0.dtd"
   xmlns:inkscape="http://www.inkscape.org/namespaces/inkscape"
   id="svg8"
   version="1.1"
   viewBox="0 0 76.275467 40.40827"
   height="40.408272mm"
   width="76.275467mm"
   inkscape:version="0.91 r13725"
   sodipodi:docname="2-kafka.svg">
  <sodipodi:namedview
     pagecolor="#ffffff"
     bordercolor="#666666"
     borderopacity="1"
     objecttolerance="10"
     gridtolerance="10"
     guidetolerance="10"
     inkscape:pageopacity="0"
     inkscape:pageshadow="2"
     inkscape:window-width="1366"
     inkscape:window-height="724"
     id="namedview266"
     showgrid="false"
     inkscape:zoom="2.3473369"
     inkscape:cx="87.057844"
     inkscape:cy="39.549299"
     inkscape:window-x="0"
     inkscape:window-y="20"
     inkscape:window-maximized="1"
     inkscape:current-layer="layer1" />
  <defs
     id="defs2">
    <marker
       style="overflow:visible;"
       id="Arrow1Mend"
       refX="0.0"
       refY="0.0"
       orient="auto">
      <path
         transform="scale(0.4) rotate(180) translate(10,0)"
         style="fill-rule:evenodd;stroke:#ff00ff;stroke-width:1pt;stroke-opacity:1;fill:#ff00ff;fill-opacity:1"
         d="M 0.0,0.0 L 5.0,-5.0 L -12.5,0.0 L 5.0,5.0 L 0.0,0.0 z "
         id="path5813" />
    </marker>
    <marker
       style="overflow:visible"
       id="Arrow1Mend-3"
       refX="0"
       refY="0"
       orient="auto">
      <path
         transform="matrix(-0.4,0,0,-0.4,-4,0)"
         style="fill:#000000;fill-opacity:1;fill-rule:evenodd;stroke:#000000;stroke-width:1.00000003pt;stroke-opacity:1"
         d="M 0,0 5,-5 -12.5,0 5,5 Z"
         id="path5813-7" />
    </marker>
    <marker
       style="overflow:visible"
       id="Arrow1Mend-37"
       refX="0"
       refY="0"
       orient="auto">
      <path
         transform="matrix(-0.4,0,0,-0.4,-4,0)"
         style="fill:#00ff00;fill-opacity:1;fill-rule:evenodd;stroke:#00ff00;stroke-width:1.00000003pt;stroke-opacity:1"
         d="M 0,0 5,-5 -12.5,0 5,5 Z"
         id="path5813-8" />
    </marker>
    <marker
       style="overflow:visible"
       id="Arrow1Mend-4"
       refX="0"
       refY="0"
       orient="auto">
      <path
         transform="matrix(-0.4,0,0,-0.4,-4,0)"
         style="fill:#ff00ff;fill-opacity:1;fill-rule:evenodd;stroke:#ff00ff;stroke-width:1.00000003pt;stroke-opacity:1"
         d="M 0,0 5,-5 -12.5,0 5,5 Z"
         id="path5813-1" />
    </marker>
    <marker
       style="overflow:visible"
       id="Arrow1Mend-4-0"
       refX="0"
       refY="0"
       orient="auto">
      <path
         transform="matrix(-0.4,0,0,-0.4,-4,0)"
         style="fill:#00ff00;fill-opacity:1;fill-rule:evenodd;stroke:#00ff00;stroke-width:1.00000003pt;stroke-opacity:1"
         d="M 0,0 5,-5 -12.5,0 5,5 Z"
         id="path5813-1-9" />
    </marker>
    <marker
       style="overflow:visible"
       id="Arrow1Mend-8"
       refX="0"
       refY="0"
       orient="auto">
      <path
         transform="matrix(-0.4,0,0,-0.4,-4,0)"
         style="fill:#ff00ff;fill-opacity:1;fill-rule:evenodd;stroke:#ff00ff;stroke-width:1.00000003pt;stroke-opacity:1"
         d="M 0,0 5,-5 -12.5,0 5,5 Z"
         id="path5813-5" />
    </marker>
    <marker
       style="overflow:visible"
       id="Arrow1Mend-4-8"
       refX="0"
       refY="0"
       orient="auto">
      <path
         transform="matrix(-0.4,0,0,-0.4,-4,0)"
         style="fill:#00ff00;fill-opacity:1;fill-rule:evenodd;stroke:#00ff00;stroke-width:1.00000003pt;stroke-opacity:1"
         d="M 0,0 5,-5 -12.5,0 5,5 Z"
         id="path5813-1-4" />
    </marker>
    <marker
       style="overflow:visible"
       id="Arrow1Mend-4-0-3"
       refX="0"
       refY="0"
       orient="auto">
      <path
         transform="matrix(-0.4,0,0,-0.4,-4,0)"
         style="fill:#00ff00;fill-opacity:1;fill-rule:evenodd;stroke:#00ff00;stroke-width:1.00000003pt;stroke-opacity:1"
         d="M 0,0 5,-5 -12.5,0 5,5 Z"
         id="path5813-1-9-7" />
    </marker>
  </defs>
  <metadata
     id="metadata5">
    <rdf:RDF>
      <cc:Work
         rdf:about="">
        <dc:format>image/svg+xml</dc:format>
        <dc:type
           rdf:resource="http://purl.org/dc/dcmitype/StillImage" />
        <dc:title />
      </cc:Work>
    </rdf:RDF>
  </metadata>
  <g
     transform="translate(1.1573661,-0.20531453)"
     id="layer1">
    <rect
       style="fill:#beb7c8;stroke:#000000;stroke-width:0.26458332"
       y="3.3376074"
       x="11.289117"
       height="34.143684"
       width="4.0758595"
       id="rect10-8" />
    <rect
       style="fill:#beb7c8;stroke:#000000;stroke-width:0.26458332"
       y="3.3376074"
       x="10.64302"
       height="5.3464022"
       width="5.5273924"
       id="rect10-8-3" />
    <rect
       style="fill:#e3dbdb;stroke:#000000;stroke-width:0.26458332;fill-opacity:1"
       y="3.3376119"
       x="36.159946"
       height="34.143684"
       width="4.0758595"
       id="rect10-0-7" />
    <rect
       style="fill:#e3dbdb;stroke:#000000;stroke-width:0.26458332;fill-opacity:1"
       y="3.3376062"
       x="4.4099469"
       height="34.143684"
       width="4.0758595"
       id="rect10" />
    <g
       id="flowRoot12"
       style="font-style:normal;font-weight:normal;font-size:40px;line-height:1.25;font-family:sans-serif;letter-spacing:0px;word-spacing:0px;fill:#000000;fill-opacity:1;stroke:none"
       transform="matrix(0.05966187,0,0,0.05966187,-2.3348306,0.64599171)"
       aria-label=" MS 1">
      <path
         id="path4972"
         style="font-style:normal;font-variant:normal;font-weight:normal;font-stretch:normal;font-size:35.47771072px;line-height:0;font-family:'Ubuntu Condensed';-inkscape-font-specification:'Ubuntu Condensed, ';text-align:center;text-anchor:middle"
         d="m 139.58214,72.379296 q -0.70955,-2.554395 -1.45458,-4.895924 -0.74504,-2.341529 -1.45459,-4.399236 -0.67408,-2.093185 -1.31268,-3.796115 -0.63859,-1.70293 -1.17076,-2.980128 -0.14191,2.02223 -0.24834,4.470192 -0.071,2.412484 -0.17739,4.966879 -0.071,2.554395 -0.14191,5.144268 -0.0355,2.554395 -0.071,4.895924 h -3.05108 q 0.10643,-3.192994 0.21286,-6.421465 0.10644,-3.26395 0.24835,-6.385988 0.17739,-3.157517 0.35478,-6.137644 0.21286,-2.980128 0.46121,-5.640956 h 3.15751 q 0.6386,1.525541 1.45459,3.654204 0.81599,2.093185 1.63197,4.399236 0.85147,2.306051 1.63198,4.612102 0.78051,2.306052 1.34815,4.221848 0.56764,-1.915796 1.31268,-4.221848 0.74503,-2.306051 1.56102,-4.612102 0.81598,-2.306051 1.59649,-4.399236 0.81599,-2.128663 1.45459,-3.654204 h 3.15751 q 0.24835,2.660828 0.42574,5.640956 0.21286,2.980127 0.35477,6.137644 0.17739,3.122038 0.28383,6.385988 0.10643,3.228471 0.21286,6.421465 h -3.05108 q -0.071,-2.341529 -0.14191,-4.931402 -0.0355,-2.589872 -0.14191,-5.179745 -0.071,-2.625351 -0.17739,-5.073313 -0.10643,-2.48344 -0.24834,-4.541147 -0.3193,0.886943 -0.81599,2.235096 -0.46121,1.312675 -0.99338,2.873694 -0.49669,1.56102 -1.06433,3.228472 -0.53217,1.631975 -1.02885,3.157516 -0.46121,1.525542 -0.85147,2.80274 -0.35478,1.241719 -0.56764,2.022229 z" />
      <path
         id="path4974"
         style="font-style:normal;font-variant:normal;font-weight:normal;font-stretch:normal;font-size:35.47771072px;line-height:0;font-family:'Ubuntu Condensed';-inkscape-font-specification:'Ubuntu Condensed, ';text-align:center;text-anchor:middle"
         d="m 159.85987,73.585538 q 1.9158,0 2.94465,-1.064331 1.06433,-1.064331 1.06433,-2.873695 0,-0.957898 -0.3193,-1.70293 -0.3193,-0.745032 -0.85146,-1.348153 -0.49669,-0.603121 -1.17077,-1.099809 -0.67407,-0.496688 -1.38363,-0.993376 -0.81599,-0.567643 -1.70293,-1.206242 -0.88694,-0.638599 -1.63197,-1.490064 -0.70956,-0.851465 -1.17077,-1.986752 -0.46121,-1.135286 -0.46121,-2.660828 0,-1.490064 0.49669,-2.696306 0.53217,-1.206242 1.41911,-2.057707 0.92242,-0.851465 2.16414,-1.312675 1.2772,-0.461211 2.73178,-0.461211 1.41911,0 2.62535,0.354777 1.20625,0.354778 2.02223,0.851466 l -0.99337,2.518917 q -0.74504,-0.496688 -1.63198,-0.745032 -0.85146,-0.283822 -1.80936,-0.283822 -1.73841,0 -2.80274,0.957899 -1.02885,0.92242 -1.02885,2.731783 0,0.993376 0.3193,1.738408 0.35477,0.745032 0.88694,1.348153 0.56764,0.603121 1.2772,1.099809 0.74503,0.496688 1.56102,1.028854 0.81598,0.532165 1.66745,1.170764 0.85146,0.638599 1.52554,1.490064 0.70955,0.815987 1.13529,1.951274 0.46121,1.099809 0.46121,2.625351 0,1.38363 -0.42574,2.62535 -0.42573,1.24172 -1.34815,2.199618 -0.88694,0.922421 -2.27057,1.490064 -1.34816,0.532166 -3.193,0.532166 -1.70293,0 -2.98012,-0.390255 -1.2772,-0.390255 -2.27058,-1.028854 l 0.99338,-2.554395 q 0.92242,0.567644 1.88032,0.922421 0.99337,0.319299 2.27057,0.319299 z" />
      <path
         id="path4976"
         style="font-style:normal;font-variant:normal;font-weight:normal;font-stretch:normal;font-size:35.47771072px;line-height:0;font-family:'Ubuntu Condensed';-inkscape-font-specification:'Ubuntu Condensed, ';text-align:center;text-anchor:middle"
         d="m 139.4394,106.09503 q 0.67408,-0.39026 1.38363,-0.9579 0.74503,-0.56764 1.41911,-1.20624 0.67408,-0.67408 1.24172,-1.34816 0.60312,-0.70955 0.99338,-1.38363 h 2.34152 v 24.58606 h -3.05108 v -19.76109 q -0.60312,0.6386 -1.41911,1.20624 -0.78051,0.56765 -1.66745,1.06433 z" />
    </g>
    <rect
       style="fill:#e3dbdb;stroke:#000000;stroke-width:0.26458332;fill-opacity:1"
       y="3.3376091"
       x="22.401609"
       height="34.143684"
       width="4.0758595"
       id="rect10-0" />
    <g
       id="flowRoot12-6"
       style="font-style:normal;font-weight:normal;font-size:40px;line-height:1.25;font-family:sans-serif;letter-spacing:0px;word-spacing:0px;fill:#000000;fill-opacity:1;stroke:none"
       transform="matrix(0.05966187,0,0,0.05966187,15.656834,0.64599449)"
       aria-label=" MS 2">
      <path
         id="path4979"
         style="font-style:normal;font-variant:normal;font-weight:normal;font-stretch:normal;font-size:35.47771072px;line-height:0;font-family:'Ubuntu Condensed';-inkscape-font-specification:'Ubuntu Condensed, ';text-align:center;text-anchor:middle"
         d="m 139.58214,72.379296 q -0.70955,-2.554395 -1.45458,-4.895924 -0.74504,-2.341529 -1.45459,-4.399236 -0.67408,-2.093185 -1.31268,-3.796115 -0.63859,-1.70293 -1.17076,-2.980128 -0.14191,2.02223 -0.24834,4.470192 -0.071,2.412484 -0.17739,4.966879 -0.071,2.554395 -0.14191,5.144268 -0.0355,2.554395 -0.071,4.895924 h -3.05108 q 0.10643,-3.192994 0.21286,-6.421465 0.10644,-3.26395 0.24835,-6.385988 0.17739,-3.157517 0.35478,-6.137644 0.21286,-2.980128 0.46121,-5.640956 h 3.15751 q 0.6386,1.525541 1.45459,3.654204 0.81599,2.093185 1.63197,4.399236 0.85147,2.306051 1.63198,4.612102 0.78051,2.306052 1.34815,4.221848 0.56764,-1.915796 1.31268,-4.221848 0.74503,-2.306051 1.56102,-4.612102 0.81598,-2.306051 1.59649,-4.399236 0.81599,-2.128663 1.45459,-3.654204 h 3.15751 q 0.24835,2.660828 0.42574,5.640956 0.21286,2.980127 0.35477,6.137644 0.17739,3.122038 0.28383,6.385988 0.10643,3.228471 0.21286,6.421465 h -3.05108 q -0.071,-2.341529 -0.14191,-4.931402 -0.0355,-2.589872 -0.14191,-5.179745 -0.071,-2.625351 -0.17739,-5.073313 -0.10643,-2.48344 -0.24834,-4.541147 -0.3193,0.886943 -0.81599,2.235096 -0.46121,1.312675 -0.99338,2.873694 -0.49669,1.56102 -1.06433,3.228472 -0.53217,1.631975 -1.02885,3.157516 -0.46121,1.525542 -0.85147,2.80274 -0.35478,1.241719 -0.56764,2.022229 z" />
      <path
         id="path4981"
         style="font-style:normal;font-variant:normal;font-weight:normal;font-stretch:normal;font-size:35.47771072px;line-height:0;font-family:'Ubuntu Condensed';-inkscape-font-specification:'Ubuntu Condensed, ';text-align:center;text-anchor:middle"
         d="m 159.85987,73.585538 q 1.9158,0 2.94465,-1.064331 1.06433,-1.064331 1.06433,-2.873695 0,-0.957898 -0.3193,-1.70293 -0.3193,-0.745032 -0.85146,-1.348153 -0.49669,-0.603121 -1.17077,-1.099809 -0.67407,-0.496688 -1.38363,-0.993376 -0.81599,-0.567643 -1.70293,-1.206242 -0.88694,-0.638599 -1.63197,-1.490064 -0.70956,-0.851465 -1.17077,-1.986752 -0.46121,-1.135286 -0.46121,-2.660828 0,-1.490064 0.49669,-2.696306 0.53217,-1.206242 1.41911,-2.057707 0.92242,-0.851465 2.16414,-1.312675 1.2772,-0.461211 2.73178,-0.461211 1.41911,0 2.62535,0.354777 1.20625,0.354778 2.02223,0.851466 l -0.99337,2.518917 q -0.74504,-0.496688 -1.63198,-0.745032 -0.85146,-0.283822 -1.80936,-0.283822 -1.73841,0 -2.80274,0.957899 -1.02885,0.92242 -1.02885,2.731783 0,0.993376 0.3193,1.738408 0.35477,0.745032 0.88694,1.348153 0.56764,0.603121 1.2772,1.099809 0.74503,0.496688 1.56102,1.028854 0.81598,0.532165 1.66745,1.170764 0.85146,0.638599 1.52554,1.490064 0.70955,0.815987 1.13529,1.951274 0.46121,1.099809 0.46121,2.625351 0,1.38363 -0.42574,2.62535 -0.42573,1.24172 -1.34815,2.199618 -0.88694,0.922421 -2.27057,1.490064 -1.34816,0.532166 -3.193,0.532166 -1.70293,0 -2.98012,-0.390255 -1.2772,-0.390255 -2.27058,-1.028854 l 0.99338,-2.554395 q 0.92242,0.567644 1.88032,0.922421 0.99337,0.319299 2.27057,0.319299 z" />
      <path
         id="path4983"
         style="font-style:normal;font-variant:normal;font-weight:normal;font-stretch:normal;font-size:35.47771072px;line-height:0;font-family:'Ubuntu Condensed';-inkscape-font-specification:'Ubuntu Condensed, ';text-align:center;text-anchor:middle"
         d="m 138.51698,102.72464 q 2.09318,-2.09318 5.10879,-2.09318 2.87369,0 4.39924,1.52554 1.52554,1.49006 1.52554,4.68306 0,1.49006 -0.49669,2.83822 -0.49669,1.34815 -1.24172,2.62535 -0.74503,1.24172 -1.63197,2.48344 -0.88695,1.24172 -1.70293,2.55439 -0.81599,1.2772 -1.41911,2.69631 -0.60312,1.38363 -0.74504,2.98012 h 7.73415 v 2.76727 h -10.99809 v -0.67408 q 0,-2.37701 0.53216,-4.22185 0.56764,-1.84484 1.34815,-3.3349 0.81599,-1.49007 1.77389,-2.76726 0.9579,-1.2772 1.73841,-2.48344 0.81598,-1.24172 1.34815,-2.51892 0.56764,-1.31268 0.56764,-2.8737 0,-1.88031 -0.74503,-2.6963 -0.74503,-0.85147 -2.23509,-0.85147 -1.02886,0 -1.88032,0.42574 -0.81599,0.39025 -1.49007,1.02885 z" />
    </g>
    <g
       id="flowRoot12-6-7"
       style="font-style:normal;font-weight:normal;font-size:40px;line-height:1.25;font-family:sans-serif;letter-spacing:0px;word-spacing:0px;fill:#000000;fill-opacity:1;stroke:none"
       transform="matrix(0.05966187,0,0,0.05966187,29.41517,0.64599719)"
       aria-label=" MS 3">
      <path
         id="path4995"
         style="font-style:normal;font-variant:normal;font-weight:normal;font-stretch:normal;font-size:35.47771072px;line-height:0;font-family:'Ubuntu Condensed';-inkscape-font-specification:'Ubuntu Condensed, ';text-align:center;text-anchor:middle"
         d="m 139.58214,72.379296 q -0.70955,-2.554395 -1.45458,-4.895924 -0.74504,-2.341529 -1.45459,-4.399236 -0.67408,-2.093185 -1.31268,-3.796115 -0.63859,-1.70293 -1.17076,-2.980128 -0.14191,2.02223 -0.24834,4.470192 -0.071,2.412484 -0.17739,4.966879 -0.071,2.554395 -0.14191,5.144268 -0.0355,2.554395 -0.071,4.895924 h -3.05108 q 0.10643,-3.192994 0.21286,-6.421465 0.10644,-3.26395 0.24835,-6.385988 0.17739,-3.157517 0.35478,-6.137644 0.21286,-2.980128 0.46121,-5.640956 h 3.15751 q 0.6386,1.525541 1.45459,3.654204 0.81599,2.093185 1.63197,4.399236 0.85147,2.306051 1.63198,4.612102 0.78051,2.306052 1.34815,4.221848 0.56764,-1.915796 1.31268,-4.221848 0.74503,-2.306051 1.56102,-4.612102 0.81598,-2.306051 1.59649,-4.399236 0.81599,-2.128663 1.45459,-3.654204 h 3.15751 q 0.24835,2.660828 0.42574,5.640956 0.21286,2.980127 0.35477,6.137644 0.17739,3.122038 0.28383,6.385988 0.10643,3.228471 0.21286,6.421465 h -3.05108 q -0.071,-2.341529 -0.14191,-4.931402 -0.0355,-2.589872 -0.14191,-5.179745 -0.071,-2.625351 -0.17739,-5.073313 -0.10643,-2.48344 -0.24834,-4.541147 -0.3193,0.886943 -0.81599,2.235096 -0.46121,1.312675 -0.99338,2.873694 -0.49669,1.56102 -1.06433,3.228472 -0.53217,1.631975 -1.02885,3.157516 -0.46121,1.525542 -0.85147,2.80274 -0.35478,1.241719 -0.56764,2.022229 z" />
      <path
         id="path4997"
         style="font-style:normal;font-variant:normal;font-weight:normal;font-stretch:normal;font-size:35.47771072px;line-height:0;font-family:'Ubuntu Condensed';-inkscape-font-specification:'Ubuntu Condensed, ';text-align:center;text-anchor:middle"
         d="m 159.85987,73.585538 q 1.9158,0 2.94465,-1.064331 1.06433,-1.064331 1.06433,-2.873695 0,-0.957898 -0.3193,-1.70293 -0.3193,-0.745032 -0.85146,-1.348153 -0.49669,-0.603121 -1.17077,-1.099809 -0.67407,-0.496688 -1.38363,-0.993376 -0.81599,-0.567643 -1.70293,-1.206242 -0.88694,-0.638599 -1.63197,-1.490064 -0.70956,-0.851465 -1.17077,-1.986752 -0.46121,-1.135286 -0.46121,-2.660828 0,-1.490064 0.49669,-2.696306 0.53217,-1.206242 1.41911,-2.057707 0.92242,-0.851465 2.16414,-1.312675 1.2772,-0.461211 2.73178,-0.461211 1.41911,0 2.62535,0.354777 1.20625,0.354778 2.02223,0.851466 l -0.99337,2.518917 q -0.74504,-0.496688 -1.63198,-0.745032 -0.85146,-0.283822 -1.80936,-0.283822 -1.73841,0 -2.80274,0.957899 -1.02885,0.92242 -1.02885,2.731783 0,0.993376 0.3193,1.738408 0.35477,0.745032 0.88694,1.348153 0.56764,0.603121 1.2772,1.099809 0.74503,0.496688 1.56102,1.028854 0.81598,0.532165 1.66745,1.170764 0.85146,0.638599 1.52554,1.490064 0.70955,0.815987 1.13529,1.951274 0.46121,1.099809 0.46121,2.625351 0,1.38363 -0.42574,2.62535 -0.42573,1.24172 -1.34815,2.199618 -0.88694,0.922421 -2.27057,1.490064 -1.34816,0.532166 -3.193,0.532166 -1.70293,0 -2.98012,-0.390255 -1.2772,-0.390255 -2.27058,-1.028854 l 0.99338,-2.554395 q 0.92242,0.567644 1.88032,0.922421 0.99337,0.319299 2.27057,0.319299 z" />
      <path
         id="path4999"
         style="font-style:normal;font-variant:normal;font-weight:normal;font-stretch:normal;font-size:35.47771072px;line-height:0;font-family:'Ubuntu Condensed';-inkscape-font-specification:'Ubuntu Condensed, ';text-align:center;text-anchor:middle"
         d="m 146.07373,112.55197 q 1.77389,0.6386 2.73179,2.27057 0.99337,1.5965 0.99337,4.1509 0,3.40586 -1.66745,5.39261 -1.63198,1.95127 -4.96688,1.95127 -1.31268,0 -2.5544,-0.39025 -1.24172,-0.39026 -2.16414,-1.02886 l 0.81599,-2.48344 q 0.81599,0.49669 1.70293,0.85147 0.92242,0.35478 1.9158,0.35478 1.80936,0 2.80274,-1.09981 1.02885,-1.13529 1.02885,-3.58325 0,-2.44796 -1.13529,-3.68968 -1.0998,-1.24172 -3.54777,-1.24172 h -0.92242 v -2.58988 h 0.78051 q 2.12867,0 3.15752,-1.13528 1.02885,-1.13529 1.02885,-3.15752 0,-1.9158 -0.81599,-2.83822 -0.81598,-0.95789 -2.16414,-0.95789 -0.92242,0 -1.77388,0.35477 -0.81599,0.35478 -1.41911,0.88695 l -1.20624,-2.2351 q 0.92242,-0.85147 2.16414,-1.2772 1.2772,-0.42573 2.51892,-0.42573 2.76726,0 4.25732,1.73841 1.49007,1.7384 1.49007,4.6121 0,2.02223 -0.81599,3.44134 -0.78051,1.38363 -2.2351,2.12866 z" />
    </g>
    <rect
       style="fill:#e3dbdb;stroke:#000000;stroke-width:0.26458332;fill-opacity:1"
       y="3.3376119"
       x="52.03495"
       height="34.143684"
       width="4.0758595"
       id="rect10-0-5" />
    <g
       id="flowRoot12-6-1"
       style="font-style:normal;font-weight:normal;font-size:40px;line-height:1.25;font-family:sans-serif;letter-spacing:0px;word-spacing:0px;fill:#000000;fill-opacity:1;stroke:none"
       transform="matrix(0.05966187,0,0,0.05966187,45.290171,0.64599719)"
       aria-label=" MS 4">
      <path
         id="path5002"
         style="font-style:normal;font-variant:normal;font-weight:normal;font-stretch:normal;font-size:35.47771072px;line-height:0;font-family:'Ubuntu Condensed';-inkscape-font-specification:'Ubuntu Condensed, ';text-align:center;text-anchor:middle"
         d="m 139.58214,72.379296 q -0.70955,-2.554395 -1.45458,-4.895924 -0.74504,-2.341529 -1.45459,-4.399236 -0.67408,-2.093185 -1.31268,-3.796115 -0.63859,-1.70293 -1.17076,-2.980128 -0.14191,2.02223 -0.24834,4.470192 -0.071,2.412484 -0.17739,4.966879 -0.071,2.554395 -0.14191,5.144268 -0.0355,2.554395 -0.071,4.895924 h -3.05108 q 0.10643,-3.192994 0.21286,-6.421465 0.10644,-3.26395 0.24835,-6.385988 0.17739,-3.157517 0.35478,-6.137644 0.21286,-2.980128 0.46121,-5.640956 h 3.15751 q 0.6386,1.525541 1.45459,3.654204 0.81599,2.093185 1.63197,4.399236 0.85147,2.306051 1.63198,4.612102 0.78051,2.306052 1.34815,4.221848 0.56764,-1.915796 1.31268,-4.221848 0.74503,-2.306051 1.56102,-4.612102 0.81598,-2.306051 1.59649,-4.399236 0.81599,-2.128663 1.45459,-3.654204 h 3.15751 q 0.24835,2.660828 0.42574,5.640956 0.21286,2.980127 0.35477,6.137644 0.17739,3.122038 0.28383,6.385988 0.10643,3.228471 0.21286,6.421465 h -3.05108 q -0.071,-2.341529 -0.14191,-4.931402 -0.0355,-2.589872 -0.14191,-5.179745 -0.071,-2.625351 -0.17739,-5.073313 -0.10643,-2.48344 -0.24834,-4.541147 -0.3193,0.886943 -0.81599,2.235096 -0.46121,1.312675 -0.99338,2.873694 -0.49669,1.56102 -1.06433,3.228472 -0.53217,1.631975 -1.02885,3.157516 -0.46121,1.525542 -0.85147,2.80274 -0.35478,1.241719 -0.56764,2.022229 z" />
      <path
         id="path5004"
         style="font-style:normal;font-variant:normal;font-weight:normal;font-stretch:normal;font-size:35.47771072px;line-height:0;font-family:'Ubuntu Condensed';-inkscape-font-specification:'Ubuntu Condensed, ';text-align:center;text-anchor:middle"
         d="m 159.85987,73.585538 q 1.9158,0 2.94465,-1.064331 1.06433,-1.064331 1.06433,-2.873695 0,-0.957898 -0.3193,-1.70293 -0.3193,-0.745032 -0.85146,-1.348153 -0.49669,-0.603121 -1.17077,-1.099809 -0.67407,-0.496688 -1.38363,-0.993376 -0.81599,-0.567643 -1.70293,-1.206242 -0.88694,-0.638599 -1.63197,-1.490064 -0.70956,-0.851465 -1.17077,-1.986752 -0.46121,-1.135286 -0.46121,-2.660828 0,-1.490064 0.49669,-2.696306 0.53217,-1.206242 1.41911,-2.057707 0.92242,-0.851465 2.16414,-1.312675 1.2772,-0.461211 2.73178,-0.461211 1.41911,0 2.62535,0.354777 1.20625,0.354778 2.02223,0.851466 l -0.99337,2.518917 q -0.74504,-0.496688 -1.63198,-0.745032 -0.85146,-0.283822 -1.80936,-0.283822 -1.73841,0 -2.80274,0.957899 -1.02885,0.92242 -1.02885,2.731783 0,0.993376 0.3193,1.738408 0.35477,0.745032 0.88694,1.348153 0.56764,0.603121 1.2772,1.099809 0.74503,0.496688 1.56102,1.028854 0.81598,0.532165 1.66745,1.170764 0.85146,0.638599 1.52554,1.490064 0.70955,0.815987 1.13529,1.951274 0.46121,1.099809 0.46121,2.625351 0,1.38363 -0.42574,2.62535 -0.42573,1.24172 -1.34815,2.199618 -0.88694,0.922421 -2.27057,1.490064 -1.34816,0.532166 -3.193,0.532166 -1.70293,0 -2.98012,-0.390255 -1.2772,-0.390255 -2.27058,-1.028854 l 0.99338,-2.554395 q 0.92242,0.567644 1.88032,0.922421 0.99337,0.319299 2.27057,0.319299 z" />
      <path
         id="path5006"
         style="font-style:normal;font-variant:normal;font-weight:normal;font-stretch:normal;font-size:35.47771072px;line-height:0;font-family:'Ubuntu Condensed';-inkscape-font-specification:'Ubuntu Condensed, ';text-align:center;text-anchor:middle"
         d="m 138.44602,117.55433 q 0.6386,-2.19962 1.63198,-4.64758 0.99338,-2.44796 2.05771,-4.71854 1.06433,-2.27057 2.02223,-4.11541 0.99337,-1.84484 1.59649,-2.8737 h 3.12204 v 16.07141 h 2.41249 v 2.51891 h -2.41249 v 5.99574 h -2.80274 v -5.99574 h -7.62771 z m 7.62771,-0.28382 v -11.99147 q -0.53216,1.09981 -1.24172,2.51892 -0.67407,1.41911 -1.38363,3.0156 -0.67407,1.5965 -1.31267,3.26395 -0.6386,1.63198 -1.09981,3.193 z" />
    </g>
    <rect
       style="fill:#e3dbdb;stroke:#000000;stroke-width:0.26458332;fill-opacity:1"
       y="3.3376119"
       x="64.300278"
       height="34.143684"
       width="4.0758595"
       id="rect10-0-75" />
    <g
       id="flowRoot12-6-9"
       style="font-style:normal;font-weight:normal;font-size:40px;line-height:1.25;font-family:sans-serif;letter-spacing:0px;word-spacing:0px;fill:#000000;fill-opacity:1;stroke:none"
       transform="matrix(0.05966187,0,0,0.05966187,57.555497,0.64599719)"
       aria-label=" MS 5">
      <path
         id="path5009"
         style="font-style:normal;font-variant:normal;font-weight:normal;font-stretch:normal;font-size:35.47771072px;line-height:0;font-family:'Ubuntu Condensed';-inkscape-font-specification:'Ubuntu Condensed, ';text-align:center;text-anchor:middle"
         d="m 139.58214,72.379296 q -0.70955,-2.554395 -1.45458,-4.895924 -0.74504,-2.341529 -1.45459,-4.399236 -0.67408,-2.093185 -1.31268,-3.796115 -0.63859,-1.70293 -1.17076,-2.980128 -0.14191,2.02223 -0.24834,4.470192 -0.071,2.412484 -0.17739,4.966879 -0.071,2.554395 -0.14191,5.144268 -0.0355,2.554395 -0.071,4.895924 h -3.05108 q 0.10643,-3.192994 0.21286,-6.421465 0.10644,-3.26395 0.24835,-6.385988 0.17739,-3.157517 0.35478,-6.137644 0.21286,-2.980128 0.46121,-5.640956 h 3.15751 q 0.6386,1.525541 1.45459,3.654204 0.81599,2.093185 1.63197,4.399236 0.85147,2.306051 1.63198,4.612102 0.78051,2.306052 1.34815,4.221848 0.56764,-1.915796 1.31268,-4.221848 0.74503,-2.306051 1.56102,-4.612102 0.81598,-2.306051 1.59649,-4.399236 0.81599,-2.128663 1.45459,-3.654204 h 3.15751 q 0.24835,2.660828 0.42574,5.640956 0.21286,2.980127 0.35477,6.137644 0.17739,3.122038 0.28383,6.385988 0.10643,3.228471 0.21286,6.421465 h -3.05108 q -0.071,-2.341529 -0.14191,-4.931402 -0.0355,-2.589872 -0.14191,-5.179745 -0.071,-2.625351 -0.17739,-5.073313 -0.10643,-2.48344 -0.24834,-4.541147 -0.3193,0.886943 -0.81599,2.235096 -0.46121,1.312675 -0.99338,2.873694 -0.49669,1.56102 -1.06433,3.228472 -0.53217,1.631975 -1.02885,3.157516 -0.46121,1.525542 -0.85147,2.80274 -0.35478,1.241719 -0.56764,2.022229 z" />
      <path
         id="path5011"
         style="font-style:normal;font-variant:normal;font-weight:normal;font-stretch:normal;font-size:35.47771072px;line-height:0;font-family:'Ubuntu Condensed';-inkscape-font-specification:'Ubuntu Condensed, ';text-align:center;text-anchor:middle"
         d="m 159.85987,73.585538 q 1.9158,0 2.94465,-1.064331 1.06433,-1.064331 1.06433,-2.873695 0,-0.957898 -0.3193,-1.70293 -0.3193,-0.745032 -0.85146,-1.348153 -0.49669,-0.603121 -1.17077,-1.099809 -0.67407,-0.496688 -1.38363,-0.993376 -0.81599,-0.567643 -1.70293,-1.206242 -0.88694,-0.638599 -1.63197,-1.490064 -0.70956,-0.851465 -1.17077,-1.986752 -0.46121,-1.135286 -0.46121,-2.660828 0,-1.490064 0.49669,-2.696306 0.53217,-1.206242 1.41911,-2.057707 0.92242,-0.851465 2.16414,-1.312675 1.2772,-0.461211 2.73178,-0.461211 1.41911,0 2.62535,0.354777 1.20625,0.354778 2.02223,0.851466 l -0.99337,2.518917 q -0.74504,-0.496688 -1.63198,-0.745032 -0.85146,-0.283822 -1.80936,-0.283822 -1.73841,0 -2.80274,0.957899 -1.02885,0.92242 -1.02885,2.731783 0,0.993376 0.3193,1.738408 0.35477,0.745032 0.88694,1.348153 0.56764,0.603121 1.2772,1.099809 0.74503,0.496688 1.56102,1.028854 0.81598,0.532165 1.66745,1.170764 0.85146,0.638599 1.52554,1.490064 0.70955,0.815987 1.13529,1.951274 0.46121,1.099809 0.46121,2.625351 0,1.38363 -0.42574,2.62535 -0.42573,1.24172 -1.34815,2.199618 -0.88694,0.922421 -2.27057,1.490064 -1.34816,0.532166 -3.193,0.532166 -1.70293,0 -2.98012,-0.390255 -1.2772,-0.390255 -2.27058,-1.028854 l 0.99338,-2.554395 q 0.92242,0.567644 1.88032,0.922421 0.99337,0.319299 2.27057,0.319299 z" />
      <path
         id="path5013"
         style="font-style:normal;font-variant:normal;font-weight:normal;font-stretch:normal;font-size:35.47771072px;line-height:0;font-family:'Ubuntu Condensed';-inkscape-font-specification:'Ubuntu Condensed, ';text-align:center;text-anchor:middle"
         d="m 143.7322,103.85993 q -0.17739,2.5544 -0.24834,4.25733 -0.071,1.70293 -0.14191,2.6963 3.3349,0.46121 4.89592,2.41249 1.56102,1.95127 1.56102,5.28618 0,1.88031 -0.53216,3.3349 -0.53217,1.45459 -1.49007,2.44796 -0.92242,0.99338 -2.19962,1.49007 -1.27719,0.53216 -2.76726,0.53216 -1.02885,0 -2.09318,-0.28382 -1.06433,-0.28382 -1.98675,-0.81599 l 0.85146,-2.51891 q 1.52554,0.85146 3.12204,0.85146 1.70293,0 2.87369,-1.24172 1.17077,-1.24172 1.17077,-3.79611 0,-2.80274 -1.5965,-4.00899 -1.56102,-1.24172 -4.78949,-1.38363 0.17739,-1.77388 0.28382,-3.22847 0.10644,-1.49006 0.17739,-2.87369 0.071,-1.41911 0.10643,-2.80274 0.071,-1.41911 0.10644,-3.01561 h 8.30178 v 2.66083 z" />
    </g>
    <path
       id="path5768"
       d="m 1.8426339,9.3601181 h 4.2162772 v 2.6556299 h 5.9750909 l -7.34e-4,2.062683 -5.9203251,0.02958 v 3.926228 l 5.9021781,0.03048 0.01888,2.423076 H 6.0714286 v 2.219178 H 1.8428199"
       style="fill:none;stroke:#ff0000;stroke-width:0.60000002;stroke-linecap:butt;stroke-linejoin:miter;stroke-miterlimit:4;stroke-dasharray:none;stroke-opacity:1" />
    <flowRoot
       style="fill:black;fill-opacity:1;stroke:none;font-family:sans-serif;font-style:normal;font-weight:normal;font-size:8px;line-height:1.25;letter-spacing:0px;word-spacing:0px;"
       id="flowRoot7631"
       xml:space="preserve"><flowRegion
         style="font-size:8px;"
         id="flowRegion7633"><rect
           style="font-size:8px;"
           y="81.652756"
           x="-64.10714"
           height="47.32143"
           width="193.57143"
           id="rect7635" /></flowRegion><flowPara
         id="flowPara7637" /></flowRoot>    <rect
       style="fill:#d5d5ff;stroke:#000000;stroke-width:0.26458332"
       y="10.216772"
       x="67.380829"
       height="21.953951"
       width="4.0758629"
       id="rect10-8-6" />
    <rect
       style="fill:#d5d5ff;stroke:#000000;stroke-width:0.26458332"
       y="10.216772"
       x="66.734734"
       height="5.3464022"
       width="5.5273924"
       id="rect10-8-3-7" />
    <path
       id="path5802-1"
       d="M 69.063649,29.646099 C 50.357187,35.459457 30.659079,29.537816 13.938184,29.480734"
       style="fill:none;stroke:#ff00ff;stroke-width:0.40611779;stroke-linecap:butt;stroke-linejoin:miter;stroke-miterlimit:4;stroke-dasharray:none;stroke-opacity:1;marker-end:url(#Arrow1Mend-8)"
       inkscape:connector-curvature="0" />
    <path
       id="path5802-9-3"
       d="m 69.083881,30.898662 c -15.145469,4.017996 -35.434775,1.130073 -55.208147,0"
       style="fill:none;stroke:#00ff00;stroke-width:0.40611779;stroke-linecap:butt;stroke-linejoin:miter;stroke-miterlimit:4;stroke-dasharray:none;stroke-opacity:1;marker-end:url(#Arrow1Mend-4-8)"
       inkscape:connector-curvature="0" />
    <g
       id="flowRoot561"
       style="font-style:normal;font-variant:normal;font-weight:normal;font-stretch:normal;font-size:8px;line-height:1.25;font-family:'Ubuntu Condensed';-inkscape-font-specification:'Ubuntu Condensed, ';text-align:center;letter-spacing:0px;word-spacing:0px;text-anchor:middle;fill:#000000;fill-opacity:1;stroke:none"
       transform="matrix(0.26458333,0,0,0.26458333,21.299147,8.8680568)"
       aria-label="MS">
      <path
         id="path750"
         style=""
         d="m 179.60977,11.916547 q -0.16,-0.576 -0.328,-1.104 -0.168,-0.528 -0.328,-0.9920001 -0.152,-0.472 -0.296,-0.856 -0.144,-0.384 -0.264,-0.672 -0.032,0.456 -0.056,1.008 -0.016,0.544 -0.04,1.1200001 -0.016,0.576 -0.032,1.16 -0.008,0.576 -0.016,1.104 h -0.688 q 0.024,-0.72 0.048,-1.448 0.024,-0.736 0.056,-1.4400001 0.04,-0.712 0.08,-1.384 0.048,-0.672 0.104,-1.272 h 0.712 q 0.144,0.344 0.328,0.824 0.184,0.472 0.368,0.992 0.192,0.52 0.368,1.04 0.176,0.5200001 0.304,0.9520001 0.128,-0.432 0.296,-0.9520001 0.168,-0.52 0.352,-1.04 0.184,-0.52 0.36,-0.992 0.184,-0.48 0.328,-0.824 h 0.712 q 0.056,0.6 0.096,1.272 0.048,0.672 0.08,1.384 0.04,0.7040001 0.064,1.4400001 0.024,0.728 0.048,1.448 h -0.688 q -0.016,-0.528 -0.032,-1.112 -0.008,-0.584 -0.032,-1.168 -0.016,-0.5920001 -0.04,-1.1440001 -0.024,-0.56 -0.056,-1.024 -0.072,0.2 -0.184,0.504 -0.104,0.296 -0.224,0.648 -0.112,0.352 -0.24,0.7280001 -0.12,0.368 -0.232,0.712 -0.104,0.344 -0.192,0.632 -0.08,0.28 -0.128,0.456 z" />
      <path
         id="path752"
         style=""
         d="m 184.18227,12.188547 q 0.432,0 0.664,-0.24 0.24,-0.24 0.24,-0.648 0,-0.216 -0.072,-0.384 -0.072,-0.168 -0.192,-0.304 -0.112,-0.136 -0.264,-0.248 -0.152,-0.112 -0.312,-0.224 -0.184,-0.128 -0.384,-0.2720001 -0.2,-0.144 -0.368,-0.336 -0.16,-0.192 -0.264,-0.448 -0.104,-0.256 -0.104,-0.6 0,-0.336 0.112,-0.608 0.12,-0.272 0.32,-0.464 0.208,-0.192 0.488,-0.296 0.288,-0.104 0.616,-0.104 0.32,0 0.592,0.08 0.272,0.08 0.456,0.192 l -0.224,0.568 q -0.168,-0.112 -0.368,-0.168 -0.192,-0.064 -0.408,-0.064 -0.392,0 -0.632,0.216 -0.232,0.208 -0.232,0.616 0,0.224 0.072,0.392 0.08,0.168 0.2,0.304 0.128,0.136 0.288,0.248 0.168,0.112 0.352,0.232 0.184,0.12 0.376,0.264 0.192,0.1440001 0.344,0.3360001 0.16,0.184 0.256,0.44 0.104,0.248 0.104,0.592 0,0.312 -0.096,0.592 -0.096,0.28 -0.304,0.496 -0.2,0.208 -0.512,0.336 -0.304,0.12 -0.72,0.12 -0.384,0 -0.672,-0.088 -0.288,-0.088 -0.512,-0.232 l 0.224,-0.576 q 0.208,0.128 0.424,0.208 0.224,0.072 0.512,0.072 z" />
    </g>
    <g
       id="flowRoot561-1"
       style="font-style:normal;font-variant:normal;font-weight:normal;font-stretch:normal;font-size:8px;line-height:40.0000006%;font-family:'Ubuntu Condensed';-inkscape-font-specification:'Ubuntu Condensed, ';text-align:center;letter-spacing:0px;word-spacing:0px;text-anchor:middle;fill:#000000;fill-opacity:1;stroke:none"
       transform="matrix(0.26458333,0,0,0.26458333,21.469631,10.158483)"
       aria-label=" kafka consumer">
      <path
         id="path755"
         style=""
         d="m 178.25545,9.6845467 q -0.224,0.3840003 -0.432,0.7040003 -0.20266,0.314666 -0.40533,0.592 0.128,0.149333 0.26133,0.336 0.13334,0.186666 0.256,0.389333 0.12267,0.197333 0.22934,0.4 0.10666,0.197333 0.18133,0.378667 h -0.50133 q -0.08,-0.176 -0.18667,-0.368 -0.10667,-0.192 -0.224,-0.373334 -0.11733,-0.186666 -0.23467,-0.352 -0.11733,-0.165333 -0.21866,-0.277333 v 1.370667 h -0.45867 V 8.42588 l 0.45867,-0.08 v 2.544 q 0.096,-0.128 0.20266,-0.288 0.112,-0.16 0.21867,-0.32 0.10667,-0.165333 0.20267,-0.32 0.096,-0.1546666 0.16,-0.2773333 z" />
      <path
         id="path757"
         style="font-size:5.33333349px;line-height:40.0000006%"
         d="m 178.84604,9.7432134 q 0.13866,-0.058667 0.29333,-0.090667 0.15467,-0.037333 0.336,-0.037333 0.37333,0 0.608,0.2346666 0.23467,0.229333 0.23467,0.72 v 1.856 q -0.192,0.05333 -0.39467,0.08533 -0.19733,0.032 -0.38933,0.032 -0.192,0 -0.36267,-0.048 -0.16533,-0.048 -0.29333,-0.154666 -0.12267,-0.106667 -0.19734,-0.266667 -0.0747,-0.165333 -0.0747,-0.4 0,-0.218667 0.064,-0.378667 0.0693,-0.165333 0.18666,-0.272 0.11734,-0.112 0.27734,-0.165333 0.16,-0.05867 0.34666,-0.05867 0.176,0 0.38934,0.04267 v -0.256 q 0,-0.309333 -0.12267,-0.432 -0.11733,-0.122667 -0.34133,-0.122667 -0.12267,0 -0.23467,0.02667 -0.10667,0.02133 -0.22933,0.07467 z m 0.21866,1.9253336 q 0,0.245333 0.128,0.362666 0.128,0.117334 0.36267,0.117334 0.144,0 0.31467,-0.03733 v -0.890666 q -0.16,-0.04267 -0.31467,-0.04267 -0.10133,0 -0.192,0.02667 -0.0907,0.02133 -0.16,0.08 -0.064,0.05333 -0.10133,0.149333 -0.0373,0.09067 -0.0373,0.234667 z" />
      <path
         id="path759"
         style="font-size:5.33333349px;line-height:40.0000006%"
         d="m 181.93187,8.34588 q 0.15467,0 0.272,0.032 0.11733,0.032 0.192,0.069333 l -0.096,0.3626667 q -0.0747,-0.037333 -0.15467,-0.053333 -0.08,-0.021333 -0.17066,-0.021333 -0.12267,0 -0.20267,0.042667 -0.08,0.042667 -0.12267,0.1173333 -0.0427,0.074667 -0.0587,0.1813334 -0.016,0.1013333 -0.016,0.2186666 v 0.3893334 h 0.72 v 0.3946663 h -0.72 v 2.405334 h -0.45867 V 9.2952133 q 0,-0.4533333 0.20267,-0.6986666 Q 181.5212,8.34588 181.93187,8.34588 Z" />
      <path
         id="path761"
         style="font-size:5.33333349px;line-height:40.0000006%"
         d="m 184.48462,9.6845467 q -0.224,0.3840003 -0.432,0.7040003 -0.20267,0.314666 -0.40533,0.592 0.128,0.149333 0.26133,0.336 0.13333,0.186666 0.256,0.389333 0.12267,0.197333 0.22933,0.4 0.10667,0.197333 0.18134,0.378667 h -0.50134 q -0.08,-0.176 -0.18666,-0.368 -0.10667,-0.192 -0.224,-0.373334 -0.11734,-0.186666 -0.23467,-0.352 -0.11733,-0.165333 -0.21867,-0.277333 v 1.370667 h -0.45866 V 8.42588 l 0.45866,-0.08 v 2.544 q 0.096,-0.128 0.20267,-0.288 0.112,-0.16 0.21867,-0.32 0.10666,-0.165333 0.20266,-0.32 0.096,-0.1546666 0.16,-0.2773333 z" />
      <path
         id="path763"
         style="font-size:5.33333349px;line-height:40.0000006%"
         d="m 185.0752,9.7432134 q 0.13867,-0.058667 0.29334,-0.090667 0.15466,-0.037333 0.336,-0.037333 0.37333,0 0.608,0.2346666 0.23466,0.229333 0.23466,0.72 v 1.856 q -0.192,0.05333 -0.39466,0.08533 -0.19734,0.032 -0.38934,0.032 -0.192,0 -0.36266,-0.048 -0.16534,-0.048 -0.29334,-0.154666 -0.12266,-0.106667 -0.19733,-0.266667 -0.0747,-0.165333 -0.0747,-0.4 0,-0.218667 0.064,-0.378667 0.0693,-0.165333 0.18667,-0.272 0.11733,-0.112 0.27733,-0.165333 0.16,-0.05867 0.34667,-0.05867 0.176,0 0.38933,0.04267 v -0.256 q 0,-0.309333 -0.12266,-0.432 -0.11734,-0.122667 -0.34134,-0.122667 -0.12266,0 -0.23466,0.02667 -0.10667,0.02133 -0.22934,0.07467 z m 0.21867,1.9253336 q 0,0.245333 0.128,0.362666 0.128,0.117334 0.36267,0.117334 0.144,0 0.31466,-0.03733 v -0.890666 q -0.16,-0.04267 -0.31466,-0.04267 -0.10134,0 -0.192,0.02667 -0.0907,0.02133 -0.16,0.08 -0.064,0.05333 -0.10134,0.149333 -0.0373,0.09067 -0.0373,0.234667 z" />
      <path
         id="path765"
         style="font-size:5.33333349px;line-height:40.0000006%"
         d="m 173.25045,16.040526 q -0.288,0 -0.48,-0.112 -0.192,-0.112 -0.31466,-0.304 -0.11734,-0.197334 -0.17067,-0.464 -0.048,-0.266667 -0.048,-0.581334 0,-0.693333 0.25067,-1.082666 0.256,-0.394667 0.768,-0.394667 0.15466,0 0.27733,0.03733 0.12267,0.03733 0.22933,0.096 l -0.11733,0.378667 q -0.16533,-0.106667 -0.368,-0.106667 -0.288,0 -0.42667,0.261334 -0.13333,0.261333 -0.13333,0.810666 0,0.229334 0.0267,0.426667 0.0267,0.192 0.0907,0.330667 0.0693,0.138666 0.176,0.218666 0.112,0.08 0.28267,0.08 0.11733,0 0.208,-0.02667 0.096,-0.032 0.18133,-0.08 l 0.10134,0.357333 q -0.0853,0.05867 -0.22934,0.106667 -0.13866,0.048 -0.304,0.048 z" />
      <path
         id="path767"
         style="font-size:5.33333349px;line-height:40.0000006%"
         d="m 176.04862,14.573859 q 0,0.330667 -0.0587,0.602667 -0.0587,0.266666 -0.18133,0.458666 -0.11733,0.192 -0.304,0.298667 -0.18133,0.106667 -0.432,0.106667 -0.25067,0 -0.43733,-0.106667 -0.18667,-0.106667 -0.30934,-0.298667 -0.11733,-0.192 -0.176,-0.458666 -0.0587,-0.272 -0.0587,-0.602667 0,-0.325333 0.0587,-0.597333 0.0587,-0.272 0.176,-0.464 0.12267,-0.197334 0.30934,-0.304 0.18666,-0.106667 0.43733,-0.106667 0.25067,0 0.432,0.106667 0.18667,0.106666 0.304,0.304 0.12267,0.192 0.18133,0.464 0.0587,0.272 0.0587,0.597333 z m -0.48,0 q 0,-0.234667 -0.0267,-0.426667 -0.0267,-0.197333 -0.0853,-0.336 -0.0587,-0.144 -0.15467,-0.218666 -0.096,-0.08 -0.22933,-0.08 -0.13867,0 -0.23467,0.08 -0.0907,0.07467 -0.15466,0.218666 -0.0587,0.138667 -0.0853,0.336 -0.0267,0.192 -0.0267,0.426667 0,0.234667 0.0267,0.432 0.0267,0.192 0.0853,0.330667 0.064,0.138666 0.15466,0.218666 0.096,0.07467 0.23467,0.07467 0.13333,0 0.22933,-0.07467 0.096,-0.08 0.15467,-0.218666 0.0587,-0.138667 0.0853,-0.330667 0.0267,-0.197333 0.0267,-0.432 z" />
      <path
         id="path769"
         style="font-size:5.33333349px;line-height:40.0000006%"
         d="m 176.72004,13.251192 q 0.19733,-0.05867 0.42666,-0.096 0.22934,-0.04267 0.42134,-0.04267 0.208,0 0.37866,0.05867 0.17067,0.05333 0.288,0.186667 0.12267,0.133333 0.18667,0.362667 0.0693,0.224 0.0693,0.56 v 1.690666 h -0.45866 v -1.653333 q 0,-0.416 -0.10667,-0.608 -0.10667,-0.192 -0.4,-0.192 -0.15467,0 -0.34667,0.05333 v 2.4 h -0.45866 z" />
      <path
         id="path771"
         style="font-size:5.33333349px;line-height:40.0000006%"
         d="m 179.68229,15.645859 q 0.20266,0 0.304,-0.112 0.10666,-0.117333 0.10666,-0.304 0,-0.117333 -0.0427,-0.197333 -0.0427,-0.08533 -0.112,-0.149334 -0.0693,-0.064 -0.16,-0.112 -0.0907,-0.05333 -0.18134,-0.112 -0.0907,-0.05333 -0.176,-0.122666 -0.0853,-0.07467 -0.15466,-0.165334 -0.064,-0.096 -0.10667,-0.213333 -0.0373,-0.122667 -0.0373,-0.282667 0,-0.346666 0.21333,-0.56 0.21867,-0.213333 0.58667,-0.213333 0.15466,0 0.29333,0.04267 0.13867,0.03733 0.22933,0.08533 l -0.10133,0.368 q -0.096,-0.05333 -0.192,-0.08 -0.096,-0.02667 -0.208,-0.02667 -0.17067,0 -0.272,0.101334 -0.10133,0.096 -0.10133,0.282666 0,0.106667 0.0373,0.186667 0.0373,0.07467 0.096,0.138667 0.064,0.05867 0.13867,0.112 0.08,0.05333 0.16533,0.101333 0.10133,0.05867 0.19733,0.128 0.10134,0.06933 0.176,0.165333 0.08,0.09067 0.128,0.218667 0.048,0.122667 0.048,0.298667 0,0.368 -0.21866,0.592 -0.21334,0.224 -0.62934,0.224 -0.21333,0 -0.384,-0.05867 -0.17066,-0.05867 -0.256,-0.106667 l 0.096,-0.378666 q 0.08,0.04267 0.21334,0.096 0.13866,0.05333 0.304,0.05333 z" />
      <path
         id="path773"
         style="font-size:5.33333349px;line-height:40.0000006%"
         d="m 182.8492,15.891192 q -0.0693,0.02667 -0.17066,0.05333 -0.096,0.02133 -0.208,0.03733 -0.10667,0.02133 -0.21867,0.032 -0.10667,0.016 -0.19733,0.016 -0.21867,0 -0.4,-0.05333 -0.18134,-0.048 -0.30934,-0.176 -0.128,-0.128 -0.19733,-0.346667 -0.0693,-0.224 -0.0693,-0.56 v -1.722667 h 0.45866 v 1.706667 q 0,0.410667 0.12267,0.581333 0.128,0.165334 0.384,0.165334 0.0853,0 0.17067,-0.0053 0.0853,-0.01067 0.176,-0.03733 v -2.410667 h 0.45866 z" />
      <path
         id="path775"
         style="font-size:5.33333349px;line-height:40.0000006%"
         d="m 183.67837,13.251192 q 0.18667,-0.05867 0.40533,-0.096 0.21867,-0.04267 0.4,-0.04267 0.18667,0 0.336,0.048 0.15467,0.048 0.272,0.16 0.13867,-0.09067 0.29867,-0.149334 0.16,-0.05867 0.352,-0.05867 0.192,0 0.34667,0.05867 0.16,0.05333 0.272,0.186667 0.112,0.133333 0.176,0.362667 0.064,0.224 0.064,0.56 v 1.690666 h -0.45867 v -1.653333 q 0,-0.416 -0.096,-0.608 -0.096,-0.192 -0.36267,-0.192 -0.10133,0 -0.208,0.03733 -0.10133,0.03733 -0.192,0.101334 0.0427,0.122666 0.064,0.277333 0.0213,0.154667 0.0213,0.346667 v 1.690666 h -0.45867 v -1.653333 q 0,-0.416 -0.096,-0.608 -0.096,-0.192 -0.36267,-0.192 -0.13866,0 -0.31466,0.05333 v 2.4 h -0.45867 z" />
      <path
         id="path777"
         style="font-size:5.33333349px;line-height:40.0000006%"
         d="m 187.71179,14.707192 q 0.005,0.202667 0.0373,0.373334 0.032,0.165333 0.10133,0.293333 0.0747,0.122667 0.192,0.192 0.12267,0.06933 0.30934,0.06933 0.15466,0 0.28266,-0.04267 0.13334,-0.048 0.192,-0.08 l 0.0853,0.368 q -0.0693,0.048 -0.23467,0.101333 -0.16,0.05867 -0.384,0.05867 -0.29333,0 -0.496,-0.106667 -0.19733,-0.106667 -0.32533,-0.298667 -0.12267,-0.192 -0.176,-0.458666 -0.0533,-0.266667 -0.0533,-0.586667 0,-0.773333 0.256,-1.130667 0.256,-0.357333 0.67734,-0.357333 0.47466,0 0.672,0.357333 0.19733,0.357334 0.19733,1.002667 0,0.05867 0,0.122667 0,0.05867 -0.005,0.122666 z m 0.464,-1.216 q -0.22934,0 -0.336,0.229334 -0.10134,0.229333 -0.12267,0.613333 h 0.848 q 0,-0.389333 -0.08,-0.613333 -0.08,-0.229334 -0.30933,-0.229334 z" />
      <path
         id="path779"
         style="font-size:5.33333349px;line-height:40.0000006%"
         d="m 190.9307,13.587192 q -0.17066,-0.07467 -0.384,-0.07467 -0.19733,0 -0.368,0.06933 v 2.389333 h -0.45866 v -2.677333 q 0.15466,-0.07467 0.352,-0.122667 0.20266,-0.05333 0.44266,-0.05333 0.128,0 0.256,0.016 0.128,0.016 0.24,0.05867 z" />
    </g>
    <rect
       style="fill:#d5d5ff;stroke:#000000;stroke-width:0.26458332"
       y="10.216771"
       x="19.755823"
       height="21.953951"
       width="4.0758629"
       id="rect10-8-6-6" />
    <rect
       style="fill:#d5d5ff;stroke:#000000;stroke-width:0.26458332"
       y="10.216771"
       x="19.109728"
       height="5.3464022"
       width="5.5273924"
       id="rect10-8-3-7-1" />
    <g
       id="flowRoot561-5"
       style="font-style:normal;font-variant:normal;font-weight:normal;font-stretch:normal;font-size:8px;line-height:1.25;font-family:'Ubuntu Condensed';-inkscape-font-specification:'Ubuntu Condensed, ';text-align:center;letter-spacing:0px;word-spacing:0px;text-anchor:middle;fill:#000000;fill-opacity:1;stroke:none"
       transform="matrix(0.26458333,0,0,0.26458333,-26.325855,8.8680559)"
       aria-label="MS">
      <path
         id="path745"
         style=""
         d="m 179.60977,11.916547 q -0.16,-0.576 -0.328,-1.104 -0.168,-0.528 -0.328,-0.9920001 -0.152,-0.472 -0.296,-0.856 -0.144,-0.384 -0.264,-0.672 -0.032,0.456 -0.056,1.008 -0.016,0.544 -0.04,1.1200001 -0.016,0.576 -0.032,1.16 -0.008,0.576 -0.016,1.104 h -0.688 q 0.024,-0.72 0.048,-1.448 0.024,-0.736 0.056,-1.4400001 0.04,-0.712 0.08,-1.384 0.048,-0.672 0.104,-1.272 h 0.712 q 0.144,0.344 0.328,0.824 0.184,0.472 0.368,0.992 0.192,0.52 0.368,1.04 0.176,0.5200001 0.304,0.9520001 0.128,-0.432 0.296,-0.9520001 0.168,-0.52 0.352,-1.04 0.184,-0.52 0.36,-0.992 0.184,-0.48 0.328,-0.824 h 0.712 q 0.056,0.6 0.096,1.272 0.048,0.672 0.08,1.384 0.04,0.7040001 0.064,1.4400001 0.024,0.728 0.048,1.448 h -0.688 q -0.016,-0.528 -0.032,-1.112 -0.008,-0.584 -0.032,-1.168 -0.016,-0.5920001 -0.04,-1.1440001 -0.024,-0.56 -0.056,-1.024 -0.072,0.2 -0.184,0.504 -0.104,0.296 -0.224,0.648 -0.112,0.352 -0.24,0.7280001 -0.12,0.368 -0.232,0.712 -0.104,0.344 -0.192,0.632 -0.08,0.28 -0.128,0.456 z" />
      <path
         id="path747"
         style=""
         d="m 184.18227,12.188547 q 0.432,0 0.664,-0.24 0.24,-0.24 0.24,-0.648 0,-0.216 -0.072,-0.384 -0.072,-0.168 -0.192,-0.304 -0.112,-0.136 -0.264,-0.248 -0.152,-0.112 -0.312,-0.224 -0.184,-0.128 -0.384,-0.2720001 -0.2,-0.144 -0.368,-0.336 -0.16,-0.192 -0.264,-0.448 -0.104,-0.256 -0.104,-0.6 0,-0.336 0.112,-0.608 0.12,-0.272 0.32,-0.464 0.208,-0.192 0.488,-0.296 0.288,-0.104 0.616,-0.104 0.32,0 0.592,0.08 0.272,0.08 0.456,0.192 l -0.224,0.568 q -0.168,-0.112 -0.368,-0.168 -0.192,-0.064 -0.408,-0.064 -0.392,0 -0.632,0.216 -0.232,0.208 -0.232,0.616 0,0.224 0.072,0.392 0.08,0.168 0.2,0.304 0.128,0.136 0.288,0.248 0.168,0.112 0.352,0.232 0.184,0.12 0.376,0.264 0.192,0.1440001 0.344,0.3360001 0.16,0.184 0.256,0.44 0.104,0.248 0.104,0.592 0,0.312 -0.096,0.592 -0.096,0.28 -0.304,0.496 -0.2,0.208 -0.512,0.336 -0.304,0.12 -0.72,0.12 -0.384,0 -0.672,-0.088 -0.288,-0.088 -0.512,-0.232 l 0.224,-0.576 q 0.208,0.128 0.424,0.208 0.224,0.072 0.512,0.072 z" />
    </g>
    <g
       id="flowRoot561-1-6"
       style="font-style:normal;font-variant:normal;font-weight:normal;font-stretch:normal;font-size:8px;line-height:40.0000006%;font-family:'Ubuntu Condensed';-inkscape-font-specification:'Ubuntu Condensed, ';text-align:center;letter-spacing:0px;word-spacing:0px;text-anchor:middle;fill:#000000;fill-opacity:1;stroke:none"
       transform="matrix(0.26458333,0,0,0.26458333,-26.155373,10.158482)"
       aria-label=" kafka consumer">
      <path
         id="path718"
         style=""
         d="m 178.25545,9.6845467 q -0.224,0.3840003 -0.432,0.7040003 -0.20266,0.314666 -0.40533,0.592 0.128,0.149333 0.26133,0.336 0.13334,0.186666 0.256,0.389333 0.12267,0.197333 0.22934,0.4 0.10666,0.197333 0.18133,0.378667 h -0.50133 q -0.08,-0.176 -0.18667,-0.368 -0.10667,-0.192 -0.224,-0.373334 -0.11733,-0.186666 -0.23467,-0.352 -0.11733,-0.165333 -0.21866,-0.277333 v 1.370667 h -0.45867 V 8.42588 l 0.45867,-0.08 v 2.544 q 0.096,-0.128 0.20266,-0.288 0.112,-0.16 0.21867,-0.32 0.10667,-0.165333 0.20267,-0.32 0.096,-0.1546666 0.16,-0.2773333 z" />
      <path
         id="path720"
         style="font-size:5.33333349px;line-height:40.0000006%"
         d="m 178.84604,9.7432134 q 0.13866,-0.058667 0.29333,-0.090667 0.15467,-0.037333 0.336,-0.037333 0.37333,0 0.608,0.2346666 0.23467,0.229333 0.23467,0.72 v 1.856 q -0.192,0.05333 -0.39467,0.08533 -0.19733,0.032 -0.38933,0.032 -0.192,0 -0.36267,-0.048 -0.16533,-0.048 -0.29333,-0.154666 -0.12267,-0.106667 -0.19734,-0.266667 -0.0747,-0.165333 -0.0747,-0.4 0,-0.218667 0.064,-0.378667 0.0693,-0.165333 0.18666,-0.272 0.11734,-0.112 0.27734,-0.165333 0.16,-0.05867 0.34666,-0.05867 0.176,0 0.38934,0.04267 v -0.256 q 0,-0.309333 -0.12267,-0.432 -0.11733,-0.122667 -0.34133,-0.122667 -0.12267,0 -0.23467,0.02667 -0.10667,0.02133 -0.22933,0.07467 z m 0.21866,1.9253336 q 0,0.245333 0.128,0.362666 0.128,0.117334 0.36267,0.117334 0.144,0 0.31467,-0.03733 v -0.890666 q -0.16,-0.04267 -0.31467,-0.04267 -0.10133,0 -0.192,0.02667 -0.0907,0.02133 -0.16,0.08 -0.064,0.05333 -0.10133,0.149333 -0.0373,0.09067 -0.0373,0.234667 z" />
      <path
         id="path722"
         style="font-size:5.33333349px;line-height:40.0000006%"
         d="m 181.93187,8.34588 q 0.15467,0 0.272,0.032 0.11733,0.032 0.192,0.069333 l -0.096,0.3626667 q -0.0747,-0.037333 -0.15467,-0.053333 -0.08,-0.021333 -0.17066,-0.021333 -0.12267,0 -0.20267,0.042667 -0.08,0.042667 -0.12267,0.1173333 -0.0427,0.074667 -0.0587,0.1813334 -0.016,0.1013333 -0.016,0.2186666 v 0.3893334 h 0.72 v 0.3946663 h -0.72 v 2.405334 h -0.45867 V 9.2952133 q 0,-0.4533333 0.20267,-0.6986666 Q 181.5212,8.34588 181.93187,8.34588 Z" />
      <path
         id="path724"
         style="font-size:5.33333349px;line-height:40.0000006%"
         d="m 184.48462,9.6845467 q -0.224,0.3840003 -0.432,0.7040003 -0.20267,0.314666 -0.40533,0.592 0.128,0.149333 0.26133,0.336 0.13333,0.186666 0.256,0.389333 0.12267,0.197333 0.22933,0.4 0.10667,0.197333 0.18134,0.378667 h -0.50134 q -0.08,-0.176 -0.18666,-0.368 -0.10667,-0.192 -0.224,-0.373334 -0.11734,-0.186666 -0.23467,-0.352 -0.11733,-0.165333 -0.21867,-0.277333 v 1.370667 h -0.45866 V 8.42588 l 0.45866,-0.08 v 2.544 q 0.096,-0.128 0.20267,-0.288 0.112,-0.16 0.21867,-0.32 0.10666,-0.165333 0.20266,-0.32 0.096,-0.1546666 0.16,-0.2773333 z" />
      <path
         id="path726"
         style="font-size:5.33333349px;line-height:40.0000006%"
         d="m 185.0752,9.7432134 q 0.13867,-0.058667 0.29334,-0.090667 0.15466,-0.037333 0.336,-0.037333 0.37333,0 0.608,0.2346666 0.23466,0.229333 0.23466,0.72 v 1.856 q -0.192,0.05333 -0.39466,0.08533 -0.19734,0.032 -0.38934,0.032 -0.192,0 -0.36266,-0.048 -0.16534,-0.048 -0.29334,-0.154666 -0.12266,-0.106667 -0.19733,-0.266667 -0.0747,-0.165333 -0.0747,-0.4 0,-0.218667 0.064,-0.378667 0.0693,-0.165333 0.18667,-0.272 0.11733,-0.112 0.27733,-0.165333 0.16,-0.05867 0.34667,-0.05867 0.176,0 0.38933,0.04267 v -0.256 q 0,-0.309333 -0.12266,-0.432 -0.11734,-0.122667 -0.34134,-0.122667 -0.12266,0 -0.23466,0.02667 -0.10667,0.02133 -0.22934,0.07467 z m 0.21867,1.9253336 q 0,0.245333 0.128,0.362666 0.128,0.117334 0.36267,0.117334 0.144,0 0.31466,-0.03733 v -0.890666 q -0.16,-0.04267 -0.31466,-0.04267 -0.10134,0 -0.192,0.02667 -0.0907,0.02133 -0.16,0.08 -0.064,0.05333 -0.10134,0.149333 -0.0373,0.09067 -0.0373,0.234667 z" />
      <path
         id="path728"
         style="font-size:5.33333349px;line-height:40.0000006%"
         d="m 173.25045,16.040526 q -0.288,0 -0.48,-0.112 -0.192,-0.112 -0.31466,-0.304 -0.11734,-0.197334 -0.17067,-0.464 -0.048,-0.266667 -0.048,-0.581334 0,-0.693333 0.25067,-1.082666 0.256,-0.394667 0.768,-0.394667 0.15466,0 0.27733,0.03733 0.12267,0.03733 0.22933,0.096 l -0.11733,0.378667 q -0.16533,-0.106667 -0.368,-0.106667 -0.288,0 -0.42667,0.261334 -0.13333,0.261333 -0.13333,0.810666 0,0.229334 0.0267,0.426667 0.0267,0.192 0.0907,0.330667 0.0693,0.138666 0.176,0.218666 0.112,0.08 0.28267,0.08 0.11733,0 0.208,-0.02667 0.096,-0.032 0.18133,-0.08 l 0.10134,0.357333 q -0.0853,0.05867 -0.22934,0.106667 -0.13866,0.048 -0.304,0.048 z" />
      <path
         id="path730"
         style="font-size:5.33333349px;line-height:40.0000006%"
         d="m 176.04862,14.573859 q 0,0.330667 -0.0587,0.602667 -0.0587,0.266666 -0.18133,0.458666 -0.11733,0.192 -0.304,0.298667 -0.18133,0.106667 -0.432,0.106667 -0.25067,0 -0.43733,-0.106667 -0.18667,-0.106667 -0.30934,-0.298667 -0.11733,-0.192 -0.176,-0.458666 -0.0587,-0.272 -0.0587,-0.602667 0,-0.325333 0.0587,-0.597333 0.0587,-0.272 0.176,-0.464 0.12267,-0.197334 0.30934,-0.304 0.18666,-0.106667 0.43733,-0.106667 0.25067,0 0.432,0.106667 0.18667,0.106666 0.304,0.304 0.12267,0.192 0.18133,0.464 0.0587,0.272 0.0587,0.597333 z m -0.48,0 q 0,-0.234667 -0.0267,-0.426667 -0.0267,-0.197333 -0.0853,-0.336 -0.0587,-0.144 -0.15467,-0.218666 -0.096,-0.08 -0.22933,-0.08 -0.13867,0 -0.23467,0.08 -0.0907,0.07467 -0.15466,0.218666 -0.0587,0.138667 -0.0853,0.336 -0.0267,0.192 -0.0267,0.426667 0,0.234667 0.0267,0.432 0.0267,0.192 0.0853,0.330667 0.064,0.138666 0.15466,0.218666 0.096,0.07467 0.23467,0.07467 0.13333,0 0.22933,-0.07467 0.096,-0.08 0.15467,-0.218666 0.0587,-0.138667 0.0853,-0.330667 0.0267,-0.197333 0.0267,-0.432 z" />
      <path
         id="path732"
         style="font-size:5.33333349px;line-height:40.0000006%"
         d="m 176.72004,13.251192 q 0.19733,-0.05867 0.42666,-0.096 0.22934,-0.04267 0.42134,-0.04267 0.208,0 0.37866,0.05867 0.17067,0.05333 0.288,0.186667 0.12267,0.133333 0.18667,0.362667 0.0693,0.224 0.0693,0.56 v 1.690666 h -0.45866 v -1.653333 q 0,-0.416 -0.10667,-0.608 -0.10667,-0.192 -0.4,-0.192 -0.15467,0 -0.34667,0.05333 v 2.4 h -0.45866 z" />
      <path
         id="path734"
         style="font-size:5.33333349px;line-height:40.0000006%"
         d="m 179.68229,15.645859 q 0.20266,0 0.304,-0.112 0.10666,-0.117333 0.10666,-0.304 0,-0.117333 -0.0427,-0.197333 -0.0427,-0.08533 -0.112,-0.149334 -0.0693,-0.064 -0.16,-0.112 -0.0907,-0.05333 -0.18134,-0.112 -0.0907,-0.05333 -0.176,-0.122666 -0.0853,-0.07467 -0.15466,-0.165334 -0.064,-0.096 -0.10667,-0.213333 -0.0373,-0.122667 -0.0373,-0.282667 0,-0.346666 0.21333,-0.56 0.21867,-0.213333 0.58667,-0.213333 0.15466,0 0.29333,0.04267 0.13867,0.03733 0.22933,0.08533 l -0.10133,0.368 q -0.096,-0.05333 -0.192,-0.08 -0.096,-0.02667 -0.208,-0.02667 -0.17067,0 -0.272,0.101334 -0.10133,0.096 -0.10133,0.282666 0,0.106667 0.0373,0.186667 0.0373,0.07467 0.096,0.138667 0.064,0.05867 0.13867,0.112 0.08,0.05333 0.16533,0.101333 0.10133,0.05867 0.19733,0.128 0.10134,0.06933 0.176,0.165333 0.08,0.09067 0.128,0.218667 0.048,0.122667 0.048,0.298667 0,0.368 -0.21866,0.592 -0.21334,0.224 -0.62934,0.224 -0.21333,0 -0.384,-0.05867 -0.17066,-0.05867 -0.256,-0.106667 l 0.096,-0.378666 q 0.08,0.04267 0.21334,0.096 0.13866,0.05333 0.304,0.05333 z" />
      <path
         id="path736"
         style="font-size:5.33333349px;line-height:40.0000006%"
         d="m 182.8492,15.891192 q -0.0693,0.02667 -0.17066,0.05333 -0.096,0.02133 -0.208,0.03733 -0.10667,0.02133 -0.21867,0.032 -0.10667,0.016 -0.19733,0.016 -0.21867,0 -0.4,-0.05333 -0.18134,-0.048 -0.30934,-0.176 -0.128,-0.128 -0.19733,-0.346667 -0.0693,-0.224 -0.0693,-0.56 v -1.722667 h 0.45866 v 1.706667 q 0,0.410667 0.12267,0.581333 0.128,0.165334 0.384,0.165334 0.0853,0 0.17067,-0.0053 0.0853,-0.01067 0.176,-0.03733 v -2.410667 h 0.45866 z" />
      <path
         id="path738"
         style="font-size:5.33333349px;line-height:40.0000006%"
         d="m 183.67837,13.251192 q 0.18667,-0.05867 0.40533,-0.096 0.21867,-0.04267 0.4,-0.04267 0.18667,0 0.336,0.048 0.15467,0.048 0.272,0.16 0.13867,-0.09067 0.29867,-0.149334 0.16,-0.05867 0.352,-0.05867 0.192,0 0.34667,0.05867 0.16,0.05333 0.272,0.186667 0.112,0.133333 0.176,0.362667 0.064,0.224 0.064,0.56 v 1.690666 h -0.45867 v -1.653333 q 0,-0.416 -0.096,-0.608 -0.096,-0.192 -0.36267,-0.192 -0.10133,0 -0.208,0.03733 -0.10133,0.03733 -0.192,0.101334 0.0427,0.122666 0.064,0.277333 0.0213,0.154667 0.0213,0.346667 v 1.690666 h -0.45867 v -1.653333 q 0,-0.416 -0.096,-0.608 -0.096,-0.192 -0.36267,-0.192 -0.13866,0 -0.31466,0.05333 v 2.4 h -0.45867 z" />
      <path
         id="path740"
         style="font-size:5.33333349px;line-height:40.0000006%"
         d="m 187.71179,14.707192 q 0.005,0.202667 0.0373,0.373334 0.032,0.165333 0.10133,0.293333 0.0747,0.122667 0.192,0.192 0.12267,0.06933 0.30934,0.06933 0.15466,0 0.28266,-0.04267 0.13334,-0.048 0.192,-0.08 l 0.0853,0.368 q -0.0693,0.048 -0.23467,0.101333 -0.16,0.05867 -0.384,0.05867 -0.29333,0 -0.496,-0.106667 -0.19733,-0.106667 -0.32533,-0.298667 -0.12267,-0.192 -0.176,-0.458666 -0.0533,-0.266667 -0.0533,-0.586667 0,-0.773333 0.256,-1.130667 0.256,-0.357333 0.67734,-0.357333 0.47466,0 0.672,0.357333 0.19733,0.357334 0.19733,1.002667 0,0.05867 0,0.122667 0,0.05867 -0.005,0.122666 z m 0.464,-1.216 q -0.22934,0 -0.336,0.229334 -0.10134,0.229333 -0.12267,0.613333 h 0.848 q 0,-0.389333 -0.08,-0.613333 -0.08,-0.229334 -0.30933,-0.229334 z" />
      <path
         id="path742"
         style="font-size:5.33333349px;line-height:40.0000006%"
         d="m 190.9307,13.587192 q -0.17066,-0.07467 -0.384,-0.07467 -0.19733,0 -0.368,0.06933 v 2.389333 h -0.45866 v -2.677333 q 0.15466,-0.07467 0.352,-0.122667 0.20266,-0.05333 0.44266,-0.05333 0.128,0 0.256,0.016 0.128,0.016 0.24,0.05867 z" />
    </g>
    <path
       id="path5802-9"
       d="m 20.602125,13.104776 c -2.943045,-1.369673 -4.83322,-1.090852 -7.05398,0"
       style="fill:none;stroke:#ff00ff;stroke-width:0.40611779;stroke-linecap:butt;stroke-linejoin:miter;stroke-miterlimit:4;stroke-dasharray:none;stroke-opacity:1;marker-end:url(#Arrow1Mend-4)" />
    <path
       id="path5802-9-8"
       d="m 20.54366,14.474532 c -2.943045,-1.369673 -4.833219,-1.090852 -7.05398,0"
       style="fill:none;stroke:#00ff00;stroke-width:0.40611779;stroke-linecap:butt;stroke-linejoin:miter;stroke-miterlimit:4;stroke-dasharray:none;stroke-opacity:1;marker-end:url(#Arrow1Mend-4-0)" />
    <g
       id="flowRoot782"
       style="font-style:normal;font-weight:normal;font-size:40px;line-height:1.25;font-family:sans-serif;letter-spacing:0px;word-spacing:0px;fill:#000000;fill-opacity:1;stroke:none"
       transform="matrix(0.26458333,0,0,0.26458333,25.669813,-6.6434671)"
       aria-label="Kafka">
      <path
         id="path790"
         style="font-style:normal;font-variant:normal;font-weight:normal;font-stretch:normal;font-size:8px;font-family:'Ubuntu Condensed';-inkscape-font-specification:'Ubuntu Condensed, '"
         d="m -50.454922,44.684516 q -0.176,0.272 -0.4,0.6 -0.216,0.328 -0.448,0.68 -0.232,0.344 -0.472,0.68 -0.232,0.336 -0.448,0.624 0.24,0.24 0.52,0.608 0.28,0.36 0.552,0.768 0.272,0.4 0.512,0.816 0.24,0.416 0.384,0.768 h -0.808 q -0.168,-0.368 -0.392,-0.752 -0.216,-0.384 -0.464,-0.736 -0.24,-0.36 -0.496,-0.664 -0.248,-0.304 -0.488,-0.512 v 2.664 h -0.72 v -5.544 h 0.72 v 2.448 q 0.208,-0.264 0.44,-0.6 0.232,-0.336 0.456,-0.672 0.232,-0.336 0.432,-0.64 0.2,-0.312 0.336,-0.536 z" />
      <path
         id="path792"
         style="font-style:normal;font-variant:normal;font-weight:normal;font-stretch:normal;font-size:8px;font-family:'Ubuntu Condensed';-inkscape-font-specification:'Ubuntu Condensed, '"
         d="m -49.560047,46.116516 q 0.208,-0.088 0.44,-0.136 0.232,-0.056 0.504,-0.056 0.56,0 0.912,0.352 0.352,0.344 0.352,1.08 v 2.784 q -0.288,0.08 -0.592,0.128 -0.296,0.048 -0.584,0.048 -0.288,0 -0.544,-0.072 -0.248,-0.072 -0.44,-0.232 -0.184,-0.16 -0.296,-0.4 -0.112,-0.248 -0.112,-0.6 0,-0.328 0.096,-0.568 0.104,-0.248 0.28,-0.408 0.176,-0.168 0.416,-0.248 0.24,-0.088 0.52,-0.088 0.264,0 0.584,0.064 v -0.384 q 0,-0.464 -0.184,-0.648 -0.176,-0.184 -0.512,-0.184 -0.184,0 -0.352,0.04 -0.16,0.032 -0.344,0.112 z m 0.328,2.888 q 0,0.368 0.192,0.544 0.192,0.176 0.544,0.176 0.216,0 0.472,-0.056 v -1.336 q -0.24,-0.064 -0.472,-0.064 -0.152,0 -0.288,0.04 -0.136,0.032 -0.24,0.12 -0.096,0.08 -0.152,0.224 -0.056,0.136 -0.056,0.352 z" />
      <path
         id="path794"
         style="font-style:normal;font-variant:normal;font-weight:normal;font-stretch:normal;font-size:8px;font-family:'Ubuntu Condensed';-inkscape-font-specification:'Ubuntu Condensed, '"
         d="m -44.931297,44.020516 q 0.232,0 0.408,0.048 0.176,0.048 0.288,0.104 l -0.144,0.544 q -0.112,-0.056 -0.232,-0.08 -0.12,-0.032 -0.256,-0.032 -0.184,0 -0.304,0.064 -0.12,0.064 -0.184,0.176 -0.064,0.112 -0.088,0.272 -0.024,0.152 -0.024,0.328 v 0.584 h 1.08 v 0.592 h -1.08 v 3.608 h -0.688 v -4.784 q 0,-0.68 0.304,-1.048 0.304,-0.376 0.92,-0.376 z" />
      <path
         id="path796"
         style="font-style:normal;font-variant:normal;font-weight:normal;font-stretch:normal;font-size:8px;font-family:'Ubuntu Condensed';-inkscape-font-specification:'Ubuntu Condensed, '"
         d="m -41.102172,46.028516 q -0.336,0.576 -0.648,1.056 -0.304,0.472 -0.608,0.888 0.192,0.224 0.392,0.504 0.2,0.28 0.384,0.584 0.184,0.296 0.344,0.6 0.16,0.296 0.272,0.568 h -0.752 q -0.12,-0.264 -0.28,-0.552 -0.16,-0.288 -0.336,-0.56 -0.176,-0.28 -0.352,-0.528 -0.176,-0.248 -0.328,-0.416 v 2.056 h -0.688 v -6.088 l 0.688,-0.12 v 3.816 q 0.144,-0.192 0.304,-0.432 0.168,-0.24 0.328,-0.48 0.16,-0.248 0.304,-0.48 0.144,-0.232 0.24,-0.416 z" />
      <path
         id="path798"
         style="font-style:normal;font-variant:normal;font-weight:normal;font-stretch:normal;font-size:8px;font-family:'Ubuntu Condensed';-inkscape-font-specification:'Ubuntu Condensed, '"
         d="m -40.216297,46.116516 q 0.208,-0.088 0.44,-0.136 0.232,-0.056 0.504,-0.056 0.56,0 0.912,0.352 0.352,0.344 0.352,1.08 v 2.784 q -0.288,0.08 -0.592,0.128 -0.296,0.048 -0.584,0.048 -0.288,0 -0.544,-0.072 -0.248,-0.072 -0.44,-0.232 -0.184,-0.16 -0.296,-0.4 -0.112,-0.248 -0.112,-0.6 0,-0.328 0.096,-0.568 0.104,-0.248 0.28,-0.408 0.176,-0.168 0.416,-0.248 0.24,-0.088 0.52,-0.088 0.264,0 0.584,0.064 v -0.384 q 0,-0.464 -0.184,-0.648 -0.176,-0.184 -0.512,-0.184 -0.184,0 -0.352,0.04 -0.16,0.032 -0.344,0.112 z m 0.328,2.888 q 0,0.368 0.192,0.544 0.192,0.176 0.544,0.176 0.216,0 0.472,-0.056 v -1.336 q -0.24,-0.064 -0.472,-0.064 -0.152,0 -0.288,0.04 -0.136,0.032 -0.24,0.12 -0.096,0.08 -0.152,0.224 -0.056,0.136 -0.056,0.352 z" />
    </g>
    <path
       id="path4942-3"
       d="m 21.371699,16.85773 13.088045,0 -0.0049,1.693332 16.567833,0 0,1.737252 15.100729,0 0,1.804069 -14.967094,0 0,1.469982 -16.904795,0 0,1.142902 31.938705,0 0,1.870887 -31.671436,0 0,2.204973 -13.213951,0"
       style="fill:none;stroke:#0000ff;stroke-width:0.60000002;stroke-linecap:butt;stroke-linejoin:miter;stroke-miterlimit:4;stroke-dasharray:none;stroke-opacity:1"
       inkscape:connector-curvature="0"
       sodipodi:nodetypes="cccccccccccccccc" />
  </g>
</svg>
