<svg version="1.1" viewBox="0.0 0.0 831.5931758530184 287.1942257217848" fill="none" stroke="none" stroke-linecap="square" stroke-miterlimit="10" xmlns:xlink="http://www.w3.org/1999/xlink" xmlns="http://www.w3.org/2000/svg"><clipPath id="p.0"><path d="m0 0l831.5932 0l0 287.1942l-831.5932 0l0 -287.1942z" clip-rule="nonzero"/></clipPath><g clip-path="url(#p.0)"><path fill="#000000" fill-opacity="0.0" d="m0 0l831.5932 0l0 287.1942l-831.5932 0z" fill-rule="evenodd"/><path fill="#cfe2f3" d="m36.368652 137.13124l155.1181 0l0 34.015747l-155.1181 0z" fill-rule="evenodd"/><path stroke="#000000" stroke-width="1.0" stroke-linejoin="round" stroke-linecap="butt" d="m36.368652 137.13124l155.1181 0l0 34.015747l-155.1181 0z" fill-rule="evenodd"/><path fill="#000000" d="m77.51524 161.05911l0 -13.359375l5.046875 0q1.328125 0 2.03125 0.125q0.96875 0.171875 1.640625 0.640625q0.671875 0.453125 1.078125 1.28125q0.40625 0.828125 0.40625 1.828125q0 1.703125 -1.09375 2.890625q-1.078125 1.171875 -3.921875 1.171875l-3.421875 0l0 5.421875l-1.765625 0zm1.765625 -7.0l3.453125 0q1.71875 0 2.4375 -0.640625q0.71875 -0.640625 0.71875 -1.796875q0 -0.84375 -0.421875 -1.4375q-0.421875 -0.59375 -1.125 -0.78125q-0.4375 -0.125 -1.640625 -0.125l-3.421875 0l0 4.78125zm10.459198 7.0l0 -9.671875l1.46875 0l0 1.46875q0.5625 -1.03125 1.03125 -1.359375q0.484375 -0.328125 1.0625 -0.328125q0.828125 0 1.6875 0.53125l-0.5625 1.515625q-0.609375 -0.359375 -1.203125 -0.359375q-0.546875 0 -0.96875 0.328125q-0.421875 0.328125 -0.609375 0.890625q-0.28125 0.875 -0.28125 1.921875l0 5.0625l-1.625 0zm5.618927 -4.84375q0 -2.6875 1.484375 -3.96875q1.25 -1.078125 3.046875 -1.078125q2.0 0 3.265625 1.3125q1.265625 1.296875 1.265625 3.609375q0 1.859375 -0.5625 2.9375q-0.5625 1.0625 -1.640625 1.65625q-1.0625 0.59375 -2.328125 0.59375q-2.03125 0 -3.28125 -1.296875q-1.25 -1.3125 -1.25 -3.765625zm1.6875 0q0 1.859375 0.796875 2.796875q0.8125 0.921875 2.046875 0.921875q1.21875 0 2.03125 -0.921875q0.8125 -0.9375 0.8125 -2.84375q0 -1.796875 -0.8125 -2.71875q-0.8125 -0.921875 -2.03125 -0.921875q-1.234375 0 -2.046875 0.921875q-0.796875 0.90625 -0.796875 2.765625zm15.563217 4.84375l0 -1.21875q-0.90625 1.4375 -2.703125 1.4375q-1.15625 0 -2.125 -0.640625q-0.96875 -0.640625 -1.5 -1.78125q-0.53125 -1.140625 -0.53125 -2.625q0 -1.453125 0.484375 -2.625q0.484375 -1.1875 1.4375 -1.8125q0.96875 -0.625 2.171875 -0.625q0.875 0 1.546875 0.375q0.6875 0.359375 1.109375 0.953125l0 -4.796875l1.640625 0l0 13.359375l-1.53125 0zm-5.171875 -4.828125q0 1.859375 0.78125 2.78125q0.78125 0.921875 1.84375 0.921875q1.078125 0 1.828125 -0.875q0.75 -0.890625 0.75 -2.6875q0 -1.984375 -0.765625 -2.90625q-0.765625 -0.9375 -1.890625 -0.9375q-1.078125 0 -1.8125 0.890625q-0.734375 0.890625 -0.734375 2.8125zm15.610092 4.828125l0 -1.421875q-1.125 1.640625 -3.0625 1.640625q-0.859375 0 -1.609375 -0.328125q-0.734375 -0.328125 -1.09375 -0.828125q-0.359375 -0.5 -0.5 -1.21875q-0.109375 -0.46875 -0.109375 -1.53125l0 -5.984375l1.640625 0l0 5.359375q0 1.28125 0.109375 1.734375q0.15625 0.640625 0.65625 1.015625q0.5 0.375 1.234375 0.375q0.734375 0 1.375 -0.375q0.65625 -0.390625 0.921875 -1.03125q0.265625 -0.65625 0.265625 -1.890625l0 -5.1875l1.640625 0l0 9.671875l-1.46875 0zm10.360092 -3.546875l1.609375 0.21875q-0.265625 1.65625 -1.359375 2.609375q-1.078125 0.9375 -2.671875 0.9375q-1.984375 0 -3.1875 -1.296875q-1.203125 -1.296875 -1.203125 -3.71875q0 -1.578125 0.515625 -2.75q0.515625 -1.171875 1.578125 -1.75q1.0625 -0.59375 2.3125 -0.59375q1.578125 0 2.578125 0.796875q1.0 0.796875 1.28125 2.265625l-1.59375 0.234375q-0.234375 -0.96875 -0.8125 -1.453125q-0.578125 -0.5 -1.390625 -0.5q-1.234375 0 -2.015625 0.890625q-0.78125 0.890625 -0.78125 2.8125q0 1.953125 0.75 2.84375q0.75 0.875 1.953125 0.875q0.96875 0 1.609375 -0.59375q0.65625 -0.59375 0.828125 -1.828125zm9.640625 0.4375l1.6875 0.203125q-0.40625 1.484375 -1.484375 2.3125q-1.078125 0.8125 -2.765625 0.8125q-2.125 0 -3.375 -1.296875q-1.234375 -1.3125 -1.234375 -3.671875q0 -2.453125 1.25 -3.796875q1.265625 -1.34375 3.265625 -1.34375q1.9375 0 3.15625 1.328125q1.234375 1.3125 1.234375 3.703125q0 0.15625 0 0.4375l-7.21875 0q0.09375 1.59375 0.90625 2.453125q0.8125 0.84375 2.015625 0.84375q0.90625 0 1.546875 -0.46875q0.640625 -0.484375 1.015625 -1.515625zm-5.390625 -2.65625l5.40625 0q-0.109375 -1.21875 -0.625 -1.828125q-0.78125 -0.953125 -2.03125 -0.953125q-1.125 0 -1.90625 0.765625q-0.765625 0.75 -0.84375 2.015625zm9.125717 5.765625l0 -9.671875l1.46875 0l0 1.46875q0.5625 -1.03125 1.03125 -1.359375q0.484375 -0.328125 1.0625 -0.328125q0.828125 0 1.6875 0.53125l-0.5625 1.515625q-0.609375 -0.359375 -1.203125 -0.359375q-0.546875 0 -0.96875 0.328125q-0.421875 0.328125 -0.609375 0.890625q-0.28125 0.875 -0.28125 1.921875l0 5.0625l-1.625 0z" fill-rule="nonzero"/><path fill="#cfe2f3" d="m360.19675 28.590551l93.19684 0l0 59.74803l-93.19684 0z" fill-rule="evenodd"/><path stroke="#000000" stroke-width="1.0" stroke-linejoin="round" stroke-linecap="butt" d="m360.19675 28.590551l93.19684 0l0 59.74803l-93.19684 0z" fill-rule="evenodd"/><path fill="#000000" d="m373.4191 50.08769l1.65625 -0.140625q0.125 1.0 0.546875 1.640625q0.4375 0.640625 1.34375 1.046875q0.921875 0.390625 2.0625 0.390625q1.0 0 1.78125 -0.296875q0.78125 -0.296875 1.15625 -0.8125q0.375 -0.53125 0.375 -1.15625q0 -0.625 -0.375 -1.09375q-0.359375 -0.46875 -1.1875 -0.796875q-0.546875 -0.203125 -2.390625 -0.640625q-1.828125 -0.453125 -2.5625 -0.84375q-0.96875 -0.5 -1.4375 -1.234375q-0.46875 -0.75 -0.46875 -1.671875q0 -1.0 0.578125 -1.875q0.578125 -0.890625 1.671875 -1.34375q1.109375 -0.453125 2.453125 -0.453125q1.484375 0 2.609375 0.484375q1.140625 0.46875 1.75 1.40625q0.609375 0.921875 0.65625 2.09375l-1.6875 0.125q-0.140625 -1.265625 -0.9375 -1.90625q-0.78125 -0.65625 -2.3125 -0.65625q-1.609375 0 -2.34375 0.59375q-0.734375 0.59375 -0.734375 1.421875q0 0.71875 0.53125 1.171875q0.5 0.46875 2.65625 0.96875q2.15625 0.484375 2.953125 0.84375q1.171875 0.53125 1.71875 1.359375q0.5625 0.828125 0.5625 1.90625q0 1.0625 -0.609375 2.015625q-0.609375 0.9375 -1.75 1.46875q-1.140625 0.515625 -2.578125 0.515625q-1.8125 0 -3.046875 -0.53125q-1.21875 -0.53125 -1.921875 -1.59375q-0.6875 -1.0625 -0.71875 -2.40625zm19.146698 0.75l1.609375 0.21875q-0.265625 1.65625 -1.359375 2.609375q-1.078125 0.9375 -2.671875 0.9375q-1.984375 0 -3.1875 -1.296875q-1.203125 -1.296875 -1.203125 -3.71875q0 -1.578125 0.515625 -2.75q0.515625 -1.171875 1.578125 -1.75q1.0625 -0.59375 2.3125 -0.59375q1.578125 0 2.578125 0.796875q1.0 0.796875 1.28125 2.265625l-1.59375 0.234375q-0.234375 -0.96875 -0.8125 -1.453125q-0.578125 -0.5 -1.390625 -0.5q-1.234375 0 -2.015625 0.890625q-0.78125 0.890625 -0.78125 2.8125q0 1.953125 0.75 2.84375q0.75 0.875 1.953125 0.875q0.96875 0 1.609375 -0.59375q0.65625 -0.59375 0.828125 -1.828125zm3.015625 3.546875l0 -13.359375l1.640625 0l0 4.796875q1.140625 -1.328125 2.890625 -1.328125q1.078125 0 1.859375 0.421875q0.796875 0.421875 1.140625 1.171875q0.34375 0.75 0.34375 2.171875l0 6.125l-1.640625 0l0 -6.125q0 -1.234375 -0.53125 -1.796875q-0.53125 -0.5625 -1.515625 -0.5625q-0.71875 0 -1.359375 0.390625q-0.640625 0.375 -0.921875 1.015625q-0.265625 0.640625 -0.265625 1.78125l0 5.296875l-1.640625 0zm17.000702 -3.109375l1.6875 0.203125q-0.40625 1.484375 -1.484375 2.3125q-1.078125 0.8125 -2.765625 0.8125q-2.125 0 -3.375 -1.296875q-1.234375 -1.3125 -1.234375 -3.671875q0 -2.453125 1.25 -3.796875q1.265625 -1.34375 3.265625 -1.34375q1.9375 0 3.15625 1.328125q1.234375 1.3125 1.234375 3.703125q0 0.15625 0 0.4375l-7.21875 0q0.09375 1.59375 0.90625 2.453125q0.8125 0.84375 2.015625 0.84375q0.90625 0 1.546875 -0.46875q0.640625 -0.484375 1.015625 -1.515625zm-5.390625 -2.65625l5.40625 0q-0.109375 -1.21875 -0.625 -1.828125q-0.78125 -0.953125 -2.03125 -0.953125q-1.125 0 -1.90625 0.765625q-0.765625 0.75 -0.84375 2.015625zm9.141357 5.765625l0 -9.671875l1.46875 0l0 1.359375q0.453125 -0.71875 1.203125 -1.140625q0.765625 -0.4375 1.71875 -0.4375q1.078125 0 1.765625 0.453125q0.6875 0.4375 0.96875 1.234375q1.15625 -1.6875 2.984375 -1.6875q1.453125 0 2.21875 0.796875q0.78125 0.796875 0.78125 2.453125l0 6.640625l-1.640625 0l0 -6.09375q0 -0.984375 -0.15625 -1.40625q-0.15625 -0.4375 -0.578125 -0.703125q-0.421875 -0.265625 -0.984375 -0.265625q-1.015625 0 -1.6875 0.6875q-0.671875 0.671875 -0.671875 2.15625l0 5.625l-1.640625 0l0 -6.28125q0 -1.09375 -0.40625 -1.640625q-0.40625 -0.546875 -1.3125 -0.546875q-0.6875 0 -1.28125 0.359375q-0.59375 0.359375 -0.859375 1.0625q-0.25 0.703125 -0.25 2.03125l0 5.015625l-1.640625 0zm21.853302 -1.1875q-0.921875 0.765625 -1.765625 1.09375q-0.828125 0.3125 -1.796875 0.3125q-1.59375 0 -2.453125 -0.78125q-0.859375 -0.78125 -0.859375 -1.984375q0 -0.71875 0.328125 -1.296875q0.328125 -0.59375 0.84375 -0.9375q0.53125 -0.359375 1.1875 -0.546875q0.46875 -0.125 1.453125 -0.25q1.984375 -0.234375 2.921875 -0.5625q0.015625 -0.34375 0.015625 -0.421875q0 -1.0 -0.46875 -1.421875q-0.625 -0.546875 -1.875 -0.546875q-1.15625 0 -1.703125 0.40625q-0.546875 0.40625 -0.8125 1.421875l-1.609375 -0.21875q0.21875 -1.015625 0.71875 -1.640625q0.5 -0.640625 1.453125 -0.984375q0.953125 -0.34375 2.1875 -0.34375q1.25 0 2.015625 0.296875q0.78125 0.28125 1.140625 0.734375q0.375 0.4375 0.515625 1.109375q0.078125 0.421875 0.078125 1.515625l0 2.1875q0 2.28125 0.109375 2.890625q0.109375 0.59375 0.40625 1.15625l-1.703125 0q-0.265625 -0.515625 -0.328125 -1.1875zm-0.140625 -3.671875q-0.890625 0.375 -2.671875 0.625q-1.015625 0.140625 -1.4375 0.328125q-0.421875 0.1875 -0.65625 0.53125q-0.21875 0.34375 -0.21875 0.78125q0 0.65625 0.5 1.09375q0.5 0.4375 1.453125 0.4375q0.9375 0 1.671875 -0.40625q0.75 -0.421875 1.09375 -1.140625q0.265625 -0.5625 0.265625 -1.640625l0 -0.609375z" fill-rule="nonzero"/><path fill="#000000" d="m374.0532 76.38457l0 -13.359379l5.921875 0q1.78125 0 2.703125 0.359375q0.9375 0.359375 1.484375 1.2812538q0.5625 0.90625 0.5625 2.015625q0 1.40625 -0.921875 2.390625q-0.921875 0.96875 -2.84375 1.234375q0.703125 0.34375 1.078125 0.671875q0.765625 0.703125 1.453125 1.765625l2.328125 3.640625l-2.21875 0l-1.765625 -2.78125q-0.78125 -1.203125 -1.28125 -1.828125q-0.5 -0.640625 -0.90625 -0.890625q-0.390625 -0.265625 -0.796875 -0.359375q-0.296875 -0.078125 -0.984375 -0.078125l-2.046875 0l0 5.9375l-1.765625 0zm1.765625 -7.453125l3.796875 0q1.21875 0 1.890625 -0.25q0.6875 -0.265625 1.046875 -0.8125q0.359375 -0.546875 0.359375 -1.1875q0 -0.953125 -0.6875 -1.5625q-0.6875 -0.609375 -2.1875 -0.609375l-4.21875 0l0 4.421875zm18.097961 4.34375l1.6875 0.203125q-0.40625 1.484375 -1.484375 2.3125q-1.078125 0.8125 -2.765625 0.8125q-2.125 0 -3.375 -1.296875q-1.234375 -1.3125 -1.234375 -3.671875q0 -2.453125 1.25 -3.796875q1.265625 -1.34375 3.265625 -1.34375q1.9375 0 3.15625 1.328125q1.234375 1.3125 1.234375 3.703125q0 0.15625 0 0.4375l-7.21875 0q0.09375 1.59375 0.90625 2.453125q0.8125 0.84375 2.015625 0.84375q0.90625 0 1.546875 -0.46875q0.640625 -0.484375 1.015625 -1.515625zm-5.390625 -2.65625l5.40625 0q-0.109375 -1.21875 -0.625 -1.828125q-0.78125 -0.953125 -2.03125 -0.953125q-1.125 0 -1.90625 0.765625q-0.765625 0.75 -0.84375 2.015625zm8.828827 6.5625l1.59375 0.234375q0.109375 0.75 0.5625 1.078125q0.609375 0.453125 1.671875 0.453125q1.140625 0 1.75 -0.453125q0.625 -0.453125 0.84375 -1.265625q0.125 -0.5 0.109375 -2.109375q-1.0625 1.265625 -2.671875 1.265625q-2.0 0 -3.09375 -1.4375q-1.09375 -1.4375 -1.09375 -3.453125q0 -1.390625 0.5 -2.5625q0.515625 -1.171875 1.453125 -1.796875q0.953125 -0.640625 2.25 -0.640625q1.703125 0 2.8125 1.375l0 -1.15625l1.515625 0l0 8.359375q0 2.265625 -0.46875 3.203125q-0.453125 0.9375 -1.453125 1.484375q-0.984375 0.546875 -2.453125 0.546875q-1.71875 0 -2.796875 -0.78125q-1.0625 -0.765625 -1.03125 -2.34375zm1.359375 -5.8125q0 1.90625 0.75 2.78125q0.765625 0.875 1.90625 0.875q1.125 0 1.890625 -0.859375q0.765625 -0.875 0.765625 -2.734375q0 -1.78125 -0.796875 -2.671875q-0.78125 -0.90625 -1.890625 -0.90625q-1.09375 0 -1.859375 0.890625q-0.765625 0.875 -0.765625 2.625zm9.328857 -6.453125l0 -1.8906288l1.640625 0l0 1.8906288l-1.640625 0zm0 11.46875l0 -9.671875l1.640625 0l0 9.671875l-1.640625 0zm3.488556 -2.890625l1.625 -0.25q0.125 0.96875 0.75 1.5q0.625 0.515625 1.75 0.515625q1.125 0 1.671875 -0.453125q0.546875 -0.46875 0.546875 -1.09375q0 -0.546875 -0.484375 -0.875q-0.328125 -0.21875 -1.671875 -0.546875q-1.8125 -0.46875 -2.515625 -0.796875q-0.6875 -0.328125 -1.046875 -0.90625q-0.359375 -0.59375 -0.359375 -1.3125q0 -0.640625 0.296875 -1.1875q0.296875 -0.5625 0.8125 -0.921875q0.375 -0.28125 1.03125 -0.46875q0.671875 -0.203125 1.421875 -0.203125q1.140625 0 2.0 0.328125q0.859375 0.328125 1.265625 0.890625q0.421875 0.5625 0.578125 1.5l-1.609375 0.21875q-0.109375 -0.75 -0.640625 -1.171875q-0.515625 -0.421875 -1.46875 -0.421875q-1.140625 0 -1.625 0.375q-0.46875 0.375 -0.46875 0.875q0 0.3125 0.1875 0.578125q0.203125 0.265625 0.640625 0.4375q0.234375 0.09375 1.4375 0.421875q1.75 0.453125 2.4375 0.75q0.6875 0.296875 1.078125 0.859375q0.390625 0.5625 0.390625 1.40625q0 0.828125 -0.484375 1.546875q-0.46875 0.71875 -1.375 1.125q-0.90625 0.390625 -2.046875 0.390625q-1.875 0 -2.875 -0.78125q-0.984375 -0.78125 -1.25 -2.328125zm13.5625 1.421875l0.234375 1.453125q-0.6875 0.140625 -1.234375 0.140625q-0.890625 0 -1.390625 -0.28125q-0.484375 -0.28125 -0.6875 -0.734375q-0.203125 -0.46875 -0.203125 -1.9375l0 -5.578125l-1.203125 0l0 -1.265625l1.203125 0l0 -2.390625l1.625 -0.9843788l0 3.3750038l1.65625 0l0 1.265625l-1.65625 0l0 5.671875q0 0.6875 0.078125 0.890625q0.09375 0.203125 0.28125 0.328125q0.203125 0.109375 0.578125 0.109375q0.265625 0 0.71875 -0.0625zm1.5895691 1.46875l0 -9.671875l1.46875 0l0 1.46875q0.5625 -1.03125 1.03125 -1.359375q0.484375 -0.328125 1.0625 -0.328125q0.828125 0 1.6875 0.53125l-0.5625 1.515625q-0.609375 -0.359375 -1.203125 -0.359375q-0.546875 0 -0.96875 0.328125q-0.421875 0.328125 -0.609375 0.890625q-0.28125 0.875 -0.28125 1.921875l0 5.0625l-1.625 0zm6.150177 3.71875l-0.1875 -1.53125q0.546875 0.140625 0.9375 0.140625q0.546875 0 0.875 -0.1875q0.328125 -0.171875 0.546875 -0.5q0.15625 -0.25 0.5 -1.21875q0.046875 -0.140625 0.140625 -0.40625l-3.671875 -9.6875l1.765625 0l2.015625 5.59375q0.390625 1.078125 0.703125 2.25q0.28125 -1.125 0.671875 -2.203125l2.078125 -5.640625l1.640625 0l-3.6875 9.828125q-0.59375 1.609375 -0.921875 2.203125q-0.4375 0.8125 -1.0 1.1875q-0.5625 0.375 -1.34375 0.375q-0.484375 0 -1.0625 -0.203125z" fill-rule="nonzero"/><path fill="#cfe2f3" d="m632.1064 136.12335l155.11816 0l0 34.015762l-155.11816 0z" fill-rule="evenodd"/><path stroke="#000000" stroke-width="1.0" stroke-linejoin="round" stroke-linecap="butt" d="m632.1064 136.12335l155.11816 0l0 34.015762l-155.11816 0z" fill-rule="evenodd"/><path fill="#000000" d="m677.6055 155.36372l1.765625 0.453125q-0.5625 2.171875 -2.0 3.328125q-1.4375 1.140625 -3.53125 1.140625q-2.15625 0 -3.515625 -0.875q-1.34375 -0.890625 -2.0625 -2.546875q-0.703125 -1.671875 -0.703125 -3.59375q0 -2.078125 0.796875 -3.625q0.796875 -1.5625 2.265625 -2.359375q1.484375 -0.8125 3.25 -0.8125q2.0 0 3.359375 1.015625q1.375 1.015625 1.90625 2.875l-1.734375 0.40625q-0.46875 -1.453125 -1.359375 -2.109375q-0.875 -0.671875 -2.203125 -0.671875q-1.546875 0 -2.578125 0.734375q-1.03125 0.734375 -1.453125 1.984375q-0.421875 1.234375 -0.421875 2.5625q0 1.703125 0.5 2.96875q0.5 1.265625 1.546875 1.90625q1.046875 0.625 2.265625 0.625q1.484375 0 2.515625 -0.859375q1.03125 -0.859375 1.390625 -2.546875zm3.1291504 -0.15625q0 -2.6875 1.484375 -3.96875q1.25 -1.078125 3.046875 -1.078125q2.0 0 3.265625 1.3125q1.265625 1.296875 1.265625 3.609375q0 1.859375 -0.5625 2.9375q-0.5625 1.0625 -1.640625 1.65625q-1.0625 0.59375 -2.328125 0.59375q-2.03125 0 -3.28125 -1.296875q-1.25 -1.3125 -1.25 -3.765625zm1.6875 0q0 1.859375 0.796875 2.796875q0.8125 0.921875 2.046875 0.921875q1.21875 0 2.03125 -0.921875q0.8125 -0.9375 0.8125 -2.84375q0 -1.796875 -0.8125 -2.71875q-0.8125 -0.921875 -2.03125 -0.921875q-1.234375 0 -2.046875 0.921875q-0.796875 0.90625 -0.796875 2.765625zm9.297607 4.84375l0 -9.671875l1.46875 0l0 1.375q1.0625 -1.59375 3.078125 -1.59375q0.875 0 1.609375 0.3125q0.734375 0.3125 1.09375 0.828125q0.375 0.5 0.515625 1.203125q0.09375 0.453125 0.09375 1.59375l0 5.953125l-1.640625 0l0 -5.890625q0 -1.0 -0.203125 -1.484375q-0.1875 -0.5 -0.671875 -0.796875q-0.484375 -0.296875 -1.140625 -0.296875q-1.046875 0 -1.8125 0.671875q-0.75 0.65625 -0.75 2.515625l0 5.28125l-1.640625 0zm9.719482 -2.890625l1.625 -0.25q0.125 0.96875 0.75 1.5q0.625 0.515625 1.75 0.515625q1.125 0 1.671875 -0.453125q0.546875 -0.46875 0.546875 -1.09375q0 -0.546875 -0.484375 -0.875q-0.328125 -0.21875 -1.671875 -0.546875q-1.8125 -0.46875 -2.515625 -0.796875q-0.6875 -0.328125 -1.046875 -0.90625q-0.359375 -0.59375 -0.359375 -1.3125q0 -0.640625 0.296875 -1.1875q0.296875 -0.5625 0.8125 -0.921875q0.375 -0.28125 1.03125 -0.46875q0.671875 -0.203125 1.421875 -0.203125q1.140625 0 2.0 0.328125q0.859375 0.328125 1.265625 0.890625q0.421875 0.5625 0.578125 1.5l-1.609375 0.21875q-0.109375 -0.75 -0.640625 -1.171875q-0.515625 -0.421875 -1.46875 -0.421875q-1.140625 0 -1.625 0.375q-0.46875 0.375 -0.46875 0.875q0 0.3125 0.1875 0.578125q0.203125 0.265625 0.640625 0.4375q0.234375 0.09375 1.4375 0.421875q1.75 0.453125 2.4375 0.75q0.6875 0.296875 1.078125 0.859375q0.390625 0.5625 0.390625 1.40625q0 0.828125 -0.484375 1.546875q-0.46875 0.71875 -1.375 1.125q-0.90625 0.390625 -2.046875 0.390625q-1.875 0 -2.875 -0.78125q-0.984375 -0.78125 -1.25 -2.328125zm16.3125 2.890625l0 -1.421875q-1.125 1.640625 -3.0625 1.640625q-0.859375 0 -1.609375 -0.328125q-0.734375 -0.328125 -1.09375 -0.828125q-0.359375 -0.5 -0.5 -1.21875q-0.109375 -0.46875 -0.109375 -1.53125l0 -5.984375l1.640625 0l0 5.359375q0 1.28125 0.109375 1.734375q0.15625 0.640625 0.65625 1.015625q0.5 0.375 1.234375 0.375q0.734375 0 1.375 -0.375q0.65625 -0.390625 0.921875 -1.03125q0.265625 -0.65625 0.265625 -1.890625l0 -5.1875l1.640625 0l0 9.671875l-1.46875 0zm4.0476074 0l0 -9.671875l1.46875 0l0 1.359375q0.453125 -0.71875 1.203125 -1.140625q0.765625 -0.4375 1.71875 -0.4375q1.078125 0 1.765625 0.453125q0.6875 0.4375 0.96875 1.234375q1.15625 -1.6875 2.984375 -1.6875q1.453125 0 2.21875 0.796875q0.78125 0.796875 0.78125 2.453125l0 6.640625l-1.640625 0l0 -6.09375q0 -0.984375 -0.15625 -1.40625q-0.15625 -0.4375 -0.578125 -0.703125q-0.421875 -0.265625 -0.984375 -0.265625q-1.015625 0 -1.6875 0.6875q-0.671875 0.671875 -0.671875 2.15625l0 5.625l-1.640625 0l0 -6.28125q0 -1.09375 -0.40625 -1.640625q-0.40625 -0.546875 -1.3125 -0.546875q-0.6875 0 -1.28125 0.359375q-0.59375 0.359375 -0.859375 1.0625q-0.25 0.703125 -0.25 2.03125l0 5.015625l-1.640625 0zm22.165771 -3.109375l1.6875 0.203125q-0.40625 1.484375 -1.484375 2.3125q-1.078125 0.8125 -2.765625 0.8125q-2.125 0 -3.375 -1.296875q-1.234375 -1.3125 -1.234375 -3.671875q0 -2.453125 1.25 -3.796875q1.265625 -1.34375 3.265625 -1.34375q1.9375 0 3.15625 1.328125q1.234375 1.3125 1.234375 3.703125q0 0.15625 0 0.4375l-7.21875 0q0.09375 1.59375 0.90625 2.453125q0.8125 0.84375 2.015625 0.84375q0.90625 0 1.546875 -0.46875q0.640625 -0.484375 1.015625 -1.515625zm-5.390625 -2.65625l5.40625 0q-0.109375 -1.21875 -0.625 -1.828125q-0.78125 -0.953125 -2.03125 -0.953125q-1.125 0 -1.90625 0.765625q-0.765625 0.75 -0.84375 2.015625zm9.125732 5.765625l0 -9.671875l1.46875 0l0 1.46875q0.5625 -1.03125 1.03125 -1.359375q0.484375 -0.328125 1.0625 -0.328125q0.828125 0 1.6875 0.53125l-0.5625 1.515625q-0.609375 -0.359375 -1.203125 -0.359375q-0.546875 0 -0.96875 0.328125q-0.421875 0.328125 -0.609375 0.890625q-0.28125 0.875 -0.28125 1.921875l0 5.0625l-1.625 0z" fill-rule="nonzero"/><path fill="#ffffff" d="m318.25974 144.12335l171.40146 0l5.669403 5.6694183l0 28.346344l0 0l-171.40146 0l-5.669403 -5.6694183l0 -28.346344z" fill-rule="evenodd"/><path stroke="#000000" stroke-width="1.0" stroke-linejoin="round" stroke-linecap="butt" d="m318.25974 144.12335l171.40146 0l5.669403 5.6694183l0 28.346344l0 0l-171.40146 0l-5.669403 -5.6694183l0 -28.346344z" fill-rule="evenodd"/><path fill="#000000" d="m384.30133 168.05124l0 -13.359375l1.78125 0l0 6.625l6.625 -6.625l2.390625 0l-5.59375 5.421875l5.84375 7.9375l-2.328125 0l-4.765625 -6.765625l-2.171875 2.140625l0 4.625l-1.78125 0zm18.631073 -1.1875q-0.921875 0.765625 -1.765625 1.09375q-0.828125 0.3125 -1.796875 0.3125q-1.59375 0 -2.453125 -0.78125q-0.859375 -0.78125 -0.859375 -1.984375q0 -0.71875 0.328125 -1.296875q0.328125 -0.59375 0.84375 -0.9375q0.53125 -0.359375 1.1875 -0.546875q0.46875 -0.125 1.453125 -0.25q1.984375 -0.234375 2.921875 -0.5625q0.015625 -0.34375 0.015625 -0.421875q0 -1.0 -0.46875 -1.421875q-0.625 -0.546875 -1.875 -0.546875q-1.15625 0 -1.703125 0.40625q-0.546875 0.40625 -0.8125 1.421875l-1.609375 -0.21875q0.21875 -1.015625 0.71875 -1.640625q0.5 -0.640625 1.453125 -0.984375q0.953125 -0.34375 2.1875 -0.34375q1.25 0 2.015625 0.296875q0.78125 0.28125 1.140625 0.734375q0.375 0.4375 0.515625 1.109375q0.078125 0.421875 0.078125 1.515625l0 2.1875q0 2.28125 0.109375 2.890625q0.109375 0.59375 0.40625 1.15625l-1.703125 0q-0.265625 -0.515625 -0.328125 -1.1875zm-0.140625 -3.671875q-0.890625 0.375 -2.671875 0.625q-1.015625 0.140625 -1.4375 0.328125q-0.421875 0.1875 -0.65625 0.53125q-0.21875 0.34375 -0.21875 0.78125q0 0.65625 0.5 1.09375q0.5 0.4375 1.453125 0.4375q0.9375 0 1.671875 -0.40625q0.75 -0.421875 1.09375 -1.140625q0.265625 -0.5625 0.265625 -1.640625l0 -0.609375zm4.594452 4.859375l0 -8.40625l-1.453125 0l0 -1.265625l1.453125 0l0 -1.03125q0 -0.96875 0.171875 -1.453125q0.234375 -0.640625 0.828125 -1.03125q0.59375 -0.390625 1.671875 -0.390625q0.6875 0 1.53125 0.15625l-0.25 1.4375q-0.5 -0.09375 -0.953125 -0.09375q-0.75 0 -1.0625 0.328125q-0.3125 0.3125 -0.3125 1.1875l0 0.890625l1.890625 0l0 1.265625l-1.890625 0l0 8.40625l-1.625 0zm4.792694 0l0 -13.359375l1.640625 0l0 7.625l3.890625 -3.9375l2.109375 0l-3.6875 3.59375l4.0625 6.078125l-2.015625 0l-3.203125 -4.953125l-1.15625 1.125l0 3.828125l-1.640625 0zm15.640625 -1.1875q-0.921875 0.765625 -1.765625 1.09375q-0.828125 0.3125 -1.796875 0.3125q-1.59375 0 -2.453125 -0.78125q-0.859375 -0.78125 -0.859375 -1.984375q0 -0.71875 0.328125 -1.296875q0.328125 -0.59375 0.84375 -0.9375q0.53125 -0.359375 1.1875 -0.546875q0.46875 -0.125 1.453125 -0.25q1.984375 -0.234375 2.921875 -0.5625q0.015625 -0.34375 0.015625 -0.421875q0 -1.0 -0.46875 -1.421875q-0.625 -0.546875 -1.875 -0.546875q-1.15625 0 -1.703125 0.40625q-0.546875 0.40625 -0.8125 1.421875l-1.609375 -0.21875q0.21875 -1.015625 0.71875 -1.640625q0.5 -0.640625 1.453125 -0.984375q0.953125 -0.34375 2.1875 -0.34375q1.25 0 2.015625 0.296875q0.78125 0.28125 1.140625 0.734375q0.375 0.4375 0.515625 1.109375q0.078125 0.421875 0.078125 1.515625l0 2.1875q0 2.28125 0.109375 2.890625q0.109375 0.59375 0.40625 1.15625l-1.703125 0q-0.265625 -0.515625 -0.328125 -1.1875zm-0.140625 -3.671875q-0.890625 0.375 -2.671875 0.625q-1.015625 0.140625 -1.4375 0.328125q-0.421875 0.1875 -0.65625 0.53125q-0.21875 0.34375 -0.21875 0.78125q0 0.65625 0.5 1.09375q0.5 0.4375 1.453125 0.4375q0.9375 0 1.671875 -0.40625q0.75 -0.421875 1.09375 -1.140625q0.265625 -0.5625 0.265625 -1.640625l0 -0.609375z" fill-rule="nonzero"/><path fill="#000000" fill-opacity="0.0" d="m191.48676 154.13911c42.177734 0 63.264908 -23.921265 84.35547 -47.84253c21.090546 -23.921257 42.18448 -47.842518 84.36896 -47.842518" fill-rule="evenodd"/><path stroke="#000000" stroke-width="1.0" stroke-linejoin="round" stroke-linecap="butt" d="m191.48676 154.13911c42.177734 0 63.264908 -23.921265 84.35547 -47.84253c10.545258 -11.960625 21.09137 -23.921257 34.27423 -32.89173c6.591461 -4.485237 13.842072 -8.222931 22.08133 -10.839317c4.1196594 -1.308197 8.486481 -2.3360634 13.141632 -3.0368805c2.3275757 -0.35041046 4.7272644 -0.6190529 7.2041626 -0.8000984c0.30960083 -0.022632599 0.62042236 -0.043891907 0.9324646 -0.06377792l0.7374573 -0.043540955" fill-rule="evenodd"/><path fill="#000000" stroke="#000000" stroke-width="1.0" stroke-linecap="butt" d="m354.25952 60.272327l4.4902954 -1.7775269l-4.5823364 -1.5246544z" fill-rule="evenodd"/><path fill="#000000" fill-opacity="0.0" d="m191.48676 154.13911c31.693558 0 47.54065 1.7480316 63.3871 3.4960632c15.846451 1.7480316 31.692276 3.4960632 63.384567 3.4960632" fill-rule="evenodd"/><path stroke="#000000" stroke-width="1.0" stroke-linejoin="round" stroke-linecap="butt" d="m191.48676 154.13911c31.693542 0 47.540634 1.7480316 63.3871 3.4960632c7.923233 0.8740082 15.846298 1.7480316 25.750107 2.403534c4.951874 0.3277588 10.398956 0.6008911 16.588837 0.79208374c3.0949402 0.09559631 6.37558 0.17070007 9.872864 0.22190857c0.8742981 0.012817383 1.7621765 0.024124146 2.6640625 0.03387451l2.508728 0.022460938" fill-rule="evenodd"/><path fill="#000000" stroke="#000000" stroke-width="1.0" stroke-linecap="butt" d="m312.25235 162.76076l4.544159 -1.6349335l-4.531952 -1.6685181z" fill-rule="evenodd"/><path fill="#000000" fill-opacity="0.0" d="m495.3306 161.13124c34.194122 0 51.289825 -2.0 68.388214 -4.0c17.09845 -2.0 34.199585 -4.0 68.39917 -4.0" fill-rule="evenodd"/><path stroke="#000000" stroke-width="1.0" stroke-linejoin="round" stroke-linecap="butt" d="m495.3306 161.13124c34.194122 0 51.289825 -2.0 68.388214 -4.0c8.549255 -1.0 17.099121 -2.0 27.786682 -2.75c5.34375 -0.375 11.221924 -0.6875 17.901672 -0.90625c3.3398438 -0.109375 6.880066 -0.1953125 10.654114 -0.25390625c1.8869629 -0.029296875 3.8323975 -0.051757812 5.840515 -0.06690979l0.21624756 -0.0012054443" fill-rule="evenodd"/><path fill="#000000" stroke="#000000" stroke-width="1.0" stroke-linecap="butt" d="m626.124 154.80469l4.5320435 -1.6681519l-4.5440063 -1.6352844z" fill-rule="evenodd"/><path fill="#000000" fill-opacity="0.0" d="m453.3936 58.464565c44.67807 0 67.01755 23.669292 89.35611 47.33858c22.338562 23.669296 44.67627 47.338593 89.35254 47.338593" fill-rule="evenodd"/><path stroke="#000000" stroke-width="1.0" stroke-linejoin="round" stroke-linecap="butt" d="m453.3936 58.464565c44.67807 0 67.01755 23.669292 89.35611 47.33858c11.169312 11.834648 22.338379 23.669296 36.29962 32.545273c6.980652 4.4380035 14.659363 8.136322 23.385132 10.725159c4.362915 1.2944031 8.98761 2.3114471 13.917664 3.0048828c2.465088 0.3467102 5.0064697 0.61253357 7.6296387 0.791687c0.65582275 0.044769287 1.3167114 0.08413696 1.9828491 0.117996216l0.13946533 0.0064849854" fill-rule="evenodd"/><path fill="#000000" stroke="#000000" stroke-width="1.0" stroke-linecap="butt" d="m626.06354 154.64587l4.5772095 -1.539978l-4.496216 -1.762497z" fill-rule="evenodd"/><path fill="#000000" fill-opacity="0.0" d="m202.72583 150.4672l110.99213 0l0 44.97638l-110.99213 0z" fill-rule="evenodd"/><path fill="#000000" d="m228.18651 169.2047l1.203125 -0.109375q0.078125 0.71875 0.390625 1.1875q0.3125 0.453125 0.953125 0.734375q0.65625 0.28125 1.46875 0.28125q0.71875 0 1.265625 -0.21875q0.5625 -0.21875 0.828125 -0.578125q0.265625 -0.375 0.265625 -0.828125q0 -0.453125 -0.265625 -0.78125q-0.25 -0.328125 -0.84375 -0.5625q-0.390625 -0.15625 -1.703125 -0.46875q-1.3125 -0.3125 -1.84375 -0.59375q-0.671875 -0.359375 -1.015625 -0.890625q-0.328125 -0.53125 -0.328125 -1.1875q0 -0.71875 0.40625 -1.34375q0.40625 -0.625 1.1875 -0.953125q0.796875 -0.328125 1.765625 -0.328125q1.046875 0 1.859375 0.34375q0.8125 0.34375 1.25 1.015625q0.4375 0.65625 0.46875 1.484375l-1.203125 0.09375q-0.109375 -0.90625 -0.671875 -1.359375q-0.5625 -0.46875 -1.65625 -0.46875q-1.140625 0 -1.671875 0.421875q-0.515625 0.421875 -0.515625 1.015625q0 0.515625 0.359375 0.84375q0.375 0.328125 1.90625 0.6875q1.546875 0.34375 2.109375 0.59375q0.84375 0.390625 1.234375 0.984375q0.390625 0.578125 0.390625 1.359375q0 0.75 -0.4375 1.4375q-0.421875 0.671875 -1.25 1.046875q-0.8125 0.359375 -1.828125 0.359375q-1.296875 0 -2.171875 -0.375q-0.875 -0.375 -1.375 -1.125q-0.5 -0.765625 -0.53125 -1.71875zm13.90538 0.84375l1.203125 0.140625q-0.28125 1.0625 -1.0625 1.65625q-0.765625 0.578125 -1.96875 0.578125q-1.515625 0 -2.40625 -0.9375q-0.890625 -0.9375 -0.890625 -2.609375q0 -1.75 0.890625 -2.703125q0.90625 -0.96875 2.34375 -0.96875q1.390625 0 2.265625 0.9375q0.875 0.9375 0.875 2.65625q0 0.109375 0 0.3125l-5.15625 0q0.0625 1.140625 0.640625 1.75q0.578125 0.59375 1.4375 0.59375q0.65625 0 1.109375 -0.328125q0.453125 -0.34375 0.71875 -1.078125zm-3.84375 -1.90625l3.859375 0q-0.078125 -0.859375 -0.4375 -1.296875q-0.5625 -0.6875 -1.453125 -0.6875q-0.8125 0 -1.359375 0.546875q-0.546875 0.53125 -0.609375 1.4375zm6.5218506 4.125l0 -6.90625l1.0625 0l0 0.984375q0.75 -1.140625 2.1875 -1.140625q0.625 0 1.15625 0.21875q0.53125 0.21875 0.78125 0.59375q0.265625 0.359375 0.375 0.859375q0.0625 0.328125 0.0625 1.140625l0 4.25l-1.171875 0l0 -4.203125q0 -0.71875 -0.140625 -1.0625q-0.140625 -0.359375 -0.484375 -0.5625q-0.34375 -0.21875 -0.8125 -0.21875q-0.75 0 -1.296875 0.46875q-0.546875 0.46875 -0.546875 1.796875l0 3.78125l-1.171875 0zm11.896851 0l0 -0.875q-0.65625 1.03125 -1.9375 1.03125q-0.8125 0 -1.515625 -0.453125q-0.6875 -0.453125 -1.078125 -1.265625q-0.375 -0.828125 -0.375 -1.890625q0 -1.03125 0.34375 -1.875q0.34375 -0.84375 1.03125 -1.28125q0.703125 -0.453125 1.546875 -0.453125q0.625 0 1.109375 0.265625q0.5 0.25 0.796875 0.671875l0 -3.421875l1.171875 0l0 9.546875l-1.09375 0zm-3.703125 -3.453125q0 1.328125 0.5625 1.984375q0.5625 0.65625 1.328125 0.65625q0.765625 0 1.296875 -0.625q0.53125 -0.625 0.53125 -1.90625q0 -1.421875 -0.546875 -2.078125q-0.546875 -0.671875 -1.34375 -0.671875q-0.78125 0 -1.3125 0.640625q-0.515625 0.625 -0.515625 2.0zm8.707916 3.453125l3.65625 -9.546875l1.359375 0l3.90625 9.546875l-1.4375 0l-1.109375 -2.890625l-3.984375 0l-1.046875 2.890625l-1.34375 0zm2.75 -3.921875l3.234375 0l-1.0 -2.640625q-0.453125 -1.203125 -0.671875 -1.96875q-0.1875 0.90625 -0.515625 1.8125l-1.046875 2.796875zm8.711365 3.921875l-2.625 -6.90625l1.234375 0l1.484375 4.140625q0.234375 0.65625 0.4375 1.390625q0.15625 -0.546875 0.4375 -1.3125l1.53125 -4.21875l1.21875 0l-2.625 6.90625l-1.09375 0zm4.7265625 0l0 -6.90625l1.0625 0l0 1.046875q0.40625 -0.734375 0.734375 -0.96875q0.34375 -0.234375 0.765625 -0.234375q0.59375 0 1.203125 0.375l-0.40625 1.078125q-0.4375 -0.25 -0.859375 -0.25q-0.390625 0 -0.703125 0.234375q-0.296875 0.234375 -0.421875 0.640625q-0.203125 0.625 -0.203125 1.359375l0 3.625l-1.171875 0zm4.0164795 -3.453125q0 -1.921875 1.078125 -2.84375q0.890625 -0.765625 2.171875 -0.765625q1.421875 0 2.328125 0.9375q0.90625 0.921875 0.90625 2.578125q0 1.328125 -0.40625 2.09375q-0.390625 0.765625 -1.15625 1.1875q-0.765625 0.421875 -1.671875 0.421875q-1.453125 0 -2.359375 -0.921875q-0.890625 -0.9375 -0.890625 -2.6875zm1.203125 0q0 1.328125 0.578125 1.984375q0.59375 0.65625 1.46875 0.65625q0.875 0 1.453125 -0.65625q0.578125 -0.671875 0.578125 -2.03125q0 -1.28125 -0.59375 -1.9375q-0.578125 -0.65625 -1.4375 -0.65625q-0.875 0 -1.46875 0.65625q-0.578125 0.65625 -0.578125 1.984375z" fill-rule="nonzero"/><path fill="#000000" d="m242.7095 184.92345l1.265625 0.3125q-0.390625 1.5625 -1.421875 2.375q-1.03125 0.8125 -2.53125 0.8125q-1.53125 0 -2.5 -0.625q-0.96875 -0.625 -1.484375 -1.8125q-0.5 -1.1875 -0.5 -2.5625q0 -1.484375 0.5625 -2.59375q0.578125 -1.109375 1.625 -1.6875q1.0625 -0.578125 2.328125 -0.578125q1.421875 0 2.390625 0.734375q0.984375 0.71875 1.375 2.046875l-1.25 0.296875q-0.328125 -1.046875 -0.96875 -1.515625q-0.625 -0.484375 -1.578125 -0.484375q-1.09375 0 -1.84375 0.53125q-0.734375 0.53125 -1.03125 1.421875q-0.296875 0.875 -0.296875 1.828125q0 1.21875 0.34375 2.125q0.359375 0.90625 1.109375 1.359375q0.75 0.4375 1.625 0.4375q1.0625 0 1.796875 -0.609375q0.734375 -0.609375 0.984375 -1.8125zm2.2345276 -0.109375q0 -1.921875 1.078125 -2.84375q0.890625 -0.765625 2.171875 -0.765625q1.421875 0 2.328125 0.9375q0.90625 0.921875 0.90625 2.578125q0 1.328125 -0.40625 2.09375q-0.390625 0.765625 -1.15625 1.1875q-0.765625 0.421875 -1.671875 0.421875q-1.453125 0 -2.359375 -0.921875q-0.890625 -0.9375 -0.890625 -2.6875zm1.203125 0q0 1.328125 0.578125 1.984375q0.59375 0.65625 1.46875 0.65625q0.875 0 1.453125 -0.65625q0.578125 -0.671875 0.578125 -2.03125q0 -1.28125 -0.59375 -1.9375q-0.578125 -0.65625 -1.4375 -0.65625q-0.875 0 -1.46875 0.65625q-0.578125 0.65625 -0.578125 1.984375zm6.6468506 3.453125l0 -6.90625l1.0625 0l0 0.984375q0.75 -1.140625 2.1875 -1.140625q0.625 0 1.15625 0.21875q0.53125 0.21875 0.78125 0.59375q0.265625 0.359375 0.375 0.859375q0.0625 0.328125 0.0625 1.140625l0 4.25l-1.171875 0l0 -4.203125q0 -0.71875 -0.140625 -1.0625q-0.140625 -0.359375 -0.484375 -0.5625q-0.34375 -0.21875 -0.8125 -0.21875q-0.75 0 -1.296875 0.46875q-0.546875 0.46875 -0.546875 1.796875l0 3.78125l-1.171875 0zm9.974976 -1.046875l0.171875 1.03125q-0.5 0.109375 -0.890625 0.109375q-0.640625 0 -1.0 -0.203125q-0.34375 -0.203125 -0.484375 -0.53125q-0.140625 -0.328125 -0.140625 -1.390625l0 -3.96875l-0.859375 0l0 -0.90625l0.859375 0l0 -1.71875l1.171875 -0.703125l0 2.421875l1.171875 0l0 0.90625l-1.171875 0l0 4.046875q0 0.5 0.046875 0.640625q0.0625 0.140625 0.203125 0.234375q0.140625 0.078125 0.40625 0.078125q0.203125 0 0.515625 -0.046875zm5.8748474 -1.171875l1.203125 0.140625q-0.28125 1.0625 -1.0625 1.65625q-0.765625 0.578125 -1.96875 0.578125q-1.515625 0 -2.40625 -0.9375q-0.890625 -0.9375 -0.890625 -2.609375q0 -1.75 0.890625 -2.703125q0.90625 -0.96875 2.34375 -0.96875q1.390625 0 2.265625 0.9375q0.875 0.9375 0.875 2.65625q0 0.109375 0 0.3125l-5.15625 0q0.0625 1.140625 0.640625 1.75q0.578125 0.59375 1.4375 0.59375q0.65625 0 1.109375 -0.328125q0.453125 -0.34375 0.71875 -1.078125zm-3.84375 -1.90625l3.859375 0q-0.078125 -0.859375 -0.4375 -1.296875q-0.5625 -0.6875 -1.453125 -0.6875q-0.8125 0 -1.359375 0.546875q-0.546875 0.53125 -0.609375 1.4375zm6.5218506 4.125l0 -6.90625l1.0625 0l0 0.984375q0.75 -1.140625 2.1875 -1.140625q0.625 0 1.15625 0.21875q0.53125 0.21875 0.78125 0.59375q0.265625 0.359375 0.375 0.859375q0.0625 0.328125 0.0625 1.140625l0 4.25l-1.171875 0l0 -4.203125q0 -0.71875 -0.140625 -1.0625q-0.140625 -0.359375 -0.484375 -0.5625q-0.34375 -0.21875 -0.8125 -0.21875q-0.75 0 -1.296875 0.46875q-0.546875 0.46875 -0.546875 1.796875l0 3.78125l-1.171875 0zm9.974976 -1.046875l0.171875 1.03125q-0.5 0.109375 -0.890625 0.109375q-0.640625 0 -1.0 -0.203125q-0.34375 -0.203125 -0.484375 -0.53125q-0.140625 -0.328125 -0.140625 -1.390625l0 -3.96875l-0.859375 0l0 -0.90625l0.859375 0l0 -1.71875l1.171875 -0.703125l0 2.421875l1.171875 0l0 0.90625l-1.171875 0l0 4.046875q0 0.5 0.046875 0.640625q0.0625 0.140625 0.203125 0.234375q0.140625 0.078125 0.40625 0.078125q0.203125 0 0.515625 -0.046875z" fill-rule="nonzero"/><path fill="#000000" fill-opacity="0.0" d="m511.78546 151.88954l110.99213 0l0 44.976364l-110.99213 0z" fill-rule="evenodd"/><path fill="#000000" d="m537.33154 173.68953l0 -9.546875l4.234375 0q1.265625 0 1.921875 0.265625q0.671875 0.25 1.0625 0.90625q0.40625 0.65625 0.40625 1.4375q0 1.015625 -0.65625 1.71875q-0.65625 0.6875 -2.03125 0.875q0.5 0.25 0.765625 0.484375q0.546875 0.5 1.046875 1.265625l1.65625 2.59375l-1.578125 0l-1.265625 -1.984375q-0.5625 -0.859375 -0.921875 -1.3125q-0.34375 -0.453125 -0.640625 -0.640625q-0.28125 -0.1875 -0.5625 -0.25q-0.21875 -0.046875 -0.703125 -0.046875l-1.46875 0l0 4.234375l-1.265625 0zm1.265625 -5.328125l2.71875 0q0.859375 0 1.34375 -0.171875q0.484375 -0.1875 0.734375 -0.578125q0.265625 -0.390625 0.265625 -0.859375q0 -0.671875 -0.5 -1.109375q-0.484375 -0.4375 -1.546875 -0.4375l-3.015625 0l0 3.15625zm12.922058 3.109375l1.203125 0.140625q-0.28125 1.0625 -1.0625 1.65625q-0.765625 0.578125 -1.96875 0.578125q-1.515625 0 -2.40625 -0.9375q-0.890625 -0.9375 -0.890625 -2.609375q0 -1.75 0.890625 -2.703125q0.90625 -0.96875 2.34375 -0.96875q1.390625 0 2.265625 0.9375q0.875 0.9375 0.875 2.65625q0 0.109375 0 0.3125l-5.15625 0q0.0625 1.140625 0.640625 1.75q0.578125 0.59375 1.4375 0.59375q0.65625 0 1.109375 -0.328125q0.453125 -0.34375 0.71875 -1.078125zm-3.84375 -1.90625l3.859375 0q-0.078125 -0.859375 -0.4375 -1.296875q-0.5625 -0.6875 -1.453125 -0.6875q-0.8125 0 -1.359375 0.546875q-0.546875 0.53125 -0.609375 1.4375zm11.037476 3.265625q-0.65625 0.5625 -1.265625 0.796875q-0.59375 0.21875 -1.28125 0.21875q-1.140625 0 -1.75 -0.546875q-0.609375 -0.5625 -0.609375 -1.4375q0 -0.5 0.21875 -0.921875q0.234375 -0.421875 0.609375 -0.671875q0.375 -0.25 0.84375 -0.390625q0.34375 -0.078125 1.046875 -0.171875q1.421875 -0.171875 2.09375 -0.40625q0 -0.234375 0 -0.296875q0 -0.71875 -0.328125 -1.015625q-0.453125 -0.390625 -1.34375 -0.390625q-0.8125 0 -1.21875 0.296875q-0.390625 0.28125 -0.578125 1.015625l-1.140625 -0.15625q0.15625 -0.734375 0.515625 -1.1875q0.359375 -0.453125 1.03125 -0.6875q0.671875 -0.25 1.5625 -0.25q0.890625 0 1.4375 0.203125q0.5625 0.203125 0.8125 0.53125q0.265625 0.3125 0.375 0.796875q0.046875 0.296875 0.046875 1.078125l0 1.5625q0 1.625 0.078125 2.0625q0.078125 0.4375 0.296875 0.828125l-1.21875 0q-0.1875 -0.359375 -0.234375 -0.859375zm-0.09375 -2.609375q-0.640625 0.265625 -1.921875 0.4375q-0.71875 0.109375 -1.015625 0.25q-0.296875 0.125 -0.46875 0.375q-0.15625 0.25 -0.15625 0.546875q0 0.46875 0.34375 0.78125q0.359375 0.3125 1.046875 0.3125q0.671875 0 1.203125 -0.296875q0.53125 -0.296875 0.78125 -0.8125q0.1875 -0.390625 0.1875 -1.171875l0 -0.421875zm7.4749756 3.46875l0 -0.875q-0.65625 1.03125 -1.9375 1.03125q-0.8125 0 -1.515625 -0.453125q-0.6875 -0.453125 -1.078125 -1.265625q-0.375 -0.828125 -0.375 -1.890625q0 -1.03125 0.34375 -1.875q0.34375 -0.84375 1.03125 -1.28125q0.703125 -0.453125 1.546875 -0.453125q0.625 0 1.109375 0.265625q0.5 0.25 0.796875 0.671875l0 -3.421875l1.171875 0l0 9.546875l-1.09375 0zm-3.703125 -3.453125q0 1.328125 0.5625 1.984375q0.5625 0.65625 1.328125 0.65625q0.765625 0 1.296875 -0.625q0.53125 -0.625 0.53125 -1.90625q0 -1.421875 -0.546875 -2.078125q-0.546875 -0.671875 -1.34375 -0.671875q-0.78125 0 -1.3125 0.640625q-0.515625 0.625 -0.515625 2.0zm8.707886 3.453125l3.65625 -9.546875l1.359375 0l3.90625 9.546875l-1.4375 0l-1.109375 -2.890625l-3.984375 0l-1.046875 2.890625l-1.34375 0zm2.75 -3.921875l3.234375 0l-1.0 -2.640625q-0.453125 -1.203125 -0.671875 -1.96875q-0.1875 0.90625 -0.515625 1.8125l-1.046875 2.796875zm8.711365 3.921875l-2.625 -6.90625l1.234375 0l1.484375 4.140625q0.234375 0.65625 0.4375 1.390625q0.15625 -0.546875 0.4375 -1.3125l1.53125 -4.21875l1.21875 0l-2.625 6.90625l-1.09375 0zm4.7265625 0l0 -6.90625l1.0625 0l0 1.046875q0.40625 -0.734375 0.734375 -0.96875q0.34375 -0.234375 0.765625 -0.234375q0.59375 0 1.203125 0.375l-0.40625 1.078125q-0.4375 -0.25 -0.859375 -0.25q-0.390625 0 -0.703125 0.234375q-0.296875 0.234375 -0.421875 0.640625q-0.203125 0.625 -0.203125 1.359375l0 3.625l-1.171875 0zm4.0165405 -3.453125q0 -1.921875 1.078125 -2.84375q0.890625 -0.765625 2.171875 -0.765625q1.421875 0 2.328125 0.9375q0.90625 0.921875 0.90625 2.578125q0 1.328125 -0.40625 2.09375q-0.390625 0.765625 -1.15625 1.1875q-0.765625 0.421875 -1.671875 0.421875q-1.453125 0 -2.359375 -0.921875q-0.890625 -0.9375 -0.890625 -2.6875zm1.203125 0q0 1.328125 0.578125 1.984375q0.59375 0.65625 1.46875 0.65625q0.875 0 1.453125 -0.65625q0.578125 -0.671875 0.578125 -2.03125q0 -1.28125 -0.59375 -1.9375q-0.578125 -0.65625 -1.4375 -0.65625q-0.875 0 -1.46875 0.65625q-0.578125 0.65625 -0.578125 1.984375z" fill-rule="nonzero"/><path fill="#000000" d="m551.7691 186.34578l1.265625 0.3125q-0.390625 1.5625 -1.421875 2.375q-1.03125 0.8125 -2.53125 0.8125q-1.53125 0 -2.5 -0.625q-0.96875 -0.625 -1.484375 -1.8125q-0.5 -1.1875 -0.5 -2.5625q0 -1.484375 0.5625 -2.59375q0.578125 -1.109375 1.625 -1.6875q1.0625 -0.578125 2.328125 -0.578125q1.421875 0 2.390625 0.734375q0.984375 0.71875 1.375 2.046875l-1.25 0.296875q-0.328125 -1.046875 -0.96875 -1.515625q-0.625 -0.484375 -1.578125 -0.484375q-1.09375 0 -1.84375 0.53125q-0.734375 0.53125 -1.03125 1.421875q-0.296875 0.875 -0.296875 1.828125q0 1.21875 0.34375 2.125q0.359375 0.90625 1.109375 1.359375q0.75 0.4375 1.625 0.4375q1.0625 0 1.796875 -0.609375q0.734375 -0.609375 0.984375 -1.8125zm2.234558 -0.109375q0 -1.921875 1.078125 -2.84375q0.890625 -0.765625 2.171875 -0.765625q1.421875 0 2.328125 0.9375q0.90625 0.921875 0.90625 2.578125q0 1.328125 -0.40625 2.09375q-0.390625 0.765625 -1.15625 1.1875q-0.765625 0.421875 -1.671875 0.421875q-1.453125 0 -2.359375 -0.921875q-0.890625 -0.9375 -0.890625 -2.6875zm1.203125 0q0 1.328125 0.578125 1.984375q0.59375 0.65625 1.46875 0.65625q0.875 0 1.453125 -0.65625q0.578125 -0.671875 0.578125 -2.03125q0 -1.28125 -0.59375 -1.9375q-0.578125 -0.65625 -1.4375 -0.65625q-0.875 0 -1.46875 0.65625q-0.578125 0.65625 -0.578125 1.984375zm6.6468506 3.453125l0 -6.90625l1.0625 0l0 0.984375q0.75 -1.140625 2.1875 -1.140625q0.625 0 1.15625 0.21875q0.53125 0.21875 0.78125 0.59375q0.265625 0.359375 0.375 0.859375q0.0625 0.328125 0.0625 1.140625l0 4.25l-1.171875 0l0 -4.203125q0 -0.71875 -0.140625 -1.0625q-0.140625 -0.359375 -0.484375 -0.5625q-0.34375 -0.21875 -0.8125 -0.21875q-0.75 0 -1.296875 0.46875q-0.546875 0.46875 -0.546875 1.796875l0 3.78125l-1.171875 0zm9.974976 -1.046875l0.171875 1.03125q-0.5 0.109375 -0.890625 0.109375q-0.640625 0 -1.0 -0.203125q-0.34375 -0.203125 -0.484375 -0.53125q-0.140625 -0.328125 -0.140625 -1.390625l0 -3.96875l-0.859375 0l0 -0.90625l0.859375 0l0 -1.71875l1.171875 -0.703125l0 2.421875l1.171875 0l0 0.90625l-1.171875 0l0 4.046875q0 0.5 0.046875 0.640625q0.0625 0.140625 0.203125 0.234375q0.140625 0.078125 0.40625 0.078125q0.203125 0 0.515625 -0.046875zm5.874878 -1.171875l1.203125 0.140625q-0.28125 1.0625 -1.0625 1.65625q-0.765625 0.578125 -1.96875 0.578125q-1.515625 0 -2.40625 -0.9375q-0.890625 -0.9375 -0.890625 -2.609375q0 -1.75 0.890625 -2.703125q0.90625 -0.96875 2.34375 -0.96875q1.390625 0 2.265625 0.9375q0.875 0.9375 0.875 2.65625q0 0.109375 0 0.3125l-5.15625 0q0.0625 1.140625 0.640625 1.75q0.578125 0.59375 1.4375 0.59375q0.65625 0 1.109375 -0.328125q0.453125 -0.34375 0.71875 -1.078125zm-3.84375 -1.90625l3.859375 0q-0.078125 -0.859375 -0.4375 -1.296875q-0.5625 -0.6875 -1.453125 -0.6875q-0.8125 0 -1.359375 0.546875q-0.546875 0.53125 -0.609375 1.4375zm6.5218506 4.125l0 -6.90625l1.0625 0l0 0.984375q0.75 -1.140625 2.1875 -1.140625q0.625 0 1.15625 0.21875q0.53125 0.21875 0.78125 0.59375q0.265625 0.359375 0.375 0.859375q0.0625 0.328125 0.0625 1.140625l0 4.25l-1.171875 0l0 -4.203125q0 -0.71875 -0.140625 -1.0625q-0.140625 -0.359375 -0.484375 -0.5625q-0.34375 -0.21875 -0.8125 -0.21875q-0.75 0 -1.296875 0.46875q-0.546875 0.46875 -0.546875 1.796875l0 3.78125l-1.171875 0zm9.974976 -1.046875l0.171875 1.03125q-0.5 0.109375 -0.890625 0.109375q-0.640625 0 -1.0 -0.203125q-0.34375 -0.203125 -0.484375 -0.53125q-0.140625 -0.328125 -0.140625 -1.390625l0 -3.96875l-0.859375 0l0 -0.90625l0.859375 0l0 -1.71875l1.171875 -0.703125l0 2.421875l1.171875 0l0 0.90625l-1.171875 0l0 4.046875q0 0.5 0.046875 0.640625q0.0625 0.140625 0.203125 0.234375q0.140625 0.078125 0.40625 0.078125q0.203125 0 0.515625 -0.046875z" fill-rule="nonzero"/><path fill="#000000" fill-opacity="0.0" d="m220.2755 97.495674l75.086624 -81.732285l33.13385 30.456692l-75.08661 81.732285z" fill-rule="evenodd"/><path fill="#000000" d="m251.29385 91.42832l0.73342896 -0.96001434q0.582016 0.42887115 1.1385345 0.5159607q0.5450134 0.07652283 1.1854858 -0.20491028q0.6510315 -0.29293823 1.2007141 -0.8912735q0.48625183 -0.5292969 0.6952057 -1.0800552q0.21948242 -0.5622711 0.13461304 -1.0010757q-0.09637451 -0.4493866 -0.42997742 -0.75603485q-0.3336029 -0.30664825 -0.7548828 -0.33309174q-0.41070557 -0.037956238 -0.98495483 0.24067688q-0.37930298 0.18192291 -1.4973145 0.9369812q-1.1180267 0.7550583 -1.684494 0.9559479q-0.71913147 0.25157166 -1.342804 0.145195q-0.6131134 -0.117881775 -1.0962524 -0.56198883q-0.52915955 -0.48640442 -0.7144623 -1.2085342q-0.18530273 -0.7221298 0.10166931 -1.5195084q0.2975464 -0.80887604 0.95292664 -1.5222778q0.70825195 -0.7709274 1.5110168 -1.1366348q0.80274963 -0.3657074 1.5933838 -0.2332077q0.779129 0.12193298 1.4099579 0.65934753l-0.7449341 0.9494324q-0.7411957 -0.53274536 -1.4553375 -0.42516327q-0.72566223 0.09701538 -1.465622 0.9024658q-0.7716675 0.8399658 -0.82048035 1.5166855q-0.038253784 0.6652069 0.39888 1.0670242q0.3796234 0.348938 0.86431885 0.3063507q0.49528503 -0.054100037 1.7958069 -0.93852997q1.2995911 -0.9065094 1.8641968 -1.1515579q0.8584137 -0.35699463 1.5598145 -0.24284363q0.6899109 0.10358429 1.2650757 0.6322861q0.55215454 0.5075531 0.7623291 1.2949905q0.20922852 0.765358 -0.074920654 1.6289749q-0.28512573 0.8415375 -0.972229 1.5894547q-0.8773651 0.95503235 -1.7454224 1.3456116q-0.868042 0.39058685 -1.7584839 0.25123596q-0.90193176 -0.1499176 -1.6247864 -0.77191925zm10.028656 -9.66909l0.91748047 -0.7908249q0.59194946 0.92614746 0.5005493 1.9032822q-0.09234619 0.95505524 -0.90631104 1.8410492q-1.0253601 1.116127 -2.3181152 1.1375504q-1.2927246 0.02142334 -2.5236206 -1.1100006q-1.2883911 -1.184288 -1.387558 -2.4851685q-0.100112915 -1.3229675 0.87242126 -2.3815536q0.9407959 -1.0240784 2.2229614 -1.0339966q1.282196 -0.009918213 2.547577 1.1532288q0.08050537 0.074020386 0.23007202 0.21147919l-3.4883728 3.7971191q0.88201904 0.7258835 1.7217712 0.71253204q0.8282776 -0.023925781 1.409668 -0.6567764q0.44396973 -0.48326874 0.50894165 -1.0390167q0.053497314 -0.5663147 -0.3074646 -1.2589035zm-4.0038757 1.5405502l2.611023 -2.8420868q-0.6855469 -0.5240402 -1.2507935 -0.5554657q-0.88668823 -0.05102539 -1.4892273 0.60484314q-0.5496826 0.59833527 -0.5170593 1.3711472q0.021148682 0.7622452 0.6460571 1.4215622zm7.449188 -2.0112228l-5.0845337 -4.6737213l0.71881104 -0.78243256l0.7247009 0.6661606q-0.33233643 -1.3242111 0.64016724 -2.3828049q0.42285156 -0.46025848 0.94329834 -0.7034378q0.5204468 -0.24317932 0.9656677 -0.17350769q0.44430542 0.047592163 0.8864136 0.30541992q0.283844 0.17602539 0.88201904 0.72587585l3.1289673 2.8761368l-0.79281616 0.8629837l-3.094452 -2.8444138q-0.5291443 -0.48641205 -0.8773804 -0.6154785q-0.3597107 -0.13964844 -0.7418213 -0.023963928q-0.3935852 0.10510254 -0.7107239 0.4502945q-0.5074158 0.5523071 -0.5322876 1.272255q-0.024871826 0.7199478 0.9529419 1.6187363l2.783844 2.5589218l-0.79281616 0.8629761zm8.0486145 -8.760979l-0.64419556 -0.5921402q0.31524658 1.1811523 -0.5515442 2.1246796q-0.5496826 0.59833527 -1.3589783 0.80947876q-0.79870605 0.19963837 -1.6611633 -0.062553406q-0.8634033 -0.28427124 -1.6456299 -1.0033035q-0.7592163 -0.6978836 -1.1478577 -1.5220261q-0.38864136 -0.8241348 -0.24560547 -1.6264954q0.14208984 -0.8244324 0.7128906 -1.4457855q0.42285156 -0.46025085 0.94610596 -0.6371918q0.52230835 -0.19902039 1.0337524 -0.13214874l-2.5192566 -2.315712l0.79281616 -0.8629837l7.0286255 6.460739l-0.7399597 0.8054428zm-5.0475464 0.39016724q0.9777832 0.89878845 1.8414917 0.9286728q0.863678 0.029876709 1.3816528 -0.5339432q0.51797485 -0.56381226 0.41723633 -1.3779907q-0.10070801 -0.81417847 -1.0440063 -1.6812515q-1.046814 -0.9622345 -1.8999329 -1.003624q-0.86465454 -0.051956177 -1.4037476 0.53487396q-0.52856445 0.5753174 -0.4163208 1.4000702q0.11129761 0.80267334 1.1236267 1.7331924zm8.433472 -4.0757523l-4.555084 -9.153236l0.91967773 -1.0010605l9.671356 3.5841255l-0.9725342 1.0585899l-2.878662 -1.1392403l-2.6955566 2.934147l1.4198914 2.727127l-0.90908813 0.9895477zm-1.0269165 -4.6792145l2.1881714 -2.3818321l-2.620636 -1.0505943q-1.1923218 -0.48051453 -1.9039917 -0.83755493q0.54034424 0.7513733 0.9855652 1.6063004l1.3508911 2.663681zm8.780914 -3.7610664l-6.860443 -2.7406425l0.835083 -0.909008l4.0526733 1.7090073q0.6416931 0.27151108 1.3197937 0.6189079q-0.29693604 -0.4851532 -0.6703186 -1.2103996l-2.0700073 -3.9826164l0.8245239 -0.8975029l3.3086548 6.606804l-0.7399597 0.80545044zm3.1976624 -3.4806976l-5.0845337 -4.6737213l0.71881104 -0.7824364l0.77075195 0.70845795q-0.26583862 -0.7961464 -0.21640015 -1.196392q0.05999756 -0.4117508 0.34542847 -0.72242355q0.40167236 -0.43724442 1.0900269 -0.6322212l0.5188904 1.0287781q-0.4800415 0.15299606 -0.7654419 0.46366882q-0.26428223 0.2876587 -0.3031311 0.67639923q-0.028289795 0.3772316 0.18621826 0.7442093q0.3227234 0.5725441 0.8634033 1.0695229l2.6687927 2.4531784l-0.79281616 0.8629799zm0.17504883 -5.294655q-1.4149475 -1.3006058 -1.3642578 -2.7184181q0.038848877 -1.1739922 0.90567017 -2.1175194q0.9619446 -1.0470848 2.2652588 -1.0800171q1.2918091 -0.043502808 2.5112 1.077343q0.9777832 0.89879227 1.2666321 1.7160873q0.29937744 0.80578995 0.0920105 1.6551018q-0.20736694 0.84931564 -0.8204956 1.5166893q-0.98306274 1.0700951 -2.2749023 1.1136017q-1.2927246 0.02142334 -2.5811157 -1.1628685zm0.8139343 -0.88599396q0.9778137 0.89879227 1.8520813 0.91716385q0.88482666 0.006866455 1.4768066 -0.63749313q0.59194946 -0.6443596 0.49993896 -1.5142097q-0.10354614 -0.8804207 -1.1043396 -1.8003616q-0.94329834 -0.86706924 -1.828125 -0.8739357q-0.8742676 -0.018371582 -1.455658 0.6144829q-0.59198 0.6443596 -0.51052856 1.5257149q0.092041016 0.86984634 1.0698242 1.7686386z" fill-rule="nonzero"/><path fill="#000000" d="m267.25595 97.703415l0.73342896 -0.96001434q0.58203125 0.42887115 1.1385498 0.5159683q0.5450134 0.0765152 1.1854858 -0.20491791q0.6510315 -0.29293823 1.2007141 -0.89126587q0.4862671 -0.5292969 0.6951904 -1.0800629q0.21951294 -0.5622635 0.13464355 -1.0010757q-0.09637451 -0.4493866 -0.42999268 -0.75603485q-0.33358765 -0.30664825 -0.7548828 -0.33309174q-0.41070557 -0.037956238 -0.98495483 0.24068451q-0.37930298 0.18191528 -1.4973145 0.9369736q-1.1180115 0.7550659 -1.6845093 0.9559479q-0.7191162 0.25157166 -1.342804 0.14520264q-0.61309814 -0.117889404 -1.0962524 -0.56199646q-0.5291443 -0.48640442 -0.714447 -1.2085342q-0.18530273 -0.7221298 0.10168457 -1.5195007q0.29751587 -0.80888367 0.9529114 -1.5222855q0.70825195 -0.7709274 1.5110168 -1.1366348q0.8027649 -0.3657074 1.5933838 -0.23320007q0.7791443 0.121925354 1.4099731 0.6593399l-0.7449341 0.94944q-0.74121094 -0.532753 -1.4553528 -0.42516327q-0.725647 0.09700775 -1.4656067 0.9024582q-0.771698 0.8399658 -0.8204956 1.5166855q-0.038238525 0.66521454 0.39889526 1.0670242q0.37960815 0.34894562 0.86431885 0.3063507q0.49526978 -0.054100037 1.7957764 -0.93852997q1.2995911 -0.90650177 1.8641968 -1.1515503q0.85842896 -0.35700226 1.5598145 -0.24284363q0.6899109 0.10357666 1.2650757 0.63227844q0.55218506 0.5075531 0.7623596 1.2949905q0.20922852 0.765358 -0.07495117 1.6289749q-0.2850952 0.8415375 -0.9721985 1.5894547q-0.8773804 0.95503235 -1.7454224 1.3456192q-0.8680725 0.39057922 -1.7584839 0.25123596q-0.901947 -0.14992523 -1.6248169 -0.7719269zm9.650604 -9.719475l0.89727783 -0.74573517q0.747406 0.9417038 0.7135315 1.9717102q-0.03390503 1.0299988 -0.8055725 1.8699722q-0.9513855 1.0355759 -2.222046 1.0560684q-1.2716064 -0.0015869141 -2.5369873 -1.1647339q-0.8282471 -0.76132965 -1.1957397 -1.6084824q-0.36749268 -0.8471527 -0.15917969 -1.6743851q0.20736694 -0.8493118 0.809906 -1.5051804q0.7611084 -0.8284607 1.6729736 -0.9665146q0.9003906 -0.14863586 1.8085632 0.41024017l-0.6451416 0.95628357q-0.63394165 -0.34925842 -1.1724243 -0.27120972q-0.5394287 0.05596161 -0.930542 0.48169708q-0.60253906 0.65586853 -0.5114441 1.5036392q0.10165405 0.83625793 1.102478 1.7561951q1.0353088 0.9516678 1.8548584 0.98340607q0.83010864 0.020240784 1.411499 -0.6126175q0.4651184 -0.506279 0.4610901 -1.1254654q0.0065307617 -0.6306915 -0.5531006 -1.314888zm3.317047 0.13085938l-7.0286255 -6.460739l0.79281616 -0.8629761l2.5192566 2.315712q-0.12994385 -1.2442856 0.71569824 -2.1648026q0.51797485 -0.56381226 1.117096 -0.77713776q0.5991211 -0.2133255 1.1708679 -0.02733612q0.5602722 0.17541504 1.3079834 0.8627243l3.2209778 2.9607315l-0.79281616 0.8629837l-3.2209778 -2.9607315q-0.6557007 -0.60272217 -1.20755 -0.57940674q-0.5527954 0.0012283325 -1.0284729 0.5190201q-0.34884644 0.37970734 -0.45889282 0.9152374q-0.11099243 0.513443 0.09667969 0.9802475q0.20675659 0.44472504 0.80493164 0.9945755l2.783844 2.5589142l-0.79281616 0.8629837zm6.584259 -10.446594l0.91748047 -0.7908325q0.59198 0.9261551 0.50057983 1.9032898q-0.09234619 0.9550476 -0.90631104 1.8410492q-1.0253601 1.1161194 -2.3181152 1.1375427q-1.2927551 0.02143097 -2.5236206 -1.109993q-1.2883911 -1.1842957 -1.3875732 -2.485176q-0.100097656 -1.3229599 0.872406 -2.3815536q0.9407959 -1.0240707 2.222992 -1.033989q1.2821655 -0.009918213 2.5475464 1.1532211q0.08053589 0.074020386 0.23007202 0.21148682l-3.4883728 3.7971191q0.88204956 0.72587585 1.7218018 0.7125244q0.8282471 -0.023918152 1.4096375 -0.6567764q0.44396973 -0.48326874 0.50897217 -1.0390091q0.053466797 -0.5663147 -0.30749512 -1.2589035zm-4.003845 1.5405502l2.6109924 -2.8420868q-0.6855469 -0.5240402 -1.2507629 -0.5554657q-0.88671875 -0.05102539 -1.4892578 0.6048355q-0.5496826 0.59833527 -0.5170288 1.3711548q0.021148682 0.76223755 0.6460571 1.4215622zm7.449188 -2.0112228l-5.084564 -4.6737213l0.70825195 -0.77093506l0.7132263 0.6555939q-0.15765381 -0.5905762 -0.016784668 -1.1827087q0.13989258 -0.6142044 0.605011 -1.120491q0.52853394 -0.5753174 1.0863037 -0.7205353q0.5577698 -0.1452179 1.1208191 0.09643555q-0.3255005 -1.4240417 0.56243896 -2.3905792q0.6976929 -0.75942993 1.4932861 -0.7709122q0.79467773 -0.033569336 1.6574402 0.75948334l3.4970703 3.214508l-0.79281616 0.8629837l-3.2094727 -2.9501572q-0.5176697 -0.47583008 -0.8208008 -0.5846863q-0.30407715 -0.13093567 -0.64294434 -0.03919983q-0.3388977 0.09172821 -0.613739 0.39089966q-0.4862671 0.5292969 -0.45733643 1.2137909q0.028900146 0.684494 0.8111572 1.4035263l2.9563904 2.7175293l-0.79281616 0.8629837l-3.3015137 -3.034752q-0.5751648 -0.5287018 -1.0635986 -0.5744324q-0.47787476 -0.05722809 -0.9112549 0.41453552q-0.33828735 0.3682022 -0.4281311 0.85863495q-0.10134888 0.4798584 0.13989258 0.95630646q0.24127197 0.47644806 0.94299316 1.12146l2.6342773 2.4214554l-0.79278564 0.8629837zm9.933441 -12.082893q-0.029846191 0.8639374 -0.26956177 1.4712982q-0.2406311 0.5852814 -0.7057495 1.0915604q-0.7716675 0.83997345 -1.5865784 0.9186325q-0.8263855 0.06808472 -1.470581 -0.5240631q-0.36810303 -0.33837128 -0.5307007 -0.7849579q-0.15203857 -0.45809174 -0.08239746 -0.90343475q0.06964111 -0.4453354 0.28323364 -0.8856964q0.17504883 -0.306015 0.5817261 -0.8872452q0.8353882 -1.1633987 1.1174011 -1.8167877q-0.1725769 -0.1586113 -0.2185669 -0.20090485q-0.5291748 -0.48640823 -0.96972656 -0.4456787q-0.5941467 0.06933594 -1.1966858 0.72520447q-0.5496826 0.59833145 -0.60595703 1.0984077q-0.05718994 0.477993 0.3565979 1.1130486l-0.88668823 0.73423004q-0.43496704 -0.6120453 -0.52542114 -1.183342q-0.09048462 -0.57128906 0.1914978 -1.224678q0.2705078 -0.6639633 0.8730469 -1.319828q0.60253906 -0.65586853 1.1220703 -0.92113113q0.53009033 -0.27676773 0.9407959 -0.23881531q0.40975952 0.01586914 0.84036255 0.26311874q0.25027466 0.16638947 0.82547 0.69509125l1.1503296 1.0574036q1.1963806 1.0996971 1.5713196 1.3382378q0.37496948 0.23854065 0.8105469 0.3418045l-0.8245239 0.8974991q-0.39144897 -0.10512543 -0.79125977 -0.4089737zm-1.9844971 -1.6968269q-0.237854 0.6515236 -0.9781189 1.7113686q-0.4057312 0.60330963 -0.50305176 0.917099q-0.10882568 0.30321503 -0.041046143 0.5989685q0.07833862 0.28424835 0.29690552 0.48516083q0.3451233 0.31721497 0.80773926 0.27555847q0.47320557 -0.05316925 0.938324 -0.5594559q0.4545288 -0.49477386 0.59536743 -1.0868988q0.14086914 -0.59212494 -0.06964111 -1.1251678q-0.16073608 -0.40242767 -0.7359009 -0.9311333l-0.3105774 -0.28549957z" fill-rule="nonzero"/><path fill="#000000" fill-opacity="0.0" d="m512.9527 19.920656l87.33856 68.44095l-27.748047 35.433067l-87.33856 -68.44095z" fill-rule="evenodd"/><path fill="#000000" d="m529.49976 55.83908l0.6936035 -0.8857269l3.1826782 2.4741936l-2.1868286 2.7925034q-1.1880493 0.021865845 -2.2063599 -0.29969788q-0.9963989 -0.32422638 -1.8203735 -0.969944q-1.1068726 -0.86738586 -1.65094 -2.0480309q-0.5220947 -1.1833153 -0.29577637 -2.4352684q0.24816895 -1.2546196 1.1152344 -2.361782q0.8670044 -1.1071587 2.0638428 -1.6978035q1.2091675 -0.5810051 2.4265137 -0.36154175q1.2269897 0.20716476 2.3461304 1.0841866q0.8117676 0.6360817 1.251648 1.417511q0.461792 0.77876663 0.45507812 1.5476646q0.015136719 0.76623154 -0.37573242 1.6708412l-1.0904541 -0.4575081q0.27093506 -0.7008095 0.2850952 -1.225708q0.014099121 -0.5248985 -0.29907227 -1.0879555q-0.31323242 -0.56305695 -0.8789673 -1.0063858q-0.6887207 -0.5397072 -1.3567505 -0.72571564q-0.6557007 -0.17637634 -1.2329102 -0.07286453q-0.55529785 0.10084534 -1.0453491 0.37187576q-0.8223877 0.46723557 -1.4678345 1.2914543q-0.7803345 0.9964409 -0.9658203 1.942894q-0.18548584 0.9464493 0.2062378 1.7893867q0.40405273 0.8525772 1.1542358 1.4404716q0.63952637 0.50115585 1.4471436 0.7369995q0.81726074 0.22354126 1.3585815 0.19117737l1.088623 -1.3900986l-2.201477 -1.7251282zm7.3117065 7.6551895l0.8602905 0.8528061q-0.87646484 0.6630478 -1.8574829 0.64863586q-0.95910645 -0.017074585 -1.9060669 -0.75917053q-1.1929932 -0.9348488 -1.315979 -2.2222977q-0.123046875 -1.2874489 0.9077759 -2.6037369q1.0789795 -1.3777962 2.3676147 -1.5788612q1.310669 -0.20373154 2.4421387 0.6829262q1.0945435 0.8577461 1.2052612 2.135559q0.11071777 1.2778091 -0.9489746 2.6310043q-0.06744385 0.086112976 -0.19268799 0.24603653l-4.0585327 -3.1804047q-0.65411377 0.93657684 -0.57476807 1.7729378q0.08898926 0.82405853 0.7654419 1.354126q0.5165405 0.40477753 1.0755005 0.42593002q0.5686035 0.008853912 1.2304688 -0.40549088zm-1.8502197 -3.8716621l3.0377808 2.3804817q0.4683838 -0.72478485 0.45526123 -1.2908974q-0.018859863 -0.88822937 -0.71990967 -1.4375725q-0.63952637 -0.50115585 -1.4071655 -0.4079094q-0.7579956 0.08094406 -1.3659668 0.7558975zm5.2526245 8.026722l-0.5005493 0.9179306q-0.46099854 -0.22229004 -0.7684326 -0.46322632q-0.50427246 -0.3951416 -0.66186523 -0.77672577q-0.1453247 -0.37195587 -0.053710938 -0.71702576q0.09161377 -0.3450775 0.7467041 -1.1815948l2.4468994 -3.1246529l-0.6763916 -0.53006744l0.5587158 -0.713501l0.67645264 0.53006744l1.0596924 -1.3531952l1.355957 0.16923904l-1.4932251 1.9067726l0.9223633 0.7228203l-0.5587158 0.7135048l-0.9224243 -0.7228203l-2.4951172 3.1861572q-0.30828857 0.39365387 -0.35809326 0.53328705q-0.037475586 0.14926147 0.015380859 0.30981445q0.062561035 0.14824677 0.27160645 0.312088q0.15991211 0.12528229 0.43475342 0.28112793zm1.8868408 2.8085938l8.764038 -5.2611847l1.0700073 0.83847046l-2.8115234 9.925781l-1.1314697 -0.8866577l0.9090576 -2.9600983l-3.1361694 -2.4575882l-2.6062622 1.6301117l-1.0576782 -0.82883453zm4.5826416 -1.3915253l2.5457764 1.9949799l0.8410034 -2.6958008q0.38513184 -1.2267303 0.68499756 -1.9644394q-0.70635986 0.597847 -1.5233765 1.108963l-2.5484009 1.5562973zm4.4387817 8.46096l2.1918945 -7.0564957l0.97161865 0.7613678l-1.3845825 4.1755447q-0.22009277 0.661232 -0.5130005 1.364708q0.46014404 -0.33419037 1.1535645 -0.7634964l3.8063965 -2.3769913l0.95928955 0.7517319l-6.32428 3.8182602l-0.8609009 -0.6746292zm3.720337 2.9153748l4.2580566 -5.4373856l0.83636475 0.65535736l-0.6455078 0.82421875q0.772583 -0.3276062 1.175354 -0.3097458q0.4151001 0.027503967 0.74713135 0.28771973q0.4673462 0.3662262 0.7158203 1.0373383l-0.9844971 0.5982437q-0.19024658 -0.46668243 -0.52227783 -0.7268982q-0.30749512 -0.24093628 -0.69799805 -0.2491684q-0.37817383 0.0014190674 -0.72698975 0.24416351q-0.54522705 0.36678314 -0.9980469 0.94496155l-2.2349854 2.8540115l-0.9224243 -0.72281647zm5.2904663 -0.24129486q1.1849976 -1.5131226 2.6019897 -1.5739288q1.1730347 -0.05344391 2.1815186 0.7368393q1.1192017 0.8770218 1.2545166 2.1741028q0.14489746 1.2847824 -0.8762207 2.5887756q-0.8189087 1.0456467 -1.6107178 1.3978577q-0.77948 0.36184692 -1.6422119 0.22174835q-0.86279297 -0.14009094 -1.5761108 -0.6990738q-1.1437378 -0.89629364 -1.2886963 -2.181076q-0.12298584 -1.2874527 0.9559326 -2.665245zm0.9470215 0.7420883q-0.81884766 1.0456543 -0.7684326 1.9189224q0.06274414 0.8828964 0.75146484 1.4226074q0.6887207 0.53970337 1.5484009 0.37961578q0.86932373 -0.17238617 1.7074585 -1.2426376q0.789917 -1.0087433 0.72717285 -1.8916473q-0.05041504 -0.8732605 -0.7268677 -1.403328q-0.6887207 -0.539711 -1.560669 -0.38925934q-0.8596802 0.16007996 -1.6785278 1.2057266z" fill-rule="nonzero"/><path fill="#000000" d="m516.4293 66.777695l1.0144043 0.655983q-0.38165283 0.6140671 -0.42468262 1.1758728q-0.03338623 0.5494995 0.29742432 1.1660767q0.34313965 0.6262131 0.982666 1.1273651q0.56573486 0.44332886 1.1311035 0.6084213q0.5776367 0.1747284 1.0082397 0.055625916q0.44030762 -0.13140869 0.7196655 -0.48815918q0.27941895 -0.3567505 0.27264404 -0.77892303q0.005493164 -0.41253662 -0.31732178 -0.963295q-0.2111206 -0.36396027 -1.0515747 -1.419548q-0.84039307 -1.0555954 -1.085144 -1.6047058q-0.30725098 -0.6973572 -0.25030518 -1.3276443q0.0692749 -0.6206436 0.47387695 -1.1373215q0.44317627 -0.5658798 1.1482544 -0.80737305q0.70513916 -0.24149323 1.5223389 -0.017951965q0.82958984 0.233181 1.592102 0.83071136q0.8239746 0.6457138 1.2515869 1.417511q0.4276123 0.77178955 0.35772705 1.5706177q-0.060302734 0.78652954 -0.54626465 1.4578018l-1.0048218 -0.6682892q0.4727173 -0.7809601 0.30932617 -1.4846649q-0.15374756 -0.71601105 -1.0146484 -1.3906403q-0.89782715 -0.7035446 -1.5761108 -0.6990738q-0.6659546 0.0141067505 -1.0320435 0.481575q-0.3178711 0.40596008 -0.23730469 0.8859558q0.09283447 0.48963928 1.0765381 1.7170639q1.0056152 1.224762 1.2942505 1.768547q0.4232788 0.8279724 0.36468506 1.536377q-0.04901123 0.69610596 -0.5307007 1.3111954q-0.46240234 0.5904846 -1.2306519 0.86190796q-0.74627686 0.26876068 -1.6293335 0.053215027q-0.861084 -0.21821594 -1.6605225 -0.8446579q-1.020813 -0.7999191 -1.4782715 -1.6348724q-0.45751953 -0.8349457 -0.38867188 -1.7338333q0.07849121 -0.9111862 0.6415405 -1.68087zm10.445374 8.860252l0.81378174 0.8361969q-0.8796997 0.81928253 -1.9089355 0.8663788q-1.0291748 0.047096252 -1.9269409 -0.65644836q-1.1068726 -0.86737823 -1.2272339 -2.1328888q-0.09838867 -1.2681732 0.9613037 -2.6213684q0.6936035 -0.8857269 1.5089722 -1.318718q0.8154297 -0.43299866 1.656189 -0.29023743q0.86279297 0.14009094 1.5637817 0.68943787q0.88549805 0.69390106 1.0947876 1.5923996q0.2189331 0.8861923 -0.26660156 1.835701l-1.0037842 -0.5682297q0.29821777 -0.6595917 0.17810059 -1.190445q-0.09820557 -0.53351593 -0.55322266 -0.8901062q-0.7010498 -0.5493469 -1.5387573 -0.391922q-0.82543945 0.16705322 -1.6635742 1.2373047q-0.8670654 1.1071625 -0.8342285 1.9269104q0.04510498 0.82938385 0.7215576 1.3594513q0.5411377 0.424057 1.157898 0.37139893q0.62908936 -0.043022156 1.2669067 -0.6548157zm0.13043213 3.3180542l5.8861694 -7.5163803l0.9224243 0.72281647l-2.1098022 2.6940918q1.2298584 -0.22731781 2.213745 0.54369354q0.60266113 0.47223663 0.8623657 1.0529251q0.2597046 0.5806885 0.11932373 1.165451q-0.13079834 0.572464 -0.756958 1.372078l-2.6974487 3.4444885l-0.9223633 -0.72281647l2.6973877 -3.4444962q0.5491333 -0.70119476 0.4824829 -1.2496796q-0.044677734 -0.55114746 -0.5980835 -0.9848404q-0.4058838 -0.31803894 -0.9482422 -0.38573456q-0.5204468 -0.070365906 -0.96936035 0.17340088q-0.42694092 0.2410965 -0.92785645 0.8807907l-2.3313599 2.977028l-0.9224243 -0.72281647zm10.928955 5.745392l0.8602905 0.8528137q-0.87646484 0.66304016 -1.8574829 0.64862823q-0.9590454 -0.017074585 -1.9060669 -0.75917053q-1.1929321 -0.934845 -1.315979 -2.2222977q-0.12298584 -1.2874451 0.9077759 -2.6037369q1.0789795 -1.3777924 2.3676758 -1.5788574q1.3106079 -0.20373535 2.4420776 0.68292236q1.0946045 0.85774994 1.2053223 2.135559q0.11065674 1.2778091 -0.94903564 2.6310043q-0.06744385 0.086112976 -0.19262695 0.24604034l-4.0585938 -3.1804047q-0.65405273 0.93657684 -0.57470703 1.772934q0.08898926 0.82405853 0.76538086 1.354126q0.5165405 0.40477753 1.0755005 0.42593384q0.5686035 0.008850098 1.2304688 -0.4054947zm-1.8501587 -3.8716583l3.0377808 2.380478q0.46832275 -0.72478485 0.4552002 -1.2908936q-0.018859863 -0.88822937 -0.71984863 -1.4375763q-0.6395874 -0.50115204 -1.4071655 -0.40790558q-0.7579956 0.08094025 -1.3659668 0.7558975zm2.590149 7.270378l4.2581177 -5.437378l0.8239746 0.6457138l-0.59729004 0.7627106q0.5761719 -0.2035675 1.1773682 -0.10962677q0.62316895 0.091285706 1.1643066 0.5153351q0.6149292 0.4818802 0.80352783 1.02668q0.1885376 0.5447998 -0.0079956055 1.1252594q1.3936157 -0.43644714 2.4266968 0.3731079q0.81170654 0.6360855 0.8857422 1.428566q0.095947266 0.7898178 -0.6265869 1.7124481l-2.92865 3.7397385l-0.9223633 -0.7228241l2.6877441 -3.43219q0.4335327 -0.55358124 0.5181885 -0.8644104q0.10656738 -0.31349945 -0.011474609 -0.6442337q-0.11810303 -0.33074188 -0.4378662 -0.5813141q-0.56573486 -0.44332886 -1.2456055 -0.36074066q-0.67993164 0.082588196 -1.335022 0.9191055l-2.47583 3.16156l-0.9224243 -0.7228241l2.7648926 -3.5306015q0.48162842 -0.6150894 0.48883057 -1.105751q0.019470215 -0.48101807 -0.48480225 -0.87615967q-0.3935547 -0.30840302 -0.8894043 -0.35948944q-0.48620605 -0.06338501 -0.9420166 0.2146225q-0.45587158 0.27799988 -1.0435181 1.0284119l-2.2061157 2.8171005l-0.9224243 -0.72281647zm12.823059 8.956711q-0.8633423 0.038078308 -1.4874878 -0.15325928q-0.6022339 -0.19400024 -1.1433716 -0.61805725q-0.8977661 -0.7035446 -1.0402832 -1.5099716q-0.1328125 -0.8187256 0.40667725 -1.5076294q0.30828857 -0.39365387 0.74053955 -0.5908737q0.44458008 -0.18758392 0.8939209 -0.15311432q0.4492798 0.034477234 0.90496826 0.21289062q0.3187256 0.1505127 0.9299927 0.51039886q1.2251587 0.7416992 1.8984985 0.97158813q0.14447021 -0.18452454 0.18304443 -0.23373413q0.44311523 -0.5658798 0.36791992 -1.0020065q-0.11584473 -0.5870285 -0.81689453 -1.1363754q-0.63952637 -0.50115204 -1.142334 -0.51799774q-0.48083496 -0.019508362 -1.0812378 0.44302368l-0.80145264 -0.826561q0.5757446 -0.4818039 1.1380005 -0.61688995q0.56225586 -0.13508606 1.2355957 0.09480286q0.6829834 0.2175827 1.3840332 0.7669296q0.70098877 0.5493393 1.0062256 1.0465775q0.31750488 0.5068817 0.31201172 0.91941833q0.016357422 0.40987396 -0.19616699 0.85868835q-0.14611816 0.26264954 -0.6278076 0.87773895l-0.9633789 1.2301712q-1.0018921 1.2793884 -1.210144 1.6720276q-0.20825195 0.39263153 -0.2769165 0.8351059l-0.95928955 -0.7517319q0.07397461 -0.3985901 0.3453369 -0.82115936zm1.5350342 -2.1122208q-0.6680298 -0.18601227 -1.7824707 -0.8409729q-0.6331787 -0.3572235 -0.95355225 -0.42961884q-0.31072998 -0.08470154 -0.6001587 0.0061187744q-0.2770996 0.10044861 -0.46014404 0.33418274q-0.2890625 0.36904907 -0.2111206 0.8271179q0.09020996 0.46769714 0.63134766 0.89175415q0.5288086 0.41441345 1.1300049 0.5083542q0.6011963 0.093948364 1.1159058 -0.1578064q0.38842773 -0.19189453 0.8701172 -0.80698395l0.2600708 -0.3321457z" fill-rule="nonzero"/></g></svg>