<?xml version="1.0" encoding="UTF-8" standalone="no"?>
<svg
   xmlns:dc="http://purl.org/dc/elements/1.1/"
   xmlns:cc="http://creativecommons.org/ns#"
   xmlns:rdf="http://www.w3.org/1999/02/22-rdf-syntax-ns#"
   xmlns:svg="http://www.w3.org/2000/svg"
   xmlns="http://www.w3.org/2000/svg"
   id="svg2"
   xml:space="preserve"
   enable-background="new 0 0 1537 1537"
   viewBox="0 0 1236.1965 1031.287"
   height="1031.287"
   width="1236.1965"
   y="0px"
   x="0px"
   version="1.1"><metadata
     id="metadata18"><rdf:RDF><cc:Work
         rdf:about=""><dc:format>image/svg+xml</dc:format><dc:type
           rdf:resource="http://purl.org/dc/dcmitype/StillImage" /><dc:title></dc:title></cc:Work></rdf:RDF></metadata><defs
     id="defs16" /><g
     transform="translate(-146.76353,-253.554)"
     id="Layer_2" /><g
     transform="translate(-146.76353,-253.554)"
     id="Layer_1"><g
       id="g6"><path
         id="path8"
         d="m 929.85,350.654 c 2.677,-3.866 -2.678,-13.683 0.592,-18.737 3.633,-5.616 12.794,-2.974 17.557,-10.709 3.646,-5.926 1.484,-20.526 -37.189,-50.276 -15.179,-11.675 -37.846,-17.378 -48.757,-17.378 -3.646,0 -5.975,0.638 -6.274,1.903 -2.043,8.715 1.387,10.748 -1.785,20.229 -1.492,4.462 -10.695,0.06 -15.172,5.651 -2.384,2.977 -1.192,12.494 -4.762,16.66 -20.938,24.434 -185.48,197.971 -244.828,263.565 -23.5,25.971 -110.662,58.008 -120.925,76.303 -26.198,46.7 -293.549,418.756 -316.369,454.697 -17.849,28.111 10.709,103.076 82.104,149.93 42.363,27.798 85.538,42.349 119.628,42.349 23.859,0 43.269,-7.126 54.843,-21.823 80.62,-102.372 300.305,-425.692 314.584,-447.111 14.279,-21.418 15.865,-115.473 24.542,-130.742 35.251,-62.024 153.98,-298.339 166.146,-321.717 7.739,-14.875 13.178,-8.628 16.065,-12.794 z" /><path
         id="path10"
         d="m 591.197,335.915 c 3.326,5.02 -1.928,14.893 0.788,18.73 2.932,4.135 8.304,-2.168 16.2,12.626 4.295,8.042 21.635,41.495 43.928,84.29 18.41,-19.71 37.5,-40.093 55.739,-59.566 11.068,-11.818 21.997,-23.486 32.393,-34.6 -26.449,-27.749 -46.536,-48.993 -53.02,-56.401 -3.611,-4.127 -2.521,-13.658 -4.933,-16.607 -4.535,-5.55 -13.693,-1.049 -15.23,-5.498 -3.273,-9.444 0.139,-11.515 -1.994,-20.209 -1.238,-5.037 -34.777,0.258 -54.868,16.046 -38.368,30.151 -40.375,44.772 -36.667,50.66 4.842,7.688 13.976,4.951 17.664,10.529 z" /><path
         id="path12"
         d="m 1056.492,637.046 c -10.459,-18.19 -97.952,-49.318 -121.714,-75.045 -14.453,-15.642 -35.084,-37.497 -58.356,-61.983 -35.496,69.697 -76.032,148.629 -98.05,188.667 8.269,18.842 11.086,108.348 25.19,129.041 14.495,21.265 237.535,342.284 319.214,443.82 28.481,35.397 102.721,25.657 174.248,-22.339 70.9,-47.592 98.677,-122.85 80.542,-150.78 -23.195,-35.697 -294.392,-404.957 -321.074,-451.381 z" /></g></g></svg>