<?xml version="1.0" encoding="UTF-8" standalone="no"?>
<svg
   xmlns:dc="http://purl.org/dc/elements/1.1/"
   xmlns:cc="http://creativecommons.org/ns#"
   xmlns:rdf="http://www.w3.org/1999/02/22-rdf-syntax-ns#"
   xmlns:svg="http://www.w3.org/2000/svg"
   xmlns="http://www.w3.org/2000/svg"
   xmlns:sodipodi="http://sodipodi.sourceforge.net/DTD/sodipodi-0.dtd"
   xmlns:inkscape="http://www.inkscape.org/namespaces/inkscape"
   id="svg8"
   version="1.1"
   viewBox="0 0 76.700692 40.408273"
   height="40.408272mm"
   width="76.700691mm"
   inkscape:version="0.91 r13725"
   sodipodi:docname="1-few.svg">
  <sodipodi:namedview
     pagecolor="#ffffff"
     bordercolor="#666666"
     borderopacity="1"
     objecttolerance="10"
     gridtolerance="10"
     guidetolerance="10"
     inkscape:pageopacity="0"
     inkscape:pageshadow="2"
     inkscape:window-width="1366"
     inkscape:window-height="724"
     id="namedview32"
     showgrid="false"
     inkscape:zoom="1.4099389"
     inkscape:cx="48.097118"
     inkscape:cy="96.280588"
     inkscape:window-x="0"
     inkscape:window-y="20"
     inkscape:window-maximized="1"
     inkscape:current-layer="svg8" />
  <defs
     id="defs2" />
  <metadata
     id="metadata5">
    <rdf:RDF>
      <cc:Work
         rdf:about="">
        <dc:format>image/svg+xml</dc:format>
        <dc:type
           rdf:resource="http://purl.org/dc/dcmitype/StillImage" />
        <dc:title />
      </cc:Work>
    </rdf:RDF>
  </metadata>
  <rect
     id="rect10"
     width="4.0758595"
     height="34.143684"
     x="5.9925361"
     y="3.1322916"
     style="fill:#e3dbdb;stroke:#000000;stroke-width:0.26458332;fill-opacity:1" />
  <g
     aria-label=" MS 1"
     transform="matrix(0.05966187,0,0,0.05966187,-0.7522413,0.44067718)"
     style="font-style:normal;font-weight:normal;font-size:40px;line-height:1.25;font-family:sans-serif;letter-spacing:0px;word-spacing:0px;fill:#000000;fill-opacity:1;stroke:none"
     id="flowRoot12">
    <path
       inkscape:connector-curvature="0"
       d="m 139.58214,72.379296 q -0.70955,-2.554395 -1.45458,-4.895924 -0.74504,-2.341529 -1.45459,-4.399236 -0.67408,-2.093185 -1.31268,-3.796115 -0.63859,-1.70293 -1.17076,-2.980128 -0.14191,2.02223 -0.24834,4.470192 -0.071,2.412484 -0.17739,4.966879 -0.071,2.554395 -0.14191,5.144268 -0.0355,2.554395 -0.071,4.895924 l -3.05108,0 q 0.10643,-3.192994 0.21286,-6.421465 0.10644,-3.26395 0.24835,-6.385988 0.17739,-3.157517 0.35478,-6.137644 0.21286,-2.980128 0.46121,-5.640956 l 3.15751,0 q 0.6386,1.525541 1.45459,3.654204 0.81599,2.093185 1.63197,4.399236 0.85147,2.306051 1.63198,4.612102 0.78051,2.306052 1.34815,4.221848 0.56764,-1.915796 1.31268,-4.221848 0.74503,-2.306051 1.56102,-4.612102 0.81598,-2.306051 1.59649,-4.399236 0.81599,-2.128663 1.45459,-3.654204 l 3.15751,0 q 0.24835,2.660828 0.42574,5.640956 0.21286,2.980127 0.35477,6.137644 0.17739,3.122038 0.28383,6.385988 0.10643,3.228471 0.21286,6.421465 l -3.05108,0 q -0.071,-2.341529 -0.14191,-4.931402 -0.0355,-2.589872 -0.14191,-5.179745 -0.071,-2.625351 -0.17739,-5.073313 -0.10643,-2.48344 -0.24834,-4.541147 -0.3193,0.886943 -0.81599,2.235096 -0.46121,1.312675 -0.99338,2.873694 -0.49669,1.56102 -1.06433,3.228472 -0.53217,1.631975 -1.02885,3.157516 -0.46121,1.525542 -0.85147,2.80274 -0.35478,1.241719 -0.56764,2.022229 z"
       style="font-style:normal;font-variant:normal;font-weight:normal;font-stretch:normal;font-size:35.47771072px;line-height:0;font-family:'Ubuntu Condensed';-inkscape-font-specification:'Ubuntu Condensed, ';text-align:center;text-anchor:middle"
       id="path5688" />
    <path
       inkscape:connector-curvature="0"
       d="m 159.85987,73.585538 q 1.9158,0 2.94465,-1.064331 1.06433,-1.064331 1.06433,-2.873695 0,-0.957898 -0.3193,-1.70293 -0.3193,-0.745032 -0.85146,-1.348153 -0.49669,-0.603121 -1.17077,-1.099809 -0.67407,-0.496688 -1.38363,-0.993376 -0.81599,-0.567643 -1.70293,-1.206242 -0.88694,-0.638599 -1.63197,-1.490064 -0.70956,-0.851465 -1.17077,-1.986752 -0.46121,-1.135286 -0.46121,-2.660828 0,-1.490064 0.49669,-2.696306 0.53217,-1.206242 1.41911,-2.057707 0.92242,-0.851465 2.16414,-1.312675 1.2772,-0.461211 2.73178,-0.461211 1.41911,0 2.62535,0.354777 1.20625,0.354778 2.02223,0.851466 l -0.99337,2.518917 q -0.74504,-0.496688 -1.63198,-0.745032 -0.85146,-0.283822 -1.80936,-0.283822 -1.73841,0 -2.80274,0.957899 -1.02885,0.92242 -1.02885,2.731783 0,0.993376 0.3193,1.738408 0.35477,0.745032 0.88694,1.348153 0.56764,0.603121 1.2772,1.099809 0.74503,0.496688 1.56102,1.028854 0.81598,0.532165 1.66745,1.170764 0.85146,0.638599 1.52554,1.490064 0.70955,0.815987 1.13529,1.951274 0.46121,1.099809 0.46121,2.625351 0,1.38363 -0.42574,2.62535 -0.42573,1.24172 -1.34815,2.199618 -0.88694,0.922421 -2.27057,1.490064 -1.34816,0.532166 -3.193,0.532166 -1.70293,0 -2.98012,-0.390255 -1.2772,-0.390255 -2.27058,-1.028854 l 0.99338,-2.554395 q 0.92242,0.567644 1.88032,0.922421 0.99337,0.319299 2.27057,0.319299 z"
       style="font-style:normal;font-variant:normal;font-weight:normal;font-stretch:normal;font-size:35.47771072px;line-height:0;font-family:'Ubuntu Condensed';-inkscape-font-specification:'Ubuntu Condensed, ';text-align:center;text-anchor:middle"
       id="path5690" />
    <path
       inkscape:connector-curvature="0"
       d="m 139.4394,106.09503 q 0.67408,-0.39026 1.38363,-0.9579 0.74503,-0.56764 1.41911,-1.20624 0.67408,-0.67408 1.24172,-1.34816 0.60312,-0.70955 0.99338,-1.38363 l 2.34152,0 0,24.58606 -3.05108,0 0,-19.76109 q -0.60312,0.6386 -1.41911,1.20624 -0.78051,0.56765 -1.66745,1.06433 z"
       style="font-style:normal;font-variant:normal;font-weight:normal;font-stretch:normal;font-size:35.47771072px;line-height:0;font-family:'Ubuntu Condensed';-inkscape-font-specification:'Ubuntu Condensed, ';text-align:center;text-anchor:middle"
       id="path5692" />
  </g>
  <rect
     id="rect10-0"
     width="4.0758595"
     height="34.143684"
     x="21.867537"
     y="3.1322944"
     style="fill:#e3dbdb;stroke:#000000;stroke-width:0.26458332;fill-opacity:1" />
  <g
     aria-label=" MS 2"
     transform="matrix(0.05966187,0,0,0.05966187,15.122758,0.44067996)"
     style="font-style:normal;font-weight:normal;font-size:40px;line-height:1.25;font-family:sans-serif;letter-spacing:0px;word-spacing:0px;fill:#000000;fill-opacity:1;stroke:none"
     id="flowRoot12-6">
    <path
       inkscape:connector-curvature="0"
       d="m 139.58214,72.379296 q -0.70955,-2.554395 -1.45458,-4.895924 -0.74504,-2.341529 -1.45459,-4.399236 -0.67408,-2.093185 -1.31268,-3.796115 -0.63859,-1.70293 -1.17076,-2.980128 -0.14191,2.02223 -0.24834,4.470192 -0.071,2.412484 -0.17739,4.966879 -0.071,2.554395 -0.14191,5.144268 -0.0355,2.554395 -0.071,4.895924 l -3.05108,0 q 0.10643,-3.192994 0.21286,-6.421465 0.10644,-3.26395 0.24835,-6.385988 0.17739,-3.157517 0.35478,-6.137644 0.21286,-2.980128 0.46121,-5.640956 l 3.15751,0 q 0.6386,1.525541 1.45459,3.654204 0.81599,2.093185 1.63197,4.399236 0.85147,2.306051 1.63198,4.612102 0.78051,2.306052 1.34815,4.221848 0.56764,-1.915796 1.31268,-4.221848 0.74503,-2.306051 1.56102,-4.612102 0.81598,-2.306051 1.59649,-4.399236 0.81599,-2.128663 1.45459,-3.654204 l 3.15751,0 q 0.24835,2.660828 0.42574,5.640956 0.21286,2.980127 0.35477,6.137644 0.17739,3.122038 0.28383,6.385988 0.10643,3.228471 0.21286,6.421465 l -3.05108,0 q -0.071,-2.341529 -0.14191,-4.931402 -0.0355,-2.589872 -0.14191,-5.179745 -0.071,-2.625351 -0.17739,-5.073313 -0.10643,-2.48344 -0.24834,-4.541147 -0.3193,0.886943 -0.81599,2.235096 -0.46121,1.312675 -0.99338,2.873694 -0.49669,1.56102 -1.06433,3.228472 -0.53217,1.631975 -1.02885,3.157516 -0.46121,1.525542 -0.85147,2.80274 -0.35478,1.241719 -0.56764,2.022229 z"
       style="font-style:normal;font-variant:normal;font-weight:normal;font-stretch:normal;font-size:35.47771072px;line-height:0;font-family:'Ubuntu Condensed';-inkscape-font-specification:'Ubuntu Condensed, ';text-align:center;text-anchor:middle"
       id="path5709" />
    <path
       inkscape:connector-curvature="0"
       d="m 159.85987,73.585538 q 1.9158,0 2.94465,-1.064331 1.06433,-1.064331 1.06433,-2.873695 0,-0.957898 -0.3193,-1.70293 -0.3193,-0.745032 -0.85146,-1.348153 -0.49669,-0.603121 -1.17077,-1.099809 -0.67407,-0.496688 -1.38363,-0.993376 -0.81599,-0.567643 -1.70293,-1.206242 -0.88694,-0.638599 -1.63197,-1.490064 -0.70956,-0.851465 -1.17077,-1.986752 -0.46121,-1.135286 -0.46121,-2.660828 0,-1.490064 0.49669,-2.696306 0.53217,-1.206242 1.41911,-2.057707 0.92242,-0.851465 2.16414,-1.312675 1.2772,-0.461211 2.73178,-0.461211 1.41911,0 2.62535,0.354777 1.20625,0.354778 2.02223,0.851466 l -0.99337,2.518917 q -0.74504,-0.496688 -1.63198,-0.745032 -0.85146,-0.283822 -1.80936,-0.283822 -1.73841,0 -2.80274,0.957899 -1.02885,0.92242 -1.02885,2.731783 0,0.993376 0.3193,1.738408 0.35477,0.745032 0.88694,1.348153 0.56764,0.603121 1.2772,1.099809 0.74503,0.496688 1.56102,1.028854 0.81598,0.532165 1.66745,1.170764 0.85146,0.638599 1.52554,1.490064 0.70955,0.815987 1.13529,1.951274 0.46121,1.099809 0.46121,2.625351 0,1.38363 -0.42574,2.62535 -0.42573,1.24172 -1.34815,2.199618 -0.88694,0.922421 -2.27057,1.490064 -1.34816,0.532166 -3.193,0.532166 -1.70293,0 -2.98012,-0.390255 -1.2772,-0.390255 -2.27058,-1.028854 l 0.99338,-2.554395 q 0.92242,0.567644 1.88032,0.922421 0.99337,0.319299 2.27057,0.319299 z"
       style="font-style:normal;font-variant:normal;font-weight:normal;font-stretch:normal;font-size:35.47771072px;line-height:0;font-family:'Ubuntu Condensed';-inkscape-font-specification:'Ubuntu Condensed, ';text-align:center;text-anchor:middle"
       id="path5711" />
    <path
       inkscape:connector-curvature="0"
       d="m 138.51698,102.72464 q 2.09318,-2.09318 5.10879,-2.09318 2.87369,0 4.39924,1.52554 1.52554,1.49006 1.52554,4.68306 0,1.49006 -0.49669,2.83822 -0.49669,1.34815 -1.24172,2.62535 -0.74503,1.24172 -1.63197,2.48344 -0.88695,1.24172 -1.70293,2.55439 -0.81599,1.2772 -1.41911,2.69631 -0.60312,1.38363 -0.74504,2.98012 l 7.73415,0 0,2.76727 -10.99809,0 0,-0.67408 q 0,-2.37701 0.53216,-4.22185 0.56764,-1.84484 1.34815,-3.3349 0.81599,-1.49007 1.77389,-2.76726 0.9579,-1.2772 1.73841,-2.48344 0.81598,-1.24172 1.34815,-2.51892 0.56764,-1.31268 0.56764,-2.8737 0,-1.88031 -0.74503,-2.6963 -0.74503,-0.85147 -2.23509,-0.85147 -1.02886,0 -1.88032,0.42574 -0.81599,0.39025 -1.49007,1.02885 z"
       style="font-style:normal;font-variant:normal;font-weight:normal;font-stretch:normal;font-size:35.47771072px;line-height:0;font-family:'Ubuntu Condensed';-inkscape-font-specification:'Ubuntu Condensed, ';text-align:center;text-anchor:middle"
       id="path5713" />
  </g>
  <rect
     id="rect10-0-7"
     width="4.0758595"
     height="34.143684"
     x="37.742535"
     y="3.1322973"
     style="fill:#e3dbdb;stroke:#000000;stroke-width:0.26458332;fill-opacity:1" />
  <path
     inkscape:connector-curvature="0"
     style="fill:none;stroke:#ff0000;stroke-width:0.60000002;stroke-linecap:butt;stroke-linejoin:miter;stroke-miterlimit:4;stroke-dasharray:none;stroke-opacity:1"
     d="m 3.4252232,9.1548039 4.3467261,0 0,2.4568451 15.9222467,0 0,1.937127 16.01674,0 0,1.700893 -15.874999,0 0,1.937128 -16.0639877,0 0,1.842634 -4.7719493,0"
     id="path86" />
  <g
     aria-label=" MS 3"
     transform="matrix(0.05966187,0,0,0.05966187,30.997759,0.44068266)"
     style="font-style:normal;font-weight:normal;font-size:40px;line-height:1.25;font-family:sans-serif;letter-spacing:0px;word-spacing:0px;fill:#000000;fill-opacity:1;stroke:none"
     id="flowRoot12-6-7">
    <path
       inkscape:connector-curvature="0"
       d="m 139.58214,72.379296 q -0.70955,-2.554395 -1.45458,-4.895924 -0.74504,-2.341529 -1.45459,-4.399236 -0.67408,-2.093185 -1.31268,-3.796115 -0.63859,-1.70293 -1.17076,-2.980128 -0.14191,2.02223 -0.24834,4.470192 -0.071,2.412484 -0.17739,4.966879 -0.071,2.554395 -0.14191,5.144268 -0.0355,2.554395 -0.071,4.895924 l -3.05108,0 q 0.10643,-3.192994 0.21286,-6.421465 0.10644,-3.26395 0.24835,-6.385988 0.17739,-3.157517 0.35478,-6.137644 0.21286,-2.980128 0.46121,-5.640956 l 3.15751,0 q 0.6386,1.525541 1.45459,3.654204 0.81599,2.093185 1.63197,4.399236 0.85147,2.306051 1.63198,4.612102 0.78051,2.306052 1.34815,4.221848 0.56764,-1.915796 1.31268,-4.221848 0.74503,-2.306051 1.56102,-4.612102 0.81598,-2.306051 1.59649,-4.399236 0.81599,-2.128663 1.45459,-3.654204 l 3.15751,0 q 0.24835,2.660828 0.42574,5.640956 0.21286,2.980127 0.35477,6.137644 0.17739,3.122038 0.28383,6.385988 0.10643,3.228471 0.21286,6.421465 l -3.05108,0 q -0.071,-2.341529 -0.14191,-4.931402 -0.0355,-2.589872 -0.14191,-5.179745 -0.071,-2.625351 -0.17739,-5.073313 -0.10643,-2.48344 -0.24834,-4.541147 -0.3193,0.886943 -0.81599,2.235096 -0.46121,1.312675 -0.99338,2.873694 -0.49669,1.56102 -1.06433,3.228472 -0.53217,1.631975 -1.02885,3.157516 -0.46121,1.525542 -0.85147,2.80274 -0.35478,1.241719 -0.56764,2.022229 z"
       style="font-style:normal;font-variant:normal;font-weight:normal;font-stretch:normal;font-size:35.47771072px;line-height:0;font-family:'Ubuntu Condensed';-inkscape-font-specification:'Ubuntu Condensed, ';text-align:center;text-anchor:middle"
       id="path5702" />
    <path
       inkscape:connector-curvature="0"
       d="m 159.85987,73.585538 q 1.9158,0 2.94465,-1.064331 1.06433,-1.064331 1.06433,-2.873695 0,-0.957898 -0.3193,-1.70293 -0.3193,-0.745032 -0.85146,-1.348153 -0.49669,-0.603121 -1.17077,-1.099809 -0.67407,-0.496688 -1.38363,-0.993376 -0.81599,-0.567643 -1.70293,-1.206242 -0.88694,-0.638599 -1.63197,-1.490064 -0.70956,-0.851465 -1.17077,-1.986752 -0.46121,-1.135286 -0.46121,-2.660828 0,-1.490064 0.49669,-2.696306 0.53217,-1.206242 1.41911,-2.057707 0.92242,-0.851465 2.16414,-1.312675 1.2772,-0.461211 2.73178,-0.461211 1.41911,0 2.62535,0.354777 1.20625,0.354778 2.02223,0.851466 l -0.99337,2.518917 q -0.74504,-0.496688 -1.63198,-0.745032 -0.85146,-0.283822 -1.80936,-0.283822 -1.73841,0 -2.80274,0.957899 -1.02885,0.92242 -1.02885,2.731783 0,0.993376 0.3193,1.738408 0.35477,0.745032 0.88694,1.348153 0.56764,0.603121 1.2772,1.099809 0.74503,0.496688 1.56102,1.028854 0.81598,0.532165 1.66745,1.170764 0.85146,0.638599 1.52554,1.490064 0.70955,0.815987 1.13529,1.951274 0.46121,1.099809 0.46121,2.625351 0,1.38363 -0.42574,2.62535 -0.42573,1.24172 -1.34815,2.199618 -0.88694,0.922421 -2.27057,1.490064 -1.34816,0.532166 -3.193,0.532166 -1.70293,0 -2.98012,-0.390255 -1.2772,-0.390255 -2.27058,-1.028854 l 0.99338,-2.554395 q 0.92242,0.567644 1.88032,0.922421 0.99337,0.319299 2.27057,0.319299 z"
       style="font-style:normal;font-variant:normal;font-weight:normal;font-stretch:normal;font-size:35.47771072px;line-height:0;font-family:'Ubuntu Condensed';-inkscape-font-specification:'Ubuntu Condensed, ';text-align:center;text-anchor:middle"
       id="path5704" />
    <path
       inkscape:connector-curvature="0"
       d="m 146.07373,112.55197 q 1.77389,0.6386 2.73179,2.27057 0.99337,1.5965 0.99337,4.1509 0,3.40586 -1.66745,5.39261 -1.63198,1.95127 -4.96688,1.95127 -1.31268,0 -2.5544,-0.39025 -1.24172,-0.39026 -2.16414,-1.02886 l 0.81599,-2.48344 q 0.81599,0.49669 1.70293,0.85147 0.92242,0.35478 1.9158,0.35478 1.80936,0 2.80274,-1.09981 1.02885,-1.13529 1.02885,-3.58325 0,-2.44796 -1.13529,-3.68968 -1.0998,-1.24172 -3.54777,-1.24172 l -0.92242,0 0,-2.58988 0.78051,0 q 2.12867,0 3.15752,-1.13528 1.02885,-1.13529 1.02885,-3.15752 0,-1.9158 -0.81599,-2.83822 -0.81598,-0.95789 -2.16414,-0.95789 -0.92242,0 -1.77388,0.35477 -0.81599,0.35478 -1.41911,0.88695 l -1.20624,-2.2351 q 0.92242,-0.85147 2.16414,-1.2772 1.2772,-0.42573 2.51892,-0.42573 2.76726,0 4.25732,1.73841 1.49007,1.7384 1.49007,4.6121 0,2.02223 -0.81599,3.44134 -0.78051,1.38363 -2.2351,2.12866 z"
       style="font-style:normal;font-variant:normal;font-weight:normal;font-stretch:normal;font-size:35.47771072px;line-height:0;font-family:'Ubuntu Condensed';-inkscape-font-specification:'Ubuntu Condensed, ';text-align:center;text-anchor:middle"
       id="path5706" />
  </g>
  <rect
     id="rect10-0-5"
     width="4.0758595"
     height="34.143684"
     x="53.617538"
     y="3.1322973"
     style="fill:#e3dbdb;stroke:#000000;stroke-width:0.26458332;fill-opacity:1" />
  <g
     aria-label=" MS 4"
     transform="matrix(0.05966187,0,0,0.05966187,46.87276,0.44068266)"
     style="font-style:normal;font-weight:normal;font-size:40px;line-height:1.25;font-family:sans-serif;letter-spacing:0px;word-spacing:0px;fill:#000000;fill-opacity:1;stroke:none"
     id="flowRoot12-6-1">
    <path
       inkscape:connector-curvature="0"
       d="m 139.58214,72.379296 q -0.70955,-2.554395 -1.45458,-4.895924 -0.74504,-2.341529 -1.45459,-4.399236 -0.67408,-2.093185 -1.31268,-3.796115 -0.63859,-1.70293 -1.17076,-2.980128 -0.14191,2.02223 -0.24834,4.470192 -0.071,2.412484 -0.17739,4.966879 -0.071,2.554395 -0.14191,5.144268 -0.0355,2.554395 -0.071,4.895924 l -3.05108,0 q 0.10643,-3.192994 0.21286,-6.421465 0.10644,-3.26395 0.24835,-6.385988 0.17739,-3.157517 0.35478,-6.137644 0.21286,-2.980128 0.46121,-5.640956 l 3.15751,0 q 0.6386,1.525541 1.45459,3.654204 0.81599,2.093185 1.63197,4.399236 0.85147,2.306051 1.63198,4.612102 0.78051,2.306052 1.34815,4.221848 0.56764,-1.915796 1.31268,-4.221848 0.74503,-2.306051 1.56102,-4.612102 0.81598,-2.306051 1.59649,-4.399236 0.81599,-2.128663 1.45459,-3.654204 l 3.15751,0 q 0.24835,2.660828 0.42574,5.640956 0.21286,2.980127 0.35477,6.137644 0.17739,3.122038 0.28383,6.385988 0.10643,3.228471 0.21286,6.421465 l -3.05108,0 q -0.071,-2.341529 -0.14191,-4.931402 -0.0355,-2.589872 -0.14191,-5.179745 -0.071,-2.625351 -0.17739,-5.073313 -0.10643,-2.48344 -0.24834,-4.541147 -0.3193,0.886943 -0.81599,2.235096 -0.46121,1.312675 -0.99338,2.873694 -0.49669,1.56102 -1.06433,3.228472 -0.53217,1.631975 -1.02885,3.157516 -0.46121,1.525542 -0.85147,2.80274 -0.35478,1.241719 -0.56764,2.022229 z"
       style="font-style:normal;font-variant:normal;font-weight:normal;font-stretch:normal;font-size:35.47771072px;line-height:0;font-family:'Ubuntu Condensed';-inkscape-font-specification:'Ubuntu Condensed, ';text-align:center;text-anchor:middle"
       id="path5716" />
    <path
       inkscape:connector-curvature="0"
       d="m 159.85987,73.585538 q 1.9158,0 2.94465,-1.064331 1.06433,-1.064331 1.06433,-2.873695 0,-0.957898 -0.3193,-1.70293 -0.3193,-0.745032 -0.85146,-1.348153 -0.49669,-0.603121 -1.17077,-1.099809 -0.67407,-0.496688 -1.38363,-0.993376 -0.81599,-0.567643 -1.70293,-1.206242 -0.88694,-0.638599 -1.63197,-1.490064 -0.70956,-0.851465 -1.17077,-1.986752 -0.46121,-1.135286 -0.46121,-2.660828 0,-1.490064 0.49669,-2.696306 0.53217,-1.206242 1.41911,-2.057707 0.92242,-0.851465 2.16414,-1.312675 1.2772,-0.461211 2.73178,-0.461211 1.41911,0 2.62535,0.354777 1.20625,0.354778 2.02223,0.851466 l -0.99337,2.518917 q -0.74504,-0.496688 -1.63198,-0.745032 -0.85146,-0.283822 -1.80936,-0.283822 -1.73841,0 -2.80274,0.957899 -1.02885,0.92242 -1.02885,2.731783 0,0.993376 0.3193,1.738408 0.35477,0.745032 0.88694,1.348153 0.56764,0.603121 1.2772,1.099809 0.74503,0.496688 1.56102,1.028854 0.81598,0.532165 1.66745,1.170764 0.85146,0.638599 1.52554,1.490064 0.70955,0.815987 1.13529,1.951274 0.46121,1.099809 0.46121,2.625351 0,1.38363 -0.42574,2.62535 -0.42573,1.24172 -1.34815,2.199618 -0.88694,0.922421 -2.27057,1.490064 -1.34816,0.532166 -3.193,0.532166 -1.70293,0 -2.98012,-0.390255 -1.2772,-0.390255 -2.27058,-1.028854 l 0.99338,-2.554395 q 0.92242,0.567644 1.88032,0.922421 0.99337,0.319299 2.27057,0.319299 z"
       style="font-style:normal;font-variant:normal;font-weight:normal;font-stretch:normal;font-size:35.47771072px;line-height:0;font-family:'Ubuntu Condensed';-inkscape-font-specification:'Ubuntu Condensed, ';text-align:center;text-anchor:middle"
       id="path5718" />
    <path
       inkscape:connector-curvature="0"
       d="m 138.44602,117.55433 q 0.6386,-2.19962 1.63198,-4.64758 0.99338,-2.44796 2.05771,-4.71854 1.06433,-2.27057 2.02223,-4.11541 0.99337,-1.84484 1.59649,-2.8737 l 3.12204,0 0,16.07141 2.41249,0 0,2.51891 -2.41249,0 0,5.99574 -2.80274,0 0,-5.99574 -7.62771,0 z m 7.62771,-0.28382 0,-11.99147 q -0.53216,1.09981 -1.24172,2.51892 -0.67407,1.41911 -1.38363,3.0156 -0.67407,1.5965 -1.31267,3.26395 -0.6386,1.63198 -1.09981,3.193 z"
       style="font-style:normal;font-variant:normal;font-weight:normal;font-stretch:normal;font-size:35.47771072px;line-height:0;font-family:'Ubuntu Condensed';-inkscape-font-specification:'Ubuntu Condensed, ';text-align:center;text-anchor:middle"
       id="path5720" />
  </g>
  <rect
     id="rect10-0-75"
     width="4.0758595"
     height="34.143684"
     x="69.492538"
     y="3.1322973"
     style="fill:#e3dbdb;stroke:#000000;stroke-width:0.26458332;fill-opacity:1" />
  <g
     aria-label=" MS 5"
     transform="matrix(0.05966187,0,0,0.05966187,62.747761,0.44068266)"
     style="font-style:normal;font-weight:normal;font-size:40px;line-height:1.25;font-family:sans-serif;letter-spacing:0px;word-spacing:0px;fill:#000000;fill-opacity:1;stroke:none"
     id="flowRoot12-6-9">
    <path
       inkscape:connector-curvature="0"
       d="m 139.58214,72.379296 q -0.70955,-2.554395 -1.45458,-4.895924 -0.74504,-2.341529 -1.45459,-4.399236 -0.67408,-2.093185 -1.31268,-3.796115 -0.63859,-1.70293 -1.17076,-2.980128 -0.14191,2.02223 -0.24834,4.470192 -0.071,2.412484 -0.17739,4.966879 -0.071,2.554395 -0.14191,5.144268 -0.0355,2.554395 -0.071,4.895924 l -3.05108,0 q 0.10643,-3.192994 0.21286,-6.421465 0.10644,-3.26395 0.24835,-6.385988 0.17739,-3.157517 0.35478,-6.137644 0.21286,-2.980128 0.46121,-5.640956 l 3.15751,0 q 0.6386,1.525541 1.45459,3.654204 0.81599,2.093185 1.63197,4.399236 0.85147,2.306051 1.63198,4.612102 0.78051,2.306052 1.34815,4.221848 0.56764,-1.915796 1.31268,-4.221848 0.74503,-2.306051 1.56102,-4.612102 0.81598,-2.306051 1.59649,-4.399236 0.81599,-2.128663 1.45459,-3.654204 l 3.15751,0 q 0.24835,2.660828 0.42574,5.640956 0.21286,2.980127 0.35477,6.137644 0.17739,3.122038 0.28383,6.385988 0.10643,3.228471 0.21286,6.421465 l -3.05108,0 q -0.071,-2.341529 -0.14191,-4.931402 -0.0355,-2.589872 -0.14191,-5.179745 -0.071,-2.625351 -0.17739,-5.073313 -0.10643,-2.48344 -0.24834,-4.541147 -0.3193,0.886943 -0.81599,2.235096 -0.46121,1.312675 -0.99338,2.873694 -0.49669,1.56102 -1.06433,3.228472 -0.53217,1.631975 -1.02885,3.157516 -0.46121,1.525542 -0.85147,2.80274 -0.35478,1.241719 -0.56764,2.022229 z"
       style="font-style:normal;font-variant:normal;font-weight:normal;font-stretch:normal;font-size:35.47771072px;line-height:0;font-family:'Ubuntu Condensed';-inkscape-font-specification:'Ubuntu Condensed, ';text-align:center;text-anchor:middle"
       id="path5723" />
    <path
       inkscape:connector-curvature="0"
       d="m 159.85987,73.585538 q 1.9158,0 2.94465,-1.064331 1.06433,-1.064331 1.06433,-2.873695 0,-0.957898 -0.3193,-1.70293 -0.3193,-0.745032 -0.85146,-1.348153 -0.49669,-0.603121 -1.17077,-1.099809 -0.67407,-0.496688 -1.38363,-0.993376 -0.81599,-0.567643 -1.70293,-1.206242 -0.88694,-0.638599 -1.63197,-1.490064 -0.70956,-0.851465 -1.17077,-1.986752 -0.46121,-1.135286 -0.46121,-2.660828 0,-1.490064 0.49669,-2.696306 0.53217,-1.206242 1.41911,-2.057707 0.92242,-0.851465 2.16414,-1.312675 1.2772,-0.461211 2.73178,-0.461211 1.41911,0 2.62535,0.354777 1.20625,0.354778 2.02223,0.851466 l -0.99337,2.518917 q -0.74504,-0.496688 -1.63198,-0.745032 -0.85146,-0.283822 -1.80936,-0.283822 -1.73841,0 -2.80274,0.957899 -1.02885,0.92242 -1.02885,2.731783 0,0.993376 0.3193,1.738408 0.35477,0.745032 0.88694,1.348153 0.56764,0.603121 1.2772,1.099809 0.74503,0.496688 1.56102,1.028854 0.81598,0.532165 1.66745,1.170764 0.85146,0.638599 1.52554,1.490064 0.70955,0.815987 1.13529,1.951274 0.46121,1.099809 0.46121,2.625351 0,1.38363 -0.42574,2.62535 -0.42573,1.24172 -1.34815,2.199618 -0.88694,0.922421 -2.27057,1.490064 -1.34816,0.532166 -3.193,0.532166 -1.70293,0 -2.98012,-0.390255 -1.2772,-0.390255 -2.27058,-1.028854 l 0.99338,-2.554395 q 0.92242,0.567644 1.88032,0.922421 0.99337,0.319299 2.27057,0.319299 z"
       style="font-style:normal;font-variant:normal;font-weight:normal;font-stretch:normal;font-size:35.47771072px;line-height:0;font-family:'Ubuntu Condensed';-inkscape-font-specification:'Ubuntu Condensed, ';text-align:center;text-anchor:middle"
       id="path5725" />
    <path
       inkscape:connector-curvature="0"
       d="m 143.7322,103.85993 q -0.17739,2.5544 -0.24834,4.25733 -0.071,1.70293 -0.14191,2.6963 3.3349,0.46121 4.89592,2.41249 1.56102,1.95127 1.56102,5.28618 0,1.88031 -0.53216,3.3349 -0.53217,1.45459 -1.49007,2.44796 -0.92242,0.99338 -2.19962,1.49007 -1.27719,0.53216 -2.76726,0.53216 -1.02885,0 -2.09318,-0.28382 -1.06433,-0.28382 -1.98675,-0.81599 l 0.85146,-2.51891 q 1.52554,0.85146 3.12204,0.85146 1.70293,0 2.87369,-1.24172 1.17077,-1.24172 1.17077,-3.79611 0,-2.80274 -1.5965,-4.00899 -1.56102,-1.24172 -4.78949,-1.38363 0.17739,-1.77388 0.28382,-3.22847 0.10644,-1.49006 0.17739,-2.87369 0.071,-1.41911 0.10643,-2.80274 0.071,-1.41911 0.10644,-3.01561 l 8.30178,0 0,2.66083 z"
       style="font-style:normal;font-variant:normal;font-weight:normal;font-stretch:normal;font-size:35.47771072px;line-height:0;font-family:'Ubuntu Condensed';-inkscape-font-specification:'Ubuntu Condensed, ';text-align:center;text-anchor:middle"
       id="path5727" />
  </g>
</svg>
