<?xml version="1.0" encoding="UTF-8" standalone="no"?>
<svg
   xmlns:dc="http://purl.org/dc/elements/1.1/"
   xmlns:cc="http://creativecommons.org/ns#"
   xmlns:rdf="http://www.w3.org/1999/02/22-rdf-syntax-ns#"
   xmlns:svg="http://www.w3.org/2000/svg"
   xmlns="http://www.w3.org/2000/svg"
   xmlns:sodipodi="http://sodipodi.sourceforge.net/DTD/sodipodi-0.dtd"
   xmlns:inkscape="http://www.inkscape.org/namespaces/inkscape"
   id="svg8"
   version="1.1"
   viewBox="0 0 76.275467 40.40827"
   height="40.408272mm"
   width="76.275467mm"
   inkscape:version="0.91 r13725"
   sodipodi:docname="2-celery-rabbit.svg">
  <sodipodi:namedview
     pagecolor="#ffffff"
     bordercolor="#666666"
     borderopacity="1"
     objecttolerance="10"
     gridtolerance="10"
     guidetolerance="10"
     inkscape:pageopacity="0"
     inkscape:pageshadow="2"
     inkscape:window-width="1366"
     inkscape:window-height="724"
     id="namedview163"
     showgrid="false"
     inkscape:zoom="2.3473369"
     inkscape:cx="77.889256"
     inkscape:cy="53.006187"
     inkscape:window-x="0"
     inkscape:window-y="20"
     inkscape:window-maximized="1"
     inkscape:current-layer="layer1" />
  <defs
     id="defs2">
    <marker
       orient="auto"
       refY="0"
       refX="0"
       id="marker2112"
       style="overflow:visible">
      <path
         id="path2110"
         d="M 0,0 5,-5 -12.5,0 5,5 Z"
         style="fill:#0000ff;fill-opacity:1;fill-rule:evenodd;stroke:#0000ff;stroke-width:1.00000003pt;stroke-opacity:1"
         transform="matrix(-0.4,0,0,-0.4,-4,0)" />
    </marker>
    <marker
       style="overflow:visible;"
       id="Arrow1Mend"
       refX="0.0"
       refY="0.0"
       orient="auto">
      <path
         transform="scale(0.4) rotate(180) translate(10,0)"
         style="fill-rule:evenodd;stroke:#ff00ff;stroke-width:1pt;stroke-opacity:1;fill:#ff00ff;fill-opacity:1"
         d="M 0.0,0.0 L 5.0,-5.0 L -12.5,0.0 L 5.0,5.0 L 0.0,0.0 z "
         id="path5813" />
    </marker>
    <marker
       style="overflow:visible"
       id="Arrow1Mend-3"
       refX="0"
       refY="0"
       orient="auto">
      <path
         transform="matrix(-0.4,0,0,-0.4,-4,0)"
         style="fill:#000000;fill-opacity:1;fill-rule:evenodd;stroke:#000000;stroke-width:1.00000003pt;stroke-opacity:1"
         d="M 0,0 5,-5 -12.5,0 5,5 Z"
         id="path5813-7" />
    </marker>
    <marker
       style="overflow:visible"
       id="Arrow1Mend-37"
       refX="0"
       refY="0"
       orient="auto">
      <path
         transform="matrix(-0.4,0,0,-0.4,-4,0)"
         style="fill:#0000ff;fill-opacity:1;fill-rule:evenodd;stroke:#0000ff;stroke-width:1.00000003pt;stroke-opacity:1"
         d="M 0,0 5,-5 -12.5,0 5,5 Z"
         id="path5813-8" />
    </marker>
    <marker
       style="overflow:visible"
       id="Arrow1Mend-4"
       refX="0"
       refY="0"
       orient="auto">
      <path
         transform="matrix(-0.4,0,0,-0.4,-4,0)"
         style="fill:#ff00ff;fill-opacity:1;fill-rule:evenodd;stroke:#ff00ff;stroke-width:1.00000003pt;stroke-opacity:1"
         d="M 0,0 5,-5 -12.5,0 5,5 Z"
         id="path5813-1" />
    </marker>
    <marker
       style="overflow:visible"
       id="Arrow1Mend-4-0"
       refX="0"
       refY="0"
       orient="auto">
      <path
         transform="matrix(-0.4,0,0,-0.4,-4,0)"
         style="fill:#00ff00;fill-opacity:1;fill-rule:evenodd;stroke:#00ff00;stroke-width:1.00000003pt;stroke-opacity:1"
         d="M 0,0 5,-5 -12.5,0 5,5 Z"
         id="path5813-1-9" />
    </marker>
    <marker
       style="overflow:visible"
       id="Arrow1Mend-8"
       refX="0"
       refY="0"
       orient="auto">
      <path
         transform="matrix(-0.4,0,0,-0.4,-4,0)"
         style="fill:#ff00ff;fill-opacity:1;fill-rule:evenodd;stroke:#ff00ff;stroke-width:1.00000003pt;stroke-opacity:1"
         d="M 0,0 5,-5 -12.5,0 5,5 Z"
         id="path5813-5" />
    </marker>
    <marker
       style="overflow:visible"
       id="Arrow1Mend-4-8"
       refX="0"
       refY="0"
       orient="auto">
      <path
         transform="matrix(-0.4,0,0,-0.4,-4,0)"
         style="fill:#00ff00;fill-opacity:1;fill-rule:evenodd;stroke:#00ff00;stroke-width:1.00000003pt;stroke-opacity:1"
         d="M 0,0 5,-5 -12.5,0 5,5 Z"
         id="path5813-1-4" />
    </marker>
    <marker
       style="overflow:visible"
       id="Arrow1Mend-4-0-3"
       refX="0"
       refY="0"
       orient="auto">
      <path
         transform="matrix(-0.4,0,0,-0.4,-4,0)"
         style="fill:#00ff00;fill-opacity:1;fill-rule:evenodd;stroke:#00ff00;stroke-width:1.00000003pt;stroke-opacity:1"
         d="M 0,0 5,-5 -12.5,0 5,5 Z"
         id="path5813-1-9-7" />
    </marker>
  </defs>
  <metadata
     id="metadata5">
    <rdf:RDF>
      <cc:Work
         rdf:about="">
        <dc:format>image/svg+xml</dc:format>
        <dc:type
           rdf:resource="http://purl.org/dc/dcmitype/StillImage" />
        <dc:title />
      </cc:Work>
    </rdf:RDF>
  </metadata>
  <g
     transform="translate(1.1573661,-0.20531453)"
     id="layer1">
    <rect
       style="fill:#ffb380;stroke:#000000;stroke-width:0.26458332"
       y="3.3376074"
       x="12.876616"
       height="34.143684"
       width="4.0758595"
       id="rect10-8" />
    <rect
       style="fill:#ffb380;stroke:#000000;stroke-width:0.26458332"
       y="3.3376074"
       x="12.230518"
       height="5.3464022"
       width="5.5273924"
       id="rect10-8-3" />
    <rect
       style="fill:#e3dbdb;stroke:#000000;stroke-width:0.26458332;fill-opacity:1"
       y="3.3376119"
       x="36.159946"
       height="34.143684"
       width="4.0758595"
       id="rect10-0-7" />
    <rect
       style="fill:#e3dbdb;stroke:#000000;stroke-width:0.26458332;fill-opacity:1"
       y="3.3376062"
       x="4.4099469"
       height="34.143684"
       width="4.0758595"
       id="rect10" />
    <g
       id="flowRoot12"
       style="font-style:normal;font-weight:normal;font-size:40px;line-height:1.25;font-family:sans-serif;letter-spacing:0px;word-spacing:0px;fill:#000000;fill-opacity:1;stroke:none"
       transform="matrix(0.05966187,0,0,0.05966187,-2.3348306,0.64599171)"
       aria-label=" MS 1">
      <path
         id="path4972"
         style="font-style:normal;font-variant:normal;font-weight:normal;font-stretch:normal;font-size:35.47771072px;line-height:0;font-family:'Ubuntu Condensed';-inkscape-font-specification:'Ubuntu Condensed, ';text-align:center;text-anchor:middle"
         d="m 139.58214,72.379296 q -0.70955,-2.554395 -1.45458,-4.895924 -0.74504,-2.341529 -1.45459,-4.399236 -0.67408,-2.093185 -1.31268,-3.796115 -0.63859,-1.70293 -1.17076,-2.980128 -0.14191,2.02223 -0.24834,4.470192 -0.071,2.412484 -0.17739,4.966879 -0.071,2.554395 -0.14191,5.144268 -0.0355,2.554395 -0.071,4.895924 h -3.05108 q 0.10643,-3.192994 0.21286,-6.421465 0.10644,-3.26395 0.24835,-6.385988 0.17739,-3.157517 0.35478,-6.137644 0.21286,-2.980128 0.46121,-5.640956 h 3.15751 q 0.6386,1.525541 1.45459,3.654204 0.81599,2.093185 1.63197,4.399236 0.85147,2.306051 1.63198,4.612102 0.78051,2.306052 1.34815,4.221848 0.56764,-1.915796 1.31268,-4.221848 0.74503,-2.306051 1.56102,-4.612102 0.81598,-2.306051 1.59649,-4.399236 0.81599,-2.128663 1.45459,-3.654204 h 3.15751 q 0.24835,2.660828 0.42574,5.640956 0.21286,2.980127 0.35477,6.137644 0.17739,3.122038 0.28383,6.385988 0.10643,3.228471 0.21286,6.421465 h -3.05108 q -0.071,-2.341529 -0.14191,-4.931402 -0.0355,-2.589872 -0.14191,-5.179745 -0.071,-2.625351 -0.17739,-5.073313 -0.10643,-2.48344 -0.24834,-4.541147 -0.3193,0.886943 -0.81599,2.235096 -0.46121,1.312675 -0.99338,2.873694 -0.49669,1.56102 -1.06433,3.228472 -0.53217,1.631975 -1.02885,3.157516 -0.46121,1.525542 -0.85147,2.80274 -0.35478,1.241719 -0.56764,2.022229 z" />
      <path
         id="path4974"
         style="font-style:normal;font-variant:normal;font-weight:normal;font-stretch:normal;font-size:35.47771072px;line-height:0;font-family:'Ubuntu Condensed';-inkscape-font-specification:'Ubuntu Condensed, ';text-align:center;text-anchor:middle"
         d="m 159.85987,73.585538 q 1.9158,0 2.94465,-1.064331 1.06433,-1.064331 1.06433,-2.873695 0,-0.957898 -0.3193,-1.70293 -0.3193,-0.745032 -0.85146,-1.348153 -0.49669,-0.603121 -1.17077,-1.099809 -0.67407,-0.496688 -1.38363,-0.993376 -0.81599,-0.567643 -1.70293,-1.206242 -0.88694,-0.638599 -1.63197,-1.490064 -0.70956,-0.851465 -1.17077,-1.986752 -0.46121,-1.135286 -0.46121,-2.660828 0,-1.490064 0.49669,-2.696306 0.53217,-1.206242 1.41911,-2.057707 0.92242,-0.851465 2.16414,-1.312675 1.2772,-0.461211 2.73178,-0.461211 1.41911,0 2.62535,0.354777 1.20625,0.354778 2.02223,0.851466 l -0.99337,2.518917 q -0.74504,-0.496688 -1.63198,-0.745032 -0.85146,-0.283822 -1.80936,-0.283822 -1.73841,0 -2.80274,0.957899 -1.02885,0.92242 -1.02885,2.731783 0,0.993376 0.3193,1.738408 0.35477,0.745032 0.88694,1.348153 0.56764,0.603121 1.2772,1.099809 0.74503,0.496688 1.56102,1.028854 0.81598,0.532165 1.66745,1.170764 0.85146,0.638599 1.52554,1.490064 0.70955,0.815987 1.13529,1.951274 0.46121,1.099809 0.46121,2.625351 0,1.38363 -0.42574,2.62535 -0.42573,1.24172 -1.34815,2.199618 -0.88694,0.922421 -2.27057,1.490064 -1.34816,0.532166 -3.193,0.532166 -1.70293,0 -2.98012,-0.390255 -1.2772,-0.390255 -2.27058,-1.028854 l 0.99338,-2.554395 q 0.92242,0.567644 1.88032,0.922421 0.99337,0.319299 2.27057,0.319299 z" />
      <path
         id="path4976"
         style="font-style:normal;font-variant:normal;font-weight:normal;font-stretch:normal;font-size:35.47771072px;line-height:0;font-family:'Ubuntu Condensed';-inkscape-font-specification:'Ubuntu Condensed, ';text-align:center;text-anchor:middle"
         d="m 139.4394,106.09503 q 0.67408,-0.39026 1.38363,-0.9579 0.74503,-0.56764 1.41911,-1.20624 0.67408,-0.67408 1.24172,-1.34816 0.60312,-0.70955 0.99338,-1.38363 h 2.34152 v 24.58606 h -3.05108 v -19.76109 q -0.60312,0.6386 -1.41911,1.20624 -0.78051,0.56765 -1.66745,1.06433 z" />
    </g>
    <rect
       style="fill:#e3dbdb;stroke:#000000;stroke-width:0.26458332;fill-opacity:1"
       y="3.3376091"
       x="20.284946"
       height="34.143684"
       width="4.0758595"
       id="rect10-0" />
    <g
       id="flowRoot12-6"
       style="font-style:normal;font-weight:normal;font-size:40px;line-height:1.25;font-family:sans-serif;letter-spacing:0px;word-spacing:0px;fill:#000000;fill-opacity:1;stroke:none"
       transform="matrix(0.05966187,0,0,0.05966187,13.540169,0.64599449)"
       aria-label=" MS 2">
      <path
         id="path4979"
         style="font-style:normal;font-variant:normal;font-weight:normal;font-stretch:normal;font-size:35.47771072px;line-height:0;font-family:'Ubuntu Condensed';-inkscape-font-specification:'Ubuntu Condensed, ';text-align:center;text-anchor:middle"
         d="m 139.58214,72.379296 q -0.70955,-2.554395 -1.45458,-4.895924 -0.74504,-2.341529 -1.45459,-4.399236 -0.67408,-2.093185 -1.31268,-3.796115 -0.63859,-1.70293 -1.17076,-2.980128 -0.14191,2.02223 -0.24834,4.470192 -0.071,2.412484 -0.17739,4.966879 -0.071,2.554395 -0.14191,5.144268 -0.0355,2.554395 -0.071,4.895924 h -3.05108 q 0.10643,-3.192994 0.21286,-6.421465 0.10644,-3.26395 0.24835,-6.385988 0.17739,-3.157517 0.35478,-6.137644 0.21286,-2.980128 0.46121,-5.640956 h 3.15751 q 0.6386,1.525541 1.45459,3.654204 0.81599,2.093185 1.63197,4.399236 0.85147,2.306051 1.63198,4.612102 0.78051,2.306052 1.34815,4.221848 0.56764,-1.915796 1.31268,-4.221848 0.74503,-2.306051 1.56102,-4.612102 0.81598,-2.306051 1.59649,-4.399236 0.81599,-2.128663 1.45459,-3.654204 h 3.15751 q 0.24835,2.660828 0.42574,5.640956 0.21286,2.980127 0.35477,6.137644 0.17739,3.122038 0.28383,6.385988 0.10643,3.228471 0.21286,6.421465 h -3.05108 q -0.071,-2.341529 -0.14191,-4.931402 -0.0355,-2.589872 -0.14191,-5.179745 -0.071,-2.625351 -0.17739,-5.073313 -0.10643,-2.48344 -0.24834,-4.541147 -0.3193,0.886943 -0.81599,2.235096 -0.46121,1.312675 -0.99338,2.873694 -0.49669,1.56102 -1.06433,3.228472 -0.53217,1.631975 -1.02885,3.157516 -0.46121,1.525542 -0.85147,2.80274 -0.35478,1.241719 -0.56764,2.022229 z" />
      <path
         id="path4981"
         style="font-style:normal;font-variant:normal;font-weight:normal;font-stretch:normal;font-size:35.47771072px;line-height:0;font-family:'Ubuntu Condensed';-inkscape-font-specification:'Ubuntu Condensed, ';text-align:center;text-anchor:middle"
         d="m 159.85987,73.585538 q 1.9158,0 2.94465,-1.064331 1.06433,-1.064331 1.06433,-2.873695 0,-0.957898 -0.3193,-1.70293 -0.3193,-0.745032 -0.85146,-1.348153 -0.49669,-0.603121 -1.17077,-1.099809 -0.67407,-0.496688 -1.38363,-0.993376 -0.81599,-0.567643 -1.70293,-1.206242 -0.88694,-0.638599 -1.63197,-1.490064 -0.70956,-0.851465 -1.17077,-1.986752 -0.46121,-1.135286 -0.46121,-2.660828 0,-1.490064 0.49669,-2.696306 0.53217,-1.206242 1.41911,-2.057707 0.92242,-0.851465 2.16414,-1.312675 1.2772,-0.461211 2.73178,-0.461211 1.41911,0 2.62535,0.354777 1.20625,0.354778 2.02223,0.851466 l -0.99337,2.518917 q -0.74504,-0.496688 -1.63198,-0.745032 -0.85146,-0.283822 -1.80936,-0.283822 -1.73841,0 -2.80274,0.957899 -1.02885,0.92242 -1.02885,2.731783 0,0.993376 0.3193,1.738408 0.35477,0.745032 0.88694,1.348153 0.56764,0.603121 1.2772,1.099809 0.74503,0.496688 1.56102,1.028854 0.81598,0.532165 1.66745,1.170764 0.85146,0.638599 1.52554,1.490064 0.70955,0.815987 1.13529,1.951274 0.46121,1.099809 0.46121,2.625351 0,1.38363 -0.42574,2.62535 -0.42573,1.24172 -1.34815,2.199618 -0.88694,0.922421 -2.27057,1.490064 -1.34816,0.532166 -3.193,0.532166 -1.70293,0 -2.98012,-0.390255 -1.2772,-0.390255 -2.27058,-1.028854 l 0.99338,-2.554395 q 0.92242,0.567644 1.88032,0.922421 0.99337,0.319299 2.27057,0.319299 z" />
      <path
         id="path4983"
         style="font-style:normal;font-variant:normal;font-weight:normal;font-stretch:normal;font-size:35.47771072px;line-height:0;font-family:'Ubuntu Condensed';-inkscape-font-specification:'Ubuntu Condensed, ';text-align:center;text-anchor:middle"
         d="m 138.51698,102.72464 q 2.09318,-2.09318 5.10879,-2.09318 2.87369,0 4.39924,1.52554 1.52554,1.49006 1.52554,4.68306 0,1.49006 -0.49669,2.83822 -0.49669,1.34815 -1.24172,2.62535 -0.74503,1.24172 -1.63197,2.48344 -0.88695,1.24172 -1.70293,2.55439 -0.81599,1.2772 -1.41911,2.69631 -0.60312,1.38363 -0.74504,2.98012 h 7.73415 v 2.76727 h -10.99809 v -0.67408 q 0,-2.37701 0.53216,-4.22185 0.56764,-1.84484 1.34815,-3.3349 0.81599,-1.49007 1.77389,-2.76726 0.9579,-1.2772 1.73841,-2.48344 0.81598,-1.24172 1.34815,-2.51892 0.56764,-1.31268 0.56764,-2.8737 0,-1.88031 -0.74503,-2.6963 -0.74503,-0.85147 -2.23509,-0.85147 -1.02886,0 -1.88032,0.42574 -0.81599,0.39025 -1.49007,1.02885 z" />
    </g>
    <g
       id="flowRoot12-6-7"
       style="font-style:normal;font-weight:normal;font-size:40px;line-height:1.25;font-family:sans-serif;letter-spacing:0px;word-spacing:0px;fill:#000000;fill-opacity:1;stroke:none"
       transform="matrix(0.05966187,0,0,0.05966187,29.41517,0.64599719)"
       aria-label=" MS 3">
      <path
         id="path4995"
         style="font-style:normal;font-variant:normal;font-weight:normal;font-stretch:normal;font-size:35.47771072px;line-height:0;font-family:'Ubuntu Condensed';-inkscape-font-specification:'Ubuntu Condensed, ';text-align:center;text-anchor:middle"
         d="m 139.58214,72.379296 q -0.70955,-2.554395 -1.45458,-4.895924 -0.74504,-2.341529 -1.45459,-4.399236 -0.67408,-2.093185 -1.31268,-3.796115 -0.63859,-1.70293 -1.17076,-2.980128 -0.14191,2.02223 -0.24834,4.470192 -0.071,2.412484 -0.17739,4.966879 -0.071,2.554395 -0.14191,5.144268 -0.0355,2.554395 -0.071,4.895924 h -3.05108 q 0.10643,-3.192994 0.21286,-6.421465 0.10644,-3.26395 0.24835,-6.385988 0.17739,-3.157517 0.35478,-6.137644 0.21286,-2.980128 0.46121,-5.640956 h 3.15751 q 0.6386,1.525541 1.45459,3.654204 0.81599,2.093185 1.63197,4.399236 0.85147,2.306051 1.63198,4.612102 0.78051,2.306052 1.34815,4.221848 0.56764,-1.915796 1.31268,-4.221848 0.74503,-2.306051 1.56102,-4.612102 0.81598,-2.306051 1.59649,-4.399236 0.81599,-2.128663 1.45459,-3.654204 h 3.15751 q 0.24835,2.660828 0.42574,5.640956 0.21286,2.980127 0.35477,6.137644 0.17739,3.122038 0.28383,6.385988 0.10643,3.228471 0.21286,6.421465 h -3.05108 q -0.071,-2.341529 -0.14191,-4.931402 -0.0355,-2.589872 -0.14191,-5.179745 -0.071,-2.625351 -0.17739,-5.073313 -0.10643,-2.48344 -0.24834,-4.541147 -0.3193,0.886943 -0.81599,2.235096 -0.46121,1.312675 -0.99338,2.873694 -0.49669,1.56102 -1.06433,3.228472 -0.53217,1.631975 -1.02885,3.157516 -0.46121,1.525542 -0.85147,2.80274 -0.35478,1.241719 -0.56764,2.022229 z" />
      <path
         id="path4997"
         style="font-style:normal;font-variant:normal;font-weight:normal;font-stretch:normal;font-size:35.47771072px;line-height:0;font-family:'Ubuntu Condensed';-inkscape-font-specification:'Ubuntu Condensed, ';text-align:center;text-anchor:middle"
         d="m 159.85987,73.585538 q 1.9158,0 2.94465,-1.064331 1.06433,-1.064331 1.06433,-2.873695 0,-0.957898 -0.3193,-1.70293 -0.3193,-0.745032 -0.85146,-1.348153 -0.49669,-0.603121 -1.17077,-1.099809 -0.67407,-0.496688 -1.38363,-0.993376 -0.81599,-0.567643 -1.70293,-1.206242 -0.88694,-0.638599 -1.63197,-1.490064 -0.70956,-0.851465 -1.17077,-1.986752 -0.46121,-1.135286 -0.46121,-2.660828 0,-1.490064 0.49669,-2.696306 0.53217,-1.206242 1.41911,-2.057707 0.92242,-0.851465 2.16414,-1.312675 1.2772,-0.461211 2.73178,-0.461211 1.41911,0 2.62535,0.354777 1.20625,0.354778 2.02223,0.851466 l -0.99337,2.518917 q -0.74504,-0.496688 -1.63198,-0.745032 -0.85146,-0.283822 -1.80936,-0.283822 -1.73841,0 -2.80274,0.957899 -1.02885,0.92242 -1.02885,2.731783 0,0.993376 0.3193,1.738408 0.35477,0.745032 0.88694,1.348153 0.56764,0.603121 1.2772,1.099809 0.74503,0.496688 1.56102,1.028854 0.81598,0.532165 1.66745,1.170764 0.85146,0.638599 1.52554,1.490064 0.70955,0.815987 1.13529,1.951274 0.46121,1.099809 0.46121,2.625351 0,1.38363 -0.42574,2.62535 -0.42573,1.24172 -1.34815,2.199618 -0.88694,0.922421 -2.27057,1.490064 -1.34816,0.532166 -3.193,0.532166 -1.70293,0 -2.98012,-0.390255 -1.2772,-0.390255 -2.27058,-1.028854 l 0.99338,-2.554395 q 0.92242,0.567644 1.88032,0.922421 0.99337,0.319299 2.27057,0.319299 z" />
      <path
         id="path4999"
         style="font-style:normal;font-variant:normal;font-weight:normal;font-stretch:normal;font-size:35.47771072px;line-height:0;font-family:'Ubuntu Condensed';-inkscape-font-specification:'Ubuntu Condensed, ';text-align:center;text-anchor:middle"
         d="m 146.07373,112.55197 q 1.77389,0.6386 2.73179,2.27057 0.99337,1.5965 0.99337,4.1509 0,3.40586 -1.66745,5.39261 -1.63198,1.95127 -4.96688,1.95127 -1.31268,0 -2.5544,-0.39025 -1.24172,-0.39026 -2.16414,-1.02886 l 0.81599,-2.48344 q 0.81599,0.49669 1.70293,0.85147 0.92242,0.35478 1.9158,0.35478 1.80936,0 2.80274,-1.09981 1.02885,-1.13529 1.02885,-3.58325 0,-2.44796 -1.13529,-3.68968 -1.0998,-1.24172 -3.54777,-1.24172 h -0.92242 v -2.58988 h 0.78051 q 2.12867,0 3.15752,-1.13528 1.02885,-1.13529 1.02885,-3.15752 0,-1.9158 -0.81599,-2.83822 -0.81598,-0.95789 -2.16414,-0.95789 -0.92242,0 -1.77388,0.35477 -0.81599,0.35478 -1.41911,0.88695 l -1.20624,-2.2351 q 0.92242,-0.85147 2.16414,-1.2772 1.2772,-0.42573 2.51892,-0.42573 2.76726,0 4.25732,1.73841 1.49007,1.7384 1.49007,4.6121 0,2.02223 -0.81599,3.44134 -0.78051,1.38363 -2.2351,2.12866 z" />
    </g>
    <rect
       style="fill:#e3dbdb;stroke:#000000;stroke-width:0.26458332;fill-opacity:1"
       y="3.3376119"
       x="52.03495"
       height="34.143684"
       width="4.0758595"
       id="rect10-0-5" />
    <g
       id="flowRoot12-6-1"
       style="font-style:normal;font-weight:normal;font-size:40px;line-height:1.25;font-family:sans-serif;letter-spacing:0px;word-spacing:0px;fill:#000000;fill-opacity:1;stroke:none"
       transform="matrix(0.05966187,0,0,0.05966187,45.290171,0.64599719)"
       aria-label=" MS 4">
      <path
         id="path5002"
         style="font-style:normal;font-variant:normal;font-weight:normal;font-stretch:normal;font-size:35.47771072px;line-height:0;font-family:'Ubuntu Condensed';-inkscape-font-specification:'Ubuntu Condensed, ';text-align:center;text-anchor:middle"
         d="m 139.58214,72.379296 q -0.70955,-2.554395 -1.45458,-4.895924 -0.74504,-2.341529 -1.45459,-4.399236 -0.67408,-2.093185 -1.31268,-3.796115 -0.63859,-1.70293 -1.17076,-2.980128 -0.14191,2.02223 -0.24834,4.470192 -0.071,2.412484 -0.17739,4.966879 -0.071,2.554395 -0.14191,5.144268 -0.0355,2.554395 -0.071,4.895924 h -3.05108 q 0.10643,-3.192994 0.21286,-6.421465 0.10644,-3.26395 0.24835,-6.385988 0.17739,-3.157517 0.35478,-6.137644 0.21286,-2.980128 0.46121,-5.640956 h 3.15751 q 0.6386,1.525541 1.45459,3.654204 0.81599,2.093185 1.63197,4.399236 0.85147,2.306051 1.63198,4.612102 0.78051,2.306052 1.34815,4.221848 0.56764,-1.915796 1.31268,-4.221848 0.74503,-2.306051 1.56102,-4.612102 0.81598,-2.306051 1.59649,-4.399236 0.81599,-2.128663 1.45459,-3.654204 h 3.15751 q 0.24835,2.660828 0.42574,5.640956 0.21286,2.980127 0.35477,6.137644 0.17739,3.122038 0.28383,6.385988 0.10643,3.228471 0.21286,6.421465 h -3.05108 q -0.071,-2.341529 -0.14191,-4.931402 -0.0355,-2.589872 -0.14191,-5.179745 -0.071,-2.625351 -0.17739,-5.073313 -0.10643,-2.48344 -0.24834,-4.541147 -0.3193,0.886943 -0.81599,2.235096 -0.46121,1.312675 -0.99338,2.873694 -0.49669,1.56102 -1.06433,3.228472 -0.53217,1.631975 -1.02885,3.157516 -0.46121,1.525542 -0.85147,2.80274 -0.35478,1.241719 -0.56764,2.022229 z" />
      <path
         id="path5004"
         style="font-style:normal;font-variant:normal;font-weight:normal;font-stretch:normal;font-size:35.47771072px;line-height:0;font-family:'Ubuntu Condensed';-inkscape-font-specification:'Ubuntu Condensed, ';text-align:center;text-anchor:middle"
         d="m 159.85987,73.585538 q 1.9158,0 2.94465,-1.064331 1.06433,-1.064331 1.06433,-2.873695 0,-0.957898 -0.3193,-1.70293 -0.3193,-0.745032 -0.85146,-1.348153 -0.49669,-0.603121 -1.17077,-1.099809 -0.67407,-0.496688 -1.38363,-0.993376 -0.81599,-0.567643 -1.70293,-1.206242 -0.88694,-0.638599 -1.63197,-1.490064 -0.70956,-0.851465 -1.17077,-1.986752 -0.46121,-1.135286 -0.46121,-2.660828 0,-1.490064 0.49669,-2.696306 0.53217,-1.206242 1.41911,-2.057707 0.92242,-0.851465 2.16414,-1.312675 1.2772,-0.461211 2.73178,-0.461211 1.41911,0 2.62535,0.354777 1.20625,0.354778 2.02223,0.851466 l -0.99337,2.518917 q -0.74504,-0.496688 -1.63198,-0.745032 -0.85146,-0.283822 -1.80936,-0.283822 -1.73841,0 -2.80274,0.957899 -1.02885,0.92242 -1.02885,2.731783 0,0.993376 0.3193,1.738408 0.35477,0.745032 0.88694,1.348153 0.56764,0.603121 1.2772,1.099809 0.74503,0.496688 1.56102,1.028854 0.81598,0.532165 1.66745,1.170764 0.85146,0.638599 1.52554,1.490064 0.70955,0.815987 1.13529,1.951274 0.46121,1.099809 0.46121,2.625351 0,1.38363 -0.42574,2.62535 -0.42573,1.24172 -1.34815,2.199618 -0.88694,0.922421 -2.27057,1.490064 -1.34816,0.532166 -3.193,0.532166 -1.70293,0 -2.98012,-0.390255 -1.2772,-0.390255 -2.27058,-1.028854 l 0.99338,-2.554395 q 0.92242,0.567644 1.88032,0.922421 0.99337,0.319299 2.27057,0.319299 z" />
      <path
         id="path5006"
         style="font-style:normal;font-variant:normal;font-weight:normal;font-stretch:normal;font-size:35.47771072px;line-height:0;font-family:'Ubuntu Condensed';-inkscape-font-specification:'Ubuntu Condensed, ';text-align:center;text-anchor:middle"
         d="m 138.44602,117.55433 q 0.6386,-2.19962 1.63198,-4.64758 0.99338,-2.44796 2.05771,-4.71854 1.06433,-2.27057 2.02223,-4.11541 0.99337,-1.84484 1.59649,-2.8737 h 3.12204 v 16.07141 h 2.41249 v 2.51891 h -2.41249 v 5.99574 h -2.80274 v -5.99574 h -7.62771 z m 7.62771,-0.28382 v -11.99147 q -0.53216,1.09981 -1.24172,2.51892 -0.67407,1.41911 -1.38363,3.0156 -0.67407,1.5965 -1.31267,3.26395 -0.6386,1.63198 -1.09981,3.193 z" />
    </g>
    <rect
       style="fill:#e3dbdb;stroke:#000000;stroke-width:0.26458332;fill-opacity:1"
       y="3.3376119"
       x="67.90995"
       height="34.143684"
       width="4.0758595"
       id="rect10-0-75" />
    <g
       id="flowRoot12-6-9"
       style="font-style:normal;font-weight:normal;font-size:40px;line-height:1.25;font-family:sans-serif;letter-spacing:0px;word-spacing:0px;fill:#000000;fill-opacity:1;stroke:none"
       transform="matrix(0.05966187,0,0,0.05966187,61.165172,0.64599719)"
       aria-label=" MS 5">
      <path
         id="path5009"
         style="font-style:normal;font-variant:normal;font-weight:normal;font-stretch:normal;font-size:35.47771072px;line-height:0;font-family:'Ubuntu Condensed';-inkscape-font-specification:'Ubuntu Condensed, ';text-align:center;text-anchor:middle"
         d="m 139.58214,72.379296 q -0.70955,-2.554395 -1.45458,-4.895924 -0.74504,-2.341529 -1.45459,-4.399236 -0.67408,-2.093185 -1.31268,-3.796115 -0.63859,-1.70293 -1.17076,-2.980128 -0.14191,2.02223 -0.24834,4.470192 -0.071,2.412484 -0.17739,4.966879 -0.071,2.554395 -0.14191,5.144268 -0.0355,2.554395 -0.071,4.895924 h -3.05108 q 0.10643,-3.192994 0.21286,-6.421465 0.10644,-3.26395 0.24835,-6.385988 0.17739,-3.157517 0.35478,-6.137644 0.21286,-2.980128 0.46121,-5.640956 h 3.15751 q 0.6386,1.525541 1.45459,3.654204 0.81599,2.093185 1.63197,4.399236 0.85147,2.306051 1.63198,4.612102 0.78051,2.306052 1.34815,4.221848 0.56764,-1.915796 1.31268,-4.221848 0.74503,-2.306051 1.56102,-4.612102 0.81598,-2.306051 1.59649,-4.399236 0.81599,-2.128663 1.45459,-3.654204 h 3.15751 q 0.24835,2.660828 0.42574,5.640956 0.21286,2.980127 0.35477,6.137644 0.17739,3.122038 0.28383,6.385988 0.10643,3.228471 0.21286,6.421465 h -3.05108 q -0.071,-2.341529 -0.14191,-4.931402 -0.0355,-2.589872 -0.14191,-5.179745 -0.071,-2.625351 -0.17739,-5.073313 -0.10643,-2.48344 -0.24834,-4.541147 -0.3193,0.886943 -0.81599,2.235096 -0.46121,1.312675 -0.99338,2.873694 -0.49669,1.56102 -1.06433,3.228472 -0.53217,1.631975 -1.02885,3.157516 -0.46121,1.525542 -0.85147,2.80274 -0.35478,1.241719 -0.56764,2.022229 z" />
      <path
         id="path5011"
         style="font-style:normal;font-variant:normal;font-weight:normal;font-stretch:normal;font-size:35.47771072px;line-height:0;font-family:'Ubuntu Condensed';-inkscape-font-specification:'Ubuntu Condensed, ';text-align:center;text-anchor:middle"
         d="m 159.85987,73.585538 q 1.9158,0 2.94465,-1.064331 1.06433,-1.064331 1.06433,-2.873695 0,-0.957898 -0.3193,-1.70293 -0.3193,-0.745032 -0.85146,-1.348153 -0.49669,-0.603121 -1.17077,-1.099809 -0.67407,-0.496688 -1.38363,-0.993376 -0.81599,-0.567643 -1.70293,-1.206242 -0.88694,-0.638599 -1.63197,-1.490064 -0.70956,-0.851465 -1.17077,-1.986752 -0.46121,-1.135286 -0.46121,-2.660828 0,-1.490064 0.49669,-2.696306 0.53217,-1.206242 1.41911,-2.057707 0.92242,-0.851465 2.16414,-1.312675 1.2772,-0.461211 2.73178,-0.461211 1.41911,0 2.62535,0.354777 1.20625,0.354778 2.02223,0.851466 l -0.99337,2.518917 q -0.74504,-0.496688 -1.63198,-0.745032 -0.85146,-0.283822 -1.80936,-0.283822 -1.73841,0 -2.80274,0.957899 -1.02885,0.92242 -1.02885,2.731783 0,0.993376 0.3193,1.738408 0.35477,0.745032 0.88694,1.348153 0.56764,0.603121 1.2772,1.099809 0.74503,0.496688 1.56102,1.028854 0.81598,0.532165 1.66745,1.170764 0.85146,0.638599 1.52554,1.490064 0.70955,0.815987 1.13529,1.951274 0.46121,1.099809 0.46121,2.625351 0,1.38363 -0.42574,2.62535 -0.42573,1.24172 -1.34815,2.199618 -0.88694,0.922421 -2.27057,1.490064 -1.34816,0.532166 -3.193,0.532166 -1.70293,0 -2.98012,-0.390255 -1.2772,-0.390255 -2.27058,-1.028854 l 0.99338,-2.554395 q 0.92242,0.567644 1.88032,0.922421 0.99337,0.319299 2.27057,0.319299 z" />
      <path
         id="path5013"
         style="font-style:normal;font-variant:normal;font-weight:normal;font-stretch:normal;font-size:35.47771072px;line-height:0;font-family:'Ubuntu Condensed';-inkscape-font-specification:'Ubuntu Condensed, ';text-align:center;text-anchor:middle"
         d="m 143.7322,103.85993 q -0.17739,2.5544 -0.24834,4.25733 -0.071,1.70293 -0.14191,2.6963 3.3349,0.46121 4.89592,2.41249 1.56102,1.95127 1.56102,5.28618 0,1.88031 -0.53216,3.3349 -0.53217,1.45459 -1.49007,2.44796 -0.92242,0.99338 -2.19962,1.49007 -1.27719,0.53216 -2.76726,0.53216 -1.02885,0 -2.09318,-0.28382 -1.06433,-0.28382 -1.98675,-0.81599 l 0.85146,-2.51891 q 1.52554,0.85146 3.12204,0.85146 1.70293,0 2.87369,-1.24172 1.17077,-1.24172 1.17077,-3.79611 0,-2.80274 -1.5965,-4.00899 -1.56102,-1.24172 -4.78949,-1.38363 0.17739,-1.77388 0.28382,-3.22847 0.10644,-1.49006 0.17739,-2.87369 0.071,-1.41911 0.10643,-2.80274 0.071,-1.41911 0.10644,-3.01561 h 8.30178 v 2.66083 z" />
    </g>
    <path
       id="path4942"
       d="m 22.116553,13.196674 15.910267,0 -0.0049,1.693333 16.567835,0 0,1.737252 15.100728,0 0,1.804069 -14.967095,0 0,1.469982 -16.904795,0 0,1.142902 31.938706,0 0,1.870887 -31.671437,0 0,2.204973 -16.036172,0"
       style="fill:none;stroke:#0000ff;stroke-width:0.60000002;stroke-linecap:butt;stroke-linejoin:miter;stroke-miterlimit:4;stroke-dasharray:none;stroke-opacity:1"
       inkscape:connector-curvature="0"
       sodipodi:nodetypes="cccccccccccccccc" />
    <flowRoot
       style="fill:black;fill-opacity:1;stroke:none;font-family:sans-serif;font-style:normal;font-weight:normal;font-size:8px;line-height:1.25;letter-spacing:0px;word-spacing:0px;"
       id="flowRoot7631"
       xml:space="preserve"><flowRegion
         style="font-size:8px;"
         id="flowRegion7633"><rect
           style="font-size:8px;"
           y="81.652756"
           x="-64.10714"
           height="47.32143"
           width="193.57143"
           id="rect7635" /></flowRegion><flowPara
         id="flowPara7637" /></flowRoot>    <rect
       style="fill:#ff7f2a;stroke:#000000;stroke-width:0.26458332"
       y="21.491398"
       x="7.1527038"
       height="15.339032"
       width="4.0758634"
       id="rect10-8-6-6" />
    <path
       id="path5802-1"
       d="M 9.6693162,34.489668 C 28.375778,40.303026 51.813132,34.159217 68.534027,34.102135"
       style="fill:none;stroke:#ff00ff;stroke-width:0.34967335;stroke-linecap:butt;stroke-linejoin:miter;stroke-miterlimit:4;stroke-dasharray:none;stroke-opacity:1;marker-end:url(#Arrow1Mend-8)" />
    <path
       id="path5802-9-3"
       d="M 9.6490842,35.110807 C 24.794553,39.128803 48.823105,36.650136 68.596477,35.520063"
       style="fill:none;stroke:#00ff00;stroke-width:0.34967335;stroke-linecap:butt;stroke-linejoin:miter;stroke-miterlimit:4;stroke-dasharray:none;stroke-opacity:1;marker-end:url(#Arrow1Mend-4-8)" />
    <path
       id="path5802"
       d="M 9.632912,28.488669 C 16.65907,30.82015 20.083728,18.26305 20.680231,12.769839"
       style="fill:none;stroke:#ff00ff;stroke-width:0.34967335;stroke-linecap:butt;stroke-linejoin:miter;stroke-miterlimit:4;stroke-dasharray:none;stroke-opacity:1;marker-end:url(#Arrow1Mend)" />
    <path
       id="path5802-9"
       d="M 9.901852,28.979777 C 16.302904,32.979073 20.883158,18.288202 21.089947,14.080428"
       style="fill:none;stroke:#ff00ff;stroke-width:0.34967335;stroke-linecap:butt;stroke-linejoin:miter;stroke-miterlimit:4;stroke-dasharray:none;stroke-opacity:1;marker-end:url(#Arrow1Mend-4)" />
    <path
       id="path5802-9-8"
       d="M 9.4809022,29.519327 C 16.590304,33.802158 21.455318,20.232901 21.834675,15.549402"
       style="fill:none;stroke:#00ff00;stroke-width:0.34967335;stroke-linecap:butt;stroke-linejoin:miter;stroke-miterlimit:4;stroke-dasharray:none;stroke-opacity:1;marker-end:url(#Arrow1Mend-4-0)" />
    <rect
       style="fill:#ff7f2a;stroke:#000000;stroke-width:0.26458332"
       y="21.491398"
       x="6.5066085"
       height="5.3464022"
       width="5.5273924"
       id="rect10-8-3-7-1" />
    <g
       id="flowRoot7639"
       style="font-style:normal;font-variant:normal;font-weight:normal;font-stretch:normal;font-size:8px;line-height:1.25;font-family:'Ubuntu Condensed';-inkscape-font-specification:'Ubuntu Condensed, ';letter-spacing:0px;word-spacing:0px;fill:#000000;fill-opacity:1;stroke:none"
       transform="matrix(0.26458333,0,0,0.26458333,26.602414,5.4744457)"
       aria-label="Celery">
      <path
         style="fill:#000000"
         id="path7656"
         d="m -72.721734,70.304547 q -0.976,0 -1.496,-0.728 -0.52,-0.728 -0.52,-2.248 0,-0.776 0.144,-1.312 0.152,-0.536 0.416,-0.872 0.264,-0.336 0.624,-0.48 0.36,-0.152 0.784,-0.152 0.352,0 0.656,0.096 0.304,0.088 0.496,0.224 l -0.216,0.6 q -0.192,-0.128 -0.416,-0.208 -0.216,-0.08 -0.504,-0.08 -0.64,0 -0.928,0.536 -0.288,0.528 -0.288,1.648 0,1.128 0.304,1.736 0.304,0.608 0.992,0.608 0.328,0 0.528,-0.08 0.208,-0.08 0.4,-0.208 l 0.2,0.568 q -0.184,0.144 -0.488,0.248 -0.296,0.104 -0.688,0.104 z" />
      <path
         style="fill:#000000"
         id="path7658"
         d="m -70.409859,68.288547 q 0.008,0.304 0.056,0.56 0.048,0.248 0.152,0.44 0.112,0.184 0.288,0.288 0.184,0.104 0.464,0.104 0.232,0 0.424,-0.064 0.2,-0.072 0.288,-0.12 l 0.128,0.552 q -0.104,0.072 -0.352,0.152 -0.24,0.088 -0.576,0.088 -0.44,0 -0.744,-0.16 -0.296,-0.16 -0.488,-0.448 -0.184,-0.288 -0.264,-0.688 -0.08,-0.4 -0.08,-0.88 0,-1.16 0.384,-1.696 0.384,-0.536 1.016,-0.536 0.712,0 1.008,0.536 0.296,0.536 0.296,1.504 0,0.088 0,0.184 0,0.088 -0.008,0.184 z m 0.696,-1.824 q -0.344,0 -0.504,0.344 -0.152,0.344 -0.184,0.92 h 1.272 q 0,-0.584 -0.12,-0.92 -0.12,-0.344 -0.464,-0.344 z" />
      <path
         style="fill:#000000"
         id="path7660"
         d="m -66.309484,70.264547 q -0.592,-0.016 -0.848,-0.288 -0.256,-0.28 -0.256,-0.88 v -5 l 0.688,-0.12 v 5.136 q 0,0.28 0.112,0.408 0.112,0.12 0.392,0.168 z" />
      <path
         style="fill:#000000"
         id="path7662"
         d="m -64.987984,68.288547 q 0.008,0.304 0.056,0.56 0.048,0.248 0.152,0.44 0.112,0.184 0.288,0.288 0.184,0.104 0.464,0.104 0.232,0 0.424,-0.064 0.2,-0.072 0.288,-0.12 l 0.128,0.552 q -0.104,0.072 -0.352,0.152 -0.24,0.088 -0.576,0.088 -0.44,0 -0.744,-0.16 -0.296,-0.16 -0.488,-0.448 -0.184,-0.288 -0.264,-0.688 -0.08,-0.4 -0.08,-0.88 0,-1.16 0.384,-1.696 0.384,-0.536 1.016,-0.536 0.712,0 1.008,0.536 0.296,0.536 0.296,1.504 0,0.088 0,0.184 0,0.088 -0.008,0.184 z m 0.696,-1.824 q -0.344,0 -0.504,0.344 -0.152,0.344 -0.184,0.92 h 1.272 q 0,-0.584 -0.12,-0.92 -0.12,-0.344 -0.464,-0.344 z" />
      <path
         style="fill:#000000"
         id="path7664"
         d="m -60.159609,66.608547 q -0.256,-0.112 -0.576,-0.112 -0.296,0 -0.552,0.104 v 3.584 h -0.688 v -4.016 q 0.232,-0.112 0.528,-0.184 0.304,-0.08 0.664,-0.08 0.192,0 0.384,0.024 0.192,0.024 0.36,0.088 z" />
      <path
         style="fill:#000000"
         id="path7666"
         d="m -58.101359,69.312547 q 0.232,-0.8 0.424,-1.608 0.192,-0.808 0.368,-1.72 h 0.68 q -0.12,0.584 -0.264,1.152 -0.136,0.568 -0.288,1.096 -0.144,0.528 -0.296,1 -0.144,0.464 -0.272,0.848 -0.152,0.448 -0.296,0.752 -0.136,0.312 -0.304,0.496 -0.16,0.192 -0.352,0.272 -0.192,0.088 -0.456,0.088 -0.144,0 -0.288,-0.04 -0.144,-0.032 -0.24,-0.072 l 0.128,-0.56 q 0.208,0.088 0.392,0.088 0.232,0 0.376,-0.168 0.144,-0.168 0.28,-0.504 l 0.08,-0.2 q -0.152,-0.416 -0.312,-0.92 -0.152,-0.512 -0.304,-1.064 -0.144,-0.552 -0.28,-1.128 -0.136,-0.584 -0.248,-1.136 h 0.728 q 0.064,0.376 0.152,0.824 0.088,0.448 0.184,0.896 0.104,0.448 0.208,0.872 0.104,0.416 0.2,0.736 z" />
    </g>
    <g
       id="flowRoot299"
       style="font-style:normal;font-variant:normal;font-weight:normal;font-stretch:normal;font-size:5.33333349px;line-height:1.25;font-family:'Ubuntu Condensed';-inkscape-font-specification:'Ubuntu Condensed, ';letter-spacing:0px;word-spacing:0px;fill:#000000;fill-opacity:1;stroke:none"
       transform="matrix(0.26458333,0,0,0.26458333,-3.551518,28.311929)"
       aria-label="worker">
      <path
         id="path307"
         style="font-size:6.66666698px"
         d="m 41.340391,-9.3751819 h -0.58 q -0.206667,-0.6866671 -0.393334,-1.5800001 -0.18,-0.893333 -0.333333,-1.92 h 0.566667 q 0.02667,0.286667 0.08,0.673333 0.05333,0.38 0.113333,0.786667 0.06667,0.4 0.133333,0.78 0.06667,0.373333 0.126667,0.64 0.06,-0.266667 0.133333,-0.653333 0.08,-0.386667 0.153334,-0.793334 0.08,-0.406666 0.146666,-0.786666 0.06667,-0.386667 0.106667,-0.646667 h 0.54 q 0.02667,0.26 0.08,0.64 0.06,0.38 0.12,0.793333 0.06667,0.406667 0.133333,0.793334 0.06667,0.386666 0.12,0.653333 0.06,-0.266667 0.126667,-0.646667 0.06667,-0.38 0.126667,-0.78 0.06667,-0.4 0.12,-0.78 0.05333,-0.386666 0.08,-0.673333 h 0.546666 q -0.153333,1.026667 -0.34,1.92 -0.18,0.893333 -0.386666,1.5800001 h -0.56 q -0.05333,-0.2066667 -0.12,-0.5266667 -0.06,-0.3266664 -0.126667,-0.6933334 -0.06,-0.366667 -0.113333,-0.733333 -0.05333,-0.373334 -0.09333,-0.68 -0.04,0.306666 -0.106666,0.68 -0.06667,0.366666 -0.14,0.733333 -0.07333,0.366667 -0.146667,0.6933334 -0.06667,0.32 -0.113333,0.5266667 z" />
      <path
         id="path309"
         style="font-size:6.66666698px"
         d="m 46.482162,-11.121849 q 0,0.413334 -0.07333,0.753334 -0.07333,0.333333 -0.226666,0.573333 -0.146667,0.2400001 -0.38,0.3733334 -0.226667,0.1333333 -0.54,0.1333333 -0.313334,0 -0.546667,-0.1333333 -0.233333,-0.1333333 -0.386667,-0.3733334 -0.146666,-0.24 -0.22,-0.573333 -0.07333,-0.34 -0.07333,-0.753334 0,-0.406666 0.07333,-0.746666 0.07333,-0.34 0.22,-0.58 0.153334,-0.246667 0.386667,-0.38 0.233333,-0.133334 0.546667,-0.133334 0.313333,0 0.54,0.133334 0.233333,0.133333 0.38,0.38 0.153333,0.24 0.226666,0.58 0.07333,0.34 0.07333,0.746666 z m -0.6,0 q 0,-0.293333 -0.03333,-0.533333 -0.03333,-0.246667 -0.106666,-0.42 -0.07333,-0.18 -0.193334,-0.273333 -0.12,-0.1 -0.286666,-0.1 -0.173334,0 -0.293334,0.1 -0.113333,0.09333 -0.193333,0.273333 -0.07333,0.173333 -0.106667,0.42 -0.03333,0.24 -0.03333,0.533333 0,0.293334 0.03333,0.54 0.03333,0.24 0.106667,0.413334 0.08,0.173333 0.193333,0.273333 0.12,0.093333 0.293334,0.093333 0.166666,0 0.286666,-0.093333 0.12,-0.1 0.193334,-0.273333 0.07333,-0.173334 0.106666,-0.413334 0.03333,-0.246666 0.03333,-0.54 z" />
      <path
         id="path311"
         style="font-size:6.66666698px"
         d="m 48.834766,-12.355182 q -0.213333,-0.09333 -0.48,-0.09333 -0.246667,0 -0.46,0.08667 v 2.9866671 h -0.573333 v -3.3466671 q 0.193333,-0.09333 0.44,-0.153333 0.253333,-0.06667 0.553333,-0.06667 0.16,0 0.32,0.02 0.16,0.02 0.3,0.07333 z" />
      <path
         id="path313"
         style="font-size:6.66666698px"
         d="m 51.675599,-12.875182 q -0.28,0.48 -0.54,0.88 -0.253333,0.393333 -0.506666,0.74 0.16,0.186667 0.326666,0.42 0.166667,0.233333 0.32,0.486667 0.153334,0.246666 0.286667,0.4999997 0.133333,0.2466667 0.226667,0.4733334 h -0.626667 q -0.1,-0.2200001 -0.233333,-0.4600001 -0.133334,-0.24 -0.28,-0.466667 -0.146667,-0.233333 -0.293334,-0.44 -0.146666,-0.206666 -0.273333,-0.346666 v 1.7133331 h -0.573333 v -5.0733341 l 0.573333,-0.1 v 3.180001 q 0.12,-0.16 0.253333,-0.36 0.14,-0.2 0.273334,-0.4 0.133333,-0.206667 0.253333,-0.4 0.12,-0.193334 0.2,-0.346667 z" />
      <path
         id="path315"
         style="font-size:6.66666698px"
         d="m 52.649662,-10.955182 q 0.0067,0.253333 0.04667,0.466667 0.04,0.206666 0.126667,0.366666 0.09333,0.1533337 0.24,0.2400004 0.153333,0.086667 0.386667,0.086667 0.193333,0 0.353333,-0.053333 0.166667,-0.06 0.24,-0.1 l 0.106667,0.46 q -0.08667,0.06 -0.293334,0.1266667 -0.2,0.073333 -0.48,0.073333 -0.366666,0 -0.62,-0.1333333 -0.246667,-0.1333333 -0.406667,-0.3733334 -0.153333,-0.2400004 -0.22,-0.5733334 -0.06667,-0.333334 -0.06667,-0.733334 0,-0.966666 0.32,-1.413333 0.32,-0.446667 0.846667,-0.446667 0.593333,0 0.84,0.446667 0.246666,0.446667 0.246666,1.253333 0,0.07333 0,0.153334 0,0.07333 -0.0067,0.153333 z m 0.58,-1.52 q -0.286667,0 -0.42,0.286667 -0.126667,0.286666 -0.153334,0.766666 h 1.06 q 0,-0.486666 -0.1,-0.766666 -0.1,-0.286667 -0.386666,-0.286667 z" />
      <path
         id="path317"
         style="font-size:6.66666698px"
         d="m 56.673308,-12.355182 q -0.213333,-0.09333 -0.48,-0.09333 -0.246667,0 -0.46,0.08667 v 2.9866671 h -0.573333 v -3.3466671 q 0.193333,-0.09333 0.44,-0.153333 0.253333,-0.06667 0.553333,-0.06667 0.16,0 0.32,0.02 0.16,0.02 0.3,0.07333 z" />
    </g>
    <path
       id="path5768"
       d="m 1.8426339,9.3601181 h 4.2162772 v 2.6556299 h 7.5625909 l -3.67e-4,1.031341 -3.67e-4,1.031342 -7.5078251,0.02958 v 3.926228 l 7.4896781,0.03048 0.0094,1.211538 0.0094,1.211538 H 6.0714286 v 2.219178 H 1.8428199"
       style="fill:none;stroke:#ff0000;stroke-width:0.60000002;stroke-linecap:butt;stroke-linejoin:miter;stroke-miterlimit:4;stroke-dasharray:none;stroke-opacity:1" />
    <path
       id="path1087"
       d="m 14.014626,12.775503 c 8.262354,1.75916 5.241086,7.784566 -4.112774,16.204274"
       style="fill:none;stroke:#0000ff;stroke-width:0.26458332;stroke-linecap:butt;stroke-linejoin:miter;stroke-opacity:1;stroke-miterlimit:4;stroke-dasharray:0.79374995, 0.26458332000000001;stroke-dashoffset:0;marker-end:url(#Arrow1Mend-37)" />
    <path
       id="path1089"
       d="m 13.781716,19.33999 c -1.220742,5.091575 7.39295,12.914938 -4.1123998,15.149678"
       style="fill:none;stroke:#0000ff;stroke-width:0.26499999;stroke-linecap:butt;stroke-linejoin:miter;stroke-opacity:1;stroke-miterlimit:4;stroke-dasharray:0.79499996, 0.26499999000000002;stroke-dashoffset:0;marker-end:url(#marker2112)" />
    <g
       id="flowRoot1091"
       style="font-style:normal;font-weight:normal;font-size:40px;line-height:1.25;font-family:sans-serif;letter-spacing:0px;word-spacing:0px;fill:#000000;fill-opacity:1;stroke:none"
       transform="matrix(0.26458333,0,0,0.26458333,0.11687897,-7.1179741)"
       aria-label="MQ">
      <path
         id="path1158"
         style="font-style:normal;font-variant:normal;font-weight:normal;font-stretch:normal;font-size:8px;font-family:'Ubuntu Condensed';-inkscape-font-specification:'Ubuntu Condensed, '"
         d="m 53.199609,46.460516 q -0.16,-0.576 -0.328,-1.104 -0.168,-0.528 -0.328,-0.992 -0.152,-0.472 -0.296,-0.856 -0.144,-0.384 -0.264,-0.672 -0.032,0.456 -0.056,1.008 -0.016,0.544 -0.04,1.12 -0.016,0.576 -0.032,1.16 -0.008,0.576 -0.016,1.104 h -0.688 q 0.024,-0.72 0.048,-1.448 0.024,-0.736 0.056,-1.44 0.04,-0.712 0.08,-1.384 0.048,-0.672 0.104,-1.272 h 0.712 q 0.144,0.344 0.328,0.824 0.184,0.472 0.368,0.992 0.192,0.52 0.368,1.04 0.176,0.52 0.304,0.952 0.128,-0.432 0.296,-0.952 0.168,-0.52 0.352,-1.04 0.184,-0.52 0.36,-0.992 0.184,-0.48 0.328,-0.824 h 0.712 q 0.056,0.6 0.096,1.272 0.048,0.672 0.08,1.384 0.04,0.704 0.064,1.44 0.024,0.728 0.048,1.448 h -0.688 q -0.016,-0.528 -0.032,-1.112 -0.008,-0.584 -0.032,-1.168 -0.016,-0.592 -0.04,-1.144 -0.024,-0.56 -0.056,-1.024 -0.072,0.2 -0.184,0.504 -0.104,0.296 -0.224,0.648 -0.112,0.352 -0.24,0.728 -0.12,0.368 -0.232,0.712 -0.104,0.344 -0.192,0.632 -0.08,0.28 -0.128,0.456 z" />
      <path
         id="path1160"
         style="font-style:normal;font-variant:normal;font-weight:normal;font-stretch:normal;font-size:8px;font-family:'Ubuntu Condensed';-inkscape-font-specification:'Ubuntu Condensed, '"
         d="m 60.804109,44.460516 q 0,0.568 -0.096,1.048 -0.088,0.48 -0.272,0.848 -0.184,0.368 -0.472,0.616 -0.288,0.24 -0.672,0.328 0.016,0.336 0.36,0.52 0.344,0.192 0.888,0.288 l -0.168,0.56 q -0.32,-0.072 -0.616,-0.16 -0.288,-0.088 -0.528,-0.232 -0.232,-0.144 -0.4,-0.368 -0.16,-0.224 -0.232,-0.576 -0.448,-0.048 -0.776,-0.272 -0.32,-0.232 -0.536,-0.608 -0.216,-0.376 -0.32,-0.88 -0.104,-0.504 -0.104,-1.112 0,-0.648 0.12,-1.184 0.12,-0.536 0.36,-0.912 0.248,-0.384 0.616,-0.592 0.376,-0.216 0.88,-0.216 0.504,0 0.872,0.216 0.376,0.208 0.616,0.592 0.248,0.376 0.36,0.912 0.12,0.536 0.12,1.184 z m -0.768,0 q 0,-0.504 -0.064,-0.92 -0.064,-0.416 -0.208,-0.712 -0.144,-0.304 -0.376,-0.472 -0.224,-0.168 -0.552,-0.168 -0.328,0 -0.56,0.168 -0.224,0.168 -0.368,0.472 -0.144,0.296 -0.216,0.712 -0.064,0.416 -0.064,0.92 0,0.504 0.064,0.92 0.072,0.416 0.216,0.712 0.144,0.296 0.368,0.464 0.232,0.16 0.56,0.16 0.328,0 0.552,-0.16 0.232,-0.168 0.376,-0.464 0.144,-0.296 0.208,-0.712 0.064,-0.416 0.064,-0.92 z" />
    </g>
    <g
       id="flowRoot1091-4"
       style="font-style:normal;font-weight:normal;font-size:40px;line-height:0em;font-family:sans-serif;text-align:center;letter-spacing:0px;word-spacing:0px;text-anchor:middle;fill:#000000;fill-opacity:1;stroke:none"
       transform="matrix(0.26458333,0,0,0.26458333,-29.244588,1.8412574)"
       aria-label="Rabbit or Redis">
      <path
         id="path1131"
         style="font-style:normal;font-variant:normal;font-weight:normal;font-stretch:normal;font-size:5.33333349px;line-height:0em;font-family:'Ubuntu Condensed';-inkscape-font-specification:'Ubuntu Condensed, ';text-align:center;text-anchor:middle"
         d="m 161.49064,18.585849 q 0.37334,-0.09067 0.72,-0.09067 0.27734,0 0.50134,0.064 0.224,0.064 0.384,0.202667 0.16,0.138667 0.24533,0.357333 0.0907,0.218667 0.0907,0.528 0,0.384 -0.14934,0.624 -0.144,0.234667 -0.39466,0.357334 0.064,0.106666 0.16,0.293333 0.10133,0.181333 0.20266,0.405333 0.10667,0.218667 0.20267,0.453334 0.10133,0.234666 0.17067,0.448 h -0.48 q -0.0587,-0.16 -0.14934,-0.362667 -0.0853,-0.202667 -0.18133,-0.4 -0.096,-0.202667 -0.192,-0.384 -0.096,-0.186667 -0.17067,-0.314667 -0.0853,0.01067 -0.176,0.016 -0.0907,0.0053 -0.18133,0.0053 h -0.13333 v 1.44 h -0.46934 z m 0.46934,1.808 h 0.20266 q 0.368,0 0.56534,-0.165333 0.19733,-0.170667 0.19733,-0.581334 0,-0.208 -0.0533,-0.346666 -0.048,-0.144 -0.144,-0.224 -0.0907,-0.08533 -0.224,-0.122667 -0.128,-0.03733 -0.288,-0.03733 -0.13867,0 -0.256,0.016 z" />
      <path
         id="path1133"
         style="font-style:normal;font-variant:normal;font-weight:normal;font-stretch:normal;font-size:5.33333349px;line-height:0em;font-family:'Ubuntu Condensed';-inkscape-font-specification:'Ubuntu Condensed, ';text-align:center;text-anchor:middle"
         d="m 164.18881,19.487182 q 0.13867,-0.05867 0.29333,-0.09067 0.15467,-0.03733 0.336,-0.03733 0.37334,0 0.608,0.234667 0.23467,0.229333 0.23467,0.72 v 1.856 q -0.192,0.05333 -0.39467,0.08533 -0.19733,0.032 -0.38933,0.032 -0.192,0 -0.36267,-0.048 -0.16533,-0.048 -0.29333,-0.154666 -0.12267,-0.106667 -0.19733,-0.266667 -0.0747,-0.165333 -0.0747,-0.4 0,-0.218667 0.064,-0.378667 0.0693,-0.165333 0.18667,-0.272 0.11733,-0.112 0.27733,-0.165333 0.16,-0.05867 0.34667,-0.05867 0.176,0 0.38933,0.04267 v -0.256 q 0,-0.309333 -0.12267,-0.432 -0.11733,-0.122667 -0.34133,-0.122667 -0.12267,0 -0.23467,0.02667 -0.10666,0.02133 -0.22933,0.07467 z m 0.21867,1.925334 q 0,0.245333 0.128,0.362666 0.128,0.117334 0.36266,0.117334 0.144,0 0.31467,-0.03733 v -0.890666 q -0.16,-0.04267 -0.31467,-0.04267 -0.10133,0 -0.192,0.02667 -0.0907,0.02133 -0.16,0.08 -0.064,0.05333 -0.10133,0.149333 -0.0373,0.09067 -0.0373,0.234667 z" />
      <path
         id="path1135"
         style="font-style:normal;font-variant:normal;font-weight:normal;font-stretch:normal;font-size:5.33333349px;line-height:0em;font-family:'Ubuntu Condensed';-inkscape-font-specification:'Ubuntu Condensed, ';text-align:center;text-anchor:middle"
         d="m 166.91198,21.855182 q 0.0747,0.02133 0.144,0.032 0.0693,0.0053 0.128,0.0053 0.30933,0 0.45866,-0.245334 0.15467,-0.250666 0.15467,-0.826666 0,-0.298667 -0.0373,-0.501334 -0.0373,-0.202666 -0.112,-0.325333 -0.0693,-0.122667 -0.17067,-0.176 -0.10133,-0.05333 -0.23467,-0.05333 -0.176,0 -0.33066,0.08533 z m 0,-2.405333 q 0.0853,-0.04267 0.17066,-0.064 0.0907,-0.02667 0.21334,-0.02667 0.26133,0 0.448,0.106667 0.18666,0.101333 0.304,0.293333 0.11733,0.186667 0.17066,0.458667 0.0587,0.266667 0.0587,0.602667 0,0.741333 -0.26667,1.109333 -0.26133,0.368 -0.82666,0.368 -0.19734,0 -0.38934,-0.04267 -0.192,-0.03733 -0.34133,-0.101333 v -3.984 l 0.45867,-0.08 z" />
      <path
         id="path1137"
         style="font-style:normal;font-variant:normal;font-weight:normal;font-stretch:normal;font-size:5.33333349px;line-height:0em;font-family:'Ubuntu Condensed';-inkscape-font-specification:'Ubuntu Condensed, ';text-align:center;text-anchor:middle"
         d="m 169.40156,21.855182 q 0.0747,0.02133 0.144,0.032 0.0693,0.0053 0.128,0.0053 0.30933,0 0.45867,-0.245334 0.15466,-0.250666 0.15466,-0.826666 0,-0.298667 -0.0373,-0.501334 -0.0373,-0.202666 -0.112,-0.325333 -0.0693,-0.122667 -0.17067,-0.176 -0.10133,-0.05333 -0.23466,-0.05333 -0.176,0 -0.33067,0.08533 z m 0,-2.405333 q 0.0853,-0.04267 0.17067,-0.064 0.0907,-0.02667 0.21333,-0.02667 0.26133,0 0.448,0.106667 0.18667,0.101333 0.304,0.293333 0.11733,0.186667 0.17067,0.458667 0.0587,0.266667 0.0587,0.602667 0,0.741333 -0.26666,1.109333 -0.26134,0.368 -0.82667,0.368 -0.19733,0 -0.38933,-0.04267 -0.192,-0.03733 -0.34134,-0.101333 v -3.984 l 0.45867,-0.08 z" />
      <path
         id="path1139"
         style="font-style:normal;font-variant:normal;font-weight:normal;font-stretch:normal;font-size:5.33333349px;line-height:0em;font-family:'Ubuntu Condensed';-inkscape-font-specification:'Ubuntu Condensed, ';text-align:center;text-anchor:middle"
         d="m 171.89648,22.228516 h -0.45867 v -2.8 h 0.45867 z m -0.22934,-3.296 q -0.12266,0 -0.21333,-0.08 -0.0853,-0.08533 -0.0853,-0.224 0,-0.138667 0.0853,-0.218667 0.0907,-0.08533 0.21333,-0.08533 0.12267,0 0.208,0.08533 0.0907,0.08 0.0907,0.218667 0,0.138666 -0.0907,0.224 -0.0853,0.08 -0.208,0.08 z" />
      <path
         id="path1141"
         style="font-style:normal;font-variant:normal;font-weight:normal;font-stretch:normal;font-size:5.33333349px;line-height:0em;font-family:'Ubuntu Condensed';-inkscape-font-specification:'Ubuntu Condensed, ';text-align:center;text-anchor:middle"
         d="m 173.15614,19.428516 h 0.704 v 0.394666 h -0.704 v 1.541334 q 0,0.288 0.10134,0.405333 0.10666,0.112 0.28266,0.112 0.0907,0 0.17067,-0.02667 0.0853,-0.02667 0.144,-0.064 l 0.0907,0.368 q -0.21867,0.128 -0.464,0.128 -0.39467,0 -0.592,-0.218666 -0.192,-0.224 -0.192,-0.736 v -2.656 l 0.45866,-0.08 z" />
      <path
         id="path1143"
         style="font-style:normal;font-variant:normal;font-weight:normal;font-stretch:normal;font-size:5.33333349px;line-height:0em;font-family:'Ubuntu Condensed';-inkscape-font-specification:'Ubuntu Condensed, ';text-align:center;text-anchor:middle"
         d="m 167.63618,28.634832 c 0,0.220444 -0.0196,0.421333 -0.0587,0.602667 -0.0391,0.177777 -0.0996,0.330666 -0.18134,0.458666 -0.0782,0.128 -0.17955,0.227556 -0.304,0.298667 -0.12089,0.07111 -0.26489,0.106667 -0.432,0.106667 -0.16711,0 -0.31288,-0.03556 -0.43733,-0.106667 -0.12445,-0.07111 -0.22756,-0.170667 -0.30933,-0.298667 -0.0782,-0.128 -0.13689,-0.280889 -0.176,-0.458666 -0.0391,-0.181334 -0.0587,-0.382223 -0.0587,-0.602667 0,-0.216889 0.0196,-0.416001 0.0587,-0.597334 0.0391,-0.181333 0.0978,-0.336 0.176,-0.464 0.0818,-0.131555 0.18488,-0.232889 0.30933,-0.304 0.12445,-0.07111 0.27022,-0.106666 0.43733,-0.106666 0.16711,0 0.31111,0.03555 0.432,0.106666 0.12445,0.07111 0.22578,0.172445 0.304,0.304 0.0818,0.128 0.14223,0.282667 0.18134,0.464 0.0391,0.181333 0.0587,0.380445 0.0587,0.597334 z m -0.48,0 c 0,-0.156445 -0.009,-0.298667 -0.0267,-0.426667 -0.0178,-0.131555 -0.0462,-0.243555 -0.0853,-0.336 -0.0391,-0.096 -0.0907,-0.168889 -0.15466,-0.218667 -0.064,-0.05333 -0.14045,-0.08 -0.22934,-0.08 -0.0924,0 -0.17066,0.02667 -0.23466,0.08 -0.0605,0.04978 -0.11202,0.122669 -0.15467,0.218667 -0.0391,0.09245 -0.0676,0.204445 -0.0853,0.336 -0.0178,0.128 -0.0267,0.270222 -0.0267,0.426667 0,0.156444 0.009,0.300444 0.0267,0.432 0.0178,0.128 0.0462,0.238222 0.0853,0.330667 0.0427,0.09244 0.0942,0.165333 0.15467,0.218666 0.064,0.04978 0.14222,0.07467 0.23466,0.07467 0.0889,0 0.16534,-0.02489 0.22934,-0.07467 0.064,-0.05333 0.11555,-0.126222 0.15466,-0.218666 0.0391,-0.09245 0.0676,-0.202667 0.0853,-0.330667 0.0178,-0.131556 0.0267,-0.275556 0.0267,-0.432 z" />
      <path
         id="path1145"
         style="font-style:normal;font-variant:normal;font-weight:normal;font-stretch:normal;font-size:5.33333349px;line-height:0em;font-family:'Ubuntu Condensed';-inkscape-font-specification:'Ubuntu Condensed, ';text-align:center;text-anchor:middle"
         d="m 169.51827,27.648165 c -0.11378,-0.04978 -0.24178,-0.07467 -0.384,-0.07467 -0.13156,0 -0.25423,0.02311 -0.368,0.06933 v 2.389333 h -0.45867 v -2.677326 c 0.10311,-0.04978 0.22045,-0.09067 0.352,-0.122667 0.13511,-0.03555 0.28267,-0.05333 0.44267,-0.05333 0.0853,0 0.17067,0.0053 0.256,0.016 0.0853,0.01067 0.16533,0.03022 0.24,0.05867 z" />
      <path
         id="path1147"
         style="font-style:normal;font-variant:normal;font-weight:normal;font-stretch:normal;font-size:5.33333349px;line-height:0em;font-family:'Ubuntu Condensed';-inkscape-font-specification:'Ubuntu Condensed, ';text-align:center;text-anchor:middle"
         d="m 162.69898,30.655395 c 0.24889,-0.06045 0.48889,-0.09067 0.72,-0.09067 0.18489,0 0.352,0.02133 0.50133,0.064 0.14933,0.04267 0.27733,0.110222 0.384,0.202667 0.10667,0.09244 0.18844,0.211555 0.24533,0.357333 0.0605,0.145778 0.0907,0.321778 0.0907,0.528 0,0.256 -0.0498,0.464 -0.14933,0.624 -0.096,0.156444 -0.22756,0.275556 -0.39467,0.357334 0.0427,0.07111 0.096,0.168888 0.16,0.293333 0.0676,0.120888 0.13511,0.255999 0.20267,0.405333 0.0711,0.145778 0.13866,0.296889 0.20266,0.453334 0.0676,0.156444 0.12445,0.305777 0.17067,0.448 h -0.48 c -0.0391,-0.106667 -0.0889,-0.227556 -0.14933,-0.362667 -0.0569,-0.135112 -0.11731,-0.268445 -0.18134,-0.4 -0.064,-0.135112 -0.128,-0.263112 -0.192,-0.384 -0.064,-0.124445 -0.12089,-0.229334 -0.17066,-0.314667 -0.0569,0.0071 -0.11553,0.01245 -0.176,0.016 -0.0605,0.0035 -0.12091,0.0053 -0.18134,0.0053 h -0.13333 v 1.44 h -0.46933 z m 0.46933,1.808 h 0.20267 c 0.24533,0 0.43378,-0.05511 0.56533,-0.165333 0.13155,-0.113778 0.19733,-0.307556 0.19733,-0.581334 0,-0.138667 -0.0178,-0.254222 -0.0533,-0.346666 -0.032,-0.096 -0.08,-0.170667 -0.144,-0.224 -0.0605,-0.05689 -0.13513,-0.09778 -0.224,-0.122667 -0.0853,-0.02489 -0.18133,-0.03733 -0.288,-0.03733 -0.0925,0 -0.17778,0.0053 -0.256,0.016 z" />
      <path
         id="path1149"
         style="font-style:normal;font-variant:normal;font-weight:normal;font-stretch:normal;font-size:5.33333349px;line-height:0em;font-family:'Ubuntu Condensed';-inkscape-font-specification:'Ubuntu Condensed, ';text-align:center;text-anchor:middle"
         d="m 165.61706,33.034062 c 0.003,0.13511 0.0158,0.259555 0.0373,0.373333 0.0213,0.110222 0.0551,0.207999 0.10134,0.293333 0.0498,0.08178 0.1138,0.145778 0.192,0.192 0.0818,0.04622 0.18488,0.06933 0.30933,0.06933 0.10311,0 0.19734,-0.01422 0.28267,-0.04267 0.0889,-0.032 0.15289,-0.05867 0.192,-0.08 l 0.0853,0.368 c -0.0462,0.032 -0.12442,0.06578 -0.23467,0.101333 -0.10667,0.03911 -0.23467,0.05867 -0.384,0.05867 -0.19555,0 -0.36089,-0.03556 -0.496,-0.106667 -0.13155,-0.07111 -0.24,-0.170666 -0.32533,-0.298666 -0.0818,-0.128 -0.14045,-0.280889 -0.176,-0.458667 -0.0355,-0.177778 -0.0533,-0.373334 -0.0533,-0.586667 0,-0.515556 0.0853,-0.892444 0.256,-1.130666 0.17067,-0.238223 0.39644,-0.357334 0.67733,-0.357334 0.31645,0 0.54045,0.119111 0.672,0.357334 0.13155,0.238222 0.19733,0.572444 0.19733,1.002666 v 0.122667 c 0,0.03911 -0.002,0.08 -0.005,0.122667 z m 0.464,-1.216 c -0.15289,0 -0.26489,0.07644 -0.336,0.229333 -0.0675,0.152888 -0.10844,0.357333 -0.12267,0.613333 h 0.848 c 0,-0.259556 -0.0267,-0.464 -0.08,-0.613333 -0.0533,-0.152889 -0.15644,-0.229333 -0.30933,-0.229333 z" />
      <path
         id="path1151"
         style="font-style:normal;font-variant:normal;font-weight:normal;font-stretch:normal;font-size:5.33333349px;line-height:0em;font-family:'Ubuntu Condensed';-inkscape-font-specification:'Ubuntu Condensed, ';text-align:center;text-anchor:middle"
         d="m 168.83064,31.919395 c -0.10311,-0.05689 -0.21333,-0.08533 -0.33066,-0.08533 -0.0889,0 -0.16712,0.01778 -0.23467,0.05333 -0.0676,0.03555 -0.12622,0.09422 -0.176,0.176 -0.0462,0.08178 -0.0818,0.190222 -0.10667,0.325333 -0.0249,0.135111 -0.0373,0.302222 -0.0373,0.501334 0,0.384 0.0498,0.659555 0.14933,0.826666 0.10311,0.163556 0.25778,0.245334 0.464,0.245334 0.0391,0 0.0818,-0.0018 0.128,-0.0053 0.0462,-0.0071 0.0942,-0.01778 0.144,-0.032 z m 0,-1.68 0.45867,-0.08 v 4.064 c -0.0995,0.04267 -0.21333,0.07644 -0.34133,0.101333 -0.128,0.02845 -0.25778,0.04267 -0.38934,0.04267 -0.384,0 -0.66311,-0.122667 -0.83733,-0.368 -0.17067,-0.245334 -0.256,-0.615111 -0.256,-1.109333 0,-0.224 0.0178,-0.424889 0.0533,-0.602667 0.0391,-0.181334 0.0978,-0.334223 0.176,-0.458667 0.0818,-0.128 0.18489,-0.225778 0.30934,-0.293333 0.12444,-0.07111 0.27199,-0.106667 0.44266,-0.106667 0.0818,0 0.15111,0.0089 0.208,0.02667 0.0605,0.01422 0.11913,0.03555 0.176,0.064 z" />
      <path
         id="path1153"
         style="font-style:normal;font-variant:normal;font-weight:normal;font-stretch:normal;font-size:5.33333349px;line-height:0em;font-family:'Ubuntu Condensed';-inkscape-font-specification:'Ubuntu Condensed, ';text-align:center;text-anchor:middle"
         d="m 170.57356,34.298062 h -0.45867 v -2.8 h 0.45867 z m -0.22933,-3.296 c -0.0818,0 -0.15289,-0.02667 -0.21334,-0.08 -0.0569,-0.05689 -0.0853,-0.131554 -0.0853,-0.224 0,-0.09245 0.0284,-0.165334 0.0853,-0.218667 0.0605,-0.05689 0.13158,-0.08533 0.21334,-0.08533 0.0818,0 0.15111,0.02844 0.208,0.08533 0.0605,0.05333 0.0907,0.126222 0.0907,0.218667 0,0.09244 -0.0302,0.16711 -0.0907,0.224 -0.0569,0.05333 -0.1262,0.08 -0.208,0.08 z" />
      <path
         id="path1155"
         style="font-style:normal;font-variant:normal;font-weight:normal;font-stretch:normal;font-size:5.33333349px;line-height:0em;font-family:'Ubuntu Condensed';-inkscape-font-specification:'Ubuntu Condensed, ';text-align:center;text-anchor:middle"
         d="m 171.79589,33.972728 c 0.13511,0 0.23645,-0.03733 0.304,-0.112 0.0711,-0.07822 0.10667,-0.179556 0.10667,-0.304 0,-0.07822 -0.0142,-0.144 -0.0427,-0.197333 -0.0285,-0.05689 -0.0658,-0.106665 -0.112,-0.149333 -0.0462,-0.04267 -0.0995,-0.08 -0.16,-0.112 -0.0605,-0.03555 -0.12091,-0.07289 -0.18133,-0.112 -0.0605,-0.03555 -0.11913,-0.07644 -0.176,-0.122667 -0.0569,-0.04978 -0.10842,-0.104891 -0.15467,-0.165333 -0.0427,-0.064 -0.0782,-0.135112 -0.10666,-0.213334 -0.0249,-0.08178 -0.0373,-0.176 -0.0373,-0.282666 0,-0.231112 0.0711,-0.417778 0.21334,-0.56 0.14577,-0.142223 0.34133,-0.213334 0.58666,-0.213334 0.10311,0 0.20089,0.01422 0.29334,0.04267 0.0924,0.02489 0.16888,0.05333 0.22933,0.08533 l -0.10133,0.368 c -0.064,-0.03555 -0.128,-0.06222 -0.192,-0.08 -0.064,-0.01778 -0.13333,-0.02667 -0.208,-0.02667 -0.11378,0 -0.20445,0.03378 -0.272,0.101333 -0.0676,0.064 -0.10134,0.158222 -0.10134,0.282667 0,0.07111 0.0124,0.133332 0.0373,0.186666 0.0249,0.04978 0.0569,0.096 0.096,0.138667 0.0427,0.03911 0.0889,0.07645 0.13866,0.112 0.0533,0.03555 0.10845,0.06933 0.16534,0.101333 0.0676,0.03911 0.13333,0.08178 0.19733,0.128 0.0675,0.04622 0.12622,0.101331 0.176,0.165334 0.0533,0.06045 0.096,0.133335 0.128,0.218666 0.032,0.08178 0.048,0.181333 0.048,0.298667 0,0.245333 -0.0729,0.442666 -0.21867,0.592 -0.14222,0.149333 -0.352,0.224 -0.62933,0.224 -0.14222,0 -0.27022,-0.01956 -0.384,-0.05867 -0.11378,-0.03911 -0.19911,-0.07467 -0.256,-0.106666 l 0.096,-0.378667 c 0.0533,0.02845 0.12444,0.06045 0.21333,0.096 0.0924,0.03555 0.19378,0.05333 0.304,0.05333 z" />
    </g>
    <circle
       r="0.68988943"
       cy="28.94393"
       cx="9.3429861"
       id="path1163"
       style="fill:#000000;stroke-width:0.26458332" />
    <circle
       r="0.68988943"
       cy="34.764767"
       cx="9.3429861"
       id="path1163-4"
       style="fill:#000000;stroke-width:0.26458332" />
  </g>
</svg>
