<?xml version="1.0" encoding="UTF-8" standalone="no"?>
<svg
   xmlns:dc="http://purl.org/dc/elements/1.1/"
   xmlns:cc="http://creativecommons.org/ns#"
   xmlns:rdf="http://www.w3.org/1999/02/22-rdf-syntax-ns#"
   xmlns:svg="http://www.w3.org/2000/svg"
   xmlns="http://www.w3.org/2000/svg"
   xmlns:sodipodi="http://sodipodi.sourceforge.net/DTD/sodipodi-0.dtd"
   xmlns:inkscape="http://www.inkscape.org/namespaces/inkscape"
   id="master-artboard"
   viewBox="0 0 1400 980"
   version="1.1"
   x="0px"
   y="0px"
   style="enable-background:new 0 0 1400 980;"
   width="1400px"
   height="980px"
   inkscape:version="0.91 r13725"
   sodipodi:docname="2-kafka-debezium.svg">
  <metadata
     id="metadata383">
    <rdf:RDF>
      <cc:Work
         rdf:about="">
        <dc:format>image/svg+xml</dc:format>
        <dc:type
           rdf:resource="http://purl.org/dc/dcmitype/StillImage" />
      </cc:Work>
    </rdf:RDF>
  </metadata>
  <sodipodi:namedview
     pagecolor="#ffffff"
     bordercolor="#666666"
     borderopacity="1"
     objecttolerance="10"
     gridtolerance="10"
     guidetolerance="10"
     inkscape:pageopacity="0"
     inkscape:pageshadow="2"
     inkscape:window-width="1366"
     inkscape:window-height="724"
     id="namedview381"
     showgrid="false"
     inkscape:zoom="0.48500188"
     inkscape:cx="883.73422"
     inkscape:cy="541.27411"
     inkscape:window-x="0"
     inkscape:window-y="20"
     inkscape:window-maximized="1"
     inkscape:current-layer="master-artboard" />
  <defs
     id="defs269">
    <marker
       style="overflow:visible"
       id="marker2905"
       refX="0.0"
       refY="0.0"
       orient="auto">
      <path
         transform="scale(0.4) translate(7.4, 1)"
         style="fill-rule:evenodd;stroke:#00ff00;stroke-width:1pt;stroke-opacity:1;fill:#00ff00;fill-opacity:1"
         d="M -2.5,-1.0 C -2.5,1.7600000 -4.7400000,4.0 -7.5,4.0 C -10.260000,4.0 -12.5,1.7600000 -12.5,-1.0 C -12.5,-3.7600000 -10.260000,-6.0 -7.5,-6.0 C -4.7400000,-6.0 -2.5,-3.7600000 -2.5,-1.0 z "
         id="path2903" />
    </marker>
    <marker
       style="overflow:visible"
       id="marker2343"
       refX="0.0"
       refY="0.0"
       orient="auto">
      <path
         transform="scale(0.4) translate(7.4, 1)"
         style="fill-rule:evenodd;stroke:#00ff00;stroke-width:1pt;stroke-opacity:1;fill:#00ff00;fill-opacity:1"
         d="M -2.5,-1.0 C -2.5,1.7600000 -4.7400000,4.0 -7.5,4.0 C -10.260000,4.0 -12.5,1.7600000 -12.5,-1.0 C -12.5,-3.7600000 -10.260000,-6.0 -7.5,-6.0 C -4.7400000,-6.0 -2.5,-3.7600000 -2.5,-1.0 z "
         id="path2341" />
    </marker>
    <marker
       style="overflow:visible"
       id="DotM"
       refX="0.0"
       refY="0.0"
       orient="auto">
      <path
         transform="scale(0.4) translate(7.4, 1)"
         style="fill-rule:evenodd;stroke:#00ff00;stroke-width:1pt;stroke-opacity:1;fill:#00ff00;fill-opacity:1"
         d="M -2.5,-1.0 C -2.5,1.7600000 -4.7400000,4.0 -7.5,4.0 C -10.260000,4.0 -12.5,1.7600000 -12.5,-1.0 C -12.5,-3.7600000 -10.260000,-6.0 -7.5,-6.0 C -4.7400000,-6.0 -2.5,-3.7600000 -2.5,-1.0 z "
         id="path1915" />
    </marker>
    <marker
       style="overflow:visible"
       id="Arrow2Sstart"
       refX="0.0"
       refY="0.0"
       orient="auto">
      <path
         transform="scale(0.3) translate(-2.3,0)"
         d="M 8.7185878,4.0337352 L -2.2072895,0.016013256 L 8.7185884,-4.0017078 C 6.9730900,-1.6296469 6.9831476,1.6157441 8.7185878,4.0337352 z "
         style="fill-rule:evenodd;stroke-width:0.625;stroke-linejoin:round;stroke:#000000;stroke-opacity:1;fill:#000000;fill-opacity:1"
         id="path1881" />
    </marker>
    <marker
       style="overflow:visible"
       id="DotL"
       refX="0.0"
       refY="0.0"
       orient="auto">
      <path
         transform="scale(0.8) translate(7.4, 1)"
         style="fill-rule:evenodd;stroke:#000000;stroke-width:1pt;stroke-opacity:1;fill:#000000;fill-opacity:1"
         d="M -2.5,-1.0 C -2.5,1.7600000 -4.7400000,4.0 -7.5,4.0 C -10.260000,4.0 -12.5,1.7600000 -12.5,-1.0 C -12.5,-3.7600000 -10.260000,-6.0 -7.5,-6.0 C -4.7400000,-6.0 -2.5,-3.7600000 -2.5,-1.0 z "
         id="path1912" />
    </marker>
    <marker
       orient="auto"
       refY="0.0"
       refX="0.0"
       id="Arrow1Mend"
       style="overflow:visible;">
      <path
         id="path5813"
         d="M 0.0,0.0 L 5.0,-5.0 L -12.5,0.0 L 5.0,5.0 L 0.0,0.0 z "
         style="fill-rule:evenodd;stroke:#ff00ff;stroke-width:1pt;stroke-opacity:1;fill:#ff00ff;fill-opacity:1"
         transform="scale(0.4) rotate(180) translate(10,0)" />
    </marker>
    <marker
       orient="auto"
       refY="0"
       refX="0"
       id="Arrow1Mend-3"
       style="overflow:visible">
      <path
         id="path5813-7"
         d="M 0,0 5,-5 -12.5,0 5,5 Z"
         style="fill:#000000;fill-opacity:1;fill-rule:evenodd;stroke:#000000;stroke-width:1.00000003pt;stroke-opacity:1"
         transform="matrix(-0.4,0,0,-0.4,-4,0)" />
    </marker>
    <marker
       orient="auto"
       refY="0"
       refX="0"
       id="Arrow1Mend-37"
       style="overflow:visible">
      <path
         id="path5813-8"
         d="M 0,0 5,-5 -12.5,0 5,5 Z"
         style="fill:#00ff00;fill-opacity:1;fill-rule:evenodd;stroke:#00ff00;stroke-width:1.00000003pt;stroke-opacity:1"
         transform="matrix(-0.4,0,0,-0.4,-4,0)" />
    </marker>
    <marker
       orient="auto"
       refY="0"
       refX="0"
       id="Arrow1Mend-4"
       style="overflow:visible">
      <path
         id="path5813-1"
         d="M 0,0 5,-5 -12.5,0 5,5 Z"
         style="fill:#ff00ff;fill-opacity:1;fill-rule:evenodd;stroke:#ff00ff;stroke-width:1.00000003pt;stroke-opacity:1"
         transform="matrix(-0.4,0,0,-0.4,-4,0)" />
    </marker>
    <marker
       orient="auto"
       refY="0"
       refX="0"
       id="Arrow1Mend-4-0"
       style="overflow:visible">
      <path
         id="path5813-1-9"
         d="M 0,0 5,-5 -12.5,0 5,5 Z"
         style="fill:#00ff00;fill-opacity:1;fill-rule:evenodd;stroke:#00ff00;stroke-width:1.00000003pt;stroke-opacity:1"
         transform="matrix(-0.4,0,0,-0.4,-4,0)" />
    </marker>
    <marker
       orient="auto"
       refY="0"
       refX="0"
       id="Arrow1Mend-8"
       style="overflow:visible">
      <path
         id="path5813-5"
         d="M 0,0 5,-5 -12.5,0 5,5 Z"
         style="fill:#ff00ff;fill-opacity:1;fill-rule:evenodd;stroke:#ff00ff;stroke-width:1.00000003pt;stroke-opacity:1"
         transform="matrix(-0.4,0,0,-0.4,-4,0)" />
    </marker>
    <marker
       orient="auto"
       refY="0"
       refX="0"
       id="Arrow1Mend-4-8"
       style="overflow:visible">
      <path
         id="path5813-1-4"
         d="M 0,0 5,-5 -12.5,0 5,5 Z"
         style="fill:#00ff00;fill-opacity:1;fill-rule:evenodd;stroke:#00ff00;stroke-width:1.00000003pt;stroke-opacity:1"
         transform="matrix(-0.4,0,0,-0.4,-4,0)" />
    </marker>
    <marker
       orient="auto"
       refY="0"
       refX="0"
       id="Arrow1Mend-4-0-3"
       style="overflow:visible">
      <path
         id="path5813-1-9-7"
         d="M 0,0 5,-5 -12.5,0 5,5 Z"
         style="fill:#00ff00;fill-opacity:1;fill-rule:evenodd;stroke:#00ff00;stroke-width:1.00000003pt;stroke-opacity:1"
         transform="matrix(-0.4,0,0,-0.4,-4,0)" />
    </marker>
  </defs>
  <path
     inkscape:connector-curvature="0"
     id="rect10-8"
     style="fill:#beb7c8;stroke:#000000;stroke-width:4.85630131;fill-opacity:1"
     d="m 616.95338,176.65442 74.81045,0 0,626.6911 -74.81045,0 0,-626.6911 z" />
  <path
     inkscape:connector-curvature="0"
     id="rect10-8-3"
     style="fill:#beb7c8;stroke:#000000;stroke-width:4.85630131;fill-opacity:1"
     d="m 605.09459,176.65442 101.45267,0 0,98.13067 -101.45267,0 0,-98.13067 z" />
  <path
     inkscape:connector-curvature="0"
     id="rect10"
     style="fill:#e3dbdb;fill-opacity:1;stroke:#000000;stroke-width:4.85630131"
     d="m 102.1854,176.6544 74.81047,0 0,626.6911 -74.81047,0 0,-626.6911 z" />
  <g
     aria-label=" MS 1"
     transform="matrix(1.0950653,0,0,1.0950653,-21.611792,127.25109)"
     style="font-style:normal;font-weight:normal;font-size:40px;line-height:1.25;font-family:sans-serif;letter-spacing:0px;word-spacing:0px;fill:#000000;fill-opacity:1;stroke:none"
     id="flowRoot12">
    <path
       inkscape:connector-curvature="0"
       d="m 139.58214,72.379296 q -0.70955,-2.554395 -1.45458,-4.895924 -0.74504,-2.341529 -1.45459,-4.399236 -0.67408,-2.093185 -1.31268,-3.796115 -0.63859,-1.70293 -1.17076,-2.980128 -0.14191,2.02223 -0.24834,4.470192 -0.071,2.412484 -0.17739,4.966879 -0.071,2.554395 -0.14191,5.144268 -0.0355,2.554395 -0.071,4.895924 l -3.05108,0 q 0.10643,-3.192994 0.21286,-6.421465 0.10644,-3.26395 0.24835,-6.385988 0.17739,-3.157517 0.35478,-6.137644 0.21286,-2.980128 0.46121,-5.640956 l 3.15751,0 q 0.6386,1.525541 1.45459,3.654204 0.81599,2.093185 1.63197,4.399236 0.85147,2.306051 1.63198,4.612102 0.78051,2.306052 1.34815,4.221848 0.56764,-1.915796 1.31268,-4.221848 0.74503,-2.306051 1.56102,-4.612102 0.81598,-2.306051 1.59649,-4.399236 0.81599,-2.128663 1.45459,-3.654204 l 3.15751,0 q 0.24835,2.660828 0.42574,5.640956 0.21286,2.980127 0.35477,6.137644 0.17739,3.122038 0.28383,6.385988 0.10643,3.228471 0.21286,6.421465 l -3.05108,0 q -0.071,-2.341529 -0.14191,-4.931402 -0.0355,-2.589872 -0.14191,-5.179745 -0.071,-2.625351 -0.17739,-5.073313 -0.10643,-2.48344 -0.24834,-4.541147 -0.3193,0.886943 -0.81599,2.235096 -0.46121,1.312675 -0.99338,2.873694 -0.49669,1.56102 -1.06433,3.228472 -0.53217,1.631975 -1.02885,3.157516 -0.46121,1.525542 -0.85147,2.80274 -0.35478,1.241719 -0.56764,2.022229 z"
       style="font-style:normal;font-variant:normal;font-weight:normal;font-stretch:normal;font-size:35.47771072px;line-height:0;font-family:'Ubuntu Condensed';-inkscape-font-specification:'Ubuntu Condensed, ';text-align:center;text-anchor:middle"
       id="path4972" />
    <path
       inkscape:connector-curvature="0"
       d="m 159.85987,73.585538 q 1.9158,0 2.94465,-1.064331 1.06433,-1.064331 1.06433,-2.873695 0,-0.957898 -0.3193,-1.70293 -0.3193,-0.745032 -0.85146,-1.348153 -0.49669,-0.603121 -1.17077,-1.099809 -0.67407,-0.496688 -1.38363,-0.993376 -0.81599,-0.567643 -1.70293,-1.206242 -0.88694,-0.638599 -1.63197,-1.490064 -0.70956,-0.851465 -1.17077,-1.986752 -0.46121,-1.135286 -0.46121,-2.660828 0,-1.490064 0.49669,-2.696306 0.53217,-1.206242 1.41911,-2.057707 0.92242,-0.851465 2.16414,-1.312675 1.2772,-0.461211 2.73178,-0.461211 1.41911,0 2.62535,0.354777 1.20625,0.354778 2.02223,0.851466 l -0.99337,2.518917 q -0.74504,-0.496688 -1.63198,-0.745032 -0.85146,-0.283822 -1.80936,-0.283822 -1.73841,0 -2.80274,0.957899 -1.02885,0.92242 -1.02885,2.731783 0,0.993376 0.3193,1.738408 0.35477,0.745032 0.88694,1.348153 0.56764,0.603121 1.2772,1.099809 0.74503,0.496688 1.56102,1.028854 0.81598,0.532165 1.66745,1.170764 0.85146,0.638599 1.52554,1.490064 0.70955,0.815987 1.13529,1.951274 0.46121,1.099809 0.46121,2.625351 0,1.38363 -0.42574,2.62535 -0.42573,1.24172 -1.34815,2.199618 -0.88694,0.922421 -2.27057,1.490064 -1.34816,0.532166 -3.193,0.532166 -1.70293,0 -2.98012,-0.390255 -1.2772,-0.390255 -2.27058,-1.028854 l 0.99338,-2.554395 q 0.92242,0.567644 1.88032,0.922421 0.99337,0.319299 2.27057,0.319299 z"
       style="font-style:normal;font-variant:normal;font-weight:normal;font-stretch:normal;font-size:35.47771072px;line-height:0;font-family:'Ubuntu Condensed';-inkscape-font-specification:'Ubuntu Condensed, ';text-align:center;text-anchor:middle"
       id="path4974" />
    <path
       inkscape:connector-curvature="0"
       d="m 139.4394,106.09503 q 0.67408,-0.39026 1.38363,-0.9579 0.74503,-0.56764 1.41911,-1.20624 0.67408,-0.67408 1.24172,-1.34816 0.60312,-0.70955 0.99338,-1.38363 l 2.34152,0 0,24.58606 -3.05108,0 0,-19.76109 q -0.60312,0.6386 -1.41911,1.20624 -0.78051,0.56765 -1.66745,1.06433 z"
       style="font-style:normal;font-variant:normal;font-weight:normal;font-stretch:normal;font-size:35.47771072px;line-height:0;font-family:'Ubuntu Condensed';-inkscape-font-specification:'Ubuntu Condensed, ';text-align:center;text-anchor:middle"
       id="path4976" />
  </g>
  <path
     inkscape:connector-curvature="0"
     id="rect10-0"
     style="fill:#e3dbdb;fill-opacity:1;stroke:#000000;stroke-width:4.85630131;stroke-miterlimit:4;stroke-dasharray:none"
     d="m 820.91794,176.65444 74.81048,0 0,626.69112 -74.81048,0 0,-626.69112 z" />
  <g
     aria-label=" MS 2"
     transform="matrix(1.0950653,0,0,1.0950653,697.12082,127.25114)"
     style="font-style:normal;font-weight:normal;font-size:40px;line-height:1.25;font-family:sans-serif;letter-spacing:0px;word-spacing:0px;fill:#000000;fill-opacity:1;stroke:none"
     id="flowRoot12-6">
    <path
       inkscape:connector-curvature="0"
       d="m 139.58214,72.379296 q -0.70955,-2.554395 -1.45458,-4.895924 -0.74504,-2.341529 -1.45459,-4.399236 -0.67408,-2.093185 -1.31268,-3.796115 -0.63859,-1.70293 -1.17076,-2.980128 -0.14191,2.02223 -0.24834,4.470192 -0.071,2.412484 -0.17739,4.966879 -0.071,2.554395 -0.14191,5.144268 -0.0355,2.554395 -0.071,4.895924 l -3.05108,0 q 0.10643,-3.192994 0.21286,-6.421465 0.10644,-3.26395 0.24835,-6.385988 0.17739,-3.157517 0.35478,-6.137644 0.21286,-2.980128 0.46121,-5.640956 l 3.15751,0 q 0.6386,1.525541 1.45459,3.654204 0.81599,2.093185 1.63197,4.399236 0.85147,2.306051 1.63198,4.612102 0.78051,2.306052 1.34815,4.221848 0.56764,-1.915796 1.31268,-4.221848 0.74503,-2.306051 1.56102,-4.612102 0.81598,-2.306051 1.59649,-4.399236 0.81599,-2.128663 1.45459,-3.654204 l 3.15751,0 q 0.24835,2.660828 0.42574,5.640956 0.21286,2.980127 0.35477,6.137644 0.17739,3.122038 0.28383,6.385988 0.10643,3.228471 0.21286,6.421465 l -3.05108,0 q -0.071,-2.341529 -0.14191,-4.931402 -0.0355,-2.589872 -0.14191,-5.179745 -0.071,-2.625351 -0.17739,-5.073313 -0.10643,-2.48344 -0.24834,-4.541147 -0.3193,0.886943 -0.81599,2.235096 -0.46121,1.312675 -0.99338,2.873694 -0.49669,1.56102 -1.06433,3.228472 -0.53217,1.631975 -1.02885,3.157516 -0.46121,1.525542 -0.85147,2.80274 -0.35478,1.241719 -0.56764,2.022229 z"
       style="font-style:normal;font-variant:normal;font-weight:normal;font-stretch:normal;font-size:35.47771072px;line-height:0;font-family:'Ubuntu Condensed';-inkscape-font-specification:'Ubuntu Condensed, ';text-align:center;text-anchor:middle"
       id="path4979" />
    <path
       inkscape:connector-curvature="0"
       d="m 159.85987,73.585538 q 1.9158,0 2.94465,-1.064331 1.06433,-1.064331 1.06433,-2.873695 0,-0.957898 -0.3193,-1.70293 -0.3193,-0.745032 -0.85146,-1.348153 -0.49669,-0.603121 -1.17077,-1.099809 -0.67407,-0.496688 -1.38363,-0.993376 -0.81599,-0.567643 -1.70293,-1.206242 -0.88694,-0.638599 -1.63197,-1.490064 -0.70956,-0.851465 -1.17077,-1.986752 -0.46121,-1.135286 -0.46121,-2.660828 0,-1.490064 0.49669,-2.696306 0.53217,-1.206242 1.41911,-2.057707 0.92242,-0.851465 2.16414,-1.312675 1.2772,-0.461211 2.73178,-0.461211 1.41911,0 2.62535,0.354777 1.20625,0.354778 2.02223,0.851466 l -0.99337,2.518917 q -0.74504,-0.496688 -1.63198,-0.745032 -0.85146,-0.283822 -1.80936,-0.283822 -1.73841,0 -2.80274,0.957899 -1.02885,0.92242 -1.02885,2.731783 0,0.993376 0.3193,1.738408 0.35477,0.745032 0.88694,1.348153 0.56764,0.603121 1.2772,1.099809 0.74503,0.496688 1.56102,1.028854 0.81598,0.532165 1.66745,1.170764 0.85146,0.638599 1.52554,1.490064 0.70955,0.815987 1.13529,1.951274 0.46121,1.099809 0.46121,2.625351 0,1.38363 -0.42574,2.62535 -0.42573,1.24172 -1.34815,2.199618 -0.88694,0.922421 -2.27057,1.490064 -1.34816,0.532166 -3.193,0.532166 -1.70293,0 -2.98012,-0.390255 -1.2772,-0.390255 -2.27058,-1.028854 l 0.99338,-2.554395 q 0.92242,0.567644 1.88032,0.922421 0.99337,0.319299 2.27057,0.319299 z"
       style="font-style:normal;font-variant:normal;font-weight:normal;font-stretch:normal;font-size:35.47771072px;line-height:0;font-family:'Ubuntu Condensed';-inkscape-font-specification:'Ubuntu Condensed, ';text-align:center;text-anchor:middle"
       id="path4981" />
    <path
       inkscape:connector-curvature="0"
       d="m 138.51698,102.72464 q 2.09318,-2.09318 5.10879,-2.09318 2.87369,0 4.39924,1.52554 1.52554,1.49006 1.52554,4.68306 0,1.49006 -0.49669,2.83822 -0.49669,1.34815 -1.24172,2.62535 -0.74503,1.24172 -1.63197,2.48344 -0.88695,1.24172 -1.70293,2.55439 -0.81599,1.2772 -1.41911,2.69631 -0.60312,1.38363 -0.74504,2.98012 l 7.73415,0 0,2.76727 -10.99809,0 0,-0.67408 q 0,-2.37701 0.53216,-4.22185 0.56764,-1.84484 1.34815,-3.3349 0.81599,-1.49007 1.77389,-2.76726 0.9579,-1.2772 1.73841,-2.48344 0.81598,-1.24172 1.34815,-2.51892 0.56764,-1.31268 0.56764,-2.8737 0,-1.88031 -0.74503,-2.6963 -0.74503,-0.85147 -2.23509,-0.85147 -1.02886,0 -1.88032,0.42574 -0.81599,0.39025 -1.49007,1.02885 z"
       style="font-style:normal;font-variant:normal;font-weight:normal;font-stretch:normal;font-size:35.47771072px;line-height:0;font-family:'Ubuntu Condensed';-inkscape-font-specification:'Ubuntu Condensed, ';text-align:center;text-anchor:middle"
       id="path4983" />
  </g>
  <path
     inkscape:connector-curvature="0"
     id="rect10-8-6-6"
     style="fill:#d5d5ff;stroke:#000000;stroke-width:4.85630131;fill-opacity:1"
     d="m 772.3558,302.91819 74.81053,0 0,402.95432 -74.81053,0 0,-402.95432 z" />
  <path
     inkscape:connector-curvature="0"
     id="rect10-8-3-7-1"
     style="fill:#d5d5ff;stroke:#000000;stroke-width:4.85630131;fill-opacity:1"
     d="m 760.49703,302.91819 101.45266,0 0,98.13067 -101.45266,0 0,-98.13067 z" />
  <g
     aria-label="MS"
     transform="matrix(4.8563015,0,0,4.8563015,-73.45153,278.16318)"
     style="font-style:normal;font-variant:normal;font-weight:normal;font-stretch:normal;font-size:8px;line-height:1.25;font-family:'Ubuntu Condensed';-inkscape-font-specification:'Ubuntu Condensed, ';text-align:center;letter-spacing:0px;word-spacing:0px;text-anchor:middle;fill:#000000;fill-opacity:1;stroke:none"
     id="flowRoot561-5">
    <path
       inkscape:connector-curvature="0"
       d="m 179.60977,11.916547 q -0.16,-0.576 -0.328,-1.104 -0.168,-0.528 -0.328,-0.9920001 -0.152,-0.472 -0.296,-0.856 -0.144,-0.384 -0.264,-0.672 -0.032,0.456 -0.056,1.008 -0.016,0.544 -0.04,1.1200001 -0.016,0.576 -0.032,1.16 -0.008,0.576 -0.016,1.104 l -0.688,0 q 0.024,-0.72 0.048,-1.448 0.024,-0.736 0.056,-1.4400001 0.04,-0.712 0.08,-1.384 0.048,-0.672 0.104,-1.272 l 0.712,0 q 0.144,0.344 0.328,0.824 0.184,0.472 0.368,0.992 0.192,0.52 0.368,1.04 0.176,0.5200001 0.304,0.9520001 0.128,-0.432 0.296,-0.9520001 0.168,-0.52 0.352,-1.04 0.184,-0.52 0.36,-0.992 0.184,-0.48 0.328,-0.824 l 0.712,0 q 0.056,0.6 0.096,1.272 0.048,0.672 0.08,1.384 0.04,0.7040001 0.064,1.4400001 0.024,0.728 0.048,1.448 l -0.688,0 q -0.016,-0.528 -0.032,-1.112 -0.008,-0.584 -0.032,-1.168 -0.016,-0.5920001 -0.04,-1.1440001 -0.024,-0.56 -0.056,-1.024 -0.072,0.2 -0.184,0.504 -0.104,0.296 -0.224,0.648 -0.112,0.352 -0.24,0.7280001 -0.12,0.368 -0.232,0.712 -0.104,0.344 -0.192,0.632 -0.08,0.28 -0.128,0.456 z"
       id="path745" />
    <path
       inkscape:connector-curvature="0"
       d="m 184.18227,12.188547 q 0.432,0 0.664,-0.24 0.24,-0.24 0.24,-0.648 0,-0.216 -0.072,-0.384 -0.072,-0.168 -0.192,-0.304 -0.112,-0.136 -0.264,-0.248 -0.152,-0.112 -0.312,-0.224 -0.184,-0.128 -0.384,-0.2720001 -0.2,-0.144 -0.368,-0.336 -0.16,-0.192 -0.264,-0.448 -0.104,-0.256 -0.104,-0.6 0,-0.336 0.112,-0.608 0.12,-0.272 0.32,-0.464 0.208,-0.192 0.488,-0.296 0.288,-0.104 0.616,-0.104 0.32,0 0.592,0.08 0.272,0.08 0.456,0.192 l -0.224,0.568 q -0.168,-0.112 -0.368,-0.168 -0.192,-0.064 -0.408,-0.064 -0.392,0 -0.632,0.216 -0.232,0.208 -0.232,0.616 0,0.224 0.072,0.392 0.08,0.168 0.2,0.304 0.128,0.136 0.288,0.248 0.168,0.112 0.352,0.232 0.184,0.12 0.376,0.264 0.192,0.1440001 0.344,0.3360001 0.16,0.184 0.256,0.44 0.104,0.248 0.104,0.592 0,0.312 -0.096,0.592 -0.096,0.28 -0.304,0.496 -0.2,0.208 -0.512,0.336 -0.304,0.12 -0.72,0.12 -0.384,0 -0.672,-0.088 -0.288,-0.088 -0.512,-0.232 l 0.224,-0.576 q 0.208,0.128 0.424,0.208 0.224,0.072 0.512,0.072 z"
       id="path747" />
  </g>
  <g
     aria-label=" kafka consumer"
     transform="matrix(4.8563015,0,0,4.8563015,-70.322414,301.84834)"
     style="font-style:normal;font-variant:normal;font-weight:normal;font-stretch:normal;font-size:8px;line-height:40.0000006%;font-family:'Ubuntu Condensed';-inkscape-font-specification:'Ubuntu Condensed, ';text-align:center;letter-spacing:0px;word-spacing:0px;text-anchor:middle;fill:#000000;fill-opacity:1;stroke:none"
     id="flowRoot561-1-6">
    <path
       inkscape:connector-curvature="0"
       d="m 178.25545,9.6845467 q -0.224,0.3840003 -0.432,0.7040003 -0.20266,0.314666 -0.40533,0.592 0.128,0.149333 0.26133,0.336 0.13334,0.186666 0.256,0.389333 0.12267,0.197333 0.22934,0.4 0.10666,0.197333 0.18133,0.378667 l -0.50133,0 q -0.08,-0.176 -0.18667,-0.368 -0.10667,-0.192 -0.224,-0.373334 -0.11733,-0.186666 -0.23467,-0.352 -0.11733,-0.165333 -0.21866,-0.277333 l 0,1.370667 -0.45867,0 0,-4.058667 0.45867,-0.08 0,2.544 q 0.096,-0.128 0.20266,-0.288 0.112,-0.16 0.21867,-0.32 0.10667,-0.165333 0.20267,-0.32 0.096,-0.1546666 0.16,-0.2773333 z"
       id="path718" />
    <path
       inkscape:connector-curvature="0"
       d="m 178.84604,9.7432134 q 0.13866,-0.058667 0.29333,-0.090667 0.15467,-0.037333 0.336,-0.037333 0.37333,0 0.608,0.2346666 0.23467,0.229333 0.23467,0.72 l 0,1.856 q -0.192,0.05333 -0.39467,0.08533 -0.19733,0.032 -0.38933,0.032 -0.192,0 -0.36267,-0.048 -0.16533,-0.048 -0.29333,-0.154666 -0.12267,-0.106667 -0.19734,-0.266667 -0.0747,-0.165333 -0.0747,-0.4 0,-0.218667 0.064,-0.378667 0.0693,-0.165333 0.18666,-0.272 0.11734,-0.112 0.27734,-0.165333 0.16,-0.05867 0.34666,-0.05867 0.176,0 0.38934,0.04267 l 0,-0.256 q 0,-0.309333 -0.12267,-0.432 Q 179.63,10.03121 179.406,10.03121 q -0.12267,0 -0.23467,0.02667 -0.10667,0.02133 -0.22933,0.07467 z m 0.21866,1.9253336 q 0,0.245333 0.128,0.362666 0.128,0.117334 0.36267,0.117334 0.144,0 0.31467,-0.03733 l 0,-0.890666 q -0.16,-0.04267 -0.31467,-0.04267 -0.10133,0 -0.192,0.02667 -0.0907,0.02133 -0.16,0.08 -0.064,0.05333 -0.10133,0.149333 -0.0373,0.09067 -0.0373,0.234667 z"
       style="font-size:5.33333349px;line-height:40.0000006%"
       id="path720" />
    <path
       inkscape:connector-curvature="0"
       d="m 181.93187,8.34588 q 0.15467,0 0.272,0.032 0.11733,0.032 0.192,0.069333 l -0.096,0.3626667 q -0.0747,-0.037333 -0.15467,-0.053333 -0.08,-0.021333 -0.17066,-0.021333 -0.12267,0 -0.20267,0.042667 -0.08,0.042667 -0.12267,0.1173333 -0.0427,0.074667 -0.0587,0.1813334 -0.016,0.1013333 -0.016,0.2186666 l 0,0.3893334 0.72,0 0,0.3946666 -0.72,0 0,2.405334 -0.45867,0 0,-3.1893347 q 0,-0.4533333 0.20267,-0.6986666 0.2027,-0.2506667 0.61337,-0.2506667 z"
       style="font-size:5.33333349px;line-height:40.0000006%"
       id="path722" />
    <path
       inkscape:connector-curvature="0"
       d="m 184.48462,9.6845467 q -0.224,0.3840003 -0.432,0.7040003 -0.20267,0.314666 -0.40533,0.592 0.128,0.149333 0.26133,0.336 0.13333,0.186666 0.256,0.389333 0.12267,0.197333 0.22933,0.4 0.10667,0.197333 0.18134,0.378667 l -0.50134,0 q -0.08,-0.176 -0.18666,-0.368 -0.10667,-0.192 -0.224,-0.373334 -0.11734,-0.186666 -0.23467,-0.352 -0.11733,-0.165333 -0.21867,-0.277333 l 0,1.370667 -0.45866,0 0,-4.058667 0.45866,-0.08 0,2.544 q 0.096,-0.128 0.20267,-0.288 0.112,-0.16 0.21867,-0.32 0.10666,-0.165333 0.20266,-0.32 0.096,-0.1546666 0.16,-0.2773333 z"
       style="font-size:5.33333349px;line-height:40.0000006%"
       id="path724" />
    <path
       inkscape:connector-curvature="0"
       d="m 185.0752,9.7432134 q 0.13867,-0.058667 0.29334,-0.090667 0.15466,-0.037333 0.336,-0.037333 0.37333,0 0.608,0.2346666 0.23466,0.229333 0.23466,0.72 l 0,1.856 q -0.192,0.05333 -0.39466,0.08533 -0.19734,0.032 -0.38934,0.032 -0.192,0 -0.36266,-0.048 -0.16534,-0.048 -0.29334,-0.154666 -0.12266,-0.106667 -0.19733,-0.266667 -0.0747,-0.165333 -0.0747,-0.4 0,-0.218667 0.064,-0.378667 0.0693,-0.165333 0.18667,-0.272 0.11733,-0.112 0.27733,-0.165333 0.16,-0.05867 0.34667,-0.05867 0.176,0 0.38933,0.04267 l 0,-0.256 q 0,-0.309333 -0.12266,-0.432 -0.11734,-0.122667 -0.34134,-0.122667 -0.12266,0 -0.23466,0.02667 -0.10667,0.02133 -0.22934,0.07467 z m 0.21867,1.9253336 q 0,0.245333 0.128,0.362666 0.128,0.117334 0.36267,0.117334 0.144,0 0.31466,-0.03733 l 0,-0.890666 q -0.16,-0.04267 -0.31466,-0.04267 -0.10134,0 -0.192,0.02667 -0.0907,0.02133 -0.16,0.08 -0.064,0.05333 -0.10134,0.149333 -0.0373,0.09067 -0.0373,0.234667 z"
       style="font-size:5.33333349px;line-height:40.0000006%"
       id="path726" />
    <path
       inkscape:connector-curvature="0"
       d="m 173.25045,16.040526 q -0.288,0 -0.48,-0.112 -0.192,-0.112 -0.31466,-0.304 -0.11734,-0.197334 -0.17067,-0.464 -0.048,-0.266667 -0.048,-0.581334 0,-0.693333 0.25067,-1.082666 0.256,-0.394667 0.768,-0.394667 0.15466,0 0.27733,0.03733 0.12267,0.03733 0.22933,0.096 l -0.11733,0.378667 q -0.16533,-0.106667 -0.368,-0.106667 -0.288,0 -0.42667,0.261334 -0.13333,0.261333 -0.13333,0.810666 0,0.229334 0.0267,0.426667 0.0267,0.192 0.0907,0.330667 0.0693,0.138666 0.176,0.218666 0.112,0.08 0.28267,0.08 0.11733,0 0.208,-0.02667 0.096,-0.032 0.18133,-0.08 l 0.10134,0.357333 q -0.0853,0.05867 -0.22934,0.106667 -0.13866,0.048 -0.304,0.048 z"
       style="font-size:5.33333349px;line-height:40.0000006%"
       id="path728" />
    <path
       inkscape:connector-curvature="0"
       d="m 176.04862,14.573859 q 0,0.330667 -0.0587,0.602667 -0.0587,0.266666 -0.18133,0.458666 -0.11733,0.192 -0.304,0.298667 -0.18133,0.106667 -0.432,0.106667 -0.25067,0 -0.43733,-0.106667 -0.18667,-0.106667 -0.30934,-0.298667 -0.11733,-0.192 -0.176,-0.458666 -0.0587,-0.272 -0.0587,-0.602667 0,-0.325333 0.0587,-0.597333 0.0587,-0.272 0.176,-0.464 0.12267,-0.197334 0.30934,-0.304 0.18666,-0.106667 0.43733,-0.106667 0.25067,0 0.432,0.106667 0.18667,0.106666 0.304,0.304 0.12267,0.192 0.18133,0.464 0.0587,0.272 0.0587,0.597333 z m -0.48,0 q 0,-0.234667 -0.0267,-0.426667 -0.0267,-0.197333 -0.0853,-0.336 -0.0587,-0.144 -0.15467,-0.218666 -0.096,-0.08 -0.22933,-0.08 -0.13867,0 -0.23467,0.08 -0.0907,0.07467 -0.15466,0.218666 -0.0587,0.138667 -0.0853,0.336 -0.0267,0.192 -0.0267,0.426667 0,0.234667 0.0267,0.432 0.0267,0.192 0.0853,0.330667 0.064,0.138666 0.15466,0.218666 0.096,0.07467 0.23467,0.07467 0.13333,0 0.22933,-0.07467 0.096,-0.08 0.15467,-0.218666 0.0587,-0.138667 0.0853,-0.330667 0.0267,-0.197333 0.0267,-0.432 z"
       style="font-size:5.33333349px;line-height:40.0000006%"
       id="path730" />
    <path
       inkscape:connector-curvature="0"
       d="m 176.72004,13.251192 q 0.19733,-0.05867 0.42666,-0.096 0.22934,-0.04267 0.42134,-0.04267 0.208,0 0.37866,0.05867 0.17067,0.05333 0.288,0.186667 0.12267,0.133333 0.18667,0.362667 0.0693,0.224 0.0693,0.56 l 0,1.690666 -0.45866,0 0,-1.653333 q 0,-0.416 -0.10667,-0.608 -0.10667,-0.192 -0.4,-0.192 -0.15467,0 -0.34667,0.05333 l 0,2.4 -0.45866,0 z"
       style="font-size:5.33333349px;line-height:40.0000006%"
       id="path732" />
    <path
       inkscape:connector-curvature="0"
       d="m 179.68229,15.645859 q 0.20266,0 0.304,-0.112 0.10666,-0.117333 0.10666,-0.304 0,-0.117333 -0.0427,-0.197333 -0.0427,-0.08533 -0.112,-0.149334 -0.0693,-0.064 -0.16,-0.112 -0.0907,-0.05333 -0.18134,-0.112 -0.0907,-0.05333 -0.176,-0.122666 -0.0853,-0.07467 -0.15466,-0.165334 -0.064,-0.096 -0.10667,-0.213333 -0.0373,-0.122667 -0.0373,-0.282667 0,-0.346666 0.21333,-0.56 0.21867,-0.213333 0.58667,-0.213333 0.15466,0 0.29333,0.04267 0.13867,0.03733 0.22933,0.08533 l -0.10133,0.368 q -0.096,-0.05333 -0.192,-0.08 -0.096,-0.02667 -0.208,-0.02667 -0.17067,0 -0.272,0.101334 -0.10133,0.096 -0.10133,0.282666 0,0.106667 0.0373,0.186667 0.0373,0.07467 0.096,0.138667 0.064,0.05867 0.13867,0.112 0.08,0.05333 0.16533,0.101333 0.10133,0.05867 0.19733,0.128 0.10134,0.06933 0.176,0.165333 0.08,0.09067 0.128,0.218667 0.048,0.122667 0.048,0.298667 0,0.368 -0.21866,0.592 -0.21334,0.224 -0.62934,0.224 -0.21333,0 -0.384,-0.05867 -0.17066,-0.05867 -0.256,-0.106667 l 0.096,-0.378666 q 0.08,0.04267 0.21334,0.096 0.13866,0.05333 0.304,0.05333 z"
       style="font-size:5.33333349px;line-height:40.0000006%"
       id="path734" />
    <path
       inkscape:connector-curvature="0"
       d="m 182.8492,15.891192 q -0.0693,0.02667 -0.17066,0.05333 -0.096,0.02133 -0.208,0.03733 -0.10667,0.02133 -0.21867,0.032 -0.10667,0.016 -0.19733,0.016 -0.21867,0 -0.4,-0.05333 -0.18134,-0.048 -0.30934,-0.176 -0.128,-0.128 -0.19733,-0.346667 -0.0693,-0.224 -0.0693,-0.56 l 0,-1.722667 0.45866,0 0,1.706667 q 0,0.410667 0.12267,0.581333 0.128,0.165334 0.384,0.165334 0.0853,0 0.17067,-0.0053 0.0853,-0.01067 0.176,-0.03733 l 0,-2.410667 0.45866,0 z"
       style="font-size:5.33333349px;line-height:40.0000006%"
       id="path736" />
    <path
       inkscape:connector-curvature="0"
       d="m 183.67837,13.251192 q 0.18667,-0.05867 0.40533,-0.096 0.21867,-0.04267 0.4,-0.04267 0.18667,0 0.336,0.048 0.15467,0.048 0.272,0.16 0.13867,-0.09067 0.29867,-0.149334 0.16,-0.05867 0.352,-0.05867 0.192,0 0.34667,0.05867 0.16,0.05333 0.272,0.186667 0.112,0.133333 0.176,0.362667 0.064,0.224 0.064,0.56 l 0,1.690666 -0.45867,0 0,-1.653333 q 0,-0.416 -0.096,-0.608 -0.096,-0.192 -0.36267,-0.192 -0.10133,0 -0.208,0.03733 -0.10133,0.03733 -0.192,0.101334 0.0427,0.122666 0.064,0.277333 0.0213,0.154667 0.0213,0.346667 l 0,1.690666 -0.45867,0 0,-1.653333 q 0,-0.416 -0.096,-0.608 -0.096,-0.192 -0.36267,-0.192 -0.13866,0 -0.31466,0.05333 l 0,2.4 -0.45867,0 z"
       style="font-size:5.33333349px;line-height:40.0000006%"
       id="path738" />
    <path
       inkscape:connector-curvature="0"
       d="m 187.71179,14.707192 q 0.005,0.202667 0.0373,0.373334 0.032,0.165333 0.10133,0.293333 0.0747,0.122667 0.192,0.192 0.12267,0.06933 0.30934,0.06933 0.15466,0 0.28266,-0.04267 0.13334,-0.048 0.192,-0.08 l 0.0853,0.368 q -0.0693,0.048 -0.23467,0.101333 -0.16,0.05867 -0.384,0.05867 -0.29333,0 -0.496,-0.106667 -0.19733,-0.106667 -0.32533,-0.298667 -0.12267,-0.192 -0.176,-0.458666 -0.0533,-0.266667 -0.0533,-0.586667 0,-0.773333 0.256,-1.130667 0.256,-0.357333 0.67734,-0.357333 0.47466,0 0.672,0.357333 0.19733,0.357334 0.19733,1.002667 0,0.05867 0,0.122667 0,0.05867 -0.005,0.122666 z m 0.464,-1.216 q -0.22934,0 -0.336,0.229334 -0.10134,0.229333 -0.12267,0.613333 l 0.848,0 q 0,-0.389333 -0.08,-0.613333 -0.08,-0.229334 -0.30933,-0.229334 z"
       style="font-size:5.33333349px;line-height:40.0000006%"
       id="path740" />
    <path
       inkscape:connector-curvature="0"
       d="m 190.9307,13.587192 q -0.17066,-0.07467 -0.384,-0.07467 -0.19733,0 -0.368,0.06933 l 0,2.389333 -0.45866,0 0,-2.677333 q 0.15466,-0.07467 0.352,-0.122667 0.20266,-0.05333 0.44266,-0.05333 0.128,0 0.256,0.016 0.128,0.016 0.24,0.05867 z"
       style="font-size:5.33333349px;line-height:40.0000006%"
       id="path742" />
  </g>
  <path
     inkscape:connector-curvature="0"
     style="fill:none;stroke:#ff00ff;stroke-width:7;stroke-linecap:butt;stroke-linejoin:miter;stroke-miterlimit:4;stroke-dasharray:none;stroke-opacity:1;marker-end:url(#Arrow1Mend-4)"
     d="m 787.88927,433.62702 c -54.01819,-25.1397 -88.71146,-20.02207 -129.47245,0"
     id="path5802-9" />
  <path
     inkscape:connector-curvature="0"
     style="fill:none;stroke:#00ff00;stroke-width:7;stroke-linecap:butt;stroke-linejoin:miter;stroke-miterlimit:4;stroke-dasharray:none;stroke-opacity:1;marker-end:url(#Arrow1Mend-4-0)"
     d="m 786.81617,458.76824 c -54.01819,-25.1397 -88.71144,-20.02207 -129.47245,0"
     id="path5802-9-8" />
  <path
     inkscape:connector-curvature="0"
     id="path790"
     style="font-style:normal;font-variant:normal;font-weight:normal;font-stretch:normal;font-size:8px;line-height:1.25;font-family:'Ubuntu Condensed';-inkscape-font-specification:'Ubuntu Condensed, ';letter-spacing:0px;word-spacing:0px;fill:#000000;fill-opacity:1;stroke:none;stroke-width:0.26458332"
     d="m 635.87997,210.45801 q -0.85477,1.32092 -1.94253,2.91378 -1.04896,1.59286 -2.17562,3.30229 -1.1266,1.67057 -2.29216,3.30228 -1.1266,1.63172 -2.17564,3.03034 1.16551,1.16551 2.52529,2.95263 1.3597,1.74826 2.68068,3.72963 1.32097,1.94253 2.48641,3.96275 1.16551,2.02022 1.86482,3.72964 l -3.92388,0 q -0.81586,-1.78713 -1.90368,-3.65194 -1.04896,-1.86482 -2.25331,-3.57424 -1.16551,-1.74827 -2.40874,-3.22458 -1.20442,-1.47631 -2.36986,-2.48643 l 0,12.93719 -3.49654,0 0,-26.92334 3.49654,0 0,11.88823 q 1.01005,-1.28207 2.13676,-2.91378 1.1266,-1.63172 2.21447,-3.26344 1.1266,-1.63172 2.09792,-3.10803 0.97133,-1.51517 1.63172,-2.60298 z" />
  <path
     inkscape:connector-curvature="0"
     id="path792"
     style="font-style:normal;font-variant:normal;font-weight:normal;font-stretch:normal;font-size:8px;line-height:1.25;font-family:'Ubuntu Condensed';-inkscape-font-specification:'Ubuntu Condensed, ';letter-spacing:0px;word-spacing:0px;fill:#000000;fill-opacity:1;stroke:none;stroke-width:0.26458332"
     d="m 640.22576,217.41224 q 1.01005,-0.42735 2.13676,-0.66045 1.1266,-0.27196 2.44757,-0.27196 2.71954,0 4.42895,1.70941 1.70936,1.67057 1.70936,5.2448 l 0,13.51995 q -1.39862,0.38851 -2.87495,0.62161 -1.43752,0.2331 -2.83606,0.2331 -1.39862,0 -2.64184,-0.34965 -1.20443,-0.34966 -2.13676,-1.12666 -0.8935,-0.777 -1.43753,-1.94252 -0.54385,-1.20437 -0.54385,-2.91378 0,-1.59286 0.46621,-2.75838 0.50512,-1.20437 1.3597,-1.98137 0.85477,-0.81586 2.02023,-1.20437 1.16551,-0.42735 2.52527,-0.42735 1.28206,0 2.83609,0.3108 l 0,-1.86482 q 0,-2.25332 -0.8935,-3.14688 -0.85477,-0.89355 -2.48642,-0.89355 -0.89349,0 -1.70935,0.19424 -0.77695,0.15546 -1.67063,0.5439 z m 1.5928,14.02499 q 0,1.78713 0.93241,2.64183 0.93241,0.85472 2.64182,0.85472 1.04897,0 2.29219,-0.27196 l 0,-6.48802 q -1.16551,-0.3108 -2.29219,-0.3108 -0.73821,0 -1.39861,0.19425 -0.6604,0.15546 -1.16551,0.58275 -0.46621,0.38851 -0.73822,1.08782 -0.27202,0.66045 -0.27202,1.70941 z" />
  <path
     inkscape:connector-curvature="0"
     id="path794"
     style="font-style:normal;font-variant:normal;font-weight:normal;font-stretch:normal;font-size:8px;line-height:1.25;font-family:'Ubuntu Condensed';-inkscape-font-specification:'Ubuntu Condensed, ';letter-spacing:0px;word-spacing:0px;fill:#000000;fill-opacity:1;stroke:none;stroke-width:0.26458332"
     d="m 662.70436,207.23343 q 1.1266,0 1.98137,0.2331 0.85477,0.2331 1.39862,0.50506 l -0.69931,2.64183 q -0.54385,-0.27196 -1.1266,-0.38851 -0.58276,-0.15546 -1.24315,-0.15546 -0.8935,0 -1.47626,0.31079 -0.58276,0.3108 -0.8935,0.85472 -0.31074,0.5439 -0.42729,1.32092 -0.11747,0.73816 -0.11747,1.59286 l 0,2.83608 5.24481,0 0,2.87493 -5.24481,0 0,17.5216 -3.34052,0 0,-23.23255 q 0,-3.30228 1.47625,-5.0894 1.47626,-1.82597 4.4678,-1.82597 z" />
  <path
     inkscape:connector-curvature="0"
     id="path796"
     style="font-style:normal;font-variant:normal;font-weight:normal;font-stretch:normal;font-size:8px;line-height:1.25;font-family:'Ubuntu Condensed';-inkscape-font-specification:'Ubuntu Condensed, ';letter-spacing:0px;word-spacing:0px;fill:#000000;fill-opacity:1;stroke:none;stroke-width:0.26458332"
     d="m 681.29973,216.98488 q -1.63171,2.79723 -3.14688,5.12825 -1.47625,2.29218 -2.95262,4.3124 0.93241,1.08782 1.90366,2.44758 0.97132,1.35975 1.86482,2.83608 0.8935,1.43747 1.67063,2.91378 0.77694,1.43747 1.32097,2.75838 l -3.65194,0 q -0.58276,-1.28207 -1.35971,-2.68068 -0.77694,-1.39862 -1.63171,-2.71953 -0.85477,-1.35976 -1.70936,-2.56413 -0.85477,-1.20437 -1.59281,-2.02022 l 0,9.98456 -3.34142,0 0,-29.56517 3.34113,-0.58275 0,18.53164 q 0.69931,-0.93241 1.47626,-2.09792 0.81585,-1.16551 1.5928,-2.33102 0.77695,-1.20437 1.47626,-2.33103 0.6993,-1.12665 1.16551,-2.02022 z" />
  <path
     inkscape:connector-curvature="0"
     id="path798"
     style="font-style:normal;font-variant:normal;font-weight:normal;font-stretch:normal;font-size:8px;line-height:1.25;font-family:'Ubuntu Condensed';-inkscape-font-specification:'Ubuntu Condensed, ';letter-spacing:0px;word-spacing:0px;fill:#000000;fill-opacity:1;stroke:none;stroke-width:0.26458332"
     d="m 685.60181,217.41224 q 1.01005,-0.42735 2.13678,-0.66045 1.1266,-0.27196 2.44758,-0.27196 2.71953,0 4.42894,1.70941 1.70936,1.67057 1.70936,5.2448 l 0,13.51995 q -1.39861,0.38851 -2.87492,0.62161 -1.43753,0.2331 -2.83609,0.2331 -1.39861,0 -2.64182,-0.34965 -1.20442,-0.34966 -2.13678,-1.12666 -0.8935,-0.777 -1.43753,-1.94252 -0.54384,-1.20437 -0.54384,-2.91378 0,-1.59286 0.4662,-2.75838 0.50512,-1.20437 1.35971,-1.98137 0.85477,-0.81586 2.02021,-1.20437 1.16551,-0.42735 2.52529,-0.42735 1.28206,0 2.83606,0.3108 l 0,-1.86482 q 0,-2.25332 -0.89349,-3.14688 -0.85477,-0.89355 -2.48644,-0.89355 -0.8935,0 -1.70935,0.19424 -0.77695,0.15546 -1.67063,0.5439 z m 1.59281,14.02499 q 0,1.78713 0.93241,2.64183 0.93241,0.85472 2.64182,0.85472 1.04896,0 2.29217,-0.27196 l 0,-6.48802 q -1.16551,-0.3108 -2.29217,-0.3108 -0.73822,0 -1.39861,0.19425 -0.6604,0.15546 -1.16552,0.58275 -0.4662,0.38851 -0.73822,1.08782 -0.27201,0.66045 -0.27201,1.70941 z" />
  <path
     inkscape:connector-curvature="0"
     style="font-style:normal;font-weight:normal;font-size:medium;line-height:1.25;font-family:sans-serif;letter-spacing:0px;word-spacing:0px;fill:#b3ff80;fill-opacity:1;stroke:#000000;stroke-width:4.85630131"
     id="rect10-8-2"
     d="m 451.83917,176.65442 74.81047,0 0,626.6911 -74.81047,0 0,-626.6911 z" />
  <path
     inkscape:connector-curvature="0"
     style="font-style:normal;font-weight:normal;font-size:medium;line-height:1.25;font-family:sans-serif;letter-spacing:0px;word-spacing:0px;fill:#b3ff80;fill-opacity:1;stroke:#000000;stroke-width:4.85630131;stroke-miterlimit:4;stroke-dasharray:none"
     id="rect10-8-3-2"
     d="m 400.26787,176.65442 180.87768,0 0,98.13067 -180.87768,0 0,-98.13067 z" />
  <path
     inkscape:connector-curvature="0"
     id="rect10-8-9"
     style="fill:#dde9af;stroke:#000000;stroke-width:4.85630131"
     d="m 247.87447,176.65442 74.81048,0 0,626.6911 -74.81048,0 0,-626.6911 z" />
  <path
     inkscape:connector-curvature="0"
     id="path5768"
     d="m 115.91858,308.35074 77.38778,0 0,48.74285 109.66994,0 -0.0146,37.85953 -108.66474,0.54293 0,72.06406 108.33166,0.55945 0.34671,44.47439 -109.44006,0 0,40.732 -77.61412,0"
     style="font-style:normal;font-weight:normal;font-size:medium;line-height:1.25;font-family:sans-serif;letter-spacing:0px;word-spacing:0px;fill:none;fill-opacity:1;stroke:#ff0000;stroke-width:11.01271534;stroke-linecap:butt;stroke-linejoin:miter;stroke-miterlimit:4;stroke-dasharray:none;stroke-opacity:1" />
  <path
     inkscape:connector-curvature="0"
     id="rect10-8-3-1"
     style="fill:#dde9af;stroke:#000000;stroke-width:4.85630131;stroke-miterlimit:4;stroke-dasharray:none"
     d="m 218.80168,176.65442 135.88062,0 0,98.13067 -135.88062,0 0,-98.13067 z" />
  <g
     aria-label="RDBS"
     transform="matrix(4.8563015,0,0,4.8563015,132.56203,-20.686994)"
     style="font-style:normal;font-weight:normal;font-size:40px;line-height:1.25;font-family:sans-serif;letter-spacing:0px;word-spacing:0px;fill:#000000;fill-opacity:1;stroke:none"
     id="flowRoot1181">
    <path
       inkscape:connector-curvature="0"
       d="m 24.211062,43.032094 q 0.56,-0.136 1.08,-0.136 0.416,0 0.752001,0.096 0.335999,0.096 0.575999,0.304 0.24,0.208 0.368,0.536 0.136,0.328 0.136,0.792 0,0.576 -0.224,0.936 -0.216,0.352 -0.592,0.536 0.096,0.16 0.24,0.44 0.152,0.272 0.304,0.608 0.160001,0.328 0.304,0.68 0.152,0.352 0.256,0.672 l -0.72,0 q -0.088,-0.24 -0.224,-0.544 -0.128,-0.304 -0.272,-0.6 -0.144,-0.304 -0.288,-0.576 -0.144,-0.28 -0.255999,-0.472 -0.128,0.016 -0.264001,0.024 -0.136,0.008 -0.272,0.008 l -0.2,0 0,2.16 -0.704,0 z m 0.704,2.712 0.304,0 q 0.552,0 0.848,-0.248 0.296,-0.256 0.296,-0.872 0,-0.312 -0.08,-0.52 -0.072,-0.216 -0.216,-0.336 -0.136,-0.128 -0.336,-0.184 -0.192,-0.056 -0.431999,-0.056 -0.208001,0 -0.384001,0.024 z"
       style="font-style:normal;font-variant:normal;font-weight:normal;font-stretch:normal;font-size:8px;font-family:'Ubuntu Condensed';-inkscape-font-specification:'Ubuntu Condensed, '"
       id="path1278" />
    <path
       inkscape:connector-curvature="0"
       d="m 31.816437,45.720094 q 0,0.776 -0.168,1.32 -0.16,0.536 -0.472,0.872 -0.304,0.336 -0.744,0.488 -0.432,0.152 -0.968,0.152 -0.544,0 -1.151999,-0.144 l 0,-5.376 q 0.303999,-0.064 0.591999,-0.104 0.288,-0.04 0.552,-0.04 0.544,0 0.976,0.152 0.44,0.152 0.744,0.488 0.312,0.336 0.472,0.88 0.168,0.536 0.168,1.312 z m -0.768,0 q 0,-0.592 -0.088,-1.008 -0.088,-0.416 -0.272,-0.68 -0.183999,-0.264 -0.488,-0.384 -0.296,-0.12 -0.712,-0.12 -0.111999,0 -0.224,0.008 -0.111999,0.008 -0.232,0.024 l 0,4.32 q 0.120001,0.016 0.232,0.024 0.112001,0.008 0.216,0.008 0.424,0 0.72,-0.12 0.296,-0.12 0.48,-0.376 0.192,-0.264 0.28,-0.68 0.088,-0.416 0.088,-1.016 z"
       style="font-style:normal;font-variant:normal;font-weight:normal;font-stretch:normal;font-size:8px;font-family:'Ubuntu Condensed';-inkscape-font-specification:'Ubuntu Condensed, '"
       id="path1280" />
    <path
       inkscape:connector-curvature="0"
       d="m 33.649813,45.312094 0.495999,0 q 0.992001,0 0.992001,-0.896 0,-0.28 -0.088,-0.456 -0.08,-0.184 -0.216001,-0.28 -0.136,-0.104 -0.32,-0.144 -0.176,-0.04 -0.375999,-0.04 -0.120001,0 -0.248001,0.008 -0.12,0.008 -0.239999,0.024 z m 0,0.576 0,2 q 0.151999,0.024 0.296,0.04 0.152,0.016 0.296,0.016 0.223999,0 0.423999,-0.048 0.2,-0.048 0.344001,-0.16 0.151999,-0.112 0.232,-0.304 0.088,-0.2 0.088,-0.488 0,-0.496 -0.272001,-0.776 -0.263999,-0.28 -0.831999,-0.28 z m -0.720001,-2.856 q 0.28,-0.064 0.568001,-0.096 0.296,-0.04 0.583999,-0.04 0.36,0 0.68,0.072 0.328,0.064 0.576,0.232 0.248001,0.16 0.392001,0.432 0.152,0.264 0.152,0.664 0,0.496 -0.208001,0.816 -0.208,0.312 -0.535999,0.464 0.407999,0.16 0.671999,0.488 0.264001,0.328 0.264001,0.904 0,0.432 -0.144001,0.728 -0.135999,0.296 -0.392,0.488 -0.256,0.184 -0.615999,0.272 -0.352001,0.08 -0.776001,0.08 -0.28,0 -0.583999,-0.032 -0.304001,-0.032 -0.632001,-0.096 z"
       style="font-style:normal;font-variant:normal;font-weight:normal;font-stretch:normal;font-size:8px;font-family:'Ubuntu Condensed';-inkscape-font-specification:'Ubuntu Condensed, '"
       id="path1282" />
    <path
       inkscape:connector-curvature="0"
       d="m 37.789687,48.000094 q 0.432001,0 0.664,-0.24 0.240001,-0.24 0.240001,-0.648 0,-0.216 -0.072,-0.384 -0.072,-0.168 -0.192,-0.304 -0.112,-0.136 -0.264,-0.248 -0.151999,-0.112 -0.312,-0.224 -0.183999,-0.128 -0.384,-0.272 -0.199999,-0.144 -0.368,-0.336 -0.16,-0.192 -0.264,-0.448 -0.103999,-0.256 -0.103999,-0.6 0,-0.336 0.111999,-0.608 0.120001,-0.272 0.32,-0.464 0.208001,-0.192 0.488,-0.296 0.288,-0.104 0.616001,-0.104 0.319999,0 0.592,0.08 0.271999,0.08 0.455999,0.192 l -0.223999,0.568 q -0.168,-0.112 -0.368001,-0.168 -0.192,-0.064 -0.408,-0.064 -0.391999,0 -0.632,0.216 -0.232,0.208 -0.232,0.616 0,0.224 0.072,0.392 0.08,0.168 0.199999,0.304 0.128,0.136 0.288001,0.248 0.168,0.112 0.351999,0.232 0.184,0.12 0.376,0.264 0.192,0.144 0.344,0.336 0.160001,0.184 0.256,0.44 0.104,0.248 0.104,0.592 0,0.312 -0.096,0.592 -0.096,0.28 -0.304001,0.496 -0.2,0.208 -0.512,0.336 -0.304,0.12 -0.72,0.12 -0.384,0 -0.671999,-0.088 -0.288001,-0.088 -0.512,-0.232 l 0.223999,-0.576 q 0.208,0.128 0.424,0.208 0.224001,0.072 0.512,0.072 z"
       style="font-style:normal;font-variant:normal;font-weight:normal;font-stretch:normal;font-size:8px;font-family:'Ubuntu Condensed';-inkscape-font-specification:'Ubuntu Condensed, '"
       id="path1284" />
  </g>
  <g
     aria-label="PostgreSQL"
     transform="matrix(4.8563015,0,0,4.8563015,119.0828,15.730932)"
     style="font-style:normal;font-weight:normal;font-size:40px;line-height:1.25;font-family:sans-serif;letter-spacing:0px;word-spacing:0px;fill:#000000;fill-opacity:1;stroke:none"
     id="flowRoot1181-0">
    <path
       inkscape:connector-curvature="0"
       d="m 23.987063,44.853427 q 0.373333,-0.09067 0.730666,-0.09067 0.277334,0 0.501334,0.06933 0.229333,0.064 0.389333,0.208 0.165333,0.138666 0.250667,0.362666 0.09067,0.224 0.09067,0.538667 0,0.32 -0.09067,0.549333 -0.09067,0.224 -0.256,0.368 -0.165334,0.138667 -0.4,0.202667 -0.229334,0.064 -0.512,0.064 l -0.224,0 0,1.370667 -0.48,0 z m 0.48,1.850667 0.192,0 q 0.181333,0 0.325333,-0.03733 0.149333,-0.04267 0.250667,-0.133333 0.101333,-0.09067 0.154666,-0.234667 0.05333,-0.144 0.05333,-0.357333 0,-0.213333 -0.05333,-0.357333 -0.05333,-0.149334 -0.149333,-0.234667 -0.09067,-0.09067 -0.224,-0.128 -0.133333,-0.03733 -0.293333,-0.03733 -0.138667,0 -0.256,0.016 z"
       style="font-style:normal;font-variant:normal;font-weight:normal;font-stretch:normal;font-size:5.33333349px;font-family:'Ubuntu Condensed';-inkscape-font-specification:'Ubuntu Condensed, '"
       id="path1257" />
    <path
       inkscape:connector-curvature="0"
       d="m 28.304479,47.09876 q 0,0.330667 -0.05867,0.602667 -0.05867,0.266667 -0.181334,0.458667 -0.117333,0.192 -0.304,0.298666 -0.181333,0.106667 -0.432,0.106667 -0.250666,0 -0.437333,-0.106667 -0.186667,-0.106666 -0.309333,-0.298666 -0.117334,-0.192 -0.176,-0.458667 -0.05867,-0.272 -0.05867,-0.602667 0,-0.325333 0.05867,-0.597333 0.05867,-0.272 0.176,-0.464 0.122666,-0.197333 0.309333,-0.304 0.186667,-0.106667 0.437333,-0.106667 0.250667,0 0.432,0.106667 0.186667,0.106667 0.304,0.304 0.122667,0.192 0.181334,0.464 0.05867,0.272 0.05867,0.597333 z m -0.48,0 q 0,-0.234666 -0.02667,-0.426666 -0.02667,-0.197334 -0.08533,-0.336 -0.05867,-0.144 -0.154666,-0.218667 -0.096,-0.08 -0.229334,-0.08 -0.138666,0 -0.234666,0.08 -0.09067,0.07467 -0.154667,0.218667 -0.05867,0.138666 -0.08533,0.336 -0.02667,0.192 -0.02667,0.426666 0,0.234667 0.02667,0.432 0.02667,0.192 0.08533,0.330667 0.064,0.138667 0.154667,0.218667 0.096,0.07467 0.234666,0.07467 0.133334,0 0.229334,-0.07467 0.096,-0.08 0.154666,-0.218667 0.05867,-0.138667 0.08533,-0.330667 0.02667,-0.197333 0.02667,-0.432 z"
       style="font-style:normal;font-variant:normal;font-weight:normal;font-stretch:normal;font-size:5.33333349px;font-family:'Ubuntu Condensed';-inkscape-font-specification:'Ubuntu Condensed, '"
       id="path1259" />
    <path
       inkscape:connector-curvature="0"
       d="m 29.365229,48.17076 q 0.202667,0 0.304,-0.112 0.106667,-0.117333 0.106667,-0.304 0,-0.117333 -0.04267,-0.197333 -0.04267,-0.08533 -0.112,-0.149333 -0.06933,-0.064 -0.16,-0.112 -0.09067,-0.05333 -0.181333,-0.112 -0.09067,-0.05333 -0.176,-0.122667 -0.08533,-0.07467 -0.154667,-0.165333 -0.064,-0.096 -0.106666,-0.213334 -0.03733,-0.122666 -0.03733,-0.282666 0,-0.346667 0.213334,-0.56 0.218666,-0.213334 0.586666,-0.213334 0.154667,0 0.293334,0.04267 0.138666,0.03733 0.229333,0.08533 l -0.101333,0.368 q -0.096,-0.05333 -0.192,-0.08 -0.096,-0.02667 -0.208,-0.02667 -0.170667,0 -0.272,0.101333 -0.101334,0.096 -0.101334,0.282667 0,0.106666 0.03733,0.186666 0.03733,0.07467 0.096,0.138667 0.064,0.05867 0.138666,0.112 0.08,0.05333 0.165334,0.101333 0.101333,0.05867 0.197333,0.128 0.101333,0.06933 0.176,0.165334 0.08,0.09067 0.128,0.218666 0.048,0.122667 0.048,0.298667 0,0.368 -0.218667,0.592 -0.213333,0.224 -0.629333,0.224 -0.213333,0 -0.384,-0.05867 -0.170667,-0.05867 -0.256,-0.106666 l 0.096,-0.378667 q 0.08,0.04267 0.213333,0.096 0.138667,0.05333 0.304,0.05333 z"
       style="font-style:normal;font-variant:normal;font-weight:normal;font-stretch:normal;font-size:5.33333349px;font-family:'Ubuntu Condensed';-inkscape-font-specification:'Ubuntu Condensed, '"
       id="path1261" />
    <path
       inkscape:connector-curvature="0"
       d="m 31.225479,45.696094 0.704,0 0,0.394666 -0.704,0 0,1.541334 q 0,0.288 0.101334,0.405333 0.106666,0.112 0.282666,0.112 0.09067,0 0.170667,-0.02667 0.08533,-0.02667 0.144,-0.064 l 0.09067,0.368 q -0.218667,0.128 -0.464,0.128 -0.394667,0 -0.592,-0.218666 -0.192,-0.224 -0.192,-0.736 l 0,-2.656 0.458666,-0.08 z"
       style="font-style:normal;font-variant:normal;font-weight:normal;font-stretch:normal;font-size:5.33333349px;font-family:'Ubuntu Condensed';-inkscape-font-specification:'Ubuntu Condensed, '"
       id="path1263" />
    <path
       inkscape:connector-curvature="0"
       d="m 34.139897,48.416094 q 0,0.298666 -0.08,0.501333 -0.07467,0.208 -0.208,0.336 -0.133334,0.128 -0.314667,0.186667 -0.176,0.05867 -0.378667,0.05867 -0.170667,0 -0.341333,-0.03733 -0.170667,-0.03733 -0.314667,-0.112 l 0.096,-0.384 q 0.096,0.05333 0.234667,0.096 0.138666,0.04267 0.288,0.04267 0.261333,0 0.410667,-0.149334 0.149333,-0.149333 0.149333,-0.512 l 0,-0.133333 q -0.08533,0.03733 -0.181333,0.064 -0.096,0.02133 -0.218667,0.02133 -0.501334,0 -0.736,-0.341333 -0.229334,-0.346667 -0.229334,-0.976 0,-0.336 0.05867,-0.602667 0.064,-0.272 0.192,-0.458666 0.133333,-0.192 0.341333,-0.288 0.208001,-0.101334 0.506667,-0.101334 0.197334,0 0.384,0.04267 0.192,0.03733 0.341334,0.101333 z M 33.68123,46.069427 q -0.07467,-0.02133 -0.144,-0.02667 -0.06933,-0.01067 -0.128,-0.01067 -0.32,0 -0.469334,0.245333 -0.144,0.245333 -0.144,0.8 0,0.501333 0.144,0.709333 0.144,0.202667 0.410667,0.202667 0.09067,0 0.170667,-0.02133 0.08533,-0.02133 0.16,-0.05867 z"
       style="font-style:normal;font-variant:normal;font-weight:normal;font-stretch:normal;font-size:5.33333349px;font-family:'Ubuntu Condensed';-inkscape-font-specification:'Ubuntu Condensed, '"
       id="path1265" />
    <path
       inkscape:connector-curvature="0"
       d="m 36.176146,46.112094 q -0.170666,-0.07467 -0.384,-0.07467 -0.197333,0 -0.368,0.06933 l 0,2.389334 -0.458667,0 0,-2.677328 q 0.154667,-0.07467 0.352001,-0.122666 0.202666,-0.05333 0.442666,-0.05333 0.128,0 0.256,0.016 0.128,0.016 0.24,0.05867 z"
       style="font-style:normal;font-variant:normal;font-weight:normal;font-stretch:normal;font-size:5.33333349px;font-family:'Ubuntu Condensed';-inkscape-font-specification:'Ubuntu Condensed, '"
       id="path1267" />
    <path
       inkscape:connector-curvature="0"
       d="m 36.978063,47.232094 q 0.0053,0.202666 0.03733,0.373333 0.032,0.165333 0.101334,0.293333 0.07467,0.122667 0.192,0.192 0.122667,0.06933 0.309333,0.06933 0.154667,0 0.282667,-0.04267 0.133333,-0.048 0.192,-0.08 l 0.08533,0.368 q -0.06933,0.048 -0.234666,0.101333 -0.16,0.05867 -0.384,0.05867 -0.293334,0 -0.496001,-0.106667 -0.197333,-0.106666 -0.325333,-0.298666 -0.122667,-0.192 -0.176,-0.458667 -0.05333,-0.266667 -0.05333,-0.586667 0,-0.773333 0.256,-1.130666 0.256,-0.357334 0.677333,-0.357334 0.474667,0 0.672,0.357334 0.197334,0.357333 0.197334,1.002666 0,0.05867 0,0.122667 0,0.05867 -0.0053,0.122667 z m 0.464,-1.216 q -0.229333,0 -0.336,0.229333 -0.101333,0.229333 -0.122667,0.613333 l 0.848001,0 q 0,-0.389333 -0.08,-0.613333 -0.08,-0.229333 -0.309334,-0.229333 z"
       style="font-style:normal;font-variant:normal;font-weight:normal;font-stretch:normal;font-size:5.33333349px;font-family:'Ubuntu Condensed';-inkscape-font-specification:'Ubuntu Condensed, '"
       id="path1269" />
    <path
       inkscape:connector-curvature="0"
       d="m 39.47698,48.165427 q 0.288,0 0.442667,-0.16 0.16,-0.16 0.16,-0.432 0,-0.144 -0.048,-0.256 -0.048,-0.112 -0.128,-0.202667 -0.07467,-0.09067 -0.176,-0.165333 -0.101334,-0.07467 -0.208,-0.149333 -0.122667,-0.08533 -0.256,-0.181334 -0.133334,-0.096 -0.245334,-0.224 -0.106666,-0.128 -0.176,-0.298666 -0.06933,-0.170667 -0.06933,-0.4 0,-0.224 0.07467,-0.405334 0.08,-0.181333 0.213333,-0.309333 0.138667,-0.128 0.325333,-0.197333 0.192,-0.06933 0.410667,-0.06933 0.213333,0 0.394667,0.05333 0.181333,0.05333 0.304,0.128 L 40.34632,45.27476 q -0.112,-0.07467 -0.245334,-0.112 -0.128,-0.04267 -0.272,-0.04267 -0.261333,0 -0.421333,0.144 -0.154667,0.138666 -0.154667,0.410666 0,0.149334 0.048,0.261334 0.05333,0.112 0.133333,0.202666 0.08533,0.09067 0.192,0.165334 0.112,0.07467 0.234667,0.154666 0.122667,0.08 0.250667,0.176 0.128,0.096 0.229333,0.224 0.106667,0.122667 0.170667,0.293334 0.06933,0.165333 0.06933,0.394666 0,0.208 -0.064,0.394667 -0.064,0.186667 -0.202666,0.330667 -0.133334,0.138666 -0.341334,0.224 -0.202667,0.08 -0.48,0.08 -0.256,0 -0.448,-0.05867 -0.192,-0.05867 -0.341333,-0.154667 l 0.149333,-0.384 q 0.138667,0.08533 0.282667,0.138667 0.149333,0.048 0.341333,0.048 z"
       style="font-style:normal;font-variant:normal;font-weight:normal;font-stretch:normal;font-size:5.33333349px;font-family:'Ubuntu Condensed';-inkscape-font-specification:'Ubuntu Condensed, '"
       id="path1271" />
    <path
       inkscape:connector-curvature="0"
       d="m 43.685813,46.65076 q 0,0.378667 -0.064,0.698667 -0.05867,0.32 -0.181334,0.565333 -0.122666,0.245334 -0.314666,0.410667 -0.192,0.16 -0.448,0.218667 0.01067,0.224 0.24,0.346666 0.229333,0.128 0.592,0.192 l -0.112,0.373334 q -0.213334,-0.048 -0.410667,-0.106667 -0.192,-0.05867 -0.352,-0.154667 -0.154667,-0.096 -0.266667,-0.245333 -0.106666,-0.149333 -0.154666,-0.384 -0.298667,-0.032 -0.517334,-0.181333 -0.213333,-0.154667 -0.357333,-0.405334 -0.144,-0.250666 -0.213333,-0.586666 -0.06933,-0.336 -0.06933,-0.741334 0,-0.432 0.08,-0.789333 0.08,-0.357333 0.24,-0.608 0.165334,-0.256 0.410667,-0.394667 0.250667,-0.144 0.586667,-0.144 0.336,0 0.581333,0.144 0.250667,0.138667 0.410667,0.394667 0.165333,0.250667 0.24,0.608 0.08,0.357333 0.08,0.789333 z m -0.512,0 q 0,-0.336 -0.04267,-0.613333 -0.04267,-0.277333 -0.138667,-0.474667 -0.096,-0.202666 -0.250666,-0.314666 -0.149334,-0.112 -0.368,-0.112 -0.218667,0 -0.373334,0.112 -0.149333,0.112 -0.245333,0.314666 -0.096,0.197334 -0.144,0.474667 -0.04267,0.277333 -0.04267,0.613333 0,0.336 0.04267,0.613334 0.048,0.277333 0.144,0.474666 0.096,0.197334 0.245333,0.309334 0.154667,0.106666 0.373334,0.106666 0.218666,0 0.368,-0.106666 0.154666,-0.112 0.250666,-0.309334 0.096,-0.197333 0.138667,-0.474666 0.04267,-0.277334 0.04267,-0.613334 z"
       style="font-style:normal;font-variant:normal;font-weight:normal;font-stretch:normal;font-size:5.33333349px;font-family:'Ubuntu Condensed';-inkscape-font-specification:'Ubuntu Condensed, '"
       id="path1273" />
    <path
       inkscape:connector-curvature="0"
       d="m 46.082981,48.085427 0,0.410667 -1.648001,0 0,-3.696 0.48,0 0,3.285333 z"
       style="font-style:normal;font-variant:normal;font-weight:normal;font-stretch:normal;font-size:5.33333349px;font-family:'Ubuntu Condensed';-inkscape-font-specification:'Ubuntu Condensed, '"
       id="path1275" />
  </g>
  <path
     inkscape:connector-curvature="0"
     id="rect10-8-9-1"
     style="fill:#dde9af;stroke:#000000;stroke-width:4.85630131"
     d="m 937.46936,176.65442 74.81044,0 0,626.6911 -74.81044,0 0,-626.6911 z" />
  <path
     inkscape:connector-curvature="0"
     id="rect10-8-3-1-8"
     style="fill:#dde9af;stroke:#000000;stroke-width:4.85630131;stroke-miterlimit:4;stroke-dasharray:none"
     d="m 908.39656,176.65442 135.88064,0 0,98.13067 -135.88064,0 0,-98.13067 z" />
  <g
     aria-label="RDBS"
     transform="matrix(4.8563015,0,0,4.8563015,822.15689,-20.686991)"
     style="font-style:normal;font-weight:normal;font-size:40px;line-height:1.25;font-family:sans-serif;letter-spacing:0px;word-spacing:0px;fill:#000000;fill-opacity:1;stroke:none"
     id="flowRoot1181-7">
    <path
       inkscape:connector-curvature="0"
       d="m 24.211062,43.032094 q 0.56,-0.136 1.08,-0.136 0.416,0 0.752001,0.096 0.335999,0.096 0.575999,0.304 0.24,0.208 0.368,0.536 0.136,0.328 0.136,0.792 0,0.576 -0.224,0.936 -0.216,0.352 -0.592,0.536 0.096,0.16 0.24,0.44 0.152,0.272 0.304,0.608 0.160001,0.328 0.304,0.68 0.152,0.352 0.256,0.672 l -0.72,0 q -0.088,-0.24 -0.224,-0.544 -0.128,-0.304 -0.272,-0.6 -0.144,-0.304 -0.288,-0.576 -0.144,-0.28 -0.255999,-0.472 -0.128,0.016 -0.264001,0.024 -0.136,0.008 -0.272,0.008 l -0.2,0 0,2.16 -0.704,0 z m 0.704,2.712 0.304,0 q 0.552,0 0.848,-0.248 0.296,-0.256 0.296,-0.872 0,-0.312 -0.08,-0.52 -0.072,-0.216 -0.216,-0.336 -0.136,-0.128 -0.336,-0.184 -0.192,-0.056 -0.431999,-0.056 -0.208001,0 -0.384001,0.024 z"
       style="font-style:normal;font-variant:normal;font-weight:normal;font-stretch:normal;font-size:8px;font-family:'Ubuntu Condensed';-inkscape-font-specification:'Ubuntu Condensed, '"
       id="path1287" />
    <path
       inkscape:connector-curvature="0"
       d="m 31.816437,45.720094 q 0,0.776 -0.168,1.32 -0.16,0.536 -0.472,0.872 -0.304,0.336 -0.744,0.488 -0.432,0.152 -0.968,0.152 -0.544,0 -1.151999,-0.144 l 0,-5.376 q 0.303999,-0.064 0.591999,-0.104 0.288,-0.04 0.552,-0.04 0.544,0 0.976,0.152 0.44,0.152 0.744,0.488 0.312,0.336 0.472,0.88 0.168,0.536 0.168,1.312 z m -0.768,0 q 0,-0.592 -0.088,-1.008 -0.088,-0.416 -0.272,-0.68 -0.183999,-0.264 -0.488,-0.384 -0.296,-0.12 -0.712,-0.12 -0.111999,0 -0.224,0.008 -0.111999,0.008 -0.232,0.024 l 0,4.32 q 0.120001,0.016 0.232,0.024 0.112001,0.008 0.216,0.008 0.424,0 0.72,-0.12 0.296,-0.12 0.48,-0.376 0.192,-0.264 0.28,-0.68 0.088,-0.416 0.088,-1.016 z"
       style="font-style:normal;font-variant:normal;font-weight:normal;font-stretch:normal;font-size:8px;font-family:'Ubuntu Condensed';-inkscape-font-specification:'Ubuntu Condensed, '"
       id="path1289" />
    <path
       inkscape:connector-curvature="0"
       d="m 33.649813,45.312094 0.495999,0 q 0.992001,0 0.992001,-0.896 0,-0.28 -0.088,-0.456 -0.08,-0.184 -0.216001,-0.28 -0.136,-0.104 -0.32,-0.144 -0.176,-0.04 -0.375999,-0.04 -0.120001,0 -0.248001,0.008 -0.12,0.008 -0.239999,0.024 z m 0,0.576 0,2 q 0.151999,0.024 0.296,0.04 0.152,0.016 0.296,0.016 0.223999,0 0.423999,-0.048 0.2,-0.048 0.344001,-0.16 0.151999,-0.112 0.232,-0.304 0.088,-0.2 0.088,-0.488 0,-0.496 -0.272001,-0.776 -0.263999,-0.28 -0.831999,-0.28 z m -0.720001,-2.856 q 0.28,-0.064 0.568001,-0.096 0.296,-0.04 0.583999,-0.04 0.36,0 0.68,0.072 0.328,0.064 0.576,0.232 0.248001,0.16 0.392001,0.432 0.152,0.264 0.152,0.664 0,0.496 -0.208001,0.816 -0.208,0.312 -0.535999,0.464 0.407999,0.16 0.671999,0.488 0.264001,0.328 0.264001,0.904 0,0.432 -0.144001,0.728 -0.135999,0.296 -0.392,0.488 -0.256,0.184 -0.615999,0.272 -0.352001,0.08 -0.776001,0.08 -0.28,0 -0.583999,-0.032 -0.304001,-0.032 -0.632001,-0.096 z"
       style="font-style:normal;font-variant:normal;font-weight:normal;font-stretch:normal;font-size:8px;font-family:'Ubuntu Condensed';-inkscape-font-specification:'Ubuntu Condensed, '"
       id="path1291" />
    <path
       inkscape:connector-curvature="0"
       d="m 37.789687,48.000094 q 0.432001,0 0.664,-0.24 0.240001,-0.24 0.240001,-0.648 0,-0.216 -0.072,-0.384 -0.072,-0.168 -0.192,-0.304 -0.112,-0.136 -0.264,-0.248 -0.151999,-0.112 -0.312,-0.224 -0.183999,-0.128 -0.384,-0.272 -0.199999,-0.144 -0.368,-0.336 -0.16,-0.192 -0.264,-0.448 -0.103999,-0.256 -0.103999,-0.6 0,-0.336 0.111999,-0.608 0.120001,-0.272 0.32,-0.464 0.208001,-0.192 0.488,-0.296 0.288,-0.104 0.616001,-0.104 0.319999,0 0.592,0.08 0.271999,0.08 0.455999,0.192 l -0.223999,0.568 q -0.168,-0.112 -0.368001,-0.168 -0.192,-0.064 -0.408,-0.064 -0.391999,0 -0.632,0.216 -0.232,0.208 -0.232,0.616 0,0.224 0.072,0.392 0.08,0.168 0.199999,0.304 0.128,0.136 0.288001,0.248 0.168,0.112 0.351999,0.232 0.184,0.12 0.376,0.264 0.192,0.144 0.344,0.336 0.160001,0.184 0.256,0.44 0.104,0.248 0.104,0.592 0,0.312 -0.096,0.592 -0.096,0.28 -0.304001,0.496 -0.2,0.208 -0.512,0.336 -0.304,0.12 -0.72,0.12 -0.384,0 -0.671999,-0.088 -0.288001,-0.088 -0.512,-0.232 l 0.223999,-0.576 q 0.208,0.128 0.424,0.208 0.224001,0.072 0.512,0.072 z"
       style="font-style:normal;font-variant:normal;font-weight:normal;font-stretch:normal;font-size:8px;font-family:'Ubuntu Condensed';-inkscape-font-specification:'Ubuntu Condensed, '"
       id="path1293" />
  </g>
  <g
     aria-label="PostgreSQL"
     transform="matrix(4.8563015,0,0,4.8563015,808.67768,15.73093)"
     style="font-style:normal;font-weight:normal;font-size:40px;line-height:1.25;font-family:sans-serif;letter-spacing:0px;word-spacing:0px;fill:#000000;fill-opacity:1;stroke:none"
     id="flowRoot1181-0-3">
    <path
       inkscape:connector-curvature="0"
       d="m 23.987063,44.853427 q 0.373333,-0.09067 0.730666,-0.09067 0.277334,0 0.501334,0.06933 0.229333,0.064 0.389333,0.208 0.165333,0.138666 0.250667,0.362666 0.09067,0.224 0.09067,0.538667 0,0.32 -0.09067,0.549333 -0.09067,0.224 -0.256,0.368 -0.165334,0.138667 -0.4,0.202667 -0.229334,0.064 -0.512,0.064 l -0.224,0 0,1.370667 -0.48,0 z m 0.48,1.850667 0.192,0 q 0.181333,0 0.325333,-0.03733 0.149333,-0.04267 0.250667,-0.133333 0.101333,-0.09067 0.154666,-0.234667 0.05333,-0.144 0.05333,-0.357333 0,-0.213333 -0.05333,-0.357333 -0.05333,-0.149334 -0.149333,-0.234667 -0.09067,-0.09067 -0.224,-0.128 -0.133333,-0.03733 -0.293333,-0.03733 -0.138667,0 -0.256,0.016 z"
       style="font-style:normal;font-variant:normal;font-weight:normal;font-stretch:normal;font-size:5.33333349px;font-family:'Ubuntu Condensed';-inkscape-font-specification:'Ubuntu Condensed, '"
       id="path1296" />
    <path
       inkscape:connector-curvature="0"
       d="m 28.304479,47.09876 q 0,0.330667 -0.05867,0.602667 -0.05867,0.266667 -0.181334,0.458667 -0.117333,0.192 -0.304,0.298666 -0.181333,0.106667 -0.432,0.106667 -0.250666,0 -0.437333,-0.106667 -0.186667,-0.106666 -0.309333,-0.298666 -0.117334,-0.192 -0.176,-0.458667 -0.05867,-0.272 -0.05867,-0.602667 0,-0.325333 0.05867,-0.597333 0.05867,-0.272 0.176,-0.464 0.122666,-0.197333 0.309333,-0.304 0.186667,-0.106667 0.437333,-0.106667 0.250667,0 0.432,0.106667 0.186667,0.106667 0.304,0.304 0.122667,0.192 0.181334,0.464 0.05867,0.272 0.05867,0.597333 z m -0.48,0 q 0,-0.234666 -0.02667,-0.426666 -0.02667,-0.197334 -0.08533,-0.336 -0.05867,-0.144 -0.154666,-0.218667 -0.096,-0.08 -0.229334,-0.08 -0.138666,0 -0.234666,0.08 -0.09067,0.07467 -0.154667,0.218667 -0.05867,0.138666 -0.08533,0.336 -0.02667,0.192 -0.02667,0.426666 0,0.234667 0.02667,0.432 0.02667,0.192 0.08533,0.330667 0.064,0.138667 0.154667,0.218667 0.096,0.07467 0.234666,0.07467 0.133334,0 0.229334,-0.07467 0.096,-0.08 0.154666,-0.218667 0.05867,-0.138667 0.08533,-0.330667 0.02667,-0.197333 0.02667,-0.432 z"
       style="font-style:normal;font-variant:normal;font-weight:normal;font-stretch:normal;font-size:5.33333349px;font-family:'Ubuntu Condensed';-inkscape-font-specification:'Ubuntu Condensed, '"
       id="path1298" />
    <path
       inkscape:connector-curvature="0"
       d="m 29.365229,48.17076 q 0.202667,0 0.304,-0.112 0.106667,-0.117333 0.106667,-0.304 0,-0.117333 -0.04267,-0.197333 -0.04267,-0.08533 -0.112,-0.149333 -0.06933,-0.064 -0.16,-0.112 -0.09067,-0.05333 -0.181333,-0.112 -0.09067,-0.05333 -0.176,-0.122667 -0.08533,-0.07467 -0.154667,-0.165333 -0.064,-0.096 -0.106666,-0.213334 -0.03733,-0.122666 -0.03733,-0.282666 0,-0.346667 0.213334,-0.56 0.218666,-0.213334 0.586666,-0.213334 0.154667,0 0.293334,0.04267 0.138666,0.03733 0.229333,0.08533 l -0.101333,0.368 q -0.096,-0.05333 -0.192,-0.08 -0.096,-0.02667 -0.208,-0.02667 -0.170667,0 -0.272,0.101333 -0.101334,0.096 -0.101334,0.282667 0,0.106666 0.03733,0.186666 0.03733,0.07467 0.096,0.138667 0.064,0.05867 0.138666,0.112 0.08,0.05333 0.165334,0.101333 0.101333,0.05867 0.197333,0.128 0.101333,0.06933 0.176,0.165334 0.08,0.09067 0.128,0.218666 0.048,0.122667 0.048,0.298667 0,0.368 -0.218667,0.592 -0.213333,0.224 -0.629333,0.224 -0.213333,0 -0.384,-0.05867 -0.170667,-0.05867 -0.256,-0.106666 l 0.096,-0.378667 q 0.08,0.04267 0.213333,0.096 0.138667,0.05333 0.304,0.05333 z"
       style="font-style:normal;font-variant:normal;font-weight:normal;font-stretch:normal;font-size:5.33333349px;font-family:'Ubuntu Condensed';-inkscape-font-specification:'Ubuntu Condensed, '"
       id="path1300" />
    <path
       inkscape:connector-curvature="0"
       d="m 31.225479,45.696094 0.704,0 0,0.394666 -0.704,0 0,1.541334 q 0,0.288 0.101334,0.405333 0.106666,0.112 0.282666,0.112 0.09067,0 0.170667,-0.02667 0.08533,-0.02667 0.144,-0.064 l 0.09067,0.368 q -0.218667,0.128 -0.464,0.128 -0.394667,0 -0.592,-0.218666 -0.192,-0.224 -0.192,-0.736 l 0,-2.656 0.458666,-0.08 z"
       style="font-style:normal;font-variant:normal;font-weight:normal;font-stretch:normal;font-size:5.33333349px;font-family:'Ubuntu Condensed';-inkscape-font-specification:'Ubuntu Condensed, '"
       id="path1302" />
    <path
       inkscape:connector-curvature="0"
       d="m 34.139897,48.416094 q 0,0.298666 -0.08,0.501333 -0.07467,0.208 -0.208,0.336 -0.133334,0.128 -0.314667,0.186667 -0.176,0.05867 -0.378667,0.05867 -0.170667,0 -0.341333,-0.03733 -0.170667,-0.03733 -0.314667,-0.112 l 0.096,-0.384 q 0.096,0.05333 0.234667,0.096 0.138666,0.04267 0.288,0.04267 0.261333,0 0.410667,-0.149334 0.149333,-0.149333 0.149333,-0.512 l 0,-0.133333 q -0.08533,0.03733 -0.181333,0.064 -0.096,0.02133 -0.218667,0.02133 -0.501334,0 -0.736,-0.341333 -0.229334,-0.346667 -0.229334,-0.976 0,-0.336 0.05867,-0.602667 0.064,-0.272 0.192,-0.458666 0.133333,-0.192 0.341333,-0.288 0.208001,-0.101334 0.506667,-0.101334 0.197334,0 0.384,0.04267 0.192,0.03733 0.341334,0.101333 z M 33.68123,46.069427 q -0.07467,-0.02133 -0.144,-0.02667 -0.06933,-0.01067 -0.128,-0.01067 -0.32,0 -0.469334,0.245333 -0.144,0.245333 -0.144,0.8 0,0.501333 0.144,0.709333 0.144,0.202667 0.410667,0.202667 0.09067,0 0.170667,-0.02133 0.08533,-0.02133 0.16,-0.05867 z"
       style="font-style:normal;font-variant:normal;font-weight:normal;font-stretch:normal;font-size:5.33333349px;font-family:'Ubuntu Condensed';-inkscape-font-specification:'Ubuntu Condensed, '"
       id="path1304" />
    <path
       inkscape:connector-curvature="0"
       d="m 36.176146,46.112094 q -0.170666,-0.07467 -0.384,-0.07467 -0.197333,0 -0.368,0.06933 l 0,2.389334 -0.458667,0 0,-2.677328 q 0.154667,-0.07467 0.352001,-0.122666 0.202666,-0.05333 0.442666,-0.05333 0.128,0 0.256,0.016 0.128,0.016 0.24,0.05867 z"
       style="font-style:normal;font-variant:normal;font-weight:normal;font-stretch:normal;font-size:5.33333349px;font-family:'Ubuntu Condensed';-inkscape-font-specification:'Ubuntu Condensed, '"
       id="path1306" />
    <path
       inkscape:connector-curvature="0"
       d="m 36.978063,47.232094 q 0.0053,0.202666 0.03733,0.373333 0.032,0.165333 0.101334,0.293333 0.07467,0.122667 0.192,0.192 0.122667,0.06933 0.309333,0.06933 0.154667,0 0.282667,-0.04267 0.133333,-0.048 0.192,-0.08 l 0.08533,0.368 q -0.06933,0.048 -0.234666,0.101333 -0.16,0.05867 -0.384,0.05867 -0.293334,0 -0.496001,-0.106667 -0.197333,-0.106666 -0.325333,-0.298666 -0.122667,-0.192 -0.176,-0.458667 -0.05333,-0.266667 -0.05333,-0.586667 0,-0.773333 0.256,-1.130666 0.256,-0.357334 0.677333,-0.357334 0.474667,0 0.672,0.357334 0.197334,0.357333 0.197334,1.002666 0,0.05867 0,0.122667 0,0.05867 -0.0053,0.122667 z m 0.464,-1.216 q -0.229333,0 -0.336,0.229333 -0.101333,0.229333 -0.122667,0.613333 l 0.848001,0 q 0,-0.389333 -0.08,-0.613333 -0.08,-0.229333 -0.309334,-0.229333 z"
       style="font-style:normal;font-variant:normal;font-weight:normal;font-stretch:normal;font-size:5.33333349px;font-family:'Ubuntu Condensed';-inkscape-font-specification:'Ubuntu Condensed, '"
       id="path1308" />
    <path
       inkscape:connector-curvature="0"
       d="m 39.47698,48.165427 q 0.288,0 0.442667,-0.16 0.16,-0.16 0.16,-0.432 0,-0.144 -0.048,-0.256 -0.048,-0.112 -0.128,-0.202667 -0.07467,-0.09067 -0.176,-0.165333 -0.101334,-0.07467 -0.208,-0.149333 -0.122667,-0.08533 -0.256,-0.181334 -0.133334,-0.096 -0.245334,-0.224 -0.106666,-0.128 -0.176,-0.298666 -0.06933,-0.170667 -0.06933,-0.4 0,-0.224 0.07467,-0.405334 0.08,-0.181333 0.213333,-0.309333 0.138667,-0.128 0.325333,-0.197333 0.192,-0.06933 0.410667,-0.06933 0.213333,0 0.394667,0.05333 0.181333,0.05333 0.304,0.128 L 40.34632,45.27476 q -0.112,-0.07467 -0.245334,-0.112 -0.128,-0.04267 -0.272,-0.04267 -0.261333,0 -0.421333,0.144 -0.154667,0.138666 -0.154667,0.410666 0,0.149334 0.048,0.261334 0.05333,0.112 0.133333,0.202666 0.08533,0.09067 0.192,0.165334 0.112,0.07467 0.234667,0.154666 0.122667,0.08 0.250667,0.176 0.128,0.096 0.229333,0.224 0.106667,0.122667 0.170667,0.293334 0.06933,0.165333 0.06933,0.394666 0,0.208 -0.064,0.394667 -0.064,0.186667 -0.202666,0.330667 -0.133334,0.138666 -0.341334,0.224 -0.202667,0.08 -0.48,0.08 -0.256,0 -0.448,-0.05867 -0.192,-0.05867 -0.341333,-0.154667 l 0.149333,-0.384 q 0.138667,0.08533 0.282667,0.138667 0.149333,0.048 0.341333,0.048 z"
       style="font-style:normal;font-variant:normal;font-weight:normal;font-stretch:normal;font-size:5.33333349px;font-family:'Ubuntu Condensed';-inkscape-font-specification:'Ubuntu Condensed, '"
       id="path1310" />
    <path
       inkscape:connector-curvature="0"
       d="m 43.685813,46.65076 q 0,0.378667 -0.064,0.698667 -0.05867,0.32 -0.181334,0.565333 -0.122666,0.245334 -0.314666,0.410667 -0.192,0.16 -0.448,0.218667 0.01067,0.224 0.24,0.346666 0.229333,0.128 0.592,0.192 l -0.112,0.373334 q -0.213334,-0.048 -0.410667,-0.106667 -0.192,-0.05867 -0.352,-0.154667 -0.154667,-0.096 -0.266667,-0.245333 -0.106666,-0.149333 -0.154666,-0.384 -0.298667,-0.032 -0.517334,-0.181333 -0.213333,-0.154667 -0.357333,-0.405334 -0.144,-0.250666 -0.213333,-0.586666 -0.06933,-0.336 -0.06933,-0.741334 0,-0.432 0.08,-0.789333 0.08,-0.357333 0.24,-0.608 0.165334,-0.256 0.410667,-0.394667 0.250667,-0.144 0.586667,-0.144 0.336,0 0.581333,0.144 0.250667,0.138667 0.410667,0.394667 0.165333,0.250667 0.24,0.608 0.08,0.357333 0.08,0.789333 z m -0.512,0 q 0,-0.336 -0.04267,-0.613333 -0.04267,-0.277333 -0.138667,-0.474667 -0.096,-0.202666 -0.250666,-0.314666 -0.149334,-0.112 -0.368,-0.112 -0.218667,0 -0.373334,0.112 -0.149333,0.112 -0.245333,0.314666 -0.096,0.197334 -0.144,0.474667 -0.04267,0.277333 -0.04267,0.613333 0,0.336 0.04267,0.613334 0.048,0.277333 0.144,0.474666 0.096,0.197334 0.245333,0.309334 0.154667,0.106666 0.373334,0.106666 0.218666,0 0.368,-0.106666 0.154666,-0.112 0.250666,-0.309334 0.096,-0.197333 0.138667,-0.474666 0.04267,-0.277334 0.04267,-0.613334 z"
       style="font-style:normal;font-variant:normal;font-weight:normal;font-stretch:normal;font-size:5.33333349px;font-family:'Ubuntu Condensed';-inkscape-font-specification:'Ubuntu Condensed, '"
       id="path1312" />
    <path
       inkscape:connector-curvature="0"
       d="m 46.082981,48.085427 0,0.410667 -1.648001,0 0,-3.696 0.48,0 0,3.285333 z"
       style="font-style:normal;font-variant:normal;font-weight:normal;font-stretch:normal;font-size:5.33333349px;font-family:'Ubuntu Condensed';-inkscape-font-specification:'Ubuntu Condensed, '"
       id="path1314" />
  </g>
  <path
     sodipodi:nodetypes="cccccccc"
     inkscape:connector-curvature="0"
     style="fill:none;stroke:#0000ff;stroke-width:11.01409149;stroke-linecap:butt;stroke-linejoin:miter;stroke-miterlimit:4;stroke-dasharray:none;stroke-opacity:1"
     d="m 805.3377,419.25286 155.85204,0 0,35.7481 -145.03056,0 0,31.81971 146.20908,0 0,27.89137 -155.85203,0"
     id="path1255" />
  <path
     inkscape:connector-curvature="0"
     style="fill:#00ff00;stroke:#00ff00;stroke-width:6.32903957px;stroke-linecap:butt;stroke-linejoin:miter;stroke-opacity:1;marker-start:url(#DotM);marker-mid:url(#marker2905);marker-end:url(#marker2343)"
     d="m 292.12549,307.50532 191.20667,0 169.25091,0"
     id="path1849" />
  <path
     d="M 64.35116577148438 107.27000427246094 C 64.35116577148438 110.09666442871094 63.58449935913086 112.26000213623047 62.05116653442383 113.76000213623047 C 60.5178337097168 115.25333404541016 58.30783462524414 116 55.421165466308594 116 L 50.68116760253906 116 L 50.68116760253906 98.87000274658203 L 55.93116760253906 98.87000274658203 C 58.59116744995117 98.87000274658203 60.66116714477539 99.6066665649414 62.14116668701172 101.08000183105469 C 63.614501953125 102.55999755859375 64.35116577148438 104.62333679199219 64.35116577148438 107.27000427246094 M 62.24116516113281 107.33999633789062 C 62.24116516113281 105.1066665649414 61.68116760253906 103.42333221435547 60.56116485595703 102.29000091552734 C 59.441165924072266 101.15666961669922 57.774497985839844 100.58999633789062 55.56116485595703 100.58999633789062 L 52.671165466308594 100.58999633789062 L 52.671165466308594 114.27999877929688 L 55.09116744995117 114.27999877929688 C 57.471168518066406 114.27999877929688 59.257835388183594 113.69667053222656 60.451168060302734 112.52999877929688 C 61.644500732421875 111.3566665649414 62.24116516113281 109.62666320800781 62.24116516113281 107.33999633789062 ZM 73.30280303955078 116.2300033569336 C 71.40280151367188 116.2300033569336 69.90280151367188 115.65333557128906 68.80280303955078 114.5 C 67.70947265625 113.34666442871094 67.16280364990234 111.73999786376953 67.16280364990234 109.68000030517578 C 67.16280364990234 107.61333465576172 67.67280578613281 105.97000122070312 68.69280242919922 104.75 C 69.71280670166016 103.52999877929688 71.07947540283203 102.91999816894531 72.79280853271484 102.91999816894531 C 74.40613555908203 102.91999816894531 75.67947387695312 103.44999694824219 76.61280822753906 104.51000213623047 C 77.55280303955078 105.56999969482422 78.0228042602539 106.96666717529297 78.0228042602539 108.69999694824219 L 78.0228042602539 109.93000030517578 L 69.17280578613281 109.93000030517578 C 69.21280670166016 111.4366683959961 69.59613800048828 112.58000183105469 70.32280731201172 113.36000061035156 C 71.04280853271484 114.14666748046875 72.0594711303711 114.54000091552734 73.372802734375 114.54000091552734 C 74.7528076171875 114.54000091552734 76.11946868896484 114.25 77.47280883789062 113.66999816894531 L 77.47280883789062 115.4000015258789 C 76.78614044189453 115.69999694824219 76.13613891601562 115.913330078125 75.5228042602539 116.04000091552734 C 74.90946960449219 116.16666412353516 74.16947174072266 116.2300033569336 73.30280303955078 116.2300033569336 M 72.7728042602539 104.55000305175781 C 71.73947143554688 104.55000305175781 70.9161376953125 104.88666534423828 70.30280303955078 105.55999755859375 C 69.68946838378906 106.23333740234375 69.32947540283203 107.163330078125 69.22280883789062 108.3499984741211 L 75.94280242919922 108.3499984741211 C 75.94280242919922 107.12333679199219 75.6661376953125 106.18333435058594 75.11280822753906 105.52999877929688 C 74.5661392211914 104.87666320800781 73.78614044189453 104.55000305175781 72.7728042602539 104.55000305175781 ZM 87.31421661376953 102.94999694824219 C 89.00088500976562 102.94999694824219 90.31088256835938 103.52333068847656 91.24421691894531 104.66999816894531 C 92.17755126953125 105.82333374023438 92.64421844482422 107.4566650390625 92.64421844482422 109.56999969482422 C 92.64421844482422 111.67666625976562 92.1742172241211 113.3133316040039 91.23421478271484 114.4800033569336 C 90.29421997070312 115.64666748046875 88.987548828125 116.2300033569336 87.31421661376953 116.2300033569336 C 86.48088073730469 116.2300033569336 85.7175521850586 116.07666778564453 85.02421569824219 115.7699966430664 C 84.33087921142578 115.46333312988281 83.75088500976562 114.98999786376953 83.28421783447266 114.3499984741211 L 83.14421844482422 114.3499984741211 L 82.73421478271484 116 L 81.33421325683594 116 L 81.33421325683594 97.77000427246094 L 83.28421783447266 97.77000427246094 L 83.28421783447266 102.19999694824219 C 83.28421783447266 103.1866683959961 83.25088500976562 104.07666778564453 83.18421936035156 104.87000274658203 L 83.28421783447266 104.87000274658203 C 84.19087982177734 103.58999633789062 85.53421783447266 102.94999694824219 87.31421661376953 102.94999694824219 M 87.03421783447266 104.56999969482422 C 85.70755004882812 104.56999969482422 84.75088500976562 104.95333099365234 84.16421508789062 105.72000122070312 C 83.57754516601562 106.47999572753906 83.28421783447266 107.76333618164062 83.28421783447266 109.56999969482422 C 83.28421783447266 111.37000274658203 83.58421325683594 112.66000366210938 84.18421936035156 113.44000244140625 C 84.78421783447266 114.22000122070312 85.74755096435547 114.61000061035156 87.07421875 114.61000061035156 C 88.27421569824219 114.61000061035156 89.16754913330078 114.17333221435547 89.75421142578125 113.30000305175781 C 90.34088134765625 112.42666625976562 90.63421630859375 111.17333221435547 90.63421630859375 109.54000091552734 C 90.63421630859375 107.87333679199219 90.34088134765625 106.62666320800781 89.75421142578125 105.80000305175781 C 89.16754913330078 104.97999572753906 88.26087951660156 104.56999969482422 87.03421783447266 104.56999969482422 ZM 101.46749114990234 116.2300033569336 C 99.56748962402344 116.2300033569336 98.06748962402344 115.65333557128906 96.96749114990234 114.5 C 95.87416076660156 113.34666442871094 95.3274917602539 111.73999786376953 95.3274917602539 109.68000030517578 C 95.3274917602539 107.61333465576172 95.83749389648438 105.97000122070312 96.85749053955078 104.75 C 97.87749481201172 103.52999877929688 99.2441635131836 102.91999816894531 100.9574966430664 102.91999816894531 C 102.5708236694336 102.91999816894531 103.84416198730469 103.44999694824219 104.77749633789062 104.51000213623047 C 105.71749114990234 105.56999969482422 106.18749237060547 106.96666717529297 106.18749237060547 108.69999694824219 L 106.18749237060547 109.93000030517578 L 97.33749389648438 109.93000030517578 C 97.37749481201172 111.4366683959961 97.76082611083984 112.58000183105469 98.48749542236328 113.36000061035156 C 99.2074966430664 114.14666748046875 100.22415924072266 114.54000091552734 101.53749084472656 114.54000091552734 C 102.91749572753906 114.54000091552734 104.2841567993164 114.25 105.63749694824219 113.66999816894531 L 105.63749694824219 115.4000015258789 C 104.9508285522461 115.69999694824219 104.30082702636719 115.913330078125 103.68749237060547 116.04000091552734 C 103.07415771484375 116.16666412353516 102.33415985107422 116.2300033569336 101.46749114990234 116.2300033569336 M 100.93749237060547 104.55000305175781 C 99.90415954589844 104.55000305175781 99.08082580566406 104.88666534423828 98.46749114990234 105.55999755859375 C 97.85415649414062 106.23333740234375 97.4941635131836 107.163330078125 97.38749694824219 108.3499984741211 L 104.10749053955078 108.3499984741211 C 104.10749053955078 107.12333679199219 103.83082580566406 106.18333435058594 103.27749633789062 105.52999877929688 C 102.73082733154297 104.87666320800781 101.9508285522461 104.55000305175781 100.93749237060547 104.55000305175781 ZM 117.71890258789062 116 L 108.3989028930664 116 L 108.3989028930664 114.68000030517578 L 115.40890502929688 104.66999816894531 L 108.82890319824219 104.66999816894531 L 108.82890319824219 103.16000366210938 L 117.53890228271484 103.16000366210938 L 117.53890228271484 104.66999816894531 L 110.62890625 114.48999786376953 L 117.71890258789062 114.48999786376953 L 117.71890258789062 116 ZM 122.672607421875 116 L 120.72260284423828 116 L 120.72260284423828 103.16000366210938 L 122.672607421875 103.16000366210938 L 122.672607421875 116 M 120.56260681152344 99.68000030517578 C 120.56260681152344 99.23333740234375 120.672607421875 98.90666198730469 120.89260864257812 98.69999694824219 C 121.10594177246094 98.49333190917969 121.3792724609375 98.38999938964844 121.71260833740234 98.38999938964844 C 122.02593994140625 98.38999938964844 122.29593658447266 98.49333190917969 122.5226058959961 98.69999694824219 C 122.74927520751953 98.913330078125 122.86260223388672 99.23999786376953 122.86260223388672 99.68000030517578 C 122.86260223388672 100.11333465576172 122.74927520751953 100.4366683959961 122.5226058959961 100.6500015258789 C 122.29593658447266 100.87000274658203 122.02593994140625 100.97999572753906 121.71260833740234 100.97999572753906 C 121.3792724609375 100.97999572753906 121.10594177246094 100.87000274658203 120.89260864257812 100.6500015258789 C 120.672607421875 100.4366683959961 120.56260681152344 100.11333465576172 120.56260681152344 99.68000030517578 ZM 128.62136840820312 103.16000366210938 L 128.62136840820312 111.48999786376953 C 128.62136840820312 112.53666687011719 128.86135864257812 113.31666564941406 129.3413543701172 113.83000183105469 C 129.814697265625 114.3499984741211 130.5580291748047 114.61000061035156 131.5713653564453 114.61000061035156 C 132.91802978515625 114.61000061035156 133.9013671875 114.23999786376953 134.5213623046875 113.5 C 135.141357421875 112.76667022705078 135.45135498046875 111.56999969482422 135.45135498046875 109.91000366210938 L 135.45135498046875 103.16000366210938 L 137.4013671875 103.16000366210938 L 137.4013671875 116 L 135.79136657714844 116 L 135.51136779785156 114.27999877929688 L 135.41136169433594 114.27999877929688 C 135.01136779785156 114.913330078125 134.45802307128906 115.39666748046875 133.75135803222656 115.7300033569336 C 133.04469299316406 116.0633316040039 132.23802185058594 116.2300033569336 131.33135986328125 116.2300033569336 C 129.7646942138672 116.2300033569336 128.59469604492188 115.86000061035156 127.82135772705078 115.12000274658203 C 127.0413589477539 114.37999725341797 126.65135955810547 113.1933364868164 126.65135955810547 111.55999755859375 L 126.65135955810547 103.16000366210938 L 128.62136840820312 103.16000366210938 ZM 157.88809204101562 116 L 157.88809204101562 107.63999938964844 C 157.88809204101562 106.62000274658203 157.67141723632812 105.85333251953125 157.2380828857422 105.33999633789062 C 156.79808044433594 104.82666778564453 156.1180877685547 104.56999969482422 155.19808959960938 104.56999969482422 C 153.98475646972656 104.56999969482422 153.0880889892578 104.91999816894531 152.50808715820312 105.62000274658203 C 151.93475341796875 106.3133316040039 151.64808654785156 107.38333129882812 151.64808654785156 108.83000183105469 L 151.64808654785156 116 L 149.69808959960938 116 L 149.69808959960938 107.63999938964844 C 149.69808959960938 106.62000274658203 149.48141479492188 105.85333251953125 149.04808044433594 105.33999633789062 C 148.6080780029297 104.82666778564453 147.92474365234375 104.56999969482422 146.99807739257812 104.56999969482422 C 145.77809143066406 104.56999969482422 144.88475036621094 104.9366683959961 144.31808471679688 105.66999816894531 C 143.7514190673828 106.40333557128906 143.46807861328125 107.5999984741211 143.46807861328125 109.26000213623047 L 143.46807861328125 116 L 141.51808166503906 116 L 141.51808166503906 103.16000366210938 L 143.09808349609375 103.16000366210938 L 143.4180908203125 104.91000366210938 L 143.50808715820312 104.91000366210938 C 143.8814239501953 104.29000091552734 144.4014129638672 103.80332946777344 145.06808471679688 103.44999694824219 C 145.73475646972656 103.09666442871094 146.48141479492188 102.91999816894531 147.30809020996094 102.91999816894531 C 149.31475830078125 102.91999816894531 150.62808227539062 103.64666748046875 151.24807739257812 105.0999984741211 L 151.3380889892578 105.0999984741211 C 151.72474670410156 104.42666625976562 152.2814178466797 103.89666748046875 153.00808715820312 103.51000213623047 C 153.73475646972656 103.11666870117188 154.56141662597656 102.91999816894531 155.4880828857422 102.91999816894531 C 156.94142150878906 102.91999816894531 158.028076171875 103.2933349609375 158.74807739257812 104.04000091552734 C 159.47474670410156 104.78666687011719 159.8380889892578 105.97999572753906 159.8380889892578 107.62000274658203 L 159.8380889892578 116 L 157.88809204101562 116 Z"
     transform="matrix(1.4719069004058838, 0, 0, 1.4719069004058838, 335.5748291015625, 60.14285659790039)"
     style="fill: rgb(51, 51, 51); white-space: pre; color: rgb(51, 51, 51);"
     id="path379" />
</svg>
