<?xml version="1.0" encoding="UTF-8" standalone="no"?>
<svg
   xmlns:dc="http://purl.org/dc/elements/1.1/"
   xmlns:cc="http://creativecommons.org/ns#"
   xmlns:rdf="http://www.w3.org/1999/02/22-rdf-syntax-ns#"
   xmlns:svg="http://www.w3.org/2000/svg"
   xmlns="http://www.w3.org/2000/svg"
   width="76.275467mm"
   height="40.408272mm"
   viewBox="0 0 76.275467 40.40827"
   version="1.1"
   id="svg8">
  <defs
     id="defs2" />
  <metadata
     id="metadata5">
    <rdf:RDF>
      <cc:Work
         rdf:about="">
        <dc:format>image/svg+xml</dc:format>
        <dc:type
           rdf:resource="http://purl.org/dc/dcmitype/StillImage" />
        <dc:title></dc:title>
      </cc:Work>
    </rdf:RDF>
  </metadata>
  <g
     id="layer1"
     transform="translate(1.1573661,-0.20531453)">
    <rect
       id="rect10-0-7"
       width="4.0758595"
       height="34.143684"
       x="36.159946"
       y="3.3376119"
       style="fill:#ffffff;stroke:#000000;stroke-width:0.26458332" />
    <rect
       id="rect10"
       width="4.0758595"
       height="34.143684"
       x="4.4099469"
       y="3.3376062"
       style="fill:#ffffff;stroke:#000000;stroke-width:0.26458332" />
    <g
       aria-label=" MS 1"
       transform="matrix(0.05966187,0,0,0.05966187,-2.3348306,0.64599171)"
       style="font-style:normal;font-weight:normal;font-size:40px;line-height:1.25;font-family:sans-serif;letter-spacing:0px;word-spacing:0px;fill:#000000;fill-opacity:1;stroke:none"
       id="flowRoot12">
      <path
         d="m 139.58214,72.379296 q -0.70955,-2.554395 -1.45458,-4.895924 -0.74504,-2.341529 -1.45459,-4.399236 -0.67408,-2.093185 -1.31268,-3.796115 -0.63859,-1.70293 -1.17076,-2.980128 -0.14191,2.02223 -0.24834,4.470192 -0.071,2.412484 -0.17739,4.966879 -0.071,2.554395 -0.14191,5.144268 -0.0355,2.554395 -0.071,4.895924 h -3.05108 q 0.10643,-3.192994 0.21286,-6.421465 0.10644,-3.26395 0.24835,-6.385988 0.17739,-3.157517 0.35478,-6.137644 0.21286,-2.980128 0.46121,-5.640956 h 3.15751 q 0.6386,1.525541 1.45459,3.654204 0.81599,2.093185 1.63197,4.399236 0.85147,2.306051 1.63198,4.612102 0.78051,2.306052 1.34815,4.221848 0.56764,-1.915796 1.31268,-4.221848 0.74503,-2.306051 1.56102,-4.612102 0.81598,-2.306051 1.59649,-4.399236 0.81599,-2.128663 1.45459,-3.654204 h 3.15751 q 0.24835,2.660828 0.42574,5.640956 0.21286,2.980127 0.35477,6.137644 0.17739,3.122038 0.28383,6.385988 0.10643,3.228471 0.21286,6.421465 h -3.05108 q -0.071,-2.341529 -0.14191,-4.931402 -0.0355,-2.589872 -0.14191,-5.179745 -0.071,-2.625351 -0.17739,-5.073313 -0.10643,-2.48344 -0.24834,-4.541147 -0.3193,0.886943 -0.81599,2.235096 -0.46121,1.312675 -0.99338,2.873694 -0.49669,1.56102 -1.06433,3.228472 -0.53217,1.631975 -1.02885,3.157516 -0.46121,1.525542 -0.85147,2.80274 -0.35478,1.241719 -0.56764,2.022229 z"
         style="font-style:normal;font-variant:normal;font-weight:normal;font-stretch:normal;font-size:35.47771072px;line-height:0;font-family:'Ubuntu Condensed';-inkscape-font-specification:'Ubuntu Condensed, ';text-align:center;text-anchor:middle"
         id="path4972" />
      <path
         d="m 159.85987,73.585538 q 1.9158,0 2.94465,-1.064331 1.06433,-1.064331 1.06433,-2.873695 0,-0.957898 -0.3193,-1.70293 -0.3193,-0.745032 -0.85146,-1.348153 -0.49669,-0.603121 -1.17077,-1.099809 -0.67407,-0.496688 -1.38363,-0.993376 -0.81599,-0.567643 -1.70293,-1.206242 -0.88694,-0.638599 -1.63197,-1.490064 -0.70956,-0.851465 -1.17077,-1.986752 -0.46121,-1.135286 -0.46121,-2.660828 0,-1.490064 0.49669,-2.696306 0.53217,-1.206242 1.41911,-2.057707 0.92242,-0.851465 2.16414,-1.312675 1.2772,-0.461211 2.73178,-0.461211 1.41911,0 2.62535,0.354777 1.20625,0.354778 2.02223,0.851466 l -0.99337,2.518917 q -0.74504,-0.496688 -1.63198,-0.745032 -0.85146,-0.283822 -1.80936,-0.283822 -1.73841,0 -2.80274,0.957899 -1.02885,0.92242 -1.02885,2.731783 0,0.993376 0.3193,1.738408 0.35477,0.745032 0.88694,1.348153 0.56764,0.603121 1.2772,1.099809 0.74503,0.496688 1.56102,1.028854 0.81598,0.532165 1.66745,1.170764 0.85146,0.638599 1.52554,1.490064 0.70955,0.815987 1.13529,1.951274 0.46121,1.099809 0.46121,2.625351 0,1.38363 -0.42574,2.62535 -0.42573,1.24172 -1.34815,2.199618 -0.88694,0.922421 -2.27057,1.490064 -1.34816,0.532166 -3.193,0.532166 -1.70293,0 -2.98012,-0.390255 -1.2772,-0.390255 -2.27058,-1.028854 l 0.99338,-2.554395 q 0.92242,0.567644 1.88032,0.922421 0.99337,0.319299 2.27057,0.319299 z"
         style="font-style:normal;font-variant:normal;font-weight:normal;font-stretch:normal;font-size:35.47771072px;line-height:0;font-family:'Ubuntu Condensed';-inkscape-font-specification:'Ubuntu Condensed, ';text-align:center;text-anchor:middle"
         id="path4974" />
      <path
         d="m 139.4394,106.09503 q 0.67408,-0.39026 1.38363,-0.9579 0.74503,-0.56764 1.41911,-1.20624 0.67408,-0.67408 1.24172,-1.34816 0.60312,-0.70955 0.99338,-1.38363 h 2.34152 v 24.58606 h -3.05108 v -19.76109 q -0.60312,0.6386 -1.41911,1.20624 -0.78051,0.56765 -1.66745,1.06433 z"
         style="font-style:normal;font-variant:normal;font-weight:normal;font-stretch:normal;font-size:35.47771072px;line-height:0;font-family:'Ubuntu Condensed';-inkscape-font-specification:'Ubuntu Condensed, ';text-align:center;text-anchor:middle"
         id="path4976" />
    </g>
    <rect
       id="rect10-0"
       width="4.0758595"
       height="34.143684"
       x="20.284946"
       y="3.3376091"
       style="fill:#ffffff;stroke:#000000;stroke-width:0.26458332" />
    <g
       aria-label=" MS 2"
       transform="matrix(0.05966187,0,0,0.05966187,13.540169,0.64599449)"
       style="font-style:normal;font-weight:normal;font-size:40px;line-height:1.25;font-family:sans-serif;letter-spacing:0px;word-spacing:0px;fill:#000000;fill-opacity:1;stroke:none"
       id="flowRoot12-6">
      <path
         d="m 139.58214,72.379296 q -0.70955,-2.554395 -1.45458,-4.895924 -0.74504,-2.341529 -1.45459,-4.399236 -0.67408,-2.093185 -1.31268,-3.796115 -0.63859,-1.70293 -1.17076,-2.980128 -0.14191,2.02223 -0.24834,4.470192 -0.071,2.412484 -0.17739,4.966879 -0.071,2.554395 -0.14191,5.144268 -0.0355,2.554395 -0.071,4.895924 h -3.05108 q 0.10643,-3.192994 0.21286,-6.421465 0.10644,-3.26395 0.24835,-6.385988 0.17739,-3.157517 0.35478,-6.137644 0.21286,-2.980128 0.46121,-5.640956 h 3.15751 q 0.6386,1.525541 1.45459,3.654204 0.81599,2.093185 1.63197,4.399236 0.85147,2.306051 1.63198,4.612102 0.78051,2.306052 1.34815,4.221848 0.56764,-1.915796 1.31268,-4.221848 0.74503,-2.306051 1.56102,-4.612102 0.81598,-2.306051 1.59649,-4.399236 0.81599,-2.128663 1.45459,-3.654204 h 3.15751 q 0.24835,2.660828 0.42574,5.640956 0.21286,2.980127 0.35477,6.137644 0.17739,3.122038 0.28383,6.385988 0.10643,3.228471 0.21286,6.421465 h -3.05108 q -0.071,-2.341529 -0.14191,-4.931402 -0.0355,-2.589872 -0.14191,-5.179745 -0.071,-2.625351 -0.17739,-5.073313 -0.10643,-2.48344 -0.24834,-4.541147 -0.3193,0.886943 -0.81599,2.235096 -0.46121,1.312675 -0.99338,2.873694 -0.49669,1.56102 -1.06433,3.228472 -0.53217,1.631975 -1.02885,3.157516 -0.46121,1.525542 -0.85147,2.80274 -0.35478,1.241719 -0.56764,2.022229 z"
         style="font-style:normal;font-variant:normal;font-weight:normal;font-stretch:normal;font-size:35.47771072px;line-height:0;font-family:'Ubuntu Condensed';-inkscape-font-specification:'Ubuntu Condensed, ';text-align:center;text-anchor:middle"
         id="path4979" />
      <path
         d="m 159.85987,73.585538 q 1.9158,0 2.94465,-1.064331 1.06433,-1.064331 1.06433,-2.873695 0,-0.957898 -0.3193,-1.70293 -0.3193,-0.745032 -0.85146,-1.348153 -0.49669,-0.603121 -1.17077,-1.099809 -0.67407,-0.496688 -1.38363,-0.993376 -0.81599,-0.567643 -1.70293,-1.206242 -0.88694,-0.638599 -1.63197,-1.490064 -0.70956,-0.851465 -1.17077,-1.986752 -0.46121,-1.135286 -0.46121,-2.660828 0,-1.490064 0.49669,-2.696306 0.53217,-1.206242 1.41911,-2.057707 0.92242,-0.851465 2.16414,-1.312675 1.2772,-0.461211 2.73178,-0.461211 1.41911,0 2.62535,0.354777 1.20625,0.354778 2.02223,0.851466 l -0.99337,2.518917 q -0.74504,-0.496688 -1.63198,-0.745032 -0.85146,-0.283822 -1.80936,-0.283822 -1.73841,0 -2.80274,0.957899 -1.02885,0.92242 -1.02885,2.731783 0,0.993376 0.3193,1.738408 0.35477,0.745032 0.88694,1.348153 0.56764,0.603121 1.2772,1.099809 0.74503,0.496688 1.56102,1.028854 0.81598,0.532165 1.66745,1.170764 0.85146,0.638599 1.52554,1.490064 0.70955,0.815987 1.13529,1.951274 0.46121,1.099809 0.46121,2.625351 0,1.38363 -0.42574,2.62535 -0.42573,1.24172 -1.34815,2.199618 -0.88694,0.922421 -2.27057,1.490064 -1.34816,0.532166 -3.193,0.532166 -1.70293,0 -2.98012,-0.390255 -1.2772,-0.390255 -2.27058,-1.028854 l 0.99338,-2.554395 q 0.92242,0.567644 1.88032,0.922421 0.99337,0.319299 2.27057,0.319299 z"
         style="font-style:normal;font-variant:normal;font-weight:normal;font-stretch:normal;font-size:35.47771072px;line-height:0;font-family:'Ubuntu Condensed';-inkscape-font-specification:'Ubuntu Condensed, ';text-align:center;text-anchor:middle"
         id="path4981" />
      <path
         d="m 138.51698,102.72464 q 2.09318,-2.09318 5.10879,-2.09318 2.87369,0 4.39924,1.52554 1.52554,1.49006 1.52554,4.68306 0,1.49006 -0.49669,2.83822 -0.49669,1.34815 -1.24172,2.62535 -0.74503,1.24172 -1.63197,2.48344 -0.88695,1.24172 -1.70293,2.55439 -0.81599,1.2772 -1.41911,2.69631 -0.60312,1.38363 -0.74504,2.98012 h 7.73415 v 2.76727 h -10.99809 v -0.67408 q 0,-2.37701 0.53216,-4.22185 0.56764,-1.84484 1.34815,-3.3349 0.81599,-1.49007 1.77389,-2.76726 0.9579,-1.2772 1.73841,-2.48344 0.81598,-1.24172 1.34815,-2.51892 0.56764,-1.31268 0.56764,-2.8737 0,-1.88031 -0.74503,-2.6963 -0.74503,-0.85147 -2.23509,-0.85147 -1.02886,0 -1.88032,0.42574 -0.81599,0.39025 -1.49007,1.02885 z"
         style="font-style:normal;font-variant:normal;font-weight:normal;font-stretch:normal;font-size:35.47771072px;line-height:0;font-family:'Ubuntu Condensed';-inkscape-font-specification:'Ubuntu Condensed, ';text-align:center;text-anchor:middle"
         id="path4983" />
    </g>
    <g
       aria-label=" MS 3"
       transform="matrix(0.05966187,0,0,0.05966187,29.41517,0.64599719)"
       style="font-style:normal;font-weight:normal;font-size:40px;line-height:1.25;font-family:sans-serif;letter-spacing:0px;word-spacing:0px;fill:#000000;fill-opacity:1;stroke:none"
       id="flowRoot12-6-7">
      <path
         d="m 139.58214,72.379296 q -0.70955,-2.554395 -1.45458,-4.895924 -0.74504,-2.341529 -1.45459,-4.399236 -0.67408,-2.093185 -1.31268,-3.796115 -0.63859,-1.70293 -1.17076,-2.980128 -0.14191,2.02223 -0.24834,4.470192 -0.071,2.412484 -0.17739,4.966879 -0.071,2.554395 -0.14191,5.144268 -0.0355,2.554395 -0.071,4.895924 h -3.05108 q 0.10643,-3.192994 0.21286,-6.421465 0.10644,-3.26395 0.24835,-6.385988 0.17739,-3.157517 0.35478,-6.137644 0.21286,-2.980128 0.46121,-5.640956 h 3.15751 q 0.6386,1.525541 1.45459,3.654204 0.81599,2.093185 1.63197,4.399236 0.85147,2.306051 1.63198,4.612102 0.78051,2.306052 1.34815,4.221848 0.56764,-1.915796 1.31268,-4.221848 0.74503,-2.306051 1.56102,-4.612102 0.81598,-2.306051 1.59649,-4.399236 0.81599,-2.128663 1.45459,-3.654204 h 3.15751 q 0.24835,2.660828 0.42574,5.640956 0.21286,2.980127 0.35477,6.137644 0.17739,3.122038 0.28383,6.385988 0.10643,3.228471 0.21286,6.421465 h -3.05108 q -0.071,-2.341529 -0.14191,-4.931402 -0.0355,-2.589872 -0.14191,-5.179745 -0.071,-2.625351 -0.17739,-5.073313 -0.10643,-2.48344 -0.24834,-4.541147 -0.3193,0.886943 -0.81599,2.235096 -0.46121,1.312675 -0.99338,2.873694 -0.49669,1.56102 -1.06433,3.228472 -0.53217,1.631975 -1.02885,3.157516 -0.46121,1.525542 -0.85147,2.80274 -0.35478,1.241719 -0.56764,2.022229 z"
         style="font-style:normal;font-variant:normal;font-weight:normal;font-stretch:normal;font-size:35.47771072px;line-height:0;font-family:'Ubuntu Condensed';-inkscape-font-specification:'Ubuntu Condensed, ';text-align:center;text-anchor:middle"
         id="path4995" />
      <path
         d="m 159.85987,73.585538 q 1.9158,0 2.94465,-1.064331 1.06433,-1.064331 1.06433,-2.873695 0,-0.957898 -0.3193,-1.70293 -0.3193,-0.745032 -0.85146,-1.348153 -0.49669,-0.603121 -1.17077,-1.099809 -0.67407,-0.496688 -1.38363,-0.993376 -0.81599,-0.567643 -1.70293,-1.206242 -0.88694,-0.638599 -1.63197,-1.490064 -0.70956,-0.851465 -1.17077,-1.986752 -0.46121,-1.135286 -0.46121,-2.660828 0,-1.490064 0.49669,-2.696306 0.53217,-1.206242 1.41911,-2.057707 0.92242,-0.851465 2.16414,-1.312675 1.2772,-0.461211 2.73178,-0.461211 1.41911,0 2.62535,0.354777 1.20625,0.354778 2.02223,0.851466 l -0.99337,2.518917 q -0.74504,-0.496688 -1.63198,-0.745032 -0.85146,-0.283822 -1.80936,-0.283822 -1.73841,0 -2.80274,0.957899 -1.02885,0.92242 -1.02885,2.731783 0,0.993376 0.3193,1.738408 0.35477,0.745032 0.88694,1.348153 0.56764,0.603121 1.2772,1.099809 0.74503,0.496688 1.56102,1.028854 0.81598,0.532165 1.66745,1.170764 0.85146,0.638599 1.52554,1.490064 0.70955,0.815987 1.13529,1.951274 0.46121,1.099809 0.46121,2.625351 0,1.38363 -0.42574,2.62535 -0.42573,1.24172 -1.34815,2.199618 -0.88694,0.922421 -2.27057,1.490064 -1.34816,0.532166 -3.193,0.532166 -1.70293,0 -2.98012,-0.390255 -1.2772,-0.390255 -2.27058,-1.028854 l 0.99338,-2.554395 q 0.92242,0.567644 1.88032,0.922421 0.99337,0.319299 2.27057,0.319299 z"
         style="font-style:normal;font-variant:normal;font-weight:normal;font-stretch:normal;font-size:35.47771072px;line-height:0;font-family:'Ubuntu Condensed';-inkscape-font-specification:'Ubuntu Condensed, ';text-align:center;text-anchor:middle"
         id="path4997" />
      <path
         d="m 146.07373,112.55197 q 1.77389,0.6386 2.73179,2.27057 0.99337,1.5965 0.99337,4.1509 0,3.40586 -1.66745,5.39261 -1.63198,1.95127 -4.96688,1.95127 -1.31268,0 -2.5544,-0.39025 -1.24172,-0.39026 -2.16414,-1.02886 l 0.81599,-2.48344 q 0.81599,0.49669 1.70293,0.85147 0.92242,0.35478 1.9158,0.35478 1.80936,0 2.80274,-1.09981 1.02885,-1.13529 1.02885,-3.58325 0,-2.44796 -1.13529,-3.68968 -1.0998,-1.24172 -3.54777,-1.24172 h -0.92242 v -2.58988 h 0.78051 q 2.12867,0 3.15752,-1.13528 1.02885,-1.13529 1.02885,-3.15752 0,-1.9158 -0.81599,-2.83822 -0.81598,-0.95789 -2.16414,-0.95789 -0.92242,0 -1.77388,0.35477 -0.81599,0.35478 -1.41911,0.88695 l -1.20624,-2.2351 q 0.92242,-0.85147 2.16414,-1.2772 1.2772,-0.42573 2.51892,-0.42573 2.76726,0 4.25732,1.73841 1.49007,1.7384 1.49007,4.6121 0,2.02223 -0.81599,3.44134 -0.78051,1.38363 -2.2351,2.12866 z"
         style="font-style:normal;font-variant:normal;font-weight:normal;font-stretch:normal;font-size:35.47771072px;line-height:0;font-family:'Ubuntu Condensed';-inkscape-font-specification:'Ubuntu Condensed, ';text-align:center;text-anchor:middle"
         id="path4999" />
    </g>
    <rect
       id="rect10-0-5"
       width="4.0758595"
       height="34.143684"
       x="52.03495"
       y="3.3376119"
       style="fill:#ffffff;stroke:#000000;stroke-width:0.26458332" />
    <g
       aria-label=" MS 4"
       transform="matrix(0.05966187,0,0,0.05966187,45.290171,0.64599719)"
       style="font-style:normal;font-weight:normal;font-size:40px;line-height:1.25;font-family:sans-serif;letter-spacing:0px;word-spacing:0px;fill:#000000;fill-opacity:1;stroke:none"
       id="flowRoot12-6-1">
      <path
         d="m 139.58214,72.379296 q -0.70955,-2.554395 -1.45458,-4.895924 -0.74504,-2.341529 -1.45459,-4.399236 -0.67408,-2.093185 -1.31268,-3.796115 -0.63859,-1.70293 -1.17076,-2.980128 -0.14191,2.02223 -0.24834,4.470192 -0.071,2.412484 -0.17739,4.966879 -0.071,2.554395 -0.14191,5.144268 -0.0355,2.554395 -0.071,4.895924 h -3.05108 q 0.10643,-3.192994 0.21286,-6.421465 0.10644,-3.26395 0.24835,-6.385988 0.17739,-3.157517 0.35478,-6.137644 0.21286,-2.980128 0.46121,-5.640956 h 3.15751 q 0.6386,1.525541 1.45459,3.654204 0.81599,2.093185 1.63197,4.399236 0.85147,2.306051 1.63198,4.612102 0.78051,2.306052 1.34815,4.221848 0.56764,-1.915796 1.31268,-4.221848 0.74503,-2.306051 1.56102,-4.612102 0.81598,-2.306051 1.59649,-4.399236 0.81599,-2.128663 1.45459,-3.654204 h 3.15751 q 0.24835,2.660828 0.42574,5.640956 0.21286,2.980127 0.35477,6.137644 0.17739,3.122038 0.28383,6.385988 0.10643,3.228471 0.21286,6.421465 h -3.05108 q -0.071,-2.341529 -0.14191,-4.931402 -0.0355,-2.589872 -0.14191,-5.179745 -0.071,-2.625351 -0.17739,-5.073313 -0.10643,-2.48344 -0.24834,-4.541147 -0.3193,0.886943 -0.81599,2.235096 -0.46121,1.312675 -0.99338,2.873694 -0.49669,1.56102 -1.06433,3.228472 -0.53217,1.631975 -1.02885,3.157516 -0.46121,1.525542 -0.85147,2.80274 -0.35478,1.241719 -0.56764,2.022229 z"
         style="font-style:normal;font-variant:normal;font-weight:normal;font-stretch:normal;font-size:35.47771072px;line-height:0;font-family:'Ubuntu Condensed';-inkscape-font-specification:'Ubuntu Condensed, ';text-align:center;text-anchor:middle"
         id="path5002" />
      <path
         d="m 159.85987,73.585538 q 1.9158,0 2.94465,-1.064331 1.06433,-1.064331 1.06433,-2.873695 0,-0.957898 -0.3193,-1.70293 -0.3193,-0.745032 -0.85146,-1.348153 -0.49669,-0.603121 -1.17077,-1.099809 -0.67407,-0.496688 -1.38363,-0.993376 -0.81599,-0.567643 -1.70293,-1.206242 -0.88694,-0.638599 -1.63197,-1.490064 -0.70956,-0.851465 -1.17077,-1.986752 -0.46121,-1.135286 -0.46121,-2.660828 0,-1.490064 0.49669,-2.696306 0.53217,-1.206242 1.41911,-2.057707 0.92242,-0.851465 2.16414,-1.312675 1.2772,-0.461211 2.73178,-0.461211 1.41911,0 2.62535,0.354777 1.20625,0.354778 2.02223,0.851466 l -0.99337,2.518917 q -0.74504,-0.496688 -1.63198,-0.745032 -0.85146,-0.283822 -1.80936,-0.283822 -1.73841,0 -2.80274,0.957899 -1.02885,0.92242 -1.02885,2.731783 0,0.993376 0.3193,1.738408 0.35477,0.745032 0.88694,1.348153 0.56764,0.603121 1.2772,1.099809 0.74503,0.496688 1.56102,1.028854 0.81598,0.532165 1.66745,1.170764 0.85146,0.638599 1.52554,1.490064 0.70955,0.815987 1.13529,1.951274 0.46121,1.099809 0.46121,2.625351 0,1.38363 -0.42574,2.62535 -0.42573,1.24172 -1.34815,2.199618 -0.88694,0.922421 -2.27057,1.490064 -1.34816,0.532166 -3.193,0.532166 -1.70293,0 -2.98012,-0.390255 -1.2772,-0.390255 -2.27058,-1.028854 l 0.99338,-2.554395 q 0.92242,0.567644 1.88032,0.922421 0.99337,0.319299 2.27057,0.319299 z"
         style="font-style:normal;font-variant:normal;font-weight:normal;font-stretch:normal;font-size:35.47771072px;line-height:0;font-family:'Ubuntu Condensed';-inkscape-font-specification:'Ubuntu Condensed, ';text-align:center;text-anchor:middle"
         id="path5004" />
      <path
         d="m 138.44602,117.55433 q 0.6386,-2.19962 1.63198,-4.64758 0.99338,-2.44796 2.05771,-4.71854 1.06433,-2.27057 2.02223,-4.11541 0.99337,-1.84484 1.59649,-2.8737 h 3.12204 v 16.07141 h 2.41249 v 2.51891 h -2.41249 v 5.99574 h -2.80274 v -5.99574 h -7.62771 z m 7.62771,-0.28382 v -11.99147 q -0.53216,1.09981 -1.24172,2.51892 -0.67407,1.41911 -1.38363,3.0156 -0.67407,1.5965 -1.31267,3.26395 -0.6386,1.63198 -1.09981,3.193 z"
         style="font-style:normal;font-variant:normal;font-weight:normal;font-stretch:normal;font-size:35.47771072px;line-height:0;font-family:'Ubuntu Condensed';-inkscape-font-specification:'Ubuntu Condensed, ';text-align:center;text-anchor:middle"
         id="path5006" />
    </g>
    <rect
       id="rect10-0-75"
       width="4.0758595"
       height="34.143684"
       x="67.90995"
       y="3.3376119"
       style="fill:#ffffff;stroke:#000000;stroke-width:0.26458332" />
    <g
       aria-label=" MS 5"
       transform="matrix(0.05966187,0,0,0.05966187,61.165172,0.64599719)"
       style="font-style:normal;font-weight:normal;font-size:40px;line-height:1.25;font-family:sans-serif;letter-spacing:0px;word-spacing:0px;fill:#000000;fill-opacity:1;stroke:none"
       id="flowRoot12-6-9">
      <path
         d="m 139.58214,72.379296 q -0.70955,-2.554395 -1.45458,-4.895924 -0.74504,-2.341529 -1.45459,-4.399236 -0.67408,-2.093185 -1.31268,-3.796115 -0.63859,-1.70293 -1.17076,-2.980128 -0.14191,2.02223 -0.24834,4.470192 -0.071,2.412484 -0.17739,4.966879 -0.071,2.554395 -0.14191,5.144268 -0.0355,2.554395 -0.071,4.895924 h -3.05108 q 0.10643,-3.192994 0.21286,-6.421465 0.10644,-3.26395 0.24835,-6.385988 0.17739,-3.157517 0.35478,-6.137644 0.21286,-2.980128 0.46121,-5.640956 h 3.15751 q 0.6386,1.525541 1.45459,3.654204 0.81599,2.093185 1.63197,4.399236 0.85147,2.306051 1.63198,4.612102 0.78051,2.306052 1.34815,4.221848 0.56764,-1.915796 1.31268,-4.221848 0.74503,-2.306051 1.56102,-4.612102 0.81598,-2.306051 1.59649,-4.399236 0.81599,-2.128663 1.45459,-3.654204 h 3.15751 q 0.24835,2.660828 0.42574,5.640956 0.21286,2.980127 0.35477,6.137644 0.17739,3.122038 0.28383,6.385988 0.10643,3.228471 0.21286,6.421465 h -3.05108 q -0.071,-2.341529 -0.14191,-4.931402 -0.0355,-2.589872 -0.14191,-5.179745 -0.071,-2.625351 -0.17739,-5.073313 -0.10643,-2.48344 -0.24834,-4.541147 -0.3193,0.886943 -0.81599,2.235096 -0.46121,1.312675 -0.99338,2.873694 -0.49669,1.56102 -1.06433,3.228472 -0.53217,1.631975 -1.02885,3.157516 -0.46121,1.525542 -0.85147,2.80274 -0.35478,1.241719 -0.56764,2.022229 z"
         style="font-style:normal;font-variant:normal;font-weight:normal;font-stretch:normal;font-size:35.47771072px;line-height:0;font-family:'Ubuntu Condensed';-inkscape-font-specification:'Ubuntu Condensed, ';text-align:center;text-anchor:middle"
         id="path5009" />
      <path
         d="m 159.85987,73.585538 q 1.9158,0 2.94465,-1.064331 1.06433,-1.064331 1.06433,-2.873695 0,-0.957898 -0.3193,-1.70293 -0.3193,-0.745032 -0.85146,-1.348153 -0.49669,-0.603121 -1.17077,-1.099809 -0.67407,-0.496688 -1.38363,-0.993376 -0.81599,-0.567643 -1.70293,-1.206242 -0.88694,-0.638599 -1.63197,-1.490064 -0.70956,-0.851465 -1.17077,-1.986752 -0.46121,-1.135286 -0.46121,-2.660828 0,-1.490064 0.49669,-2.696306 0.53217,-1.206242 1.41911,-2.057707 0.92242,-0.851465 2.16414,-1.312675 1.2772,-0.461211 2.73178,-0.461211 1.41911,0 2.62535,0.354777 1.20625,0.354778 2.02223,0.851466 l -0.99337,2.518917 q -0.74504,-0.496688 -1.63198,-0.745032 -0.85146,-0.283822 -1.80936,-0.283822 -1.73841,0 -2.80274,0.957899 -1.02885,0.92242 -1.02885,2.731783 0,0.993376 0.3193,1.738408 0.35477,0.745032 0.88694,1.348153 0.56764,0.603121 1.2772,1.099809 0.74503,0.496688 1.56102,1.028854 0.81598,0.532165 1.66745,1.170764 0.85146,0.638599 1.52554,1.490064 0.70955,0.815987 1.13529,1.951274 0.46121,1.099809 0.46121,2.625351 0,1.38363 -0.42574,2.62535 -0.42573,1.24172 -1.34815,2.199618 -0.88694,0.922421 -2.27057,1.490064 -1.34816,0.532166 -3.193,0.532166 -1.70293,0 -2.98012,-0.390255 -1.2772,-0.390255 -2.27058,-1.028854 l 0.99338,-2.554395 q 0.92242,0.567644 1.88032,0.922421 0.99337,0.319299 2.27057,0.319299 z"
         style="font-style:normal;font-variant:normal;font-weight:normal;font-stretch:normal;font-size:35.47771072px;line-height:0;font-family:'Ubuntu Condensed';-inkscape-font-specification:'Ubuntu Condensed, ';text-align:center;text-anchor:middle"
         id="path5011" />
      <path
         d="m 143.7322,103.85993 q -0.17739,2.5544 -0.24834,4.25733 -0.071,1.70293 -0.14191,2.6963 3.3349,0.46121 4.89592,2.41249 1.56102,1.95127 1.56102,5.28618 0,1.88031 -0.53216,3.3349 -0.53217,1.45459 -1.49007,2.44796 -0.92242,0.99338 -2.19962,1.49007 -1.27719,0.53216 -2.76726,0.53216 -1.02885,0 -2.09318,-0.28382 -1.06433,-0.28382 -1.98675,-0.81599 l 0.85146,-2.51891 q 1.52554,0.85146 3.12204,0.85146 1.70293,0 2.87369,-1.24172 1.17077,-1.24172 1.17077,-3.79611 0,-2.80274 -1.5965,-4.00899 -1.56102,-1.24172 -4.78949,-1.38363 0.17739,-1.77388 0.28382,-3.22847 0.10644,-1.49006 0.17739,-2.87369 0.071,-1.41911 0.10643,-2.80274 0.071,-1.41911 0.10644,-3.01561 h 8.30178 v 2.66083 z"
         style="font-style:normal;font-variant:normal;font-weight:normal;font-stretch:normal;font-size:35.47771072px;line-height:0;font-family:'Ubuntu Condensed';-inkscape-font-specification:'Ubuntu Condensed, ';text-align:center;text-anchor:middle"
         id="path5013" />
    </g>
    <path
       style="fill:none;stroke:#ff0000;stroke-width:0.60000002;stroke-linecap:butt;stroke-linejoin:miter;stroke-miterlimit:4;stroke-dasharray:none;stroke-opacity:1"
       d="M 1.8426339,9.3601182 H 6.0135642 V 11.823414 H 22.116553 v 1.937704 h 32.473248 v 1.737252 h 15.100728 v 1.804069 H 54.723434 v 1.469982 H 37.818639 v 2.271791 h 31.938706 v 1.870887 H 38.085908 v 2.204973 H 22.049736 v 1.937704 H 6.1471992 v 2.004523 H 69.824163 v 1.870887 H 6.0803816 V 32.60362 H 1.8708867"
       id="path4942" />
  </g>
</svg>
