<?xml version="1.0" encoding="UTF-8" standalone="no"?>
<svg
   xmlns:dc="http://purl.org/dc/elements/1.1/"
   xmlns:cc="http://creativecommons.org/ns#"
   xmlns:rdf="http://www.w3.org/1999/02/22-rdf-syntax-ns#"
   xmlns:svg="http://www.w3.org/2000/svg"
   xmlns="http://www.w3.org/2000/svg"
   xmlns:sodipodi="http://sodipodi.sourceforge.net/DTD/sodipodi-0.dtd"
   xmlns:inkscape="http://www.inkscape.org/namespaces/inkscape"
   viewBox="0 0 133.3 41.6"
   version="1.1"
   id="svg8"
   sodipodi:docname="itechart-black.svg"
   inkscape:version="0.92.3 (2405546, 2018-03-11)">
  <metadata
     id="metadata14">
    <rdf:RDF>
      <cc:Work
         rdf:about="">
        <dc:format>image/svg+xml</dc:format>
        <dc:type
           rdf:resource="http://purl.org/dc/dcmitype/StillImage" />
        <dc:title />
      </cc:Work>
    </rdf:RDF>
  </metadata>
  <defs
     id="defs12" />
  <sodipodi:namedview
     pagecolor="#ffffff"
     bordercolor="#666666"
     borderopacity="1"
     objecttolerance="10"
     gridtolerance="10"
     guidetolerance="10"
     inkscape:pageopacity="0"
     inkscape:pageshadow="2"
     inkscape:window-width="643"
     inkscape:window-height="480"
     id="namedview10"
     showgrid="false"
     inkscape:zoom="3.5408851"
     inkscape:cx="66.650001"
     inkscape:cy="20.799999"
     inkscape:window-x="0"
     inkscape:window-y="27"
     inkscape:window-maximized="0"
     inkscape:current-layer="svg8" />
  <path
     d="M65.1 26.6h3.1c-.4 1.7-1.3 3-2.6 3.9-1.3.9-2.9 1.4-4.8 1.4-2.3 0-4.1-.8-5.4-2.3s-2-3.6-2-6.3c0-2.6.6-4.6 1.9-6.1s3.1-2.3 5.4-2.3c2.4 0 4.3.7 5.7 2.2.7.9 1.3 1.9 1.6 3.1h-4.3c-.2-.4-.4-.7-.6-.9-.5-.6-1.3-.9-2.3-.9-.9 0-1.6.3-2.2.9-.7.8-1.1 2.2-1.1 4 0 1.9.4 3.2 1.1 4 .5.7 1.3 1 2.4 1 .7 0 1.3-.1 1.8-.4.1 0 .2-.1.3-.2l.3-.3c.1-.1.2-.3.5-.5s.7-.3 1.2-.3zm-31.1 5V14.3h6.2v-1.5c0-.6-.2-1.1-.6-1.6-.4-.4-1-.6-1.6-.6H23.5v3.7h6.2v17.3H34zm45.9-11.7c-.6-.9-1.4-1.3-2.5-1.3s-2 .4-2.6 1.2c-.6.8-.9 1.9-.9 3.4v8.4h-4.2v-21h2.1c.6 0 1.1.2 1.5.6s.6.9.6 1.5v4.8c.7-1.2 1.8-2 3.1-2.3 1.3-.3 2.6-.2 3.8.2 1.1.5 2.1 1.3 2.9 2.3.8 1.1 1.2 2.5 1.2 4.4v9.5h-4.1v-8.4c0-.6-.1-1.2-.2-1.7s-.3-1.1-.7-1.6zm-31.2 6.7h3.1c-.4 1.7-1.3 3-2.6 3.9-1.3.9-2.9 1.4-4.8 1.4-2.3 0-4.1-.8-5.4-2.3s-2-3.6-2-6.3c0-2.6.6-4.6 1.9-6.1s3.1-2.3 5.4-2.3c2.4 0 4.3.7 5.7 2.2 1.3 1.5 2 3.6 2 6.3v.6c0 .2 0 .3-.1.4H41.3c0 1.3.3 2.2.9 2.8.5.7 1.3 1 2.4 1 .7 0 1.3-.1 1.8-.4.1 0 .2-.1.3-.2l.3-.3c0-.1.2-.3.5-.5.3-.1.7-.2 1.2-.2zm-7.3-4.8h6.2c-.1-1.1-.4-1.9-.9-2.4-.5-.6-1.3-.9-2.3-.9-.9 0-1.6.3-2.2.9-.5.5-.8 1.4-.8 2.4z"
     id="path4" />
  <path
     d="M106.4 31.6v-7.9c0-1.6.2-2.9.7-4s1.1-1.9 1.9-2.6c.8-.6 1.7-1.1 2.7-1.3 1-.3 2.1-.4 3.2-.4h.6v4.3h-1.4c-1.2 0-2.1.3-2.6.9-.6.6-.9 1.5-.9 2.7v8.4h-4.2v-.1zm-88-21h2.7v3.7h-4.4v-2.1c0-1.1.6-1.6 1.7-1.6zM10 27.2h4.5v4.5H10v-4.5zm1.7-11.1h2.8v4.5H10v-2.8c0-1.1.5-1.7 1.7-1.7zm5 0h4.4v15.5h-4.4V16.1zm106.6 15.5c-1.3.1-2.8.1-4.4-.1-1.6-.1-2.4-1.1-2.4-3v-18h2.2c.5 0 1 .2 1.4.6s.6.9.6 1.5v2.8h2.5v2.2c0 .6-.2 1.1-.6 1.5s-.9.6-1.5.6h-.4V27c0 .7.4 1 1.2 1 1 0 1.3.4 1.3 1.3l.1 2.3zm-28.5-21h3.4l7.6 21h-4.6l-1.4-4.3h-8.2l-1.3 4.3h-4.6l7-19.6c.4-1 1.1-1.4 2.1-1.4zm1 4.2l-2.9 8.9h5.9l-3-8.9z"
     fill="#ed1c24"
     id="path6"
     style="fill:#000000" />
</svg>
