<?xml version="1.0" encoding="UTF-8" standalone="no"?>
<svg
   xmlns:dc="http://purl.org/dc/elements/1.1/"
   xmlns:cc="http://creativecommons.org/ns#"
   xmlns:rdf="http://www.w3.org/1999/02/22-rdf-syntax-ns#"
   xmlns:svg="http://www.w3.org/2000/svg"
   xmlns="http://www.w3.org/2000/svg"
   width="76.275467mm"
   height="40.408272mm"
   viewBox="0 0 76.275467 40.40827"
   version="1.1"
   id="svg8">
  <defs
     id="defs2">
    <marker
       orient="auto"
       refY="0.0"
       refX="0.0"
       id="Arrow1Mend"
       style="overflow:visible;">
      <path
         id="path5813"
         d="M 0.0,0.0 L 5.0,-5.0 L -12.5,0.0 L 5.0,5.0 L 0.0,0.0 z "
         style="fill-rule:evenodd;stroke:#ff00ff;stroke-width:1pt;stroke-opacity:1;fill:#ff00ff;fill-opacity:1"
         transform="scale(0.4) rotate(180) translate(10,0)" />
    </marker>
    <marker
       orient="auto"
       refY="0"
       refX="0"
       id="Arrow1Mend-3"
       style="overflow:visible">
      <path
         id="path5813-7"
         d="M 0,0 5,-5 -12.5,0 5,5 Z"
         style="fill:#000000;fill-opacity:1;fill-rule:evenodd;stroke:#000000;stroke-width:1.00000003pt;stroke-opacity:1"
         transform="matrix(-0.4,0,0,-0.4,-4,0)" />
    </marker>
    <marker
       orient="auto"
       refY="0"
       refX="0"
       id="Arrow1Mend-37"
       style="overflow:visible">
      <path
         id="path5813-8"
         d="M 0,0 5,-5 -12.5,0 5,5 Z"
         style="fill:#00ff00;fill-opacity:1;fill-rule:evenodd;stroke:#00ff00;stroke-width:1.00000003pt;stroke-opacity:1"
         transform="matrix(-0.4,0,0,-0.4,-4,0)" />
    </marker>
    <marker
       orient="auto"
       refY="0"
       refX="0"
       id="Arrow1Mend-4"
       style="overflow:visible">
      <path
         id="path5813-1"
         d="M 0,0 5,-5 -12.5,0 5,5 Z"
         style="fill:#ff00ff;fill-opacity:1;fill-rule:evenodd;stroke:#ff00ff;stroke-width:1.00000003pt;stroke-opacity:1"
         transform="matrix(-0.4,0,0,-0.4,-4,0)" />
    </marker>
    <marker
       orient="auto"
       refY="0"
       refX="0"
       id="Arrow1Mend-4-0"
       style="overflow:visible">
      <path
         id="path5813-1-9"
         d="M 0,0 5,-5 -12.5,0 5,5 Z"
         style="fill:#00ff00;fill-opacity:1;fill-rule:evenodd;stroke:#00ff00;stroke-width:1.00000003pt;stroke-opacity:1"
         transform="matrix(-0.4,0,0,-0.4,-4,0)" />
    </marker>
    <marker
       orient="auto"
       refY="0"
       refX="0"
       id="Arrow1Mend-8"
       style="overflow:visible">
      <path
         id="path5813-5"
         d="M 0,0 5,-5 -12.5,0 5,5 Z"
         style="fill:#ff00ff;fill-opacity:1;fill-rule:evenodd;stroke:#ff00ff;stroke-width:1.00000003pt;stroke-opacity:1"
         transform="matrix(-0.4,0,0,-0.4,-4,0)" />
    </marker>
    <marker
       orient="auto"
       refY="0"
       refX="0"
       id="Arrow1Mend-4-8"
       style="overflow:visible">
      <path
         id="path5813-1-4"
         d="M 0,0 5,-5 -12.5,0 5,5 Z"
         style="fill:#00ff00;fill-opacity:1;fill-rule:evenodd;stroke:#00ff00;stroke-width:1.00000003pt;stroke-opacity:1"
         transform="matrix(-0.4,0,0,-0.4,-4,0)" />
    </marker>
    <marker
       orient="auto"
       refY="0"
       refX="0"
       id="Arrow1Mend-4-0-3"
       style="overflow:visible">
      <path
         id="path5813-1-9-7"
         d="M 0,0 5,-5 -12.5,0 5,5 Z"
         style="fill:#00ff00;fill-opacity:1;fill-rule:evenodd;stroke:#00ff00;stroke-width:1.00000003pt;stroke-opacity:1"
         transform="matrix(-0.4,0,0,-0.4,-4,0)" />
    </marker>
  </defs>
  <metadata
     id="metadata5">
    <rdf:RDF>
      <cc:Work
         rdf:about="">
        <dc:format>image/svg+xml</dc:format>
        <dc:type
           rdf:resource="http://purl.org/dc/dcmitype/StillImage" />
        <dc:title></dc:title>
      </cc:Work>
    </rdf:RDF>
  </metadata>
  <rect
     style="fill:#ffffff;stroke:#000000;stroke-width:0.26458332"
     y="3.1322927"
     x="23.029816"
     height="34.143684"
     width="4.0758595"
     id="rect10-8" />
  <rect
     style="fill:#ffffff;stroke:#000000;stroke-width:0.26458332"
     y="3.1322927"
     x="22.383718"
     height="5.3464022"
     width="5.5273924"
     id="rect10-8-3" />
  <rect
     style="fill:#ffffff;stroke:#000000;stroke-width:0.26458332"
     y="3.1322916"
     x="5.5673132"
     height="34.143684"
     width="4.0758595"
     id="rect10" />
  <g
     id="flowRoot12"
     style="font-style:normal;font-weight:normal;font-size:40px;line-height:1.25;font-family:sans-serif;letter-spacing:0px;word-spacing:0px;fill:#000000;fill-opacity:1;stroke:none"
     transform="matrix(0.05966187,0,0,0.05966187,-1.1774645,0.44067718)"
     aria-label=" MS 1">
    <path
       id="path4972"
       style="font-style:normal;font-variant:normal;font-weight:normal;font-stretch:normal;font-size:35.47771072px;line-height:0;font-family:'Ubuntu Condensed';-inkscape-font-specification:'Ubuntu Condensed, ';text-align:center;text-anchor:middle"
       d="m 139.58214,72.379296 q -0.70955,-2.554395 -1.45458,-4.895924 -0.74504,-2.341529 -1.45459,-4.399236 -0.67408,-2.093185 -1.31268,-3.796115 -0.63859,-1.70293 -1.17076,-2.980128 -0.14191,2.02223 -0.24834,4.470192 -0.071,2.412484 -0.17739,4.966879 -0.071,2.554395 -0.14191,5.144268 -0.0355,2.554395 -0.071,4.895924 h -3.05108 q 0.10643,-3.192994 0.21286,-6.421465 0.10644,-3.26395 0.24835,-6.385988 0.17739,-3.157517 0.35478,-6.137644 0.21286,-2.980128 0.46121,-5.640956 h 3.15751 q 0.6386,1.525541 1.45459,3.654204 0.81599,2.093185 1.63197,4.399236 0.85147,2.306051 1.63198,4.612102 0.78051,2.306052 1.34815,4.221848 0.56764,-1.915796 1.31268,-4.221848 0.74503,-2.306051 1.56102,-4.612102 0.81598,-2.306051 1.59649,-4.399236 0.81599,-2.128663 1.45459,-3.654204 h 3.15751 q 0.24835,2.660828 0.42574,5.640956 0.21286,2.980127 0.35477,6.137644 0.17739,3.122038 0.28383,6.385988 0.10643,3.228471 0.21286,6.421465 h -3.05108 q -0.071,-2.341529 -0.14191,-4.931402 -0.0355,-2.589872 -0.14191,-5.179745 -0.071,-2.625351 -0.17739,-5.073313 -0.10643,-2.48344 -0.24834,-4.541147 -0.3193,0.886943 -0.81599,2.235096 -0.46121,1.312675 -0.99338,2.873694 -0.49669,1.56102 -1.06433,3.228472 -0.53217,1.631975 -1.02885,3.157516 -0.46121,1.525542 -0.85147,2.80274 -0.35478,1.241719 -0.56764,2.022229 z" />
    <path
       id="path4974"
       style="font-style:normal;font-variant:normal;font-weight:normal;font-stretch:normal;font-size:35.47771072px;line-height:0;font-family:'Ubuntu Condensed';-inkscape-font-specification:'Ubuntu Condensed, ';text-align:center;text-anchor:middle"
       d="m 159.85987,73.585538 q 1.9158,0 2.94465,-1.064331 1.06433,-1.064331 1.06433,-2.873695 0,-0.957898 -0.3193,-1.70293 -0.3193,-0.745032 -0.85146,-1.348153 -0.49669,-0.603121 -1.17077,-1.099809 -0.67407,-0.496688 -1.38363,-0.993376 -0.81599,-0.567643 -1.70293,-1.206242 -0.88694,-0.638599 -1.63197,-1.490064 -0.70956,-0.851465 -1.17077,-1.986752 -0.46121,-1.135286 -0.46121,-2.660828 0,-1.490064 0.49669,-2.696306 0.53217,-1.206242 1.41911,-2.057707 0.92242,-0.851465 2.16414,-1.312675 1.2772,-0.461211 2.73178,-0.461211 1.41911,0 2.62535,0.354777 1.20625,0.354778 2.02223,0.851466 l -0.99337,2.518917 q -0.74504,-0.496688 -1.63198,-0.745032 -0.85146,-0.283822 -1.80936,-0.283822 -1.73841,0 -2.80274,0.957899 -1.02885,0.92242 -1.02885,2.731783 0,0.993376 0.3193,1.738408 0.35477,0.745032 0.88694,1.348153 0.56764,0.603121 1.2772,1.099809 0.74503,0.496688 1.56102,1.028854 0.81598,0.532165 1.66745,1.170764 0.85146,0.638599 1.52554,1.490064 0.70955,0.815987 1.13529,1.951274 0.46121,1.099809 0.46121,2.625351 0,1.38363 -0.42574,2.62535 -0.42573,1.24172 -1.34815,2.199618 -0.88694,0.922421 -2.27057,1.490064 -1.34816,0.532166 -3.193,0.532166 -1.70293,0 -2.98012,-0.390255 -1.2772,-0.390255 -2.27058,-1.028854 l 0.99338,-2.554395 q 0.92242,0.567644 1.88032,0.922421 0.99337,0.319299 2.27057,0.319299 z" />
    <path
       id="path4976"
       style="font-style:normal;font-variant:normal;font-weight:normal;font-stretch:normal;font-size:35.47771072px;line-height:0;font-family:'Ubuntu Condensed';-inkscape-font-specification:'Ubuntu Condensed, ';text-align:center;text-anchor:middle"
       d="m 139.4394,106.09503 q 0.67408,-0.39026 1.38363,-0.9579 0.74503,-0.56764 1.41911,-1.20624 0.67408,-0.67408 1.24172,-1.34816 0.60312,-0.70955 0.99338,-1.38363 h 2.34152 v 24.58606 h -3.05108 v -19.76109 q -0.60312,0.6386 -1.41911,1.20624 -0.78051,0.56765 -1.66745,1.06433 z" />
  </g>
  <rect
     style="fill:#ffffff;stroke:#000000;stroke-width:0.26458332;stroke-miterlimit:4;stroke-dasharray:none"
     y="3.1322944"
     x="34.142307"
     height="34.143684"
     width="4.0758595"
     id="rect10-0" />
  <g
     id="flowRoot12-6"
     style="font-style:normal;font-weight:normal;font-size:40px;line-height:1.25;font-family:sans-serif;letter-spacing:0px;word-spacing:0px;fill:#000000;fill-opacity:1;stroke:none"
     transform="matrix(0.05966187,0,0,0.05966187,27.397534,0.44067996)"
     aria-label=" MS 2">
    <path
       id="path4979"
       style="font-style:normal;font-variant:normal;font-weight:normal;font-stretch:normal;font-size:35.47771072px;line-height:0;font-family:'Ubuntu Condensed';-inkscape-font-specification:'Ubuntu Condensed, ';text-align:center;text-anchor:middle"
       d="m 139.58214,72.379296 q -0.70955,-2.554395 -1.45458,-4.895924 -0.74504,-2.341529 -1.45459,-4.399236 -0.67408,-2.093185 -1.31268,-3.796115 -0.63859,-1.70293 -1.17076,-2.980128 -0.14191,2.02223 -0.24834,4.470192 -0.071,2.412484 -0.17739,4.966879 -0.071,2.554395 -0.14191,5.144268 -0.0355,2.554395 -0.071,4.895924 h -3.05108 q 0.10643,-3.192994 0.21286,-6.421465 0.10644,-3.26395 0.24835,-6.385988 0.17739,-3.157517 0.35478,-6.137644 0.21286,-2.980128 0.46121,-5.640956 h 3.15751 q 0.6386,1.525541 1.45459,3.654204 0.81599,2.093185 1.63197,4.399236 0.85147,2.306051 1.63198,4.612102 0.78051,2.306052 1.34815,4.221848 0.56764,-1.915796 1.31268,-4.221848 0.74503,-2.306051 1.56102,-4.612102 0.81598,-2.306051 1.59649,-4.399236 0.81599,-2.128663 1.45459,-3.654204 h 3.15751 q 0.24835,2.660828 0.42574,5.640956 0.21286,2.980127 0.35477,6.137644 0.17739,3.122038 0.28383,6.385988 0.10643,3.228471 0.21286,6.421465 h -3.05108 q -0.071,-2.341529 -0.14191,-4.931402 -0.0355,-2.589872 -0.14191,-5.179745 -0.071,-2.625351 -0.17739,-5.073313 -0.10643,-2.48344 -0.24834,-4.541147 -0.3193,0.886943 -0.81599,2.235096 -0.46121,1.312675 -0.99338,2.873694 -0.49669,1.56102 -1.06433,3.228472 -0.53217,1.631975 -1.02885,3.157516 -0.46121,1.525542 -0.85147,2.80274 -0.35478,1.241719 -0.56764,2.022229 z" />
    <path
       id="path4981"
       style="font-style:normal;font-variant:normal;font-weight:normal;font-stretch:normal;font-size:35.47771072px;line-height:0;font-family:'Ubuntu Condensed';-inkscape-font-specification:'Ubuntu Condensed, ';text-align:center;text-anchor:middle"
       d="m 159.85987,73.585538 q 1.9158,0 2.94465,-1.064331 1.06433,-1.064331 1.06433,-2.873695 0,-0.957898 -0.3193,-1.70293 -0.3193,-0.745032 -0.85146,-1.348153 -0.49669,-0.603121 -1.17077,-1.099809 -0.67407,-0.496688 -1.38363,-0.993376 -0.81599,-0.567643 -1.70293,-1.206242 -0.88694,-0.638599 -1.63197,-1.490064 -0.70956,-0.851465 -1.17077,-1.986752 -0.46121,-1.135286 -0.46121,-2.660828 0,-1.490064 0.49669,-2.696306 0.53217,-1.206242 1.41911,-2.057707 0.92242,-0.851465 2.16414,-1.312675 1.2772,-0.461211 2.73178,-0.461211 1.41911,0 2.62535,0.354777 1.20625,0.354778 2.02223,0.851466 l -0.99337,2.518917 q -0.74504,-0.496688 -1.63198,-0.745032 -0.85146,-0.283822 -1.80936,-0.283822 -1.73841,0 -2.80274,0.957899 -1.02885,0.92242 -1.02885,2.731783 0,0.993376 0.3193,1.738408 0.35477,0.745032 0.88694,1.348153 0.56764,0.603121 1.2772,1.099809 0.74503,0.496688 1.56102,1.028854 0.81598,0.532165 1.66745,1.170764 0.85146,0.638599 1.52554,1.490064 0.70955,0.815987 1.13529,1.951274 0.46121,1.099809 0.46121,2.625351 0,1.38363 -0.42574,2.62535 -0.42573,1.24172 -1.34815,2.199618 -0.88694,0.922421 -2.27057,1.490064 -1.34816,0.532166 -3.193,0.532166 -1.70293,0 -2.98012,-0.390255 -1.2772,-0.390255 -2.27058,-1.028854 l 0.99338,-2.554395 q 0.92242,0.567644 1.88032,0.922421 0.99337,0.319299 2.27057,0.319299 z" />
    <path
       id="path4983"
       style="font-style:normal;font-variant:normal;font-weight:normal;font-stretch:normal;font-size:35.47771072px;line-height:0;font-family:'Ubuntu Condensed';-inkscape-font-specification:'Ubuntu Condensed, ';text-align:center;text-anchor:middle"
       d="m 138.51698,102.72464 q 2.09318,-2.09318 5.10879,-2.09318 2.87369,0 4.39924,1.52554 1.52554,1.49006 1.52554,4.68306 0,1.49006 -0.49669,2.83822 -0.49669,1.34815 -1.24172,2.62535 -0.74503,1.24172 -1.63197,2.48344 -0.88695,1.24172 -1.70293,2.55439 -0.81599,1.2772 -1.41911,2.69631 -0.60312,1.38363 -0.74504,2.98012 h 7.73415 v 2.76727 h -10.99809 v -0.67408 q 0,-2.37701 0.53216,-4.22185 0.56764,-1.84484 1.34815,-3.3349 0.81599,-1.49007 1.77389,-2.76726 0.9579,-1.2772 1.73841,-2.48344 0.81598,-1.24172 1.34815,-2.51892 0.56764,-1.31268 0.56764,-2.8737 0,-1.88031 -0.74503,-2.6963 -0.74503,-0.85147 -2.23509,-0.85147 -1.02886,0 -1.88032,0.42574 -0.81599,0.39025 -1.49007,1.02885 z" />
  </g>
  <flowRoot
     transform="translate(1.1573661,-0.20531453)"
     style="font-style:normal;font-weight:normal;font-size:8px;line-height:1.25;font-family:sans-serif;letter-spacing:0px;word-spacing:0px;fill:#000000;fill-opacity:1;stroke:none"
     id="flowRoot7631"
     xml:space="preserve"><flowRegion
       style="font-size:8px"
       id="flowRegion7633"><rect
         style="font-size:8px"
         y="81.652756"
         x="-64.10714"
         height="47.32143"
         width="193.57143"
         id="rect7635" /></flowRegion><flowPara
       id="flowPara7637" /></flowRoot>  <rect
     style="fill:#ffffff;stroke:#000000;stroke-width:0.26458332"
     y="10.011456"
     x="31.496521"
     height="21.953951"
     width="4.0758629"
     id="rect10-8-6-6" />
  <rect
     style="fill:#ffffff;stroke:#000000;stroke-width:0.26458332"
     y="10.011456"
     x="30.850426"
     height="5.3464022"
     width="5.5273924"
     id="rect10-8-3-7-1" />
  <g
     id="flowRoot561-5"
     style="font-style:normal;font-variant:normal;font-weight:normal;font-stretch:normal;font-size:8px;line-height:1.25;font-family:'Ubuntu Condensed';-inkscape-font-specification:'Ubuntu Condensed, ';text-align:center;letter-spacing:0px;word-spacing:0px;text-anchor:middle;fill:#000000;fill-opacity:1;stroke:none"
     transform="matrix(0.26458333,0,0,0.26458333,-14.585155,8.6627414)"
     aria-label="MS">
    <path
       id="path745"
       d="m 179.60977,11.916547 q -0.16,-0.576 -0.328,-1.104 -0.168,-0.528 -0.328,-0.9920001 -0.152,-0.472 -0.296,-0.856 -0.144,-0.384 -0.264,-0.672 -0.032,0.456 -0.056,1.008 -0.016,0.544 -0.04,1.1200001 -0.016,0.576 -0.032,1.16 -0.008,0.576 -0.016,1.104 h -0.688 q 0.024,-0.72 0.048,-1.448 0.024,-0.736 0.056,-1.4400001 0.04,-0.712 0.08,-1.384 0.048,-0.672 0.104,-1.272 h 0.712 q 0.144,0.344 0.328,0.824 0.184,0.472 0.368,0.992 0.192,0.52 0.368,1.04 0.176,0.5200001 0.304,0.9520001 0.128,-0.432 0.296,-0.9520001 0.168,-0.52 0.352,-1.04 0.184,-0.52 0.36,-0.992 0.184,-0.48 0.328,-0.824 h 0.712 q 0.056,0.6 0.096,1.272 0.048,0.672 0.08,1.384 0.04,0.7040001 0.064,1.4400001 0.024,0.728 0.048,1.448 h -0.688 q -0.016,-0.528 -0.032,-1.112 -0.008,-0.584 -0.032,-1.168 -0.016,-0.5920001 -0.04,-1.1440001 -0.024,-0.56 -0.056,-1.024 -0.072,0.2 -0.184,0.504 -0.104,0.296 -0.224,0.648 -0.112,0.352 -0.24,0.7280001 -0.12,0.368 -0.232,0.712 -0.104,0.344 -0.192,0.632 -0.08,0.28 -0.128,0.456 z" />
    <path
       id="path747"
       d="m 184.18227,12.188547 q 0.432,0 0.664,-0.24 0.24,-0.24 0.24,-0.648 0,-0.216 -0.072,-0.384 -0.072,-0.168 -0.192,-0.304 -0.112,-0.136 -0.264,-0.248 -0.152,-0.112 -0.312,-0.224 -0.184,-0.128 -0.384,-0.2720001 -0.2,-0.144 -0.368,-0.336 -0.16,-0.192 -0.264,-0.448 -0.104,-0.256 -0.104,-0.6 0,-0.336 0.112,-0.608 0.12,-0.272 0.32,-0.464 0.208,-0.192 0.488,-0.296 0.288,-0.104 0.616,-0.104 0.32,0 0.592,0.08 0.272,0.08 0.456,0.192 l -0.224,0.568 q -0.168,-0.112 -0.368,-0.168 -0.192,-0.064 -0.408,-0.064 -0.392,0 -0.632,0.216 -0.232,0.208 -0.232,0.616 0,0.224 0.072,0.392 0.08,0.168 0.2,0.304 0.128,0.136 0.288,0.248 0.168,0.112 0.352,0.232 0.184,0.12 0.376,0.264 0.192,0.1440001 0.344,0.3360001 0.16,0.184 0.256,0.44 0.104,0.248 0.104,0.592 0,0.312 -0.096,0.592 -0.096,0.28 -0.304,0.496 -0.2,0.208 -0.512,0.336 -0.304,0.12 -0.72,0.12 -0.384,0 -0.672,-0.088 -0.288,-0.088 -0.512,-0.232 l 0.224,-0.576 q 0.208,0.128 0.424,0.208 0.224,0.072 0.512,0.072 z" />
  </g>
  <g
     id="flowRoot561-1-6"
     style="font-style:normal;font-variant:normal;font-weight:normal;font-stretch:normal;font-size:8px;line-height:40.0000006%;font-family:'Ubuntu Condensed';-inkscape-font-specification:'Ubuntu Condensed, ';text-align:center;letter-spacing:0px;word-spacing:0px;text-anchor:middle;fill:#000000;fill-opacity:1;stroke:none"
     transform="matrix(0.26458333,0,0,0.26458333,-14.414673,9.9531675)"
     aria-label=" kafka consumer">
    <path
       id="path718"
       d="m 178.25545,9.6845467 q -0.224,0.3840003 -0.432,0.7040003 -0.20266,0.314666 -0.40533,0.592 0.128,0.149333 0.26133,0.336 0.13334,0.186666 0.256,0.389333 0.12267,0.197333 0.22934,0.4 0.10666,0.197333 0.18133,0.378667 h -0.50133 q -0.08,-0.176 -0.18667,-0.368 -0.10667,-0.192 -0.224,-0.373334 -0.11733,-0.186666 -0.23467,-0.352 -0.11733,-0.165333 -0.21866,-0.277333 v 1.370667 h -0.45867 V 8.42588 l 0.45867,-0.08 v 2.544 q 0.096,-0.128 0.20266,-0.288 0.112,-0.16 0.21867,-0.32 0.10667,-0.165333 0.20267,-0.32 0.096,-0.1546666 0.16,-0.2773333 z" />
    <path
       id="path720"
       style="font-size:5.33333349px;line-height:40.0000006%"
       d="m 178.84604,9.7432134 q 0.13866,-0.058667 0.29333,-0.090667 0.15467,-0.037333 0.336,-0.037333 0.37333,0 0.608,0.2346666 0.23467,0.229333 0.23467,0.72 v 1.856 q -0.192,0.05333 -0.39467,0.08533 -0.19733,0.032 -0.38933,0.032 -0.192,0 -0.36267,-0.048 -0.16533,-0.048 -0.29333,-0.154666 -0.12267,-0.106667 -0.19734,-0.266667 -0.0747,-0.165333 -0.0747,-0.4 0,-0.218667 0.064,-0.378667 0.0693,-0.165333 0.18666,-0.272 0.11734,-0.112 0.27734,-0.165333 0.16,-0.05867 0.34666,-0.05867 0.176,0 0.38934,0.04267 v -0.256 q 0,-0.309333 -0.12267,-0.432 Q 179.63,10.03121 179.406,10.03121 q -0.12267,0 -0.23467,0.02667 -0.10667,0.02133 -0.22933,0.07467 z m 0.21866,1.9253336 q 0,0.245333 0.128,0.362666 0.128,0.117334 0.36267,0.117334 0.144,0 0.31467,-0.03733 v -0.890666 q -0.16,-0.04267 -0.31467,-0.04267 -0.10133,0 -0.192,0.02667 -0.0907,0.02133 -0.16,0.08 -0.064,0.05333 -0.10133,0.149333 -0.0373,0.09067 -0.0373,0.234667 z" />
    <path
       id="path722"
       style="font-size:5.33333349px;line-height:40.0000006%"
       d="m 181.93187,8.34588 q 0.15467,0 0.272,0.032 0.11733,0.032 0.192,0.069333 l -0.096,0.3626667 q -0.0747,-0.037333 -0.15467,-0.053333 -0.08,-0.021333 -0.17066,-0.021333 -0.12267,0 -0.20267,0.042667 -0.08,0.042667 -0.12267,0.1173333 -0.0427,0.074667 -0.0587,0.1813334 -0.016,0.1013333 -0.016,0.2186666 v 0.3893334 h 0.72 v 0.3946666 h -0.72 v 2.405334 h -0.45867 V 9.2952133 q 0,-0.4533333 0.20267,-0.6986666 0.2027,-0.2506667 0.61337,-0.2506667 z" />
    <path
       id="path724"
       style="font-size:5.33333349px;line-height:40.0000006%"
       d="m 184.48462,9.6845467 q -0.224,0.3840003 -0.432,0.7040003 -0.20267,0.314666 -0.40533,0.592 0.128,0.149333 0.26133,0.336 0.13333,0.186666 0.256,0.389333 0.12267,0.197333 0.22933,0.4 0.10667,0.197333 0.18134,0.378667 h -0.50134 q -0.08,-0.176 -0.18666,-0.368 -0.10667,-0.192 -0.224,-0.373334 -0.11734,-0.186666 -0.23467,-0.352 -0.11733,-0.165333 -0.21867,-0.277333 v 1.370667 h -0.45866 V 8.42588 l 0.45866,-0.08 v 2.544 q 0.096,-0.128 0.20267,-0.288 0.112,-0.16 0.21867,-0.32 0.10666,-0.165333 0.20266,-0.32 0.096,-0.1546666 0.16,-0.2773333 z" />
    <path
       id="path726"
       style="font-size:5.33333349px;line-height:40.0000006%"
       d="m 185.0752,9.7432134 q 0.13867,-0.058667 0.29334,-0.090667 0.15466,-0.037333 0.336,-0.037333 0.37333,0 0.608,0.2346666 0.23466,0.229333 0.23466,0.72 v 1.856 q -0.192,0.05333 -0.39466,0.08533 -0.19734,0.032 -0.38934,0.032 -0.192,0 -0.36266,-0.048 -0.16534,-0.048 -0.29334,-0.154666 -0.12266,-0.106667 -0.19733,-0.266667 -0.0747,-0.165333 -0.0747,-0.4 0,-0.218667 0.064,-0.378667 0.0693,-0.165333 0.18667,-0.272 0.11733,-0.112 0.27733,-0.165333 0.16,-0.05867 0.34667,-0.05867 0.176,0 0.38933,0.04267 v -0.256 q 0,-0.309333 -0.12266,-0.432 -0.11734,-0.122667 -0.34134,-0.122667 -0.12266,0 -0.23466,0.02667 -0.10667,0.02133 -0.22934,0.07467 z m 0.21867,1.9253336 q 0,0.245333 0.128,0.362666 0.128,0.117334 0.36267,0.117334 0.144,0 0.31466,-0.03733 v -0.890666 q -0.16,-0.04267 -0.31466,-0.04267 -0.10134,0 -0.192,0.02667 -0.0907,0.02133 -0.16,0.08 -0.064,0.05333 -0.10134,0.149333 -0.0373,0.09067 -0.0373,0.234667 z" />
    <path
       id="path728"
       style="font-size:5.33333349px;line-height:40.0000006%"
       d="m 173.25045,16.040526 q -0.288,0 -0.48,-0.112 -0.192,-0.112 -0.31466,-0.304 -0.11734,-0.197334 -0.17067,-0.464 -0.048,-0.266667 -0.048,-0.581334 0,-0.693333 0.25067,-1.082666 0.256,-0.394667 0.768,-0.394667 0.15466,0 0.27733,0.03733 0.12267,0.03733 0.22933,0.096 l -0.11733,0.378667 q -0.16533,-0.106667 -0.368,-0.106667 -0.288,0 -0.42667,0.261334 -0.13333,0.261333 -0.13333,0.810666 0,0.229334 0.0267,0.426667 0.0267,0.192 0.0907,0.330667 0.0693,0.138666 0.176,0.218666 0.112,0.08 0.28267,0.08 0.11733,0 0.208,-0.02667 0.096,-0.032 0.18133,-0.08 l 0.10134,0.357333 q -0.0853,0.05867 -0.22934,0.106667 -0.13866,0.048 -0.304,0.048 z" />
    <path
       id="path730"
       style="font-size:5.33333349px;line-height:40.0000006%"
       d="m 176.04862,14.573859 q 0,0.330667 -0.0587,0.602667 -0.0587,0.266666 -0.18133,0.458666 -0.11733,0.192 -0.304,0.298667 -0.18133,0.106667 -0.432,0.106667 -0.25067,0 -0.43733,-0.106667 -0.18667,-0.106667 -0.30934,-0.298667 -0.11733,-0.192 -0.176,-0.458666 -0.0587,-0.272 -0.0587,-0.602667 0,-0.325333 0.0587,-0.597333 0.0587,-0.272 0.176,-0.464 0.12267,-0.197334 0.30934,-0.304 0.18666,-0.106667 0.43733,-0.106667 0.25067,0 0.432,0.106667 0.18667,0.106666 0.304,0.304 0.12267,0.192 0.18133,0.464 0.0587,0.272 0.0587,0.597333 z m -0.48,0 q 0,-0.234667 -0.0267,-0.426667 -0.0267,-0.197333 -0.0853,-0.336 -0.0587,-0.144 -0.15467,-0.218666 -0.096,-0.08 -0.22933,-0.08 -0.13867,0 -0.23467,0.08 -0.0907,0.07467 -0.15466,0.218666 -0.0587,0.138667 -0.0853,0.336 -0.0267,0.192 -0.0267,0.426667 0,0.234667 0.0267,0.432 0.0267,0.192 0.0853,0.330667 0.064,0.138666 0.15466,0.218666 0.096,0.07467 0.23467,0.07467 0.13333,0 0.22933,-0.07467 0.096,-0.08 0.15467,-0.218666 0.0587,-0.138667 0.0853,-0.330667 0.0267,-0.197333 0.0267,-0.432 z" />
    <path
       id="path732"
       style="font-size:5.33333349px;line-height:40.0000006%"
       d="m 176.72004,13.251192 q 0.19733,-0.05867 0.42666,-0.096 0.22934,-0.04267 0.42134,-0.04267 0.208,0 0.37866,0.05867 0.17067,0.05333 0.288,0.186667 0.12267,0.133333 0.18667,0.362667 0.0693,0.224 0.0693,0.56 v 1.690666 h -0.45866 v -1.653333 q 0,-0.416 -0.10667,-0.608 -0.10667,-0.192 -0.4,-0.192 -0.15467,0 -0.34667,0.05333 v 2.4 h -0.45866 z" />
    <path
       id="path734"
       style="font-size:5.33333349px;line-height:40.0000006%"
       d="m 179.68229,15.645859 q 0.20266,0 0.304,-0.112 0.10666,-0.117333 0.10666,-0.304 0,-0.117333 -0.0427,-0.197333 -0.0427,-0.08533 -0.112,-0.149334 -0.0693,-0.064 -0.16,-0.112 -0.0907,-0.05333 -0.18134,-0.112 -0.0907,-0.05333 -0.176,-0.122666 -0.0853,-0.07467 -0.15466,-0.165334 -0.064,-0.096 -0.10667,-0.213333 -0.0373,-0.122667 -0.0373,-0.282667 0,-0.346666 0.21333,-0.56 0.21867,-0.213333 0.58667,-0.213333 0.15466,0 0.29333,0.04267 0.13867,0.03733 0.22933,0.08533 l -0.10133,0.368 q -0.096,-0.05333 -0.192,-0.08 -0.096,-0.02667 -0.208,-0.02667 -0.17067,0 -0.272,0.101334 -0.10133,0.096 -0.10133,0.282666 0,0.106667 0.0373,0.186667 0.0373,0.07467 0.096,0.138667 0.064,0.05867 0.13867,0.112 0.08,0.05333 0.16533,0.101333 0.10133,0.05867 0.19733,0.128 0.10134,0.06933 0.176,0.165333 0.08,0.09067 0.128,0.218667 0.048,0.122667 0.048,0.298667 0,0.368 -0.21866,0.592 -0.21334,0.224 -0.62934,0.224 -0.21333,0 -0.384,-0.05867 -0.17066,-0.05867 -0.256,-0.106667 l 0.096,-0.378666 q 0.08,0.04267 0.21334,0.096 0.13866,0.05333 0.304,0.05333 z" />
    <path
       id="path736"
       style="font-size:5.33333349px;line-height:40.0000006%"
       d="m 182.8492,15.891192 q -0.0693,0.02667 -0.17066,0.05333 -0.096,0.02133 -0.208,0.03733 -0.10667,0.02133 -0.21867,0.032 -0.10667,0.016 -0.19733,0.016 -0.21867,0 -0.4,-0.05333 -0.18134,-0.048 -0.30934,-0.176 -0.128,-0.128 -0.19733,-0.346667 -0.0693,-0.224 -0.0693,-0.56 v -1.722667 h 0.45866 v 1.706667 q 0,0.410667 0.12267,0.581333 0.128,0.165334 0.384,0.165334 0.0853,0 0.17067,-0.0053 0.0853,-0.01067 0.176,-0.03733 v -2.410667 h 0.45866 z" />
    <path
       id="path738"
       style="font-size:5.33333349px;line-height:40.0000006%"
       d="m 183.67837,13.251192 q 0.18667,-0.05867 0.40533,-0.096 0.21867,-0.04267 0.4,-0.04267 0.18667,0 0.336,0.048 0.15467,0.048 0.272,0.16 0.13867,-0.09067 0.29867,-0.149334 0.16,-0.05867 0.352,-0.05867 0.192,0 0.34667,0.05867 0.16,0.05333 0.272,0.186667 0.112,0.133333 0.176,0.362667 0.064,0.224 0.064,0.56 v 1.690666 h -0.45867 v -1.653333 q 0,-0.416 -0.096,-0.608 -0.096,-0.192 -0.36267,-0.192 -0.10133,0 -0.208,0.03733 -0.10133,0.03733 -0.192,0.101334 0.0427,0.122666 0.064,0.277333 0.0213,0.154667 0.0213,0.346667 v 1.690666 h -0.45867 v -1.653333 q 0,-0.416 -0.096,-0.608 -0.096,-0.192 -0.36267,-0.192 -0.13866,0 -0.31466,0.05333 v 2.4 h -0.45867 z" />
    <path
       id="path740"
       style="font-size:5.33333349px;line-height:40.0000006%"
       d="m 187.71179,14.707192 q 0.005,0.202667 0.0373,0.373334 0.032,0.165333 0.10133,0.293333 0.0747,0.122667 0.192,0.192 0.12267,0.06933 0.30934,0.06933 0.15466,0 0.28266,-0.04267 0.13334,-0.048 0.192,-0.08 l 0.0853,0.368 q -0.0693,0.048 -0.23467,0.101333 -0.16,0.05867 -0.384,0.05867 -0.29333,0 -0.496,-0.106667 -0.19733,-0.106667 -0.32533,-0.298667 -0.12267,-0.192 -0.176,-0.458666 -0.0533,-0.266667 -0.0533,-0.586667 0,-0.773333 0.256,-1.130667 0.256,-0.357333 0.67734,-0.357333 0.47466,0 0.672,0.357333 0.19733,0.357334 0.19733,1.002667 0,0.05867 0,0.122667 0,0.05867 -0.005,0.122666 z m 0.464,-1.216 q -0.22934,0 -0.336,0.229334 -0.10134,0.229333 -0.12267,0.613333 h 0.848 q 0,-0.389333 -0.08,-0.613333 -0.08,-0.229334 -0.30933,-0.229334 z" />
    <path
       id="path742"
       style="font-size:5.33333349px;line-height:40.0000006%"
       d="m 190.9307,13.587192 q -0.17066,-0.07467 -0.384,-0.07467 -0.19733,0 -0.368,0.06933 v 2.389333 h -0.45866 v -2.677333 q 0.15466,-0.07467 0.352,-0.122667 0.20266,-0.05333 0.44266,-0.05333 0.128,0 0.256,0.016 0.128,0.016 0.24,0.05867 z" />
  </g>
  <path
     id="path5802-9"
     d="m 32.342825,12.899461 c -2.943045,-1.369673 -4.83322,-1.090852 -7.05398,0"
     style="fill:none;stroke:#ff00ff;stroke-width:0.26499999;stroke-linecap:butt;stroke-linejoin:miter;stroke-miterlimit:4;stroke-dasharray:none;stroke-opacity:1;marker-end:url(#Arrow1Mend-4)" />
  <path
     id="path5802-9-8"
     d="m 32.28436,14.269217 c -2.943045,-1.369673 -4.833219,-1.090852 -7.05398,0"
     style="fill:none;stroke:#00ff00;stroke-width:0.26499999;stroke-linecap:butt;stroke-linejoin:miter;stroke-miterlimit:4;stroke-dasharray:none;stroke-opacity:1;marker-end:url(#Arrow1Mend-4-0)" />
  <g
     id="flowRoot782"
     style="font-style:normal;font-weight:normal;font-size:40px;line-height:1.25;font-family:sans-serif;letter-spacing:0px;word-spacing:0px;fill:#000000;fill-opacity:1;stroke:none"
     transform="matrix(0.26458333,0,0,0.26458333,37.410513,-6.8487816)"
     aria-label="Kafka">
    <path
       id="path790"
       style="font-style:normal;font-variant:normal;font-weight:normal;font-stretch:normal;font-size:8px;font-family:'Ubuntu Condensed';-inkscape-font-specification:'Ubuntu Condensed, '"
       d="m -50.454922,44.684516 q -0.176,0.272 -0.4,0.6 -0.216,0.328 -0.448,0.68 -0.232,0.344 -0.472,0.68 -0.232,0.336 -0.448,0.624 0.24,0.24 0.52,0.608 0.28,0.36 0.552,0.768 0.272,0.4 0.512,0.816 0.24,0.416 0.384,0.768 h -0.808 q -0.168,-0.368 -0.392,-0.752 -0.216,-0.384 -0.464,-0.736 -0.24,-0.36 -0.496,-0.664 -0.248,-0.304 -0.488,-0.512 v 2.664 h -0.72 v -5.544 h 0.72 v 2.448 q 0.208,-0.264 0.44,-0.6 0.232,-0.336 0.456,-0.672 0.232,-0.336 0.432,-0.64 0.2,-0.312 0.336,-0.536 z" />
    <path
       id="path792"
       style="font-style:normal;font-variant:normal;font-weight:normal;font-stretch:normal;font-size:8px;font-family:'Ubuntu Condensed';-inkscape-font-specification:'Ubuntu Condensed, '"
       d="m -49.560047,46.116516 q 0.208,-0.088 0.44,-0.136 0.232,-0.056 0.504,-0.056 0.56,0 0.912,0.352 0.352,0.344 0.352,1.08 v 2.784 q -0.288,0.08 -0.592,0.128 -0.296,0.048 -0.584,0.048 -0.288,0 -0.544,-0.072 -0.248,-0.072 -0.44,-0.232 -0.184,-0.16 -0.296,-0.4 -0.112,-0.248 -0.112,-0.6 0,-0.328 0.096,-0.568 0.104,-0.248 0.28,-0.408 0.176,-0.168 0.416,-0.248 0.24,-0.088 0.52,-0.088 0.264,0 0.584,0.064 v -0.384 q 0,-0.464 -0.184,-0.648 -0.176,-0.184 -0.512,-0.184 -0.184,0 -0.352,0.04 -0.16,0.032 -0.344,0.112 z m 0.328,2.888 q 0,0.368 0.192,0.544 0.192,0.176 0.544,0.176 0.216,0 0.472,-0.056 v -1.336 q -0.24,-0.064 -0.472,-0.064 -0.152,0 -0.288,0.04 -0.136,0.032 -0.24,0.12 -0.096,0.08 -0.152,0.224 -0.056,0.136 -0.056,0.352 z" />
    <path
       id="path794"
       style="font-style:normal;font-variant:normal;font-weight:normal;font-stretch:normal;font-size:8px;font-family:'Ubuntu Condensed';-inkscape-font-specification:'Ubuntu Condensed, '"
       d="m -44.931297,44.020516 q 0.232,0 0.408,0.048 0.176,0.048 0.288,0.104 l -0.144,0.544 q -0.112,-0.056 -0.232,-0.08 -0.12,-0.032 -0.256,-0.032 -0.184,0 -0.304,0.064 -0.12,0.064 -0.184,0.176 -0.064,0.112 -0.088,0.272 -0.024,0.152 -0.024,0.328 v 0.584 h 1.08 v 0.592 h -1.08 v 3.608 h -0.688 v -4.784 q 0,-0.68 0.304,-1.048 0.304,-0.376 0.92,-0.376 z" />
    <path
       id="path796"
       style="font-style:normal;font-variant:normal;font-weight:normal;font-stretch:normal;font-size:8px;font-family:'Ubuntu Condensed';-inkscape-font-specification:'Ubuntu Condensed, '"
       d="m -41.102172,46.028516 q -0.336,0.576 -0.648,1.056 -0.304,0.472 -0.608,0.888 0.192,0.224 0.392,0.504 0.2,0.28 0.384,0.584 0.184,0.296 0.344,0.6 0.16,0.296 0.272,0.568 h -0.752 q -0.12,-0.264 -0.28,-0.552 -0.16,-0.288 -0.336,-0.56 -0.176,-0.28 -0.352,-0.528 -0.176,-0.248 -0.328,-0.416 v 2.056 h -0.688 v -6.088 l 0.688,-0.12 v 3.816 q 0.144,-0.192 0.304,-0.432 0.168,-0.24 0.328,-0.48 0.16,-0.248 0.304,-0.48 0.144,-0.232 0.24,-0.416 z" />
    <path
       id="path798"
       style="font-style:normal;font-variant:normal;font-weight:normal;font-stretch:normal;font-size:8px;font-family:'Ubuntu Condensed';-inkscape-font-specification:'Ubuntu Condensed, '"
       d="m -40.216297,46.116516 q 0.208,-0.088 0.44,-0.136 0.232,-0.056 0.504,-0.056 0.56,0 0.912,0.352 0.352,0.344 0.352,1.08 v 2.784 q -0.288,0.08 -0.592,0.128 -0.296,0.048 -0.584,0.048 -0.288,0 -0.544,-0.072 -0.248,-0.072 -0.44,-0.232 -0.184,-0.16 -0.296,-0.4 -0.112,-0.248 -0.112,-0.6 0,-0.328 0.096,-0.568 0.104,-0.248 0.28,-0.408 0.176,-0.168 0.416,-0.248 0.24,-0.088 0.52,-0.088 0.264,0 0.584,0.064 v -0.384 q 0,-0.464 -0.184,-0.648 -0.176,-0.184 -0.512,-0.184 -0.184,0 -0.352,0.04 -0.16,0.032 -0.344,0.112 z m 0.328,2.888 q 0,0.368 0.192,0.544 0.192,0.176 0.544,0.176 0.216,0 0.472,-0.056 v -1.336 q -0.24,-0.064 -0.472,-0.064 -0.152,0 -0.288,0.04 -0.136,0.032 -0.24,0.12 -0.096,0.08 -0.152,0.224 -0.056,0.136 -0.056,0.352 z" />
  </g>
  <rect
     style="fill:#ffffff;stroke:#000000;stroke-width:0.26458332"
     y="3.1322927"
     x="12.446483"
     height="34.143684"
     width="4.0758595"
     id="rect10-8-9" />
  <rect
     style="fill:#ffffff;stroke:#000000;stroke-width:0.26458333;stroke-miterlimit:4;stroke-dasharray:none"
     y="3.1322927"
     x="10.862525"
     height="5.3464022"
     width="7.4031129"
     id="rect10-8-3-1" />
  <path
     id="path1170"
     d="m 3.6926922,9.2322633 h 3.6926921 v 1.2712547 h 7.0827047 v 1.695006 H 7.3853843 v 1.452863 H 24.395983 v 1.452862 l 0.06054,0.06054 c -17.0711347,0 -17.0711347,0 -17.0711347,0 v 1.392327 H 14.286481 V 18.07051 H 7.5064563 v 1.392327 H 24.577591 v 1.93715 H 7.6880642 v 1.392326 H 14.407553 V 23.88196 H 7.6880642 v 2.058222 H 4.0559079"
     style="fill:none;stroke:#ff0000;stroke-width:0.60007499;stroke-linecap:butt;stroke-linejoin:miter;stroke-opacity:1;stroke-miterlimit:4;stroke-dasharray:none" />
  <g
     id="flowRoot1181"
     style="font-style:normal;font-weight:normal;font-size:40px;line-height:1.25;font-family:sans-serif;letter-spacing:0px;word-spacing:0px;fill:#000000;fill-opacity:1;stroke:none"
     transform="matrix(0.26458333,0,0,0.26458333,6.1639736,-7.6193562)"
     aria-label="RDBS">
    <path
       id="path1278"
       style="font-style:normal;font-variant:normal;font-weight:normal;font-stretch:normal;font-size:8px;font-family:'Ubuntu Condensed';-inkscape-font-specification:'Ubuntu Condensed, '"
       d="m 24.211062,43.032094 q 0.56,-0.136 1.08,-0.136 0.416,0 0.752001,0.096 0.335999,0.096 0.575999,0.304 0.24,0.208 0.368,0.536 0.136,0.328 0.136,0.792 0,0.576 -0.224,0.936 -0.216,0.352 -0.592,0.536 0.096,0.16 0.24,0.44 0.152,0.272 0.304,0.608 0.160001,0.328 0.304,0.68 0.152,0.352 0.256,0.672 h -0.72 q -0.088,-0.24 -0.224,-0.544 -0.128,-0.304 -0.272,-0.6 -0.144,-0.304 -0.288,-0.576 -0.144,-0.28 -0.255999,-0.472 -0.128,0.016 -0.264001,0.024 -0.136,0.008 -0.272,0.008 h -0.2 v 2.16 h -0.704 z m 0.704,2.712 h 0.304 q 0.552,0 0.848,-0.248 0.296,-0.256 0.296,-0.872 0,-0.312 -0.08,-0.52 -0.072,-0.216 -0.216,-0.336 -0.136,-0.128 -0.336,-0.184 -0.192,-0.056 -0.431999,-0.056 -0.208001,0 -0.384001,0.024 z" />
    <path
       id="path1280"
       style="font-style:normal;font-variant:normal;font-weight:normal;font-stretch:normal;font-size:8px;font-family:'Ubuntu Condensed';-inkscape-font-specification:'Ubuntu Condensed, '"
       d="m 31.816437,45.720094 q 0,0.776 -0.168,1.32 -0.16,0.536 -0.472,0.872 -0.304,0.336 -0.744,0.488 -0.432,0.152 -0.968,0.152 -0.544,0 -1.151999,-0.144 v -5.376 q 0.303999,-0.064 0.591999,-0.104 0.288,-0.04 0.552,-0.04 0.544,0 0.976,0.152 0.44,0.152 0.744,0.488 0.312,0.336 0.472,0.88 0.168,0.536 0.168,1.312 z m -0.768,0 q 0,-0.592 -0.088,-1.008 -0.088,-0.416 -0.272,-0.68 -0.183999,-0.264 -0.488,-0.384 -0.296,-0.12 -0.712,-0.12 -0.111999,0 -0.224,0.008 -0.111999,0.008 -0.232,0.024 v 4.32 q 0.120001,0.016 0.232,0.024 0.112001,0.008 0.216,0.008 0.424,0 0.72,-0.12 0.296,-0.12 0.48,-0.376 0.192,-0.264 0.28,-0.68 0.088,-0.416 0.088,-1.016 z" />
    <path
       id="path1282"
       style="font-style:normal;font-variant:normal;font-weight:normal;font-stretch:normal;font-size:8px;font-family:'Ubuntu Condensed';-inkscape-font-specification:'Ubuntu Condensed, '"
       d="m 33.649813,45.312094 h 0.495999 q 0.992001,0 0.992001,-0.896 0,-0.28 -0.088,-0.456 -0.08,-0.184 -0.216001,-0.28 -0.136,-0.104 -0.32,-0.144 -0.176,-0.04 -0.375999,-0.04 -0.120001,0 -0.248001,0.008 -0.12,0.008 -0.239999,0.024 z m 0,0.576 v 2 q 0.151999,0.024 0.296,0.04 0.152,0.016 0.296,0.016 0.223999,0 0.423999,-0.048 0.2,-0.048 0.344001,-0.16 0.151999,-0.112 0.232,-0.304 0.088,-0.2 0.088,-0.488 0,-0.496 -0.272001,-0.776 -0.263999,-0.28 -0.831999,-0.28 z m -0.720001,-2.856 q 0.28,-0.064 0.568001,-0.096 0.296,-0.04 0.583999,-0.04 0.36,0 0.68,0.072 0.328,0.064 0.576,0.232 0.248001,0.16 0.392001,0.432 0.152,0.264 0.152,0.664 0,0.496 -0.208001,0.816 -0.208,0.312 -0.535999,0.464 0.407999,0.16 0.671999,0.488 0.264001,0.328 0.264001,0.904 0,0.432 -0.144001,0.728 -0.135999,0.296 -0.392,0.488 -0.256,0.184 -0.615999,0.272 -0.352001,0.08 -0.776001,0.08 -0.28,0 -0.583999,-0.032 -0.304001,-0.032 -0.632001,-0.096 z" />
    <path
       id="path1284"
       style="font-style:normal;font-variant:normal;font-weight:normal;font-stretch:normal;font-size:8px;font-family:'Ubuntu Condensed';-inkscape-font-specification:'Ubuntu Condensed, '"
       d="m 37.789687,48.000094 q 0.432001,0 0.664,-0.24 0.240001,-0.24 0.240001,-0.648 0,-0.216 -0.072,-0.384 -0.072,-0.168 -0.192,-0.304 -0.112,-0.136 -0.264,-0.248 -0.151999,-0.112 -0.312,-0.224 -0.183999,-0.128 -0.384,-0.272 -0.199999,-0.144 -0.368,-0.336 -0.16,-0.192 -0.264,-0.448 -0.103999,-0.256 -0.103999,-0.6 0,-0.336 0.111999,-0.608 0.120001,-0.272 0.32,-0.464 0.208001,-0.192 0.488,-0.296 0.288,-0.104 0.616001,-0.104 0.319999,0 0.592,0.08 0.271999,0.08 0.455999,0.192 l -0.223999,0.568 q -0.168,-0.112 -0.368001,-0.168 -0.192,-0.064 -0.408,-0.064 -0.391999,0 -0.632,0.216 -0.232,0.208 -0.232,0.616 0,0.224 0.072,0.392 0.08,0.168 0.199999,0.304 0.128,0.136 0.288001,0.248 0.168,0.112 0.351999,0.232 0.184,0.12 0.376,0.264 0.192,0.144 0.344,0.336 0.160001,0.184 0.256,0.44 0.104,0.248 0.104,0.592 0,0.312 -0.096,0.592 -0.096,0.28 -0.304001,0.496 -0.2,0.208 -0.512,0.336 -0.304,0.12 -0.72,0.12 -0.384,0 -0.671999,-0.088 -0.288001,-0.088 -0.512,-0.232 l 0.223999,-0.576 q 0.208,0.128 0.424,0.208 0.224001,0.072 0.512,0.072 z" />
  </g>
  <g
     id="flowRoot1181-0"
     style="font-style:normal;font-weight:normal;font-size:40px;line-height:1.25;font-family:sans-serif;letter-spacing:0px;word-spacing:0px;fill:#000000;fill-opacity:1;stroke:none"
     transform="matrix(0.26458333,0,0,0.26458333,5.4295921,-5.6352174)"
     aria-label="PostgreSQL">
    <path
       id="path1257"
       style="font-style:normal;font-variant:normal;font-weight:normal;font-stretch:normal;font-size:5.33333349px;font-family:'Ubuntu Condensed';-inkscape-font-specification:'Ubuntu Condensed, '"
       d="m 23.987063,44.853427 q 0.373333,-0.09067 0.730666,-0.09067 0.277334,0 0.501334,0.06933 0.229333,0.064 0.389333,0.208 0.165333,0.138666 0.250667,0.362666 0.09067,0.224 0.09067,0.538667 0,0.32 -0.09067,0.549333 -0.09067,0.224 -0.256,0.368 -0.165334,0.138667 -0.4,0.202667 -0.229334,0.064 -0.512,0.064 h -0.224 v 1.370667 h -0.48 z m 0.48,1.850667 h 0.192 q 0.181333,0 0.325333,-0.03733 0.149333,-0.04267 0.250667,-0.133333 0.101333,-0.09067 0.154666,-0.234667 0.05333,-0.144 0.05333,-0.357333 0,-0.213333 -0.05333,-0.357333 -0.05333,-0.149334 -0.149333,-0.234667 -0.09067,-0.09067 -0.224,-0.128 -0.133333,-0.03733 -0.293333,-0.03733 -0.138667,0 -0.256,0.016 z" />
    <path
       id="path1259"
       style="font-style:normal;font-variant:normal;font-weight:normal;font-stretch:normal;font-size:5.33333349px;font-family:'Ubuntu Condensed';-inkscape-font-specification:'Ubuntu Condensed, '"
       d="m 28.304479,47.09876 q 0,0.330667 -0.05867,0.602667 -0.05867,0.266667 -0.181334,0.458667 -0.117333,0.192 -0.304,0.298666 -0.181333,0.106667 -0.432,0.106667 -0.250666,0 -0.437333,-0.106667 -0.186667,-0.106666 -0.309333,-0.298666 -0.117334,-0.192 -0.176,-0.458667 -0.05867,-0.272 -0.05867,-0.602667 0,-0.325333 0.05867,-0.597333 0.05867,-0.272 0.176,-0.464 0.122666,-0.197333 0.309333,-0.304 0.186667,-0.106667 0.437333,-0.106667 0.250667,0 0.432,0.106667 0.186667,0.106667 0.304,0.304 0.122667,0.192 0.181334,0.464 0.05867,0.272 0.05867,0.597333 z m -0.48,0 q 0,-0.234666 -0.02667,-0.426666 -0.02667,-0.197334 -0.08533,-0.336 -0.05867,-0.144 -0.154666,-0.218667 -0.096,-0.08 -0.229334,-0.08 -0.138666,0 -0.234666,0.08 -0.09067,0.07467 -0.154667,0.218667 -0.05867,0.138666 -0.08533,0.336 -0.02667,0.192 -0.02667,0.426666 0,0.234667 0.02667,0.432 0.02667,0.192 0.08533,0.330667 0.064,0.138667 0.154667,0.218667 0.096,0.07467 0.234666,0.07467 0.133334,0 0.229334,-0.07467 0.096,-0.08 0.154666,-0.218667 0.05867,-0.138667 0.08533,-0.330667 0.02667,-0.197333 0.02667,-0.432 z" />
    <path
       id="path1261"
       style="font-style:normal;font-variant:normal;font-weight:normal;font-stretch:normal;font-size:5.33333349px;font-family:'Ubuntu Condensed';-inkscape-font-specification:'Ubuntu Condensed, '"
       d="m 29.365229,48.17076 q 0.202667,0 0.304,-0.112 0.106667,-0.117333 0.106667,-0.304 0,-0.117333 -0.04267,-0.197333 -0.04267,-0.08533 -0.112,-0.149333 -0.06933,-0.064 -0.16,-0.112 -0.09067,-0.05333 -0.181333,-0.112 -0.09067,-0.05333 -0.176,-0.122667 -0.08533,-0.07467 -0.154667,-0.165333 -0.064,-0.096 -0.106666,-0.213334 -0.03733,-0.122666 -0.03733,-0.282666 0,-0.346667 0.213334,-0.56 0.218666,-0.213334 0.586666,-0.213334 0.154667,0 0.293334,0.04267 0.138666,0.03733 0.229333,0.08533 l -0.101333,0.368 q -0.096,-0.05333 -0.192,-0.08 -0.096,-0.02667 -0.208,-0.02667 -0.170667,0 -0.272,0.101333 -0.101334,0.096 -0.101334,0.282667 0,0.106666 0.03733,0.186666 0.03733,0.07467 0.096,0.138667 0.064,0.05867 0.138666,0.112 0.08,0.05333 0.165334,0.101333 0.101333,0.05867 0.197333,0.128 0.101333,0.06933 0.176,0.165334 0.08,0.09067 0.128,0.218666 0.048,0.122667 0.048,0.298667 0,0.368 -0.218667,0.592 -0.213333,0.224 -0.629333,0.224 -0.213333,0 -0.384,-0.05867 -0.170667,-0.05867 -0.256,-0.106666 l 0.096,-0.378667 q 0.08,0.04267 0.213333,0.096 0.138667,0.05333 0.304,0.05333 z" />
    <path
       id="path1263"
       style="font-style:normal;font-variant:normal;font-weight:normal;font-stretch:normal;font-size:5.33333349px;font-family:'Ubuntu Condensed';-inkscape-font-specification:'Ubuntu Condensed, '"
       d="m 31.225479,45.696094 h 0.704 v 0.394666 h -0.704 v 1.541334 q 0,0.288 0.101334,0.405333 0.106666,0.112 0.282666,0.112 0.09067,0 0.170667,-0.02667 0.08533,-0.02667 0.144,-0.064 l 0.09067,0.368 q -0.218667,0.128 -0.464,0.128 -0.394667,0 -0.592,-0.218666 -0.192,-0.224 -0.192,-0.736 v -2.656 l 0.458666,-0.08 z" />
    <path
       id="path1265"
       style="font-style:normal;font-variant:normal;font-weight:normal;font-stretch:normal;font-size:5.33333349px;font-family:'Ubuntu Condensed';-inkscape-font-specification:'Ubuntu Condensed, '"
       d="m 34.139897,48.416094 q 0,0.298666 -0.08,0.501333 -0.07467,0.208 -0.208,0.336 -0.133334,0.128 -0.314667,0.186667 -0.176,0.05867 -0.378667,0.05867 -0.170667,0 -0.341333,-0.03733 -0.170667,-0.03733 -0.314667,-0.112 l 0.096,-0.384 q 0.096,0.05333 0.234667,0.096 0.138666,0.04267 0.288,0.04267 0.261333,0 0.410667,-0.149334 0.149333,-0.149333 0.149333,-0.512 v -0.133333 q -0.08533,0.03733 -0.181333,0.064 -0.096,0.02133 -0.218667,0.02133 -0.501334,0 -0.736,-0.341333 -0.229334,-0.346667 -0.229334,-0.976 0,-0.336 0.05867,-0.602667 0.064,-0.272 0.192,-0.458666 0.133333,-0.192 0.341333,-0.288 0.208001,-0.101334 0.506667,-0.101334 0.197334,0 0.384,0.04267 0.192,0.03733 0.341334,0.101333 z M 33.68123,46.069427 q -0.07467,-0.02133 -0.144,-0.02667 -0.06933,-0.01067 -0.128,-0.01067 -0.32,0 -0.469334,0.245333 -0.144,0.245333 -0.144,0.8 0,0.501333 0.144,0.709333 0.144,0.202667 0.410667,0.202667 0.09067,0 0.170667,-0.02133 0.08533,-0.02133 0.16,-0.05867 z" />
    <path
       id="path1267"
       style="font-style:normal;font-variant:normal;font-weight:normal;font-stretch:normal;font-size:5.33333349px;font-family:'Ubuntu Condensed';-inkscape-font-specification:'Ubuntu Condensed, '"
       d="m 36.176146,46.112094 q -0.170666,-0.07467 -0.384,-0.07467 -0.197333,0 -0.368,0.06933 v 2.389334 H 34.965479 V 45.81876 q 0.154667,-0.07467 0.352001,-0.122666 0.202666,-0.05333 0.442666,-0.05333 0.128,0 0.256,0.016 0.128,0.016 0.24,0.05867 z" />
    <path
       id="path1269"
       style="font-style:normal;font-variant:normal;font-weight:normal;font-stretch:normal;font-size:5.33333349px;font-family:'Ubuntu Condensed';-inkscape-font-specification:'Ubuntu Condensed, '"
       d="m 36.978063,47.232094 q 0.0053,0.202666 0.03733,0.373333 0.032,0.165333 0.101334,0.293333 0.07467,0.122667 0.192,0.192 0.122667,0.06933 0.309333,0.06933 0.154667,0 0.282667,-0.04267 0.133333,-0.048 0.192,-0.08 l 0.08533,0.368 q -0.06933,0.048 -0.234666,0.101333 -0.16,0.05867 -0.384,0.05867 -0.293334,0 -0.496001,-0.106667 -0.197333,-0.106666 -0.325333,-0.298666 -0.122667,-0.192 -0.176,-0.458667 -0.05333,-0.266667 -0.05333,-0.586667 0,-0.773333 0.256,-1.130666 0.256,-0.357334 0.677333,-0.357334 0.474667,0 0.672,0.357334 0.197334,0.357333 0.197334,1.002666 0,0.05867 0,0.122667 0,0.05867 -0.0053,0.122667 z m 0.464,-1.216 q -0.229333,0 -0.336,0.229333 -0.101333,0.229333 -0.122667,0.613333 h 0.848001 q 0,-0.389333 -0.08,-0.613333 -0.08,-0.229333 -0.309334,-0.229333 z" />
    <path
       id="path1271"
       style="font-style:normal;font-variant:normal;font-weight:normal;font-stretch:normal;font-size:5.33333349px;font-family:'Ubuntu Condensed';-inkscape-font-specification:'Ubuntu Condensed, '"
       d="m 39.47698,48.165427 q 0.288,0 0.442667,-0.16 0.16,-0.16 0.16,-0.432 0,-0.144 -0.048,-0.256 -0.048,-0.112 -0.128,-0.202667 -0.07467,-0.09067 -0.176,-0.165333 -0.101334,-0.07467 -0.208,-0.149333 -0.122667,-0.08533 -0.256,-0.181334 -0.133334,-0.096 -0.245334,-0.224 -0.106666,-0.128 -0.176,-0.298666 -0.06933,-0.170667 -0.06933,-0.4 0,-0.224 0.07467,-0.405334 0.08,-0.181333 0.213333,-0.309333 0.138667,-0.128 0.325333,-0.197333 0.192,-0.06933 0.410667,-0.06933 0.213333,0 0.394667,0.05333 0.181333,0.05333 0.304,0.128 l -0.149333,0.378666 q -0.112,-0.07467 -0.245334,-0.112 -0.128,-0.04267 -0.272,-0.04267 -0.261333,0 -0.421333,0.144 -0.154667,0.138666 -0.154667,0.410666 0,0.149334 0.048,0.261334 0.05333,0.112 0.133333,0.202666 0.08533,0.09067 0.192,0.165334 0.112,0.07467 0.234667,0.154666 0.122667,0.08 0.250667,0.176 0.128,0.096 0.229333,0.224 0.106667,0.122667 0.170667,0.293334 0.06933,0.165333 0.06933,0.394666 0,0.208 -0.064,0.394667 -0.064,0.186667 -0.202666,0.330667 -0.133334,0.138666 -0.341334,0.224 -0.202667,0.08 -0.48,0.08 -0.256,0 -0.448,-0.05867 -0.192,-0.05867 -0.341333,-0.154667 l 0.149333,-0.384 q 0.138667,0.08533 0.282667,0.138667 0.149333,0.048 0.341333,0.048 z" />
    <path
       id="path1273"
       style="font-style:normal;font-variant:normal;font-weight:normal;font-stretch:normal;font-size:5.33333349px;font-family:'Ubuntu Condensed';-inkscape-font-specification:'Ubuntu Condensed, '"
       d="m 43.685813,46.65076 q 0,0.378667 -0.064,0.698667 -0.05867,0.32 -0.181334,0.565333 -0.122666,0.245334 -0.314666,0.410667 -0.192,0.16 -0.448,0.218667 0.01067,0.224 0.24,0.346666 0.229333,0.128 0.592,0.192 l -0.112,0.373334 q -0.213334,-0.048 -0.410667,-0.106667 -0.192,-0.05867 -0.352,-0.154667 -0.154667,-0.096 -0.266667,-0.245333 -0.106666,-0.149333 -0.154666,-0.384 -0.298667,-0.032 -0.517334,-0.181333 -0.213333,-0.154667 -0.357333,-0.405334 -0.144,-0.250666 -0.213333,-0.586666 -0.06933,-0.336 -0.06933,-0.741334 0,-0.432 0.08,-0.789333 0.08,-0.357333 0.24,-0.608 0.165334,-0.256 0.410667,-0.394667 0.250667,-0.144 0.586667,-0.144 0.336,0 0.581333,0.144 0.250667,0.138667 0.410667,0.394667 0.165333,0.250667 0.24,0.608 0.08,0.357333 0.08,0.789333 z m -0.512,0 q 0,-0.336 -0.04267,-0.613333 -0.04267,-0.277333 -0.138667,-0.474667 -0.096,-0.202666 -0.250666,-0.314666 -0.149334,-0.112 -0.368,-0.112 -0.218667,0 -0.373334,0.112 -0.149333,0.112 -0.245333,0.314666 -0.096,0.197334 -0.144,0.474667 -0.04267,0.277333 -0.04267,0.613333 0,0.336 0.04267,0.613334 0.048,0.277333 0.144,0.474666 0.096,0.197334 0.245333,0.309334 0.154667,0.106666 0.373334,0.106666 0.218666,0 0.368,-0.106666 0.154666,-0.112 0.250666,-0.309334 0.096,-0.197333 0.138667,-0.474666 0.04267,-0.277334 0.04267,-0.613334 z" />
    <path
       id="path1275"
       style="font-style:normal;font-variant:normal;font-weight:normal;font-stretch:normal;font-size:5.33333349px;font-family:'Ubuntu Condensed';-inkscape-font-specification:'Ubuntu Condensed, '"
       d="m 46.082981,48.085427 v 0.410667 H 44.43498 v -3.696 h 0.48 v 3.285333 z" />
  </g>
  <rect
     style="fill:#ffffff;stroke:#000000;stroke-width:0.26458332"
     y="3.1322927"
     x="40.492317"
     height="34.143684"
     width="4.0758595"
     id="rect10-8-9-1" />
  <rect
     style="fill:#ffffff;stroke:#000000;stroke-width:0.26458332;stroke-miterlimit:4;stroke-dasharray:none"
     y="3.1322927"
     x="38.90836"
     height="5.3464022"
     width="7.4031129"
     id="rect10-8-3-1-8" />
  <g
     id="flowRoot1181-7"
     style="font-style:normal;font-weight:normal;font-size:40px;line-height:1.25;font-family:sans-serif;letter-spacing:0px;word-spacing:0px;fill:#000000;fill-opacity:1;stroke:none"
     transform="matrix(0.26458333,0,0,0.26458333,34.209809,-7.619356)"
     aria-label="RDBS">
    <path
       id="path1287"
       style="font-style:normal;font-variant:normal;font-weight:normal;font-stretch:normal;font-size:8px;font-family:'Ubuntu Condensed';-inkscape-font-specification:'Ubuntu Condensed, '"
       d="m 24.211062,43.032094 q 0.56,-0.136 1.08,-0.136 0.416,0 0.752001,0.096 0.335999,0.096 0.575999,0.304 0.24,0.208 0.368,0.536 0.136,0.328 0.136,0.792 0,0.576 -0.224,0.936 -0.216,0.352 -0.592,0.536 0.096,0.16 0.24,0.44 0.152,0.272 0.304,0.608 0.160001,0.328 0.304,0.68 0.152,0.352 0.256,0.672 h -0.72 q -0.088,-0.24 -0.224,-0.544 -0.128,-0.304 -0.272,-0.6 -0.144,-0.304 -0.288,-0.576 -0.144,-0.28 -0.255999,-0.472 -0.128,0.016 -0.264001,0.024 -0.136,0.008 -0.272,0.008 h -0.2 v 2.16 h -0.704 z m 0.704,2.712 h 0.304 q 0.552,0 0.848,-0.248 0.296,-0.256 0.296,-0.872 0,-0.312 -0.08,-0.52 -0.072,-0.216 -0.216,-0.336 -0.136,-0.128 -0.336,-0.184 -0.192,-0.056 -0.431999,-0.056 -0.208001,0 -0.384001,0.024 z" />
    <path
       id="path1289"
       style="font-style:normal;font-variant:normal;font-weight:normal;font-stretch:normal;font-size:8px;font-family:'Ubuntu Condensed';-inkscape-font-specification:'Ubuntu Condensed, '"
       d="m 31.816437,45.720094 q 0,0.776 -0.168,1.32 -0.16,0.536 -0.472,0.872 -0.304,0.336 -0.744,0.488 -0.432,0.152 -0.968,0.152 -0.544,0 -1.151999,-0.144 v -5.376 q 0.303999,-0.064 0.591999,-0.104 0.288,-0.04 0.552,-0.04 0.544,0 0.976,0.152 0.44,0.152 0.744,0.488 0.312,0.336 0.472,0.88 0.168,0.536 0.168,1.312 z m -0.768,0 q 0,-0.592 -0.088,-1.008 -0.088,-0.416 -0.272,-0.68 -0.183999,-0.264 -0.488,-0.384 -0.296,-0.12 -0.712,-0.12 -0.111999,0 -0.224,0.008 -0.111999,0.008 -0.232,0.024 v 4.32 q 0.120001,0.016 0.232,0.024 0.112001,0.008 0.216,0.008 0.424,0 0.72,-0.12 0.296,-0.12 0.48,-0.376 0.192,-0.264 0.28,-0.68 0.088,-0.416 0.088,-1.016 z" />
    <path
       id="path1291"
       style="font-style:normal;font-variant:normal;font-weight:normal;font-stretch:normal;font-size:8px;font-family:'Ubuntu Condensed';-inkscape-font-specification:'Ubuntu Condensed, '"
       d="m 33.649813,45.312094 h 0.495999 q 0.992001,0 0.992001,-0.896 0,-0.28 -0.088,-0.456 -0.08,-0.184 -0.216001,-0.28 -0.136,-0.104 -0.32,-0.144 -0.176,-0.04 -0.375999,-0.04 -0.120001,0 -0.248001,0.008 -0.12,0.008 -0.239999,0.024 z m 0,0.576 v 2 q 0.151999,0.024 0.296,0.04 0.152,0.016 0.296,0.016 0.223999,0 0.423999,-0.048 0.2,-0.048 0.344001,-0.16 0.151999,-0.112 0.232,-0.304 0.088,-0.2 0.088,-0.488 0,-0.496 -0.272001,-0.776 -0.263999,-0.28 -0.831999,-0.28 z m -0.720001,-2.856 q 0.28,-0.064 0.568001,-0.096 0.296,-0.04 0.583999,-0.04 0.36,0 0.68,0.072 0.328,0.064 0.576,0.232 0.248001,0.16 0.392001,0.432 0.152,0.264 0.152,0.664 0,0.496 -0.208001,0.816 -0.208,0.312 -0.535999,0.464 0.407999,0.16 0.671999,0.488 0.264001,0.328 0.264001,0.904 0,0.432 -0.144001,0.728 -0.135999,0.296 -0.392,0.488 -0.256,0.184 -0.615999,0.272 -0.352001,0.08 -0.776001,0.08 -0.28,0 -0.583999,-0.032 -0.304001,-0.032 -0.632001,-0.096 z" />
    <path
       id="path1293"
       style="font-style:normal;font-variant:normal;font-weight:normal;font-stretch:normal;font-size:8px;font-family:'Ubuntu Condensed';-inkscape-font-specification:'Ubuntu Condensed, '"
       d="m 37.789687,48.000094 q 0.432001,0 0.664,-0.24 0.240001,-0.24 0.240001,-0.648 0,-0.216 -0.072,-0.384 -0.072,-0.168 -0.192,-0.304 -0.112,-0.136 -0.264,-0.248 -0.151999,-0.112 -0.312,-0.224 -0.183999,-0.128 -0.384,-0.272 -0.199999,-0.144 -0.368,-0.336 -0.16,-0.192 -0.264,-0.448 -0.103999,-0.256 -0.103999,-0.6 0,-0.336 0.111999,-0.608 0.120001,-0.272 0.32,-0.464 0.208001,-0.192 0.488,-0.296 0.288,-0.104 0.616001,-0.104 0.319999,0 0.592,0.08 0.271999,0.08 0.455999,0.192 l -0.223999,0.568 q -0.168,-0.112 -0.368001,-0.168 -0.192,-0.064 -0.408,-0.064 -0.391999,0 -0.632,0.216 -0.232,0.208 -0.232,0.616 0,0.224 0.072,0.392 0.08,0.168 0.199999,0.304 0.128,0.136 0.288001,0.248 0.168,0.112 0.351999,0.232 0.184,0.12 0.376,0.264 0.192,0.144 0.344,0.336 0.160001,0.184 0.256,0.44 0.104,0.248 0.104,0.592 0,0.312 -0.096,0.592 -0.096,0.28 -0.304001,0.496 -0.2,0.208 -0.512,0.336 -0.304,0.12 -0.72,0.12 -0.384,0 -0.671999,-0.088 -0.288001,-0.088 -0.512,-0.232 l 0.223999,-0.576 q 0.208,0.128 0.424,0.208 0.224001,0.072 0.512,0.072 z" />
  </g>
  <g
     id="flowRoot1181-0-3"
     style="font-style:normal;font-weight:normal;font-size:40px;line-height:1.25;font-family:sans-serif;letter-spacing:0px;word-spacing:0px;fill:#000000;fill-opacity:1;stroke:none"
     transform="matrix(0.26458333,0,0,0.26458333,33.475428,-5.6352175)"
     aria-label="PostgreSQL">
    <path
       id="path1296"
       style="font-style:normal;font-variant:normal;font-weight:normal;font-stretch:normal;font-size:5.33333349px;font-family:'Ubuntu Condensed';-inkscape-font-specification:'Ubuntu Condensed, '"
       d="m 23.987063,44.853427 q 0.373333,-0.09067 0.730666,-0.09067 0.277334,0 0.501334,0.06933 0.229333,0.064 0.389333,0.208 0.165333,0.138666 0.250667,0.362666 0.09067,0.224 0.09067,0.538667 0,0.32 -0.09067,0.549333 -0.09067,0.224 -0.256,0.368 -0.165334,0.138667 -0.4,0.202667 -0.229334,0.064 -0.512,0.064 h -0.224 v 1.370667 h -0.48 z m 0.48,1.850667 h 0.192 q 0.181333,0 0.325333,-0.03733 0.149333,-0.04267 0.250667,-0.133333 0.101333,-0.09067 0.154666,-0.234667 0.05333,-0.144 0.05333,-0.357333 0,-0.213333 -0.05333,-0.357333 -0.05333,-0.149334 -0.149333,-0.234667 -0.09067,-0.09067 -0.224,-0.128 -0.133333,-0.03733 -0.293333,-0.03733 -0.138667,0 -0.256,0.016 z" />
    <path
       id="path1298"
       style="font-style:normal;font-variant:normal;font-weight:normal;font-stretch:normal;font-size:5.33333349px;font-family:'Ubuntu Condensed';-inkscape-font-specification:'Ubuntu Condensed, '"
       d="m 28.304479,47.09876 q 0,0.330667 -0.05867,0.602667 -0.05867,0.266667 -0.181334,0.458667 -0.117333,0.192 -0.304,0.298666 -0.181333,0.106667 -0.432,0.106667 -0.250666,0 -0.437333,-0.106667 -0.186667,-0.106666 -0.309333,-0.298666 -0.117334,-0.192 -0.176,-0.458667 -0.05867,-0.272 -0.05867,-0.602667 0,-0.325333 0.05867,-0.597333 0.05867,-0.272 0.176,-0.464 0.122666,-0.197333 0.309333,-0.304 0.186667,-0.106667 0.437333,-0.106667 0.250667,0 0.432,0.106667 0.186667,0.106667 0.304,0.304 0.122667,0.192 0.181334,0.464 0.05867,0.272 0.05867,0.597333 z m -0.48,0 q 0,-0.234666 -0.02667,-0.426666 -0.02667,-0.197334 -0.08533,-0.336 -0.05867,-0.144 -0.154666,-0.218667 -0.096,-0.08 -0.229334,-0.08 -0.138666,0 -0.234666,0.08 -0.09067,0.07467 -0.154667,0.218667 -0.05867,0.138666 -0.08533,0.336 -0.02667,0.192 -0.02667,0.426666 0,0.234667 0.02667,0.432 0.02667,0.192 0.08533,0.330667 0.064,0.138667 0.154667,0.218667 0.096,0.07467 0.234666,0.07467 0.133334,0 0.229334,-0.07467 0.096,-0.08 0.154666,-0.218667 0.05867,-0.138667 0.08533,-0.330667 0.02667,-0.197333 0.02667,-0.432 z" />
    <path
       id="path1300"
       style="font-style:normal;font-variant:normal;font-weight:normal;font-stretch:normal;font-size:5.33333349px;font-family:'Ubuntu Condensed';-inkscape-font-specification:'Ubuntu Condensed, '"
       d="m 29.365229,48.17076 q 0.202667,0 0.304,-0.112 0.106667,-0.117333 0.106667,-0.304 0,-0.117333 -0.04267,-0.197333 -0.04267,-0.08533 -0.112,-0.149333 -0.06933,-0.064 -0.16,-0.112 -0.09067,-0.05333 -0.181333,-0.112 -0.09067,-0.05333 -0.176,-0.122667 -0.08533,-0.07467 -0.154667,-0.165333 -0.064,-0.096 -0.106666,-0.213334 -0.03733,-0.122666 -0.03733,-0.282666 0,-0.346667 0.213334,-0.56 0.218666,-0.213334 0.586666,-0.213334 0.154667,0 0.293334,0.04267 0.138666,0.03733 0.229333,0.08533 l -0.101333,0.368 q -0.096,-0.05333 -0.192,-0.08 -0.096,-0.02667 -0.208,-0.02667 -0.170667,0 -0.272,0.101333 -0.101334,0.096 -0.101334,0.282667 0,0.106666 0.03733,0.186666 0.03733,0.07467 0.096,0.138667 0.064,0.05867 0.138666,0.112 0.08,0.05333 0.165334,0.101333 0.101333,0.05867 0.197333,0.128 0.101333,0.06933 0.176,0.165334 0.08,0.09067 0.128,0.218666 0.048,0.122667 0.048,0.298667 0,0.368 -0.218667,0.592 -0.213333,0.224 -0.629333,0.224 -0.213333,0 -0.384,-0.05867 -0.170667,-0.05867 -0.256,-0.106666 l 0.096,-0.378667 q 0.08,0.04267 0.213333,0.096 0.138667,0.05333 0.304,0.05333 z" />
    <path
       id="path1302"
       style="font-style:normal;font-variant:normal;font-weight:normal;font-stretch:normal;font-size:5.33333349px;font-family:'Ubuntu Condensed';-inkscape-font-specification:'Ubuntu Condensed, '"
       d="m 31.225479,45.696094 h 0.704 v 0.394666 h -0.704 v 1.541334 q 0,0.288 0.101334,0.405333 0.106666,0.112 0.282666,0.112 0.09067,0 0.170667,-0.02667 0.08533,-0.02667 0.144,-0.064 l 0.09067,0.368 q -0.218667,0.128 -0.464,0.128 -0.394667,0 -0.592,-0.218666 -0.192,-0.224 -0.192,-0.736 v -2.656 l 0.458666,-0.08 z" />
    <path
       id="path1304"
       style="font-style:normal;font-variant:normal;font-weight:normal;font-stretch:normal;font-size:5.33333349px;font-family:'Ubuntu Condensed';-inkscape-font-specification:'Ubuntu Condensed, '"
       d="m 34.139897,48.416094 q 0,0.298666 -0.08,0.501333 -0.07467,0.208 -0.208,0.336 -0.133334,0.128 -0.314667,0.186667 -0.176,0.05867 -0.378667,0.05867 -0.170667,0 -0.341333,-0.03733 -0.170667,-0.03733 -0.314667,-0.112 l 0.096,-0.384 q 0.096,0.05333 0.234667,0.096 0.138666,0.04267 0.288,0.04267 0.261333,0 0.410667,-0.149334 0.149333,-0.149333 0.149333,-0.512 v -0.133333 q -0.08533,0.03733 -0.181333,0.064 -0.096,0.02133 -0.218667,0.02133 -0.501334,0 -0.736,-0.341333 -0.229334,-0.346667 -0.229334,-0.976 0,-0.336 0.05867,-0.602667 0.064,-0.272 0.192,-0.458666 0.133333,-0.192 0.341333,-0.288 0.208001,-0.101334 0.506667,-0.101334 0.197334,0 0.384,0.04267 0.192,0.03733 0.341334,0.101333 z M 33.68123,46.069427 q -0.07467,-0.02133 -0.144,-0.02667 -0.06933,-0.01067 -0.128,-0.01067 -0.32,0 -0.469334,0.245333 -0.144,0.245333 -0.144,0.8 0,0.501333 0.144,0.709333 0.144,0.202667 0.410667,0.202667 0.09067,0 0.170667,-0.02133 0.08533,-0.02133 0.16,-0.05867 z" />
    <path
       id="path1306"
       style="font-style:normal;font-variant:normal;font-weight:normal;font-stretch:normal;font-size:5.33333349px;font-family:'Ubuntu Condensed';-inkscape-font-specification:'Ubuntu Condensed, '"
       d="m 36.176146,46.112094 q -0.170666,-0.07467 -0.384,-0.07467 -0.197333,0 -0.368,0.06933 v 2.389334 H 34.965479 V 45.81876 q 0.154667,-0.07467 0.352001,-0.122666 0.202666,-0.05333 0.442666,-0.05333 0.128,0 0.256,0.016 0.128,0.016 0.24,0.05867 z" />
    <path
       id="path1308"
       style="font-style:normal;font-variant:normal;font-weight:normal;font-stretch:normal;font-size:5.33333349px;font-family:'Ubuntu Condensed';-inkscape-font-specification:'Ubuntu Condensed, '"
       d="m 36.978063,47.232094 q 0.0053,0.202666 0.03733,0.373333 0.032,0.165333 0.101334,0.293333 0.07467,0.122667 0.192,0.192 0.122667,0.06933 0.309333,0.06933 0.154667,0 0.282667,-0.04267 0.133333,-0.048 0.192,-0.08 l 0.08533,0.368 q -0.06933,0.048 -0.234666,0.101333 -0.16,0.05867 -0.384,0.05867 -0.293334,0 -0.496001,-0.106667 -0.197333,-0.106666 -0.325333,-0.298666 -0.122667,-0.192 -0.176,-0.458667 -0.05333,-0.266667 -0.05333,-0.586667 0,-0.773333 0.256,-1.130666 0.256,-0.357334 0.677333,-0.357334 0.474667,0 0.672,0.357334 0.197334,0.357333 0.197334,1.002666 0,0.05867 0,0.122667 0,0.05867 -0.0053,0.122667 z m 0.464,-1.216 q -0.229333,0 -0.336,0.229333 -0.101333,0.229333 -0.122667,0.613333 h 0.848001 q 0,-0.389333 -0.08,-0.613333 -0.08,-0.229333 -0.309334,-0.229333 z" />
    <path
       id="path1310"
       style="font-style:normal;font-variant:normal;font-weight:normal;font-stretch:normal;font-size:5.33333349px;font-family:'Ubuntu Condensed';-inkscape-font-specification:'Ubuntu Condensed, '"
       d="m 39.47698,48.165427 q 0.288,0 0.442667,-0.16 0.16,-0.16 0.16,-0.432 0,-0.144 -0.048,-0.256 -0.048,-0.112 -0.128,-0.202667 -0.07467,-0.09067 -0.176,-0.165333 -0.101334,-0.07467 -0.208,-0.149333 -0.122667,-0.08533 -0.256,-0.181334 -0.133334,-0.096 -0.245334,-0.224 -0.106666,-0.128 -0.176,-0.298666 -0.06933,-0.170667 -0.06933,-0.4 0,-0.224 0.07467,-0.405334 0.08,-0.181333 0.213333,-0.309333 0.138667,-0.128 0.325333,-0.197333 0.192,-0.06933 0.410667,-0.06933 0.213333,0 0.394667,0.05333 0.181333,0.05333 0.304,0.128 l -0.149333,0.378666 q -0.112,-0.07467 -0.245334,-0.112 -0.128,-0.04267 -0.272,-0.04267 -0.261333,0 -0.421333,0.144 -0.154667,0.138666 -0.154667,0.410666 0,0.149334 0.048,0.261334 0.05333,0.112 0.133333,0.202666 0.08533,0.09067 0.192,0.165334 0.112,0.07467 0.234667,0.154666 0.122667,0.08 0.250667,0.176 0.128,0.096 0.229333,0.224 0.106667,0.122667 0.170667,0.293334 0.06933,0.165333 0.06933,0.394666 0,0.208 -0.064,0.394667 -0.064,0.186667 -0.202666,0.330667 -0.133334,0.138666 -0.341334,0.224 -0.202667,0.08 -0.48,0.08 -0.256,0 -0.448,-0.05867 -0.192,-0.05867 -0.341333,-0.154667 l 0.149333,-0.384 q 0.138667,0.08533 0.282667,0.138667 0.149333,0.048 0.341333,0.048 z" />
    <path
       id="path1312"
       style="font-style:normal;font-variant:normal;font-weight:normal;font-stretch:normal;font-size:5.33333349px;font-family:'Ubuntu Condensed';-inkscape-font-specification:'Ubuntu Condensed, '"
       d="m 43.685813,46.65076 q 0,0.378667 -0.064,0.698667 -0.05867,0.32 -0.181334,0.565333 -0.122666,0.245334 -0.314666,0.410667 -0.192,0.16 -0.448,0.218667 0.01067,0.224 0.24,0.346666 0.229333,0.128 0.592,0.192 l -0.112,0.373334 q -0.213334,-0.048 -0.410667,-0.106667 -0.192,-0.05867 -0.352,-0.154667 -0.154667,-0.096 -0.266667,-0.245333 -0.106666,-0.149333 -0.154666,-0.384 -0.298667,-0.032 -0.517334,-0.181333 -0.213333,-0.154667 -0.357333,-0.405334 -0.144,-0.250666 -0.213333,-0.586666 -0.06933,-0.336 -0.06933,-0.741334 0,-0.432 0.08,-0.789333 0.08,-0.357333 0.24,-0.608 0.165334,-0.256 0.410667,-0.394667 0.250667,-0.144 0.586667,-0.144 0.336,0 0.581333,0.144 0.250667,0.138667 0.410667,0.394667 0.165333,0.250667 0.24,0.608 0.08,0.357333 0.08,0.789333 z m -0.512,0 q 0,-0.336 -0.04267,-0.613333 -0.04267,-0.277333 -0.138667,-0.474667 -0.096,-0.202666 -0.250666,-0.314666 -0.149334,-0.112 -0.368,-0.112 -0.218667,0 -0.373334,0.112 -0.149333,0.112 -0.245333,0.314666 -0.096,0.197334 -0.144,0.474667 -0.04267,0.277333 -0.04267,0.613333 0,0.336 0.04267,0.613334 0.048,0.277333 0.144,0.474666 0.096,0.197334 0.245333,0.309334 0.154667,0.106666 0.373334,0.106666 0.218666,0 0.368,-0.106666 0.154666,-0.112 0.250666,-0.309334 0.096,-0.197333 0.138667,-0.474666 0.04267,-0.277334 0.04267,-0.613334 z" />
    <path
       id="path1314"
       style="font-style:normal;font-variant:normal;font-weight:normal;font-stretch:normal;font-size:5.33333349px;font-family:'Ubuntu Condensed';-inkscape-font-specification:'Ubuntu Condensed, '"
       d="m 46.082981,48.085427 v 0.410667 H 44.43498 v -3.696 h 0.48 v 3.285333 z" />
  </g>
  <path
     id="path1255"
     d="m 37.197868,9.9950544 h 5.222256 v 1.9476446 h -5.286465 v 1.733617 h 5.350674 v 1.519591 h -5.222256"
     style="fill:none;stroke:#0000ff;stroke-width:0.60007499;stroke-linecap:butt;stroke-linejoin:miter;stroke-opacity:1;stroke-miterlimit:4;stroke-dasharray:none" />
</svg>
