<?xml version="1.0" encoding="UTF-8" standalone="no"?>
<!-- Generator: Adobe Illustrator 20.0.0, SVG Export Plug-In . SVG Version: 6.00 Build 0)  -->

<svg
   xmlns:dc="http://purl.org/dc/elements/1.1/"
   xmlns:cc="http://creativecommons.org/ns#"
   xmlns:rdf="http://www.w3.org/1999/02/22-rdf-syntax-ns#"
   xmlns:svg="http://www.w3.org/2000/svg"
   xmlns="http://www.w3.org/2000/svg"
   xmlns:sodipodi="http://sodipodi.sourceforge.net/DTD/sodipodi-0.dtd"
   xmlns:inkscape="http://www.inkscape.org/namespaces/inkscape"
   version="1.1"
   id="Layer_1"
   x="0px"
   y="0px"
   viewBox="0 0 74 200"
   style="enable-background:new 0 0 74 200;"
   xml:space="preserve"
   inkscape:version="0.91 r13725"
   sodipodi:docname="bracket.svg"><metadata
     id="metadata11"><rdf:RDF><cc:Work
         rdf:about=""><dc:format>image/svg+xml</dc:format><dc:type
           rdf:resource="http://purl.org/dc/dcmitype/StillImage" /></cc:Work></rdf:RDF></metadata><defs
     id="defs9" /><sodipodi:namedview
     pagecolor="#ffffff"
     bordercolor="#666666"
     borderopacity="1"
     objecttolerance="10"
     gridtolerance="10"
     guidetolerance="10"
     inkscape:pageopacity="0"
     inkscape:pageshadow="2"
     inkscape:window-width="1366"
     inkscape:window-height="724"
     id="namedview7"
     showgrid="false"
     inkscape:zoom="1.4142136"
     inkscape:cx="16.499102"
     inkscape:cy="104.26643"
     inkscape:window-x="0"
     inkscape:window-y="20"
     inkscape:window-maximized="1"
     inkscape:current-layer="Layer_1" /><g
     id="g3"
     transform="matrix(-1,0,0,0.49530722,74.46432,53.555812)"><path
       d="m 50.342753,64.4 c 0,-6.9 0.9,-8.6 0.9,-22.6 C 51.242753,12 50.35,4.052148 43.5,2.702148 42,2.002148 41.1,3.3 41.1,2.7 c 0,-1.1 1.8,-1.3 3.1,-1.3 2.375,0 6.660532,3.767464 8.302175,10.532608 C 54.143818,18.697752 53.666108,30.833892 54.1,47.5 c 0.242038,9.29685 -1.6,13.9 -1.6,27 0,12.8 0.786755,18.264292 7.56432,19.487681 1.489856,0.148926 1.479713,0.200625 3.3,0.912319 -1.757518,0.629236 -2,0.577862 -4,1.134783 C 53.686755,97.377862 52.5,103.7 52.5,117.2 c 0,8.4 1.6,27.7 1.6,36.3 0,33.9 0.5,44.04893 -10.8,44.04893 -1.5,0 -2,-0.14893 -2,-0.84893 0,-0.7 0.4,0.46062 2,0.0606 8.2,-2.39998 7.942753,-10.4606 7.942753,-30.9606 0,-11.1 -0.9,-27.7 -0.9,-34.8 0,-15.9 -1.045657,-32.220289 3.657247,-35.6 -4.798555,-4.410145 -3.657247,-12.2 -3.657247,-31 z"
       id="path5"
       inkscape:connector-curvature="0"
       sodipodi:nodetypes="sscsszsscccsssscsscs" /></g></svg>