<?xml version="1.0" encoding="UTF-8"?>
<svg xmlns="http://www.w3.org/2000/svg" viewBox="0 0 419.83 202.28"> <defs> <style>.a{fill:#9c0c29;}</style> </defs> <title>logo_pycon</title> <path class="a" d="M76.51,35.56a89.3,89.3,0,0,0-15,1.28C48.31,39.18,45.91,44.07,45.91,53.1V65H77.2v4h-43c-9.1,0-17.06,5.47-19.55,15.87-2.87,11.91-3,19.35,0,31.8,2.22,9.26,7.54,15.86,16.63,15.86H42V118.24A19.88,19.88,0,0,1,61.56,98.8H92.81a15.76,15.76,0,0,0,15.64-15.9V53.1c0-8.48-7.15-14.85-15.64-16.26A97.49,97.49,0,0,0,76.51,35.56ZM59.59,45.15a6,6,0,1,1-5.87,6A5.94,5.94,0,0,1,59.59,45.15Z"/> <path class="a" d="M112.36,69V82.9c0,10.77-9.14,19.84-19.55,19.84H61.56a16,16,0,0,0-15.65,15.9v29.79c0,8.48,7.37,13.47,15.65,15.9a52.27,52.27,0,0,0,31.25,0c7.88-2.28,15.64-6.87,15.64-15.9V136.51H77.2v-4h46.9c9.09,0,12.48-6.34,15.64-15.86,3.27-9.8,3.13-19.23,0-31.8C137.5,75.81,133.21,69,124.1,69ZM94.78,144.46a6,6,0,1,1-5.87,5.94A5.9,5.9,0,0,1,94.78,144.46Z"/> <path class="a" d="M181.32,72.06h-7.64V89.81h-8.77V40.31h16.41c11.88,0,19.16,5.3,19.16,15.91S193.2,72.06,181.32,72.06Zm-.5-24.39h-7.14v17h7.14c7.15,0,10.75-2.55,10.75-8.49S188,47.67,180.82,47.67Z"/> <path class="a" d="M219.58,89.53,204.87,53.18h8.56l10.18,25.53L233,53.18h8.55l-19,51.62h-8.55Z"/> <path class="a" d="M269.09,39.46c9.19,0,16.33,4.25,20.15,10.75L282,54.1c-3.19-4.81-7.21-7.14-12.59-7.14-8.48,0-15,6.29-15,18.1s6.51,18.1,15,18.1c5.38,0,9.4-2.33,12.59-7.14l7.21,3.89c-3.82,6.51-11,10.75-20.15,10.75-14.22,0-23.55-10.33-23.55-25.6S254.87,39.46,269.09,39.46Z"/> <path class="a" d="M312.51,90.66c-11.1,0-18.25-7.71-18.25-19.17s7.15-19.16,18.25-19.16S330.75,60,330.75,71.49,323.61,90.66,312.51,90.66Zm0-31.54c-6.15,0-9.76,4.74-9.76,12.37s3.61,12.38,9.76,12.38,9.76-4.74,9.76-12.38S318.66,59.12,312.51,59.12Z"/> <path class="a" d="M346.53,64.07V89.81h-8.34V53.18h8.34v4.24a17.23,17.23,0,0,1,12.3-5.09c7.71,0,12.95,4.81,12.95,13.72V89.81h-8.35V67.25c0-5.16-2.26-8.13-7.07-8.13A13.07,13.07,0,0,0,346.53,64.07Z"/> <path class="a" d="M164.91,109.46h17.68c11,0,17,5.51,17,13.3,0,4.66-2.4,8.55-6.93,10.11,6.09,1.41,9.41,5.87,9.41,11.74,0,8.76-6.15,14.35-18.39,14.35H164.91Zm8.77,20.37H182c5.72,0,8.62-1.91,8.62-6.51s-2.9-6.5-8.62-6.5h-8.35ZM183,151.61c7.14,0,10.18-2.41,10.18-7.22s-3-7.21-10.18-7.21h-9.27v14.43Z"/> <path class="a" d="M242.92,143.69h-27c.77,5.58,4.87,9.33,10.53,9.33a11.45,11.45,0,0,0,9.12-4.67l5.87,4.18a18,18,0,0,1-14.92,7.28c-11.53,0-19.09-7.92-19.09-19.17,0-11.1,7.14-19.16,17.89-19.16,10.54,0,17.75,8,17.75,19.38A19.23,19.23,0,0,1,242.92,143.69Zm-27.09-6.37h18.82c-.43-5.59-4.32-9-9.34-9C220.08,128.27,216.61,131.67,215.83,137.32Z"/> <path class="a" d="M250.84,107.34h8.35V159h-8.35Z"/> <path class="a" d="M291.43,136c0-4.6-2-7.64-8.34-7.64a14.58,14.58,0,0,0-9.33,3.39l-4.81-4.8a23.09,23.09,0,0,1,15.13-5.45c12.09,0,15.7,6.51,15.7,15.91V159h-8.35v-3a15.26,15.26,0,0,1-10.74,3.89c-8,0-13.79-4.95-13.79-11.95s5.8-12,13.79-12a16.75,16.75,0,0,1,10.74,3.53Zm0,13.79V146a12.56,12.56,0,0,0-8.62-3.25c-4.53,0-7.43,1.69-7.43,5.16s2.9,5.16,7.43,5.16A12.36,12.36,0,0,0,291.43,149.77Z"/> <path class="a" d="M330.69,128.55c-.71-.07-1.92-.14-3-.14a12.37,12.37,0,0,0-10.4,5.52v25H309V122.33h8.34v4.45a13.1,13.1,0,0,1,11-5.3c.78,0,1.63.07,2.34.14Z"/> <path class="a" d="M336.06,143.54V122.33h8.34v21.29c0,6.36,3.61,9.4,8.42,9.4s8.42-3,8.42-9.4V122.33h8.34v21.21c0,11-6.65,16.27-16.76,16.27S336.06,154.58,336.06,143.54Z"/> <path class="a" d="M391.36,121.48a20.29,20.29,0,0,1,14.72,5.8l-5.52,4.53a11.92,11.92,0,0,0-8.49-3.54c-3.46,0-5.23,1.06-5.23,3.18s1.41,3.33,8.41,5.38c8,2.33,12.17,5.79,12.17,11.88,0,6.71-4.88,11.1-14.29,11.1-6.86,0-12.87-2.26-17.18-7.07l5.87-4.67a15.29,15.29,0,0,0,10.61,5c4.24,0,6.08-1.41,6.08-3.89,0-2.76-1.63-4-7.92-5.8-9.55-2.69-12.66-6-12.66-11.66C377.93,125.65,382.74,121.48,391.36,121.48Z"/> </svg>
